<svg width="18" height="18" viewBox="0 0 18 18" fill="none" xmlns="http://www.w3.org/2000/svg">
    <path
        d="M6.40001 2.8336C5.73334 -0.0497386 1.39168 -0.0580719 0.725011 2.8336C0.333344 4.52526 1.40834 5.95859 2.34168 6.85026C3.02501 7.49193 4.10001 7.49193 4.78334 6.85026C5.71668 5.95859 6.78334 4.52526 6.40001 2.8336ZM3.59168 4.16693C3.13334 4.16693 2.75834 3.79193 2.75834 3.33359C2.75834 2.87526 3.12501 2.50026 3.58334 2.50026H3.59168C4.05834 2.50026 4.42501 2.87526 4.42501 3.33359C4.42501 3.79193 4.05834 4.16693 3.59168 4.16693ZM17.2583 12.8336C16.5917 9.95026 12.2333 9.94193 11.5583 12.8336C11.1667 14.5253 12.2417 15.9586 13.1833 16.8503C13.8667 17.4919 14.95 17.4919 15.6333 16.8503C16.575 15.9586 17.65 14.5253 17.2583 12.8336ZM14.4417 14.1669C13.9833 14.1669 13.6083 13.7919 13.6083 13.3336C13.6083 12.8753 13.975 12.5003 14.4333 12.5003H14.4417C14.9 12.5003 15.275 12.8753 15.275 13.3336C15.275 13.7919 14.9 14.1669 14.4417 14.1669ZM9.00001 15.4594H6.76668C5.80001 15.4594 4.95834 14.8761 4.62501 13.9761C4.28334 13.0761 4.53334 12.0844 5.25834 11.4428L11.9167 5.61776C12.3167 5.26776 12.325 4.79276 12.2083 4.46776C12.0833 4.14276 11.7667 3.79276 11.2333 3.79276H9.00001C8.65834 3.79276 8.37501 3.50943 8.37501 3.16776C8.37501 2.82609 8.65834 2.54276 9.00001 2.54276H11.2333C12.2 2.54276 13.0417 3.1261 13.375 4.0261C13.7167 4.9261 13.4667 5.91776 12.7417 6.55943L6.08334 12.3844C5.68334 12.7344 5.67501 13.2094 5.79168 13.5344C5.91668 13.8594 6.23334 14.2094 6.76668 14.2094H9.00001C9.34168 14.2094 9.62501 14.4928 9.62501 14.8344C9.62501 15.1761 9.34168 15.4594 9.00001 15.4594Z"
        fill="#FF3739" />
</svg>
    