<svg width="18" height="18" viewBox="0 0 18 18" fill="none" xmlns="http://www.w3.org/2000/svg">
    <path
        d="M6.39998 2.8336C5.73331 -0.0497386 1.39165 -0.0580719 0.72498 2.8336C0.333313 4.52526 1.40831 5.95859 2.34165 6.85026C3.02498 7.49193 4.09998 7.49193 4.78331 6.85026C5.71665 5.95859 6.78331 4.52526 6.39998 2.8336ZM3.59165 4.16693C3.13331 4.16693 2.75831 3.79193 2.75831 3.33359C2.75831 2.87526 3.12498 2.50026 3.58331 2.50026H3.59165C4.05831 2.50026 4.42498 2.87526 4.42498 3.33359C4.42498 3.79193 4.05831 4.16693 3.59165 4.16693ZM17.2583 12.8336C16.5916 9.95026 12.2333 9.94193 11.5583 12.8336C11.1666 14.5253 12.2416 15.9586 13.1833 16.8503C13.8666 17.4919 14.95 17.4919 15.6333 16.8503C16.575 15.9586 17.65 14.5253 17.2583 12.8336ZM14.4416 14.1669C13.9833 14.1669 13.6083 13.7919 13.6083 13.3336C13.6083 12.8753 13.975 12.5003 14.4333 12.5003H14.4416C14.9 12.5003 15.275 12.8753 15.275 13.3336C15.275 13.7919 14.9 14.1669 14.4416 14.1669ZM8.99998 15.4594H6.76665C5.79998 15.4594 4.95831 14.8761 4.62498 13.9761C4.28331 13.0761 4.53331 12.0844 5.25831 11.4428L11.9166 5.61776C12.3166 5.26776 12.325 4.79276 12.2083 4.46776C12.0833 4.14276 11.7666 3.79276 11.2333 3.79276H8.99998C8.65831 3.79276 8.37498 3.50943 8.37498 3.16776C8.37498 2.82609 8.65831 2.54276 8.99998 2.54276H11.2333C12.2 2.54276 13.0416 3.1261 13.375 4.0261C13.7166 4.9261 13.4666 5.91776 12.7416 6.55943L6.08331 12.3844C5.68331 12.7344 5.67498 13.2094 5.79165 13.5344C5.91665 13.8594 6.23331 14.2094 6.76665 14.2094H8.99998C9.34165 14.2094 9.62498 14.4928 9.62498 14.8344C9.62498 15.1761 9.34165 15.4594 8.99998 15.4594Z"
        fill="#00D2A8" />
</svg>
    