<svg width="20" height="20" viewBox="0 0 20 20" fill="none" xmlns="http://www.w3.org/2000/svg">
<path fill-rule="evenodd" clip-rule="evenodd" d="M2.00024 10C2.00024 5.59873 5.59897 2 10.0002 2C14.4015 2 18.0002 5.59873 18.0002 10C18.0002 14.4013 14.4015 18 10.0002 18C5.59897 18 2.00024 14.4013 2.00024 10Z" fill="#225765"/>
<path fill-rule="evenodd" clip-rule="evenodd" d="M3.13493 13.5375L7.21574 11.6617C7.70061 12.6469 8.71646 13.328 9.88591 13.328C11.0637 13.328 12.0856 12.6372 12.5663 11.6407C12.5663 11.6407 15.9344 13.1053 16.8802 13.5166C17.826 13.9278 18.4655 12.4624 17.519 12.0508L12.8392 10.0158C12.6681 8.54084 11.4069 7.38867 9.88591 7.38867C8.35901 7.38867 7.09395 8.54977 6.93074 10.0329L2.46588 12.0853C2.06441 12.2698 1.88872 12.7445 2.07347 13.1455C2.25822 13.5466 2.73345 13.7221 3.13493 13.5375ZM9.88591 8.98731C9.13283 8.98731 8.51335 9.6061 8.51335 10.3583C8.51335 11.1106 9.13283 11.7294 9.88591 11.7294C10.639 11.7294 11.2585 11.1106 11.2585 10.3583C11.2585 9.6061 10.639 8.98731 9.88591 8.98731Z" fill="white"/>
</svg>
