<svg width="20" height="20" viewBox="0 0 20 20" fill="none" xmlns="http://www.w3.org/2000/svg">
<path d="M9.99998 18.3568C9.77776 18.3568 9.56581 18.3151 9.36415 18.2318C9.16248 18.1484 8.97859 18.0304 8.81248 17.8776L2.12498 11.1901C1.9722 11.0234 1.85415 10.8393 1.77081 10.6376C1.68748 10.4359 1.64581 10.2243 1.64581 10.0026C1.64581 9.78039 1.68748 9.56511 1.77081 9.35678C1.85415 9.14844 1.9722 8.96789 2.12498 8.81511L8.81248 2.12761C8.97915 1.96094 9.16331 1.83928 9.36498 1.76261C9.56665 1.68594 9.77831 1.64789 9.99998 1.64844C10.2222 1.64844 10.4375 1.68678 10.6458 1.76344C10.8541 1.84011 11.0347 1.9615 11.1875 2.12761L17.875 8.81511C18.0416 8.96789 18.1633 9.14844 18.24 9.35678C18.3166 9.56511 18.3547 9.78039 18.3541 10.0026C18.3541 10.2248 18.3161 10.4368 18.24 10.6384C18.1639 10.8401 18.0422 11.024 17.875 11.1901L11.1875 17.8776C11.0347 18.0304 10.8541 18.1484 10.6458 18.2318C10.4375 18.3151 10.2222 18.3568 9.99998 18.3568ZM9.16665 10.8359H10.8333V5.83594H9.16665V10.8359ZM9.99998 13.3359C10.2361 13.3359 10.4341 13.2559 10.5941 13.0959C10.7541 12.9359 10.8339 12.7382 10.8333 12.5026C10.8333 12.2665 10.7533 12.0687 10.5933 11.9093C10.4333 11.7498 10.2355 11.6698 9.99998 11.6693C9.76387 11.6693 9.56609 11.7493 9.40665 11.9093C9.2472 12.0693 9.1672 12.2671 9.16665 12.5026C9.16665 12.7387 9.24665 12.9368 9.40665 13.0968C9.56665 13.2568 9.76442 13.3365 9.99998 13.3359Z" fill="#758E95"/>
</svg>
