<svg width="20" height="20" viewBox="0 0 20 20" fill="none" xmlns="http://www.w3.org/2000/svg">
    <path
        d="M7.4 3.8336C6.73333 0.950261 2.39166 0.941928 1.725 3.8336C1.33333 5.52526 2.40833 6.95859 3.34166 7.85026C4.025 8.49193 5.1 8.49193 5.78333 7.85026C6.71666 6.95859 7.78333 5.52526 7.4 3.8336ZM4.59166 5.16693C4.13333 5.16693 3.75833 4.79193 3.75833 4.33359C3.75833 3.87526 4.125 3.50026 4.58333 3.50026H4.59166C5.05833 3.50026 5.425 3.87526 5.425 4.33359C5.425 4.79193 5.05833 5.16693 4.59166 5.16693ZM18.2583 13.8336C17.5917 10.9503 13.2333 10.9419 12.5583 13.8336C12.1667 15.5253 13.2417 16.9586 14.1833 17.8503C14.8667 18.4919 15.95 18.4919 16.6333 17.8503C17.575 16.9586 18.65 15.5253 18.2583 13.8336ZM15.4417 15.1669C14.9833 15.1669 14.6083 14.7919 14.6083 14.3336C14.6083 13.8753 14.975 13.5003 15.4333 13.5003H15.4417C15.9 13.5003 16.275 13.8753 16.275 14.3336C16.275 14.7919 15.9 15.1669 15.4417 15.1669ZM10 16.4594H7.76666C6.8 16.4594 5.95833 15.8761 5.625 14.9761C5.28333 14.0761 5.53333 13.0844 6.25833 12.4428L12.9167 6.61776C13.3167 6.26776 13.325 5.79276 13.2083 5.46776C13.0833 5.14276 12.7667 4.79276 12.2333 4.79276H10C9.65833 4.79276 9.375 4.50943 9.375 4.16776C9.375 3.82609 9.65833 3.54276 10 3.54276H12.2333C13.2 3.54276 14.0417 4.1261 14.375 5.0261C14.7167 5.9261 14.4667 6.91776 13.7417 7.55943L7.08333 13.3844C6.68333 13.7344 6.675 14.2094 6.79166 14.5344C6.91666 14.8594 7.23333 15.2094 7.76666 15.2094H10C10.3417 15.2094 10.625 15.4928 10.625 15.8344C10.625 16.1761 10.3417 16.4594 10 16.4594Z"
        fill="#002ED0" />
</svg>
    