<svg width="20" height="20" viewBox="0 0 20 20" fill="none" xmlns="http://www.w3.org/2000/svg">
    <path
        d="M7.40001 3.8336C6.73334 0.950261 2.39168 0.941928 1.72501 3.8336C1.33334 5.52526 2.40834 6.95859 3.34168 7.85026C4.02501 8.49193 5.10001 8.49193 5.78334 7.85026C6.71668 6.95859 7.78334 5.52526 7.40001 3.8336ZM4.59168 5.16693C4.13334 5.16693 3.75834 4.79193 3.75834 4.33359C3.75834 3.87526 4.12501 3.50026 4.58334 3.50026H4.59168C5.05834 3.50026 5.42501 3.87526 5.42501 4.33359C5.42501 4.79193 5.05834 5.16693 4.59168 5.16693ZM18.2583 13.8336C17.5917 10.9503 13.2333 10.9419 12.5583 13.8336C12.1667 15.5253 13.2417 16.9586 14.1833 17.8503C14.8667 18.4919 15.95 18.4919 16.6333 17.8503C17.575 16.9586 18.65 15.5253 18.2583 13.8336ZM15.4417 15.1669C14.9833 15.1669 14.6083 14.7919 14.6083 14.3336C14.6083 13.8753 14.975 13.5003 15.4333 13.5003H15.4417C15.9 13.5003 16.275 13.8753 16.275 14.3336C16.275 14.7919 15.9 15.1669 15.4417 15.1669ZM10 16.4594H7.76668C6.80001 16.4594 5.95834 15.8761 5.62501 14.9761C5.28334 14.0761 5.53334 13.0844 6.25834 12.4428L12.9167 6.61776C13.3167 6.26776 13.325 5.79276 13.2083 5.46776C13.0833 5.14276 12.7667 4.79276 12.2333 4.79276H10C9.65834 4.79276 9.37501 4.50943 9.37501 4.16776C9.37501 3.82609 9.65834 3.54276 10 3.54276H12.2333C13.2 3.54276 14.0417 4.1261 14.375 5.0261C14.7167 5.9261 14.4667 6.91776 13.7417 7.55943L7.08334 13.3844C6.68334 13.7344 6.67501 14.2094 6.79168 14.5344C6.91668 14.8594 7.23334 15.2094 7.76668 15.2094H10C10.3417 15.2094 10.625 15.4928 10.625 15.8344C10.625 16.1761 10.3417 16.4594 10 16.4594Z"
        fill="#FE9603" />
</svg>
    