<svg width="20" height="20" viewBox="0 0 20 20" fill="none" xmlns="http://www.w3.org/2000/svg">
    <path
        d="M17.4388 6.10188H12.975C12.663 6.10188 12.415 5.82848 12.415 5.48453C12.415 5.14058 12.663 4.86719 12.975 4.86719H17.4388C17.7508 4.86719 17.9988 5.14058 17.9988 5.48453C17.9988 5.82848 17.7508 6.10188 17.4388 6.10188Z"
        fill="#758E95" />
    <path
        d="M5.53584 6.10188H2.55997C2.24799 6.10188 2 5.82848 2 5.48453C2 5.14058 2.24799 4.86719 2.55997 4.86719H5.53584C5.84783 4.86719 6.09582 5.14058 6.09582 5.48453C6.09582 5.82848 5.83983 6.10188 5.53584 6.10188Z"
        fill="#225765" />
    <path
        d="M8.51146 8.96719C10.2566 8.96719 11.6713 7.40752 11.6713 5.48359C11.6713 3.55965 10.2566 2 8.51146 2C6.76628 2 5.35156 3.55965 5.35156 5.48359C5.35156 7.40752 6.76628 8.96719 8.51146 8.96719Z"
        fill="#225765" />
    <path
        d="M17.4401 15.1253H14.4643C14.1523 15.1253 13.9043 14.8519 13.9043 14.508C13.9043 14.164 14.1523 13.8906 14.4643 13.8906H17.4401C17.7521 13.8906 18.0001 14.164 18.0001 14.508C18.0001 14.8519 17.7521 15.1253 17.4401 15.1253Z"
        fill="#225765" />
    <path
        d="M7.02377 15.1253H2.55997C2.24799 15.1253 2 14.8519 2 14.508C2 14.164 2.24799 13.8906 2.55997 13.8906H7.02377C7.33576 13.8906 7.58375 14.164 7.58375 14.508C7.58375 14.8519 7.32776 15.1253 7.02377 15.1253Z"
        fill="#225765" />
    <path
        d="M11.4875 17.9984C13.2326 17.9984 14.6474 16.4388 14.6474 14.5148C14.6474 12.5909 13.2326 11.0312 11.4875 11.0312C9.74232 11.0312 8.32764 12.5909 8.32764 14.5148C8.32764 16.4388 9.74232 17.9984 11.4875 17.9984Z"
        fill="#225765" />
</svg>
    