<svg width="21" height="20" viewBox="0 0 21 20" fill="none" xmlns="http://www.w3.org/2000/svg">
<path fill-rule="evenodd" clip-rule="evenodd" d="M2.64282 10C2.64282 5.59873 6.24155 2 10.6428 2C15.0441 2 18.6428 5.59873 18.6428 10C18.6428 14.4013 15.0441 18 10.6428 18C6.24155 18 2.64282 14.4013 2.64282 10Z" fill="#FF3739"/>
<path fill-rule="evenodd" clip-rule="evenodd" d="M3.7775 13.5395L7.85832 11.6636C8.34319 12.6489 9.35904 13.33 10.5285 13.33C11.7062 13.33 12.7282 12.6392 13.2089 11.6426C13.2089 11.6426 16.577 13.1072 17.5228 13.5185C18.4686 13.9298 19.1081 12.4643 18.1616 12.0527L13.4817 10.0177C13.3107 8.5428 12.0495 7.39062 10.5285 7.39062C9.00159 7.39062 7.73653 8.55172 7.57331 10.0349L3.10846 12.0872C2.70699 12.2718 2.5313 12.7465 2.71605 13.1475C2.9008 13.5485 3.37603 13.724 3.7775 13.5395ZM10.5285 8.98926C9.77541 8.98926 9.15593 9.60805 9.15593 10.3603C9.15593 11.1125 9.77541 11.7313 10.5285 11.7313C11.2816 11.7313 11.9011 11.1125 11.9011 10.3603C11.9011 9.60805 11.2816 8.98926 10.5285 8.98926Z" fill="white"/>
</svg>
