<svg width="18" height="18" viewBox="0 0 18 18" fill="none" xmlns="http://www.w3.org/2000/svg">
    <path
        d="M6.4 2.8336C5.73333 -0.0497386 1.39167 -0.0580719 0.724999 2.8336C0.333333 4.52526 1.40833 5.95859 2.34167 6.85026C3.025 7.49193 4.1 7.49193 4.78333 6.85026C5.71667 5.95859 6.78333 4.52526 6.4 2.8336ZM3.59167 4.16693C3.13333 4.16693 2.75833 3.79193 2.75833 3.33359C2.75833 2.87526 3.125 2.50026 3.58333 2.50026H3.59167C4.05833 2.50026 4.425 2.87526 4.425 3.33359C4.425 3.79193 4.05833 4.16693 3.59167 4.16693ZM17.2583 12.8336C16.5917 9.95026 12.2333 9.94193 11.5583 12.8336C11.1667 14.5253 12.2417 15.9586 13.1833 16.8503C13.8667 17.4919 14.95 17.4919 15.6333 16.8503C16.575 15.9586 17.65 14.5253 17.2583 12.8336ZM14.4417 14.1669C13.9833 14.1669 13.6083 13.7919 13.6083 13.3336C13.6083 12.8753 13.975 12.5003 14.4333 12.5003H14.4417C14.9 12.5003 15.275 12.8753 15.275 13.3336C15.275 13.7919 14.9 14.1669 14.4417 14.1669ZM9 15.4594H6.76667C5.8 15.4594 4.95833 14.8761 4.625 13.9761C4.28333 13.0761 4.53333 12.0844 5.25833 11.4428L11.9167 5.61776C12.3167 5.26776 12.325 4.79276 12.2083 4.46776C12.0833 4.14276 11.7667 3.79276 11.2333 3.79276H9C8.65833 3.79276 8.375 3.50943 8.375 3.16776C8.375 2.82609 8.65833 2.54276 9 2.54276H11.2333C12.2 2.54276 13.0417 3.1261 13.375 4.0261C13.7167 4.9261 13.4667 5.91776 12.7417 6.55943L6.08333 12.3844C5.68333 12.7344 5.675 13.2094 5.79167 13.5344C5.91667 13.8594 6.23333 14.2094 6.76667 14.2094H9C9.34167 14.2094 9.625 14.4928 9.625 14.8344C9.625 15.1761 9.34167 15.4594 9 15.4594Z"
        fill="#0592F6" />
</svg>
    