<svg width="20" height="20" viewBox="0 0 20 20" fill="none" xmlns="http://www.w3.org/2000/svg">
    <path fill-rule="evenodd" clip-rule="evenodd"
        d="M2.31711 8.19975C2.13948 7.53685 2.53312 6.85598 3.19539 6.67853L14.2331 3.72098C14.8954 3.54353 15.5769 3.937 15.7543 4.59926L16.2731 6.5355C16.2958 6.61978 16.2958 6.70853 16.2733 6.79283C16.2507 6.87713 16.2063 6.954 16.1446 7.01571C15.9593 7.20062 15.8259 7.43111 15.758 7.68397C15.6901 7.93682 15.69 8.2031 15.7578 8.456C15.8256 8.70889 15.9588 8.93946 16.144 9.12448C16.3293 9.3095 16.56 9.44244 16.8129 9.50991C16.8972 9.5325 16.9741 9.57689 17.0358 9.63861C17.0975 9.70034 17.1418 9.77722 17.1643 9.86153L17.6832 11.7978C17.8606 12.46 17.4671 13.1415 16.8049 13.319L5.76717 16.2765C5.44897 16.3618 5.10994 16.3172 4.82466 16.1525C4.53937 15.9877 4.3312 15.7165 4.24594 15.3983L3.72713 13.462C3.70444 13.3778 3.70431 13.2891 3.72676 13.2049C3.7492 13.1206 3.79343 13.0437 3.855 12.982C4.04034 12.7971 4.17369 12.5666 4.24159 12.3137C4.3095 12.0609 4.30958 11.7946 4.24182 11.5417C4.17406 11.2888 4.04085 11.0582 3.85561 10.8732C3.67037 10.6882 3.43965 10.5552 3.18668 10.4878C3.10248 10.4651 3.02574 10.4206 2.96417 10.3589C2.9026 10.2971 2.85837 10.2203 2.83592 10.136L2.31711 8.19975ZM11.7222 4.90812C11.8495 4.87402 11.9851 4.89187 12.0992 4.95775C12.2134 5.02364 12.2966 5.13216 12.3307 5.25943L12.4593 5.73933C12.4934 5.86661 12.4756 6.00222 12.4097 6.11634C12.3438 6.23045 12.2353 6.31372 12.108 6.34782C11.9807 6.38193 11.8451 6.36407 11.731 6.29819C11.6169 6.23231 11.5336 6.12379 11.4995 5.99651L11.3709 5.51661C11.3368 5.38933 11.3547 5.25372 11.4206 5.13961C11.4864 5.02549 11.595 4.94223 11.7222 4.90812ZM12.9737 7.65894C12.9396 7.53166 12.8563 7.42314 12.7422 7.35726C12.6281 7.29137 12.4925 7.27352 12.3652 7.30762C12.2379 7.34173 12.1294 7.425 12.0635 7.53911C11.9976 7.65322 11.9798 7.78884 12.0139 7.91611L12.1425 8.39601C12.1766 8.52329 12.2598 8.63181 12.3739 8.69769C12.4881 8.76357 12.6237 8.78143 12.7509 8.74733C12.8782 8.71322 12.9867 8.62995 13.0526 8.51584C13.1185 8.40173 13.1364 8.26611 13.1023 8.13884L12.9737 7.65894ZM13.0081 9.70713C13.1354 9.67302 13.271 9.69088 13.3851 9.75676C13.4992 9.82264 13.5825 9.93116 13.6166 10.0584L13.7452 10.5383C13.7793 10.6656 13.7615 10.8012 13.6956 10.9153C13.6297 11.0295 13.5212 11.1127 13.3939 11.1468C13.2666 11.1809 13.131 11.1631 13.0169 11.0972C12.9028 11.0313 12.8195 10.9228 12.7854 10.7955L12.6568 10.3156C12.6227 10.1883 12.6406 10.0527 12.7064 9.93861C12.7723 9.8245 12.8808 9.74123 13.0081 9.70713ZM14.2596 12.4579C14.2255 12.3307 14.1422 12.2221 14.0281 12.1563C13.914 12.0904 13.7783 12.0725 13.6511 12.1066C13.5238 12.1407 13.4153 12.224 13.3494 12.3381C13.2835 12.4522 13.2657 12.5878 13.2998 12.7151L13.4283 13.195C13.4624 13.3223 13.5457 13.4308 13.6598 13.4967C13.7739 13.5626 13.9096 13.5804 14.0368 13.5463C14.1641 13.5122 14.2726 13.429 14.3385 13.3148C14.4044 13.2007 14.4223 13.0651 14.3881 12.9378L14.2596 12.4579ZM6.16093 11.0275C6.12682 10.9002 6.14468 10.7646 6.21056 10.6505C6.27645 10.5364 6.38496 10.4531 6.51224 10.419L9.87154 9.51886C9.99882 9.48475 10.1344 9.50261 10.2485 9.56849C10.3627 9.63438 10.4459 9.74289 10.48 9.87017C10.5141 9.99745 10.4963 10.1331 10.4304 10.2472C10.3645 10.3613 10.256 10.4446 10.1287 10.4787L6.76942 11.3788C6.64214 11.4129 6.50653 11.395 6.39241 11.3291C6.2783 11.2633 6.19503 11.1547 6.16093 11.0275ZM7.0266 12.3386C6.89932 12.3727 6.7908 12.456 6.72492 12.5701C6.65903 12.6842 6.64118 12.8198 6.67528 12.9471C6.70939 13.0743 6.79266 13.1829 6.90677 13.2488C7.02088 13.3146 7.1565 13.3325 7.28377 13.2984L9.20338 12.784C9.33065 12.7499 9.43917 12.6667 9.50505 12.5525C9.57094 12.4384 9.58879 12.3028 9.55469 12.1755C9.52058 12.0483 9.43732 11.9397 9.3232 11.8739C9.20909 11.808 9.07348 11.7901 8.9462 11.8242L7.0266 12.3386Z"
        fill="#758E95" />
</svg>
    