<svg width="16" height="14" viewBox="0 0 16 14" fill="none" xmlns="http://www.w3.org/2000/svg">
    <path fill-rule="evenodd" clip-rule="evenodd"
        d="M0.317078 5.19975C0.139454 4.53685 0.533094 3.85598 1.19536 3.67853L12.2331 0.720982C12.8953 0.543529 13.5768 0.936998 13.7543 1.59926L14.2731 3.5355C14.2957 3.61978 14.2958 3.70853 14.2732 3.79283C14.2507 3.87713 14.2063 3.954 14.1446 4.01571C13.9593 4.20062 13.8259 4.43111 13.758 4.68397C13.6901 4.93682 13.69 5.2031 13.7578 5.456C13.8255 5.70889 13.9587 5.93946 14.144 6.12448C14.3292 6.3095 14.5599 6.44244 14.8129 6.50991C14.8972 6.5325 14.9741 6.57689 15.0358 6.63861C15.0974 6.70034 15.1418 6.77722 15.1643 6.86153L15.6831 8.79777C15.8606 9.46003 15.4671 10.1415 14.8048 10.319L3.76714 13.2765C3.44894 13.3618 3.10991 13.3172 2.82463 13.1525C2.53934 12.9877 2.33117 12.7165 2.24591 12.3983L1.7271 10.462C1.70441 10.3778 1.70428 10.2891 1.72673 10.2049C1.74917 10.1206 1.7934 10.0437 1.85497 9.98198C2.04031 9.79707 2.17365 9.56658 2.24156 9.31372C2.30947 9.06087 2.30955 8.79459 2.24179 8.54169C2.17403 8.2888 2.04082 8.05823 1.85558 7.87321C1.67034 7.68819 1.43962 7.55525 1.18665 7.48778C1.10245 7.46508 1.02571 7.42062 0.964144 7.35887C0.902574 7.29712 0.858342 7.22025 0.835892 7.13599L0.317078 5.19975ZM9.7222 1.90812C9.84948 1.87402 9.98509 1.89187 10.0992 1.95775C10.2133 2.02364 10.2966 2.13216 10.3307 2.25943L10.4593 2.73933C10.4934 2.86661 10.4755 3.00222 10.4096 3.11634C10.3438 3.23045 10.2352 3.31372 10.108 3.34782C9.98069 3.38193 9.84508 3.36407 9.73097 3.29819C9.61685 3.23231 9.53359 3.12379 9.49948 2.99651L9.37089 2.51661C9.33679 2.38933 9.35464 2.25372 9.42053 2.13961C9.48641 2.02549 9.59493 1.94223 9.7222 1.90812ZM10.9736 4.65894C10.9395 4.53166 10.8563 4.42314 10.7422 4.35726C10.628 4.29137 10.4924 4.27352 10.3651 4.30762C10.2379 4.34173 10.1294 4.425 10.0635 4.53911C9.99759 4.65322 9.97973 4.78884 10.0138 4.91611L10.1424 5.39601C10.1765 5.52329 10.2598 5.63181 10.3739 5.69769C10.488 5.76357 10.6236 5.78143 10.7509 5.74733C10.8782 5.71322 10.9867 5.62995 11.0526 5.51584C11.1185 5.40173 11.1363 5.26611 11.1022 5.13884L10.9736 4.65894ZM11.0081 6.70713C11.1354 6.67302 11.271 6.69088 11.3851 6.75676C11.4992 6.82264 11.5825 6.93116 11.6166 7.05844L11.7452 7.53834C11.7793 7.66562 11.7614 7.80123 11.6955 7.91534C11.6297 8.02946 11.5211 8.11272 11.3939 8.14683C11.2666 8.18093 11.131 8.16308 11.0169 8.09719C10.9027 8.03131 10.8195 7.92279 10.7854 7.79552L10.6568 7.31562C10.6227 7.18834 10.6405 7.05273 10.7064 6.93861C10.7723 6.8245 10.8808 6.74123 11.0081 6.70713ZM12.2595 9.45794C12.2254 9.33066 12.1422 9.22215 12.028 9.15626C11.9139 9.09038 11.7783 9.07252 11.651 9.10663C11.5238 9.14073 11.4152 9.224 11.3494 9.33811C11.2835 9.45223 11.2656 9.58784 11.2997 9.71512L11.4283 10.195C11.4624 10.3223 11.5457 10.4308 11.6598 10.4967C11.7739 10.5626 11.9095 10.5804 12.0368 10.5463C12.1641 10.5122 12.2726 10.429 12.3385 10.3148C12.4044 10.2007 12.4222 10.0651 12.3881 9.93784L12.2595 9.45794ZM4.1609 8.02747C4.12679 7.90019 4.14465 7.76458 4.21053 7.65047C4.27642 7.53635 4.38493 7.45309 4.51221 7.41898L7.87151 6.51886C7.99879 6.48475 8.1344 6.50261 8.24852 6.56849C8.36263 6.63438 8.4459 6.74289 8.48 6.87017C8.51411 6.99745 8.49625 7.13306 8.43037 7.24717C8.36448 7.36129 8.25597 7.44456 8.12869 7.47866L4.76939 8.37878C4.64211 8.41289 4.5065 8.39503 4.39238 8.32915C4.27827 8.26326 4.195 8.15475 4.1609 8.02747ZM5.02657 9.33858C4.89929 9.37269 4.79077 9.45596 4.72489 9.57007C4.659 9.68418 4.64115 9.8198 4.67525 9.94707C4.70936 10.0743 4.79263 10.1829 4.90674 10.2488C5.02085 10.3146 5.15647 10.3325 5.28374 10.2984L7.20334 9.78403C7.33062 9.74992 7.43914 9.66666 7.50502 9.55254C7.57091 9.43843 7.58876 9.30282 7.55466 9.17554C7.52055 9.04826 7.43728 8.93974 7.32317 8.87386C7.20906 8.80798 7.07344 8.79012 6.94617 8.82423L5.02657 9.33858Z"
        fill="#FE9603" />
</svg>
    