<svg width="16" height="14" viewBox="0 0 16 14" fill="none" xmlns="http://www.w3.org/2000/svg">
    <path fill-rule="evenodd" clip-rule="evenodd"
        d="M0.317139 5.19975C0.139515 4.53685 0.533155 3.85598 1.19542 3.67853L12.2331 0.720982C12.8954 0.543529 13.5769 0.936998 13.7544 1.59926L14.2732 3.5355C14.2958 3.61978 14.2958 3.70853 14.2733 3.79283C14.2507 3.87713 14.2064 3.954 14.1447 4.01571C13.9593 4.20062 13.826 4.43111 13.7581 4.68397C13.6902 4.93682 13.6901 5.2031 13.7578 5.456C13.8256 5.70889 13.9588 5.93946 14.144 6.12448C14.3293 6.3095 14.56 6.44244 14.813 6.50991C14.8973 6.5325 14.9741 6.57689 15.0358 6.63861C15.0975 6.70034 15.1418 6.77722 15.1644 6.86153L15.6832 8.79777C15.8606 9.46003 15.4672 10.1415 14.8049 10.319L3.7672 13.2765C3.449 13.3618 3.10997 13.3172 2.82469 13.1525C2.5394 12.9877 2.33123 12.7165 2.24597 12.3983L1.72716 10.462C1.70447 10.3778 1.70434 10.2891 1.72679 10.2049C1.74923 10.1206 1.79346 10.0437 1.85503 9.98198C2.04037 9.79707 2.17372 9.56658 2.24163 9.31372C2.30953 9.06087 2.30961 8.79459 2.24185 8.54169C2.17409 8.2888 2.04088 8.05823 1.85564 7.87321C1.6704 7.68819 1.43968 7.55525 1.18671 7.48778C1.10251 7.46508 1.02577 7.42062 0.964205 7.35887C0.902635 7.29712 0.858403 7.22025 0.835953 7.13599L0.317139 5.19975ZM9.72227 1.90812C9.84954 1.87402 9.98515 1.89187 10.0993 1.95775C10.2134 2.02364 10.2967 2.13216 10.3308 2.25943L10.4593 2.73933C10.4934 2.86661 10.4756 3.00222 10.4097 3.11634C10.3438 3.23045 10.2353 3.31372 10.108 3.34782C9.98075 3.38193 9.84514 3.36407 9.73103 3.29819C9.61691 3.23231 9.53365 3.12379 9.49954 2.99651L9.37095 2.51661C9.33685 2.38933 9.3547 2.25372 9.42059 2.13961C9.48647 2.02549 9.59499 1.94223 9.72227 1.90812ZM10.9737 4.65894C10.9396 4.53166 10.8563 4.42314 10.7422 4.35726C10.6281 4.29137 10.4925 4.27352 10.3652 4.30762C10.2379 4.34173 10.1294 4.425 10.0635 4.53911C9.99765 4.65322 9.97979 4.78884 10.0139 4.91611L10.1425 5.39601C10.1766 5.52329 10.2599 5.63181 10.374 5.69769C10.4881 5.76357 10.6237 5.78143 10.751 5.74733C10.8783 5.71322 10.9868 5.62995 11.0527 5.51584C11.1185 5.40173 11.1364 5.26611 11.1023 5.13884L10.9737 4.65894ZM11.0082 6.70713C11.1354 6.67302 11.271 6.69088 11.3852 6.75676C11.4993 6.82264 11.5825 6.93116 11.6166 7.05844L11.7452 7.53834C11.7793 7.66562 11.7615 7.80123 11.6956 7.91534C11.6297 8.02946 11.5212 8.11272 11.3939 8.14683C11.2666 8.18093 11.131 8.16308 11.0169 8.09719C10.9028 8.03131 10.8195 7.92279 10.7854 7.79552L10.6568 7.31562C10.6227 7.18834 10.6406 7.05273 10.7065 6.93861C10.7724 6.8245 10.8809 6.74123 11.0082 6.70713ZM12.2596 9.45794C12.2255 9.33066 12.1422 9.22215 12.0281 9.15626C11.914 9.09038 11.7784 9.07252 11.6511 9.10663C11.5238 9.14073 11.4153 9.224 11.3494 9.33811C11.2835 9.45223 11.2657 9.58784 11.2998 9.71512L11.4284 10.195C11.4625 10.3223 11.5457 10.4308 11.6599 10.4967C11.774 10.5626 11.9096 10.5804 12.0369 10.5463C12.1641 10.5122 12.2727 10.429 12.3385 10.3148C12.4044 10.2007 12.4223 10.0651 12.3882 9.93784L12.2596 9.45794ZM4.16096 8.02747C4.12686 7.90019 4.14471 7.76458 4.21059 7.65047C4.27648 7.53635 4.38499 7.45309 4.51227 7.41898L7.87157 6.51886C7.99885 6.48475 8.13446 6.50261 8.24858 6.56849C8.36269 6.63438 8.44596 6.74289 8.48006 6.87017C8.51417 6.99745 8.49631 7.13306 8.43043 7.24717C8.36455 7.36129 8.25603 7.44456 8.12875 7.47866L4.76945 8.37878C4.64217 8.41289 4.50656 8.39503 4.39244 8.32915C4.27833 8.26326 4.19506 8.15475 4.16096 8.02747ZM5.02663 9.33858C4.89935 9.37269 4.79083 9.45596 4.72495 9.57007C4.65906 9.68418 4.64121 9.8198 4.67532 9.94707C4.70942 10.0743 4.79269 10.1829 4.9068 10.2488C5.02091 10.3146 5.15653 10.3325 5.2838 10.2984L7.20341 9.78403C7.33068 9.74992 7.4392 9.66666 7.50508 9.55254C7.57097 9.43843 7.58882 9.30282 7.55472 9.17554C7.52061 9.04826 7.43735 8.93974 7.32323 8.87386C7.20912 8.80798 7.07351 8.79012 6.94623 8.82423L5.02663 9.33858Z"
        fill="#FF3739" />
</svg>
    