<svg width="20" height="20" viewBox="0 0 20 20" fill="none" xmlns="http://www.w3.org/2000/svg">
<path d="M2.80815 2L2 2.8076L3.42365 5.2679L4.34689 5.13259L9.98239 10.7648L9.50169 11.2262C9.25549 11.4722 9.25549 11.8449 9.50169 12.091L9.75158 12.3413C9.99778 12.5873 10.3745 12.5873 10.5591 12.3413L11.2903 13.0714C11.2288 13.4404 11.2903 13.879 11.5981 14.1865L14.9255 17.4926C15.6025 18.1691 16.7104 18.1691 17.3875 17.4926C18.1876 16.7545 18.1802 15.651 17.5032 14.9744L14.1949 11.6487C13.8871 11.3412 13.4483 11.2182 13.079 11.3412L12.2708 10.6111C12.4555 10.365 12.4555 9.98862 12.2708 9.80348L12.04 9.57344C11.9841 9.51514 11.9169 9.46874 11.8425 9.43704C11.7682 9.40535 11.6881 9.38901 11.6073 9.38901C11.5265 9.38901 11.4465 9.40535 11.3721 9.43704C11.2977 9.46874 11.2306 9.51514 11.1746 9.57344L10.7708 9.97693L5.13535 4.34529L5.26953 3.42267L2.80815 2ZM14.8104 2.01907C13.596 1.91819 11.9858 2.72272 11.2325 3.42206C10.3055 4.34836 10.4569 5.55945 11.1937 6.72871L9.88638 8.03575L10.8096 9.07339C11.302 8.64283 12.0283 8.64283 12.5207 9.07339L12.7712 9.32311L12.8291 9.38093L13.3676 8.84273C14.4805 9.49656 15.6388 9.59067 16.5221 8.70803C17.3838 7.90843 18.3181 5.93649 17.8872 4.76785L16.1565 6.55526C15.9103 6.80129 15.5373 6.80129 15.2911 6.55526L13.5018 4.76785C13.4435 4.71193 13.397 4.6448 13.3653 4.57049C13.3336 4.49618 13.3172 4.41623 13.3172 4.33545C13.3172 4.25466 13.3336 4.17471 13.3653 4.1004C13.397 4.02609 13.4435 3.95896 13.5018 3.90305L15.2917 2.11563C15.1378 2.06151 14.9839 2.03383 14.8104 2.01907ZM8.03988 9.68846L5.80809 11.9181C5.56826 11.8649 5.32315 11.8391 5.07749 11.8412C3.3541 11.8412 2 13.1944 2 14.9166C2 16.6388 3.3541 17.992 5.07749 17.992C6.80088 17.992 8.15498 16.6388 8.15498 14.9166C8.15498 14.6011 8.10512 14.2979 8.02019 14.0131L9.32812 12.706L9.13608 12.4563C8.64369 11.9642 8.64738 11.2188 9.07823 10.7261L8.03988 9.68846ZM12.81 12.4951C12.8869 12.4951 12.9596 12.5098 13.0211 12.5719L16.6569 16.2046C16.78 16.3276 16.78 16.5232 16.6569 16.6462C16.5338 16.7692 16.3368 16.7692 16.2137 16.6462L12.5792 13.0136C12.4561 12.8906 12.4561 12.695 12.5792 12.5719C12.6407 12.5104 12.7331 12.4951 12.81 12.4951ZM5.50095 13.3205L6.67409 14.4934L6.25063 16.0883L4.65464 16.5115L3.48089 15.3386L3.90435 13.7437L5.50095 13.3205Z" fill="#758E95"/>
</svg>
