<svg width="16" height="17" viewBox="0 0 16 17" fill="none" xmlns="http://www.w3.org/2000/svg">
<path fill-rule="evenodd" clip-rule="evenodd" d="M7.2498 14.6539C7.2498 15.0681 7.58559 15.4039 7.9998 15.4039C8.41402 15.4039 8.7498 15.0681 8.7498 14.6539L8.7498 9.25004H14.1544C14.5686 9.25004 14.9044 8.91425 14.9044 8.50004C14.9044 8.08582 14.5686 7.75004 14.1544 7.75004H8.7498L8.7498 2.34619C8.7498 1.93198 8.41402 1.59619 7.9998 1.59619C7.58559 1.59619 7.2498 1.93198 7.2498 2.34619L7.2498 7.75004H1.84668C1.43247 7.75004 1.09668 8.08582 1.09668 8.50004C1.09668 8.91425 1.43247 9.25004 1.84668 9.25004H7.2498L7.2498 14.6539Z" fill="#225765"/>
</svg>
