<svg width="114" height="29" viewBox="0 0 114 29" fill="none" xmlns="http://www.w3.org/2000/svg">
    <rect width="114" height="29" rx="5" fill="white" />
    <path
        d="M21.6667 13.2933H19.74C18.16 13.2933 16.8733 12.0066 16.8733 10.4266V8.49992C16.8733 8.13325 16.5733 7.83325 16.2067 7.83325H13.38C11.3267 7.83325 9.66666 9.16659 9.66666 11.5466V17.4533C9.66666 19.8333 11.3267 21.1666 13.38 21.1666H18.62C20.6733 21.1666 22.3333 19.8333 22.3333 17.4533V13.9599C22.3333 13.5933 22.0333 13.2933 21.6667 13.2933ZM15.6867 15.5199C15.5867 15.6199 15.46 15.6666 15.3333 15.6666C15.2067 15.6666 15.08 15.6199 14.98 15.5199L14.5 15.0399V17.8333C14.5 18.1066 14.2733 18.3333 14 18.3333C13.7267 18.3333 13.5 18.1066 13.5 17.8333V15.0399L13.02 15.5199C12.8267 15.7133 12.5067 15.7133 12.3133 15.5199C12.2203 15.4258 12.1682 15.2989 12.1682 15.1666C12.1682 15.0343 12.2203 14.9073 12.3133 14.8133L13.6467 13.4799C13.6933 13.4399 13.74 13.4066 13.7933 13.3799C13.8067 13.3733 13.8267 13.3666 13.84 13.3599C13.88 13.3466 13.92 13.3399 13.9667 13.3333H14.02C14.0733 13.3333 14.1267 13.3466 14.18 13.3666H14.1933C14.2467 13.3866 14.3 13.4266 14.34 13.4666C14.3467 13.4733 14.3533 13.4733 14.3533 13.4799L15.6867 14.8133C15.88 15.0066 15.88 15.3266 15.6867 15.5199Z"
        fill="#225765" />
    <path
        d="M19.62 12.3734C20.2533 12.3801 21.1333 12.3801 21.8867 12.3801C22.2667 12.3801 22.4667 11.9334 22.2 11.6667C21.24 10.7001 19.52 8.96008 18.5333 7.97341C18.26 7.70008 17.7867 7.88674 17.7867 8.26674V10.5934C17.7867 11.5667 18.6133 12.3734 19.62 12.3734Z"
        fill="#225765" />
    <path
        d="M29.233 20V9.81818H32.7926C33.5019 9.81818 34.0869 9.94081 34.5476 10.1861C35.0083 10.428 35.3513 10.7545 35.5767 11.1655C35.8021 11.5732 35.9148 12.0256 35.9148 12.5227C35.9148 12.9602 35.8369 13.3215 35.6811 13.6065C35.5286 13.8916 35.3265 14.117 35.0746 14.2827C34.826 14.4484 34.5559 14.571 34.2642 14.6506V14.75C34.5758 14.7699 34.889 14.8793 35.2038 15.0781C35.5187 15.277 35.7822 15.562 35.9943 15.9332C36.2064 16.3045 36.3125 16.7585 36.3125 17.2955C36.3125 17.8059 36.1965 18.2649 35.9645 18.6726C35.7325 19.0803 35.3662 19.4034 34.8658 19.642C34.3653 19.8807 33.714 20 32.9119 20H29.233ZM30.4659 18.9062H32.9119C33.7173 18.9062 34.2891 18.7505 34.6271 18.4389C34.9685 18.1241 35.1392 17.7429 35.1392 17.2955C35.1392 16.9508 35.0514 16.6326 34.8757 16.3409C34.7 16.0459 34.4498 15.8106 34.125 15.6349C33.8002 15.456 33.4157 15.3665 32.9716 15.3665H30.4659V18.9062ZM30.4659 14.2926H32.7528C33.1241 14.2926 33.4588 14.2197 33.7571 14.0739C34.0587 13.928 34.2973 13.7225 34.473 13.4574C34.652 13.1922 34.7415 12.8807 34.7415 12.5227C34.7415 12.0753 34.5857 11.6958 34.2741 11.3842C33.9626 11.0694 33.4688 10.9119 32.7926 10.9119H30.4659V14.2926ZM42.9918 16.8778V12.3636H44.1651V20H42.9918V18.7074H42.9123C42.7333 19.0952 42.4549 19.425 42.0771 19.6967C41.6992 19.9652 41.2219 20.0994 40.6452 20.0994C40.168 20.0994 39.7437 19.995 39.3725 19.7862C39.0013 19.5741 38.7096 19.2559 38.4975 18.8317C38.2854 18.4041 38.1793 17.8655 38.1793 17.2159V12.3636H39.3526V17.1364C39.3526 17.6932 39.5084 18.1373 39.82 18.4688C40.1348 18.8002 40.5359 18.9659 41.0231 18.9659C41.3147 18.9659 41.6114 18.8913 41.913 18.7422C42.2179 18.593 42.4731 18.3643 42.6786 18.0561C42.8874 17.7479 42.9918 17.3551 42.9918 16.8778ZM47.4874 9.81818V20H46.3141V9.81818H47.4874ZM50.7301 17.2159L50.7102 15.7642H50.9489L54.2898 12.3636H55.7415L52.1818 15.9631H52.0824L50.7301 17.2159ZM49.6364 20V9.81818H50.8097V20H49.6364ZM54.4886 20L51.5057 16.2216L52.3409 15.4062L55.9801 20H54.4886ZM66.0016 16.8778V12.3636H67.1749V20H66.0016V18.7074H65.9221C65.7431 19.0952 65.4647 19.425 65.0868 19.6967C64.709 19.9652 64.2317 20.0994 63.655 20.0994C63.1777 20.0994 62.7535 19.995 62.3823 19.7862C62.0111 19.5741 61.7194 19.2559 61.5073 18.8317C61.2952 18.4041 61.1891 17.8655 61.1891 17.2159V12.3636H62.3624V17.1364C62.3624 17.6932 62.5182 18.1373 62.8297 18.4688C63.1446 18.8002 63.5456 18.9659 64.0328 18.9659C64.3245 18.9659 64.6212 18.8913 64.9228 18.7422C65.2277 18.593 65.4829 18.3643 65.6884 18.0561C65.8972 17.7479 66.0016 17.3551 66.0016 16.8778ZM69.3239 22.8636V12.3636H70.4574V13.5767H70.5966C70.6828 13.4441 70.8021 13.2751 70.9545 13.0696C71.1103 12.8608 71.3324 12.6752 71.6207 12.5128C71.9124 12.3471 72.3068 12.2642 72.804 12.2642C73.447 12.2642 74.0137 12.425 74.5043 12.7464C74.9948 13.0679 75.3776 13.5237 75.6527 14.1136C75.9278 14.7036 76.0653 15.3996 76.0653 16.2017C76.0653 17.0104 75.9278 17.7114 75.6527 18.3047C75.3776 18.8946 74.9964 19.352 74.5092 19.6768C74.022 19.9983 73.4602 20.1591 72.8239 20.1591C72.3333 20.1591 71.9406 20.0779 71.6456 19.9155C71.3506 19.7498 71.1236 19.5625 70.9645 19.3537C70.8054 19.1416 70.6828 18.9659 70.5966 18.8267H70.4972V22.8636H69.3239ZM70.4773 16.1818C70.4773 16.7585 70.5618 17.2673 70.7308 17.7081C70.8999 18.1456 71.1468 18.4886 71.4716 18.7372C71.7964 18.9825 72.1941 19.1051 72.6648 19.1051C73.1553 19.1051 73.5646 18.9759 73.8928 18.7173C74.2242 18.4555 74.4728 18.1042 74.6385 17.6634C74.8075 17.2192 74.892 16.7254 74.892 16.1818C74.892 15.6449 74.8092 15.161 74.6435 14.7301C74.4811 14.2959 74.2341 13.9529 73.9027 13.701C73.5746 13.4458 73.1619 13.3182 72.6648 13.3182C72.1875 13.3182 71.7865 13.4392 71.4616 13.6811C71.1368 13.9197 70.8916 14.2545 70.7259 14.6854C70.5601 15.1129 70.4773 15.6117 70.4773 16.1818ZM79.0284 9.81818V20H77.8551V9.81818H79.0284ZM84.2797 20.1591C83.5903 20.1591 82.9854 19.995 82.465 19.6669C81.948 19.3388 81.5436 18.8797 81.252 18.2898C80.9636 17.6998 80.8194 17.0104 80.8194 16.2216C80.8194 15.4261 80.9636 14.7318 81.252 14.1385C81.5436 13.5452 81.948 13.0845 82.465 12.7564C82.9854 12.4283 83.5903 12.2642 84.2797 12.2642C84.969 12.2642 85.5723 12.4283 86.0893 12.7564C86.6097 13.0845 87.014 13.5452 87.3024 14.1385C87.594 14.7318 87.7399 15.4261 87.7399 16.2216C87.7399 17.0104 87.594 17.6998 87.3024 18.2898C87.014 18.8797 86.6097 19.3388 86.0893 19.6669C85.5723 19.995 84.969 20.1591 84.2797 20.1591ZM84.2797 19.1051C84.8033 19.1051 85.2342 18.9709 85.5723 18.7024C85.9103 18.4339 86.1606 18.081 86.323 17.6435C86.4854 17.206 86.5666 16.732 86.5666 16.2216C86.5666 15.7112 86.4854 15.2356 86.323 14.7947C86.1606 14.3539 85.9103 13.9976 85.5723 13.7259C85.2342 13.4541 84.8033 13.3182 84.2797 13.3182C83.756 13.3182 83.3251 13.4541 82.987 13.7259C82.649 13.9976 82.3987 14.3539 82.2363 14.7947C82.0739 15.2356 81.9927 15.7112 81.9927 16.2216C81.9927 16.732 82.0739 17.206 82.2363 17.6435C82.3987 18.081 82.649 18.4339 82.987 18.7024C83.3251 18.9709 83.756 19.1051 84.2797 19.1051ZM91.7781 20.179C91.2942 20.179 90.855 20.0878 90.4606 19.9055C90.0662 19.7199 89.753 19.4531 89.521 19.1051C89.2889 18.7538 89.1729 18.3295 89.1729 17.8324C89.1729 17.3949 89.2591 17.0402 89.4315 16.7685C89.6038 16.4934 89.8342 16.2779 90.1225 16.1222C90.4109 15.9664 90.729 15.8504 91.0771 15.7741C91.4284 15.6946 91.7814 15.6316 92.136 15.5852C92.6 15.5256 92.9762 15.4808 93.2646 15.451C93.5562 15.4179 93.7683 15.3632 93.9009 15.2869C94.0368 15.2107 94.1048 15.0781 94.1048 14.8892V14.8494C94.1048 14.3589 93.9705 13.9777 93.7021 13.706C93.4369 13.4342 93.0342 13.2983 92.494 13.2983C91.9338 13.2983 91.4947 13.4209 91.1765 13.6662C90.8583 13.9115 90.6346 14.1733 90.5053 14.4517L89.3917 14.054C89.5906 13.59 89.8557 13.2287 90.1871 12.9702C90.5219 12.7083 90.8865 12.526 91.2809 12.4233C91.6786 12.3172 92.0697 12.2642 92.4542 12.2642C92.6995 12.2642 92.9812 12.294 93.2994 12.3537C93.6209 12.41 93.9308 12.5277 94.229 12.7067C94.5307 12.8857 94.7809 13.1558 94.9798 13.517C95.1786 13.8783 95.2781 14.3622 95.2781 14.9688V20H94.1048V18.9659H94.0451C93.9656 19.1316 93.833 19.3089 93.6474 19.4979C93.4618 19.6868 93.2148 19.8475 92.9066 19.9801C92.5984 20.1127 92.2222 20.179 91.7781 20.179ZM91.957 19.125C92.421 19.125 92.8121 19.0339 93.1303 18.8516C93.4518 18.6693 93.6938 18.4339 93.8562 18.1456C94.0219 17.8572 94.1048 17.554 94.1048 17.2358V16.1619C94.055 16.2216 93.9457 16.2763 93.7766 16.326C93.6109 16.3724 93.4187 16.4138 93.1999 16.4503C92.9845 16.4834 92.774 16.5133 92.5685 16.5398C92.3664 16.563 92.2023 16.5829 92.0763 16.5994C91.7714 16.6392 91.4864 16.7038 91.2212 16.7933C90.9594 16.8795 90.7473 17.0104 90.5849 17.1861C90.4258 17.3584 90.3462 17.5937 90.3462 17.892C90.3462 18.2997 90.497 18.608 90.7987 18.8168C91.1036 19.0223 91.4897 19.125 91.957 19.125ZM100.303 20.1591C99.6667 20.1591 99.1049 19.9983 98.6177 19.6768C98.1305 19.352 97.7493 18.8946 97.4743 18.3047C97.1992 17.7114 97.0616 17.0104 97.0616 16.2017C97.0616 15.3996 97.1992 14.7036 97.4743 14.1136C97.7493 13.5237 98.1322 13.0679 98.6227 12.7464C99.1132 12.425 99.68 12.2642 100.323 12.2642C100.82 12.2642 101.213 12.3471 101.501 12.5128C101.793 12.6752 102.015 12.8608 102.167 13.0696C102.323 13.2751 102.444 13.4441 102.53 13.5767H102.63V9.81818H103.803V20H102.67V18.8267H102.53C102.444 18.9659 102.322 19.1416 102.162 19.3537C102.003 19.5625 101.776 19.7498 101.481 19.9155C101.186 20.0779 100.794 20.1591 100.303 20.1591ZM100.462 19.1051C100.933 19.1051 101.331 18.9825 101.655 18.7372C101.98 18.4886 102.227 18.1456 102.396 17.7081C102.565 17.2673 102.65 16.7585 102.65 16.1818C102.65 15.6117 102.567 15.1129 102.401 14.6854C102.235 14.2545 101.99 13.9197 101.665 13.6811C101.34 13.4392 100.939 13.3182 100.462 13.3182C99.965 13.3182 99.5507 13.4458 99.2193 13.701C98.8912 13.9529 98.6442 14.2959 98.4785 14.7301C98.3161 15.161 98.2349 15.6449 98.2349 16.1818C98.2349 16.7254 98.3178 17.2192 98.4835 17.6634C98.6525 18.1042 98.9011 18.4555 99.2292 18.7173C99.5607 18.9759 99.9717 19.1051 100.462 19.1051Z"
        fill="#225765" />
</svg>
    