<svg width="68" height="29" viewBox="0 0 68 29" fill="none" xmlns="http://www.w3.org/2000/svg">
    <rect width="68" height="29" rx="5" fill="white" />
    <path
        d="M9.33398 19.1644C9.33398 20.2977 10.2007 21.1644 11.334 21.1644H20.6673C21.8007 21.1644 22.6673 20.2977 22.6673 19.1644V13.8311H9.33398V19.1644ZM20.6673 9.16439H19.334V8.49772C19.334 8.09772 19.0673 7.83105 18.6673 7.83105C18.2673 7.83105 18.0007 8.09772 18.0007 8.49772V9.16439H14.0007V8.49772C14.0007 8.09772 13.734 7.83105 13.334 7.83105C12.934 7.83105 12.6673 8.09772 12.6673 8.49772V9.16439H11.334C10.2007 9.16439 9.33398 10.0311 9.33398 11.1644V12.4977H22.6673V11.1644C22.6673 10.0311 21.8007 9.16439 20.6673 9.16439Z"
        fill="#71939C" />
    <path
        d="M32.375 20H29.233V9.81818H32.5142C33.5019 9.81818 34.3471 10.022 35.0497 10.4297C35.7524 10.834 36.291 11.4157 36.6655 12.1747C37.04 12.9304 37.2273 13.8352 37.2273 14.8892C37.2273 15.9498 37.0384 16.8629 36.6605 17.6286C36.2827 18.3909 35.7325 18.9775 35.0099 19.3885C34.2874 19.7962 33.4091 20 32.375 20ZM30.4659 18.9062H32.2955C33.1373 18.9062 33.835 18.7438 34.3885 18.419C34.942 18.0942 35.3546 17.6319 35.6264 17.032C35.8982 16.4321 36.0341 15.7178 36.0341 14.8892C36.0341 14.0672 35.8999 13.3596 35.6314 12.7663C35.3629 12.1697 34.9619 11.7124 34.4283 11.3942C33.8946 11.0727 33.2301 10.9119 32.4347 10.9119H30.4659V18.9062ZM41.3835 20.179C40.8996 20.179 40.4605 20.0878 40.0661 19.9055C39.6716 19.7199 39.3584 19.4531 39.1264 19.1051C38.8944 18.7538 38.7784 18.3295 38.7784 17.8324C38.7784 17.3949 38.8646 17.0402 39.0369 16.7685C39.2093 16.4934 39.4396 16.2779 39.728 16.1222C40.0163 15.9664 40.3345 15.8504 40.6825 15.7741C41.0339 15.6946 41.3868 15.6316 41.7415 15.5852C42.2055 15.5256 42.5817 15.4808 42.87 15.451C43.1617 15.4179 43.3738 15.3632 43.5064 15.2869C43.6423 15.2107 43.7102 15.0781 43.7102 14.8892V14.8494C43.7102 14.3589 43.576 13.9777 43.3075 13.706C43.0424 13.4342 42.6397 13.2983 42.0994 13.2983C41.5393 13.2983 41.1001 13.4209 40.782 13.6662C40.4638 13.9115 40.2401 14.1733 40.1108 14.4517L38.9972 14.054C39.196 13.59 39.4612 13.2287 39.7926 12.9702C40.1274 12.7083 40.492 12.526 40.8864 12.4233C41.2841 12.3172 41.6752 12.2642 42.0597 12.2642C42.3049 12.2642 42.5866 12.294 42.9048 12.3537C43.2263 12.41 43.5362 12.5277 43.8345 12.7067C44.1361 12.8857 44.3864 13.1558 44.5852 13.517C44.7841 13.8783 44.8835 14.3622 44.8835 14.9688V20H43.7102V18.9659H43.6506C43.571 19.1316 43.4384 19.3089 43.2528 19.4979C43.0672 19.6868 42.8203 19.8475 42.5121 19.9801C42.2038 20.1127 41.8277 20.179 41.3835 20.179ZM41.5625 19.125C42.0265 19.125 42.4176 19.0339 42.7358 18.8516C43.0573 18.6693 43.2992 18.4339 43.4616 18.1456C43.6274 17.8572 43.7102 17.554 43.7102 17.2358V16.1619C43.6605 16.2216 43.5511 16.2763 43.3821 16.326C43.2164 16.3724 43.0241 16.4138 42.8054 16.4503C42.59 16.4834 42.3795 16.5133 42.174 16.5398C41.9718 16.563 41.8078 16.5829 41.6818 16.5994C41.3769 16.6392 41.0919 16.7038 40.8267 16.7933C40.5649 16.8795 40.3527 17.0104 40.1903 17.1861C40.0313 17.3584 39.9517 17.5937 39.9517 17.892C39.9517 18.2997 40.1025 18.608 40.4041 18.8168C40.709 19.0223 41.0952 19.125 41.5625 19.125ZM50.3461 12.3636V13.358H46.3887V12.3636H50.3461ZM47.5421 10.5341H48.7154V17.8125C48.7154 18.1439 48.7634 18.3925 48.8596 18.5582C48.959 18.7206 49.0849 18.83 49.2374 18.8864C49.3932 18.9394 49.5572 18.9659 49.7296 18.9659C49.8588 18.9659 49.9649 18.9593 50.0478 18.946C50.1306 18.9295 50.1969 18.9162 50.2466 18.9062L50.4853 19.9602C50.4057 19.9901 50.2947 20.0199 50.1522 20.0497C50.0096 20.0829 49.829 20.0994 49.6103 20.0994C49.2788 20.0994 48.954 20.0282 48.6358 19.8857C48.321 19.7431 48.0591 19.526 47.8503 19.2344C47.6448 18.9427 47.5421 18.5748 47.5421 18.1307V10.5341ZM55.2306 20.1591C54.4949 20.1591 53.8601 19.9967 53.3265 19.6719C52.7962 19.3438 52.3869 18.8864 52.0985 18.2997C51.8135 17.7098 51.671 17.0237 51.671 16.2415C51.671 15.4593 51.8135 14.7699 52.0985 14.1733C52.3869 13.5734 52.7879 13.1061 53.3017 12.7713C53.8187 12.4332 54.4219 12.2642 55.1113 12.2642C55.5091 12.2642 55.9018 12.3305 56.2896 12.4631C56.6774 12.5956 57.0304 12.8111 57.3485 13.1094C57.6667 13.4044 57.9203 13.7955 58.1092 14.2827C58.2981 14.7699 58.3926 15.3698 58.3926 16.0824V16.5795H52.5062V15.5653H57.1994C57.1994 15.1345 57.1132 14.75 56.9409 14.4119C56.7718 14.0739 56.5299 13.8071 56.215 13.6115C55.9035 13.416 55.5356 13.3182 55.1113 13.3182C54.644 13.3182 54.2396 13.4342 53.8983 13.6662C53.5602 13.8949 53.3 14.1932 53.1177 14.5611C52.9354 14.929 52.8443 15.3234 52.8443 15.7443V16.4205C52.8443 16.9972 52.9437 17.486 53.1426 17.8871C53.3448 18.2848 53.6248 18.5881 53.9828 18.7969C54.3407 19.0024 54.7567 19.1051 55.2306 19.1051C55.5389 19.1051 55.8173 19.062 56.0659 18.9759C56.3178 18.8864 56.5349 18.7538 56.7172 18.5781C56.8994 18.3991 57.0403 18.1771 57.1397 17.9119L58.2733 18.2301C58.1539 18.6146 57.9534 18.9527 57.6717 19.2443C57.39 19.5327 57.042 19.758 56.6277 19.9205C56.2134 20.0795 55.7477 20.1591 55.2306 20.1591Z"
        fill="#04242D" />
</svg>
    