<svg width="79" height="29" viewBox="0 0 79 29" fill="none" xmlns="http://www.w3.org/2000/svg">
    <rect width="79" height="29" rx="5" fill="white" />
    <path
        d="M22.0467 9.98659C20.9733 9.87992 19.9 9.79992 18.82 9.73992V9.73325L18.6733 8.86659C18.5733 8.25325 18.4267 7.33325 16.8667 7.33325H15.12C13.5667 7.33325 13.42 8.21325 13.3133 8.85992L13.1733 9.71325C12.5533 9.75325 11.9333 9.79325 11.3133 9.85325L9.95334 9.98659C9.67334 10.0133 9.47334 10.2599 9.5 10.5333C9.52667 10.8066 9.76667 11.0066 10.0467 10.9799L11.4067 10.8466C14.9 10.4999 18.42 10.6333 21.9533 10.9866H22.0067C22.26 10.9866 22.48 10.7933 22.5067 10.5333C22.5167 10.4001 22.4742 10.2683 22.3882 10.1661C22.3022 10.0639 22.1796 9.99946 22.0467 9.98659ZM20.82 11.9266C20.66 11.7599 20.44 11.6666 20.2133 11.6666H11.7867C11.56 11.6666 11.3333 11.7599 11.18 11.9266C11.0267 12.0933 10.94 12.3199 10.9533 12.5533L11.3667 19.3933C11.44 20.4066 11.5333 21.6733 13.86 21.6733H18.14C20.4667 21.6733 20.56 20.4133 20.6333 19.3933L21.0467 12.5599C21.06 12.3199 20.9733 12.0933 20.82 11.9266ZM17.1067 18.3333H14.8867C14.6133 18.3333 14.3867 18.1066 14.3867 17.8333C14.3867 17.5599 14.6133 17.3333 14.8867 17.3333H17.1067C17.38 17.3333 17.6067 17.5599 17.6067 17.8333C17.6067 18.1066 17.38 18.3333 17.1067 18.3333ZM17.6667 15.6666H14.3333C14.06 15.6666 13.8333 15.4399 13.8333 15.1666C13.8333 14.8933 14.06 14.6666 14.3333 14.6666H17.6667C17.94 14.6666 18.1667 14.8933 18.1667 15.1666C18.1667 15.4399 17.94 15.6666 17.6667 15.6666Z"
        fill="#225765" />
    <path
        d="M32.375 20H29.233V9.81818H32.5142C33.5019 9.81818 34.3471 10.022 35.0497 10.4297C35.7524 10.834 36.291 11.4157 36.6655 12.1747C37.04 12.9304 37.2273 13.8352 37.2273 14.8892C37.2273 15.9498 37.0384 16.8629 36.6605 17.6286C36.2827 18.3909 35.7325 18.9775 35.0099 19.3885C34.2874 19.7962 33.4091 20 32.375 20ZM30.4659 18.9062H32.2955C33.1373 18.9062 33.835 18.7438 34.3885 18.419C34.942 18.0942 35.3546 17.6319 35.6264 17.032C35.8982 16.4321 36.0341 15.7178 36.0341 14.8892C36.0341 14.0672 35.8999 13.3596 35.6314 12.7663C35.3629 12.1697 34.9619 11.7124 34.4283 11.3942C33.8946 11.0727 33.2301 10.9119 32.4347 10.9119H30.4659V18.9062ZM42.3381 20.1591C41.6023 20.1591 40.9676 19.9967 40.4339 19.6719C39.9036 19.3438 39.4943 18.8864 39.206 18.2997C38.9209 17.7098 38.7784 17.0237 38.7784 16.2415C38.7784 15.4593 38.9209 14.7699 39.206 14.1733C39.4943 13.5734 39.8954 13.1061 40.4091 12.7713C40.9261 12.4332 41.5294 12.2642 42.2188 12.2642C42.6165 12.2642 43.0092 12.3305 43.397 12.4631C43.7848 12.5956 44.1378 12.8111 44.456 13.1094C44.7741 13.4044 45.0277 13.7955 45.2166 14.2827C45.4055 14.7699 45.5 15.3698 45.5 16.0824V16.5795H39.6136V15.5653H44.3068C44.3068 15.1345 44.2206 14.75 44.0483 14.4119C43.8793 14.0739 43.6373 13.8071 43.3224 13.6115C43.0109 13.416 42.643 13.3182 42.2188 13.3182C41.7514 13.3182 41.3471 13.4342 41.0057 13.6662C40.6676 13.8949 40.4074 14.1932 40.2251 14.5611C40.0429 14.929 39.9517 15.3234 39.9517 15.7443V16.4205C39.9517 16.9972 40.0511 17.486 40.25 17.8871C40.4522 18.2848 40.7322 18.5881 41.0902 18.7969C41.4482 19.0024 41.8641 19.1051 42.3381 19.1051C42.6463 19.1051 42.9247 19.062 43.1733 18.9759C43.4252 18.8864 43.6423 18.7538 43.8246 18.5781C44.0069 18.3991 44.1477 18.1771 44.2472 17.9119L45.3807 18.2301C45.2614 18.6146 45.0608 18.9527 44.7791 19.2443C44.4974 19.5327 44.1494 19.758 43.7351 19.9205C43.3208 20.0795 42.8551 20.1591 42.3381 20.1591ZM48.4581 9.81818V20H47.2848V9.81818H48.4581ZM53.8088 20.1591C53.073 20.1591 52.4383 19.9967 51.9047 19.6719C51.3743 19.3438 50.965 18.8864 50.6767 18.2997C50.3916 17.7098 50.2491 17.0237 50.2491 16.2415C50.2491 15.4593 50.3916 14.7699 50.6767 14.1733C50.965 13.5734 51.3661 13.1061 51.8798 12.7713C52.3968 12.4332 53.0001 12.2642 53.6895 12.2642C54.0872 12.2642 54.4799 12.3305 54.8677 12.4631C55.2555 12.5956 55.6085 12.8111 55.9267 13.1094C56.2449 13.4044 56.4984 13.7955 56.6873 14.2827C56.8762 14.7699 56.9707 15.3698 56.9707 16.0824V16.5795H51.0843V15.5653H55.7775C55.7775 15.1345 55.6913 14.75 55.519 14.4119C55.35 14.0739 55.108 13.8071 54.7931 13.6115C54.4816 13.416 54.1137 13.3182 53.6895 13.3182C53.2221 13.3182 52.8178 13.4342 52.4764 13.6662C52.1383 13.8949 51.8781 14.1932 51.6958 14.5611C51.5136 14.929 51.4224 15.3234 51.4224 15.7443V16.4205C51.4224 16.9972 51.5218 17.486 51.7207 17.8871C51.9229 18.2848 52.2029 18.5881 52.5609 18.7969C52.9189 19.0024 53.3348 19.1051 53.8088 19.1051C54.117 19.1051 54.3954 19.062 54.644 18.9759C54.8959 18.8864 55.113 18.7538 55.2953 18.5781C55.4776 18.3991 55.6184 18.1771 55.7179 17.9119L56.8514 18.2301C56.7321 18.6146 56.5315 18.9527 56.2498 19.2443C55.9681 19.5327 55.6201 19.758 55.2058 19.9205C54.7915 20.0795 54.3258 20.1591 53.8088 20.1591ZM62.0765 12.3636V13.358H58.1191V12.3636H62.0765ZM59.2725 10.5341H60.4458V17.8125C60.4458 18.1439 60.4939 18.3925 60.59 18.5582C60.6895 18.7206 60.8154 18.83 60.9679 18.8864C61.1236 18.9394 61.2877 18.9659 61.46 18.9659C61.5893 18.9659 61.6954 18.9593 61.7782 18.946C61.8611 18.9295 61.9274 18.9162 61.9771 18.9062L62.2157 19.9602C62.1362 19.9901 62.0252 20.0199 61.8826 20.0497C61.7401 20.0829 61.5595 20.0994 61.3407 20.0994C61.0093 20.0994 60.6845 20.0282 60.3663 19.8857C60.0514 19.7431 59.7896 19.526 59.5808 19.2344C59.3753 18.9427 59.2725 18.5748 59.2725 18.1307V10.5341ZM66.9611 20.1591C66.2253 20.1591 65.5906 19.9967 65.057 19.6719C64.5267 19.3438 64.1174 18.8864 63.829 18.2997C63.544 17.7098 63.4015 17.0237 63.4015 16.2415C63.4015 15.4593 63.544 14.7699 63.829 14.1733C64.1174 13.5734 64.5184 13.1061 65.0321 12.7713C65.5492 12.4332 66.1524 12.2642 66.8418 12.2642C67.2395 12.2642 67.6323 12.3305 68.0201 12.4631C68.4078 12.5956 68.7608 12.8111 69.079 13.1094C69.3972 13.4044 69.6507 13.7955 69.8397 14.2827C70.0286 14.7699 70.123 15.3698 70.123 16.0824V16.5795H64.2367V15.5653H68.9299C68.9299 15.1345 68.8437 14.75 68.6713 14.4119C68.5023 14.0739 68.2604 13.8071 67.9455 13.6115C67.6339 13.416 67.266 13.3182 66.8418 13.3182C66.3745 13.3182 65.9701 13.4342 65.6287 13.6662C65.2907 13.8949 65.0305 14.1932 64.8482 14.5611C64.6659 14.929 64.5748 15.3234 64.5748 15.7443V16.4205C64.5748 16.9972 64.6742 17.486 64.873 17.8871C65.0752 18.2848 65.3553 18.5881 65.7132 18.7969C66.0712 19.0024 66.4872 19.1051 66.9611 19.1051C67.2694 19.1051 67.5478 19.062 67.7963 18.9759C68.0482 18.8864 68.2653 18.7538 68.4476 18.5781C68.6299 18.3991 68.7708 18.1771 68.8702 17.9119L70.0037 18.2301C69.8844 18.6146 69.6839 18.9527 69.4022 19.2443C69.1204 19.5327 68.7724 19.758 68.3581 19.9205C67.9438 20.0795 67.4782 20.1591 66.9611 20.1591Z"
        fill="#225765" />
</svg>
    