<svg width="20" height="20" viewBox="0 0 20 20" fill="none" xmlns="http://www.w3.org/2000/svg">
    <path
        d="M17.5584 4.35834C16.2167 4.225 14.875 4.12501 13.525 4.05001V4.04167L13.3417 2.95834C13.2167 2.19167 13.0334 1.04167 11.0834 1.04167H8.90005C6.95838 1.04167 6.77505 2.14167 6.64172 2.95001L6.46672 4.01667C5.69172 4.06667 4.91672 4.11667 4.14172 4.19167L2.44172 4.35834C2.09172 4.39167 1.84172 4.70001 1.87505 5.04167C1.90838 5.38334 2.20838 5.63334 2.55838 5.6L4.25838 5.43334C8.62505 5.00001 13.0251 5.16667 17.4417 5.60834H17.5084C17.8251 5.60834 18.1 5.36667 18.1334 5.04167C18.1459 4.8752 18.0928 4.71044 17.9853 4.58271C17.8778 4.45497 17.7245 4.37443 17.5584 4.35834ZM16.0251 6.78334C15.825 6.57501 15.55 6.45834 15.2667 6.45834H4.73338C4.45005 6.45834 4.16672 6.57501 3.97505 6.78334C3.78338 6.99167 3.67505 7.275 3.69172 7.56667L4.20838 16.1167C4.30005 17.3833 4.41672 18.9667 7.32505 18.9667H12.675C15.5834 18.9667 15.7001 17.3917 15.7917 16.1167L16.3084 7.57501C16.3251 7.275 16.2167 6.99167 16.0251 6.78334ZM11.3834 14.7917H8.60838C8.26672 14.7917 7.98338 14.5083 7.98338 14.1667C7.98338 13.825 8.26672 13.5417 8.60838 13.5417H11.3834C11.725 13.5417 12.0084 13.825 12.0084 14.1667C12.0084 14.5083 11.725 14.7917 11.3834 14.7917ZM12.0834 11.4583H7.91672C7.57505 11.4583 7.29172 11.175 7.29172 10.8333C7.29172 10.4917 7.57505 10.2083 7.91672 10.2083H12.0834C12.425 10.2083 12.7084 10.4917 12.7084 10.8333C12.7084 11.175 12.425 11.4583 12.0834 11.4583Z"
        fill="#FF3739" />
</svg>
    