<svg width="20" height="20" viewBox="0 0 20 20" fill="none" xmlns="http://www.w3.org/2000/svg">
    <rect width="20" height="20" rx="4" fill="#33B8D3" fill-opacity="0.08" />
    <path fill-rule="evenodd" clip-rule="evenodd"
        d="M2.00021 10C2.00021 5.59873 5.59894 2 10.0002 2C14.4015 2 18.0002 5.59873 18.0002 10C18.0002 14.4013 14.4015 18 10.0002 18C5.59894 18 2.00021 14.4013 2.00021 10Z"
        fill="#04242D" />
    <path fill-rule="evenodd" clip-rule="evenodd"
        d="M3.13493 13.5395L7.21574 11.6636C7.70061 12.6489 8.71646 13.33 9.88591 13.33C11.0637 13.33 12.0856 12.6392 12.5663 11.6426C12.5663 11.6426 15.9344 13.1072 16.8802 13.5185C17.826 13.9298 18.4655 12.4643 17.519 12.0527L12.8392 10.0177C12.6681 8.5428 11.4069 7.39062 9.88591 7.39062C8.35901 7.39062 7.09395 8.55172 6.93074 10.0349L2.46588 12.0872C2.06441 12.2718 1.88872 12.7465 2.07347 13.1475C2.25822 13.5485 2.73345 13.724 3.13493 13.5395ZM9.88591 8.98926C9.13283 8.98926 8.51335 9.60805 8.51335 10.3603C8.51335 11.1125 9.13283 11.7313 9.88591 11.7313C10.639 11.7313 11.2585 11.1125 11.2585 10.3603C11.2585 9.60805 10.639 8.98926 9.88591 8.98926Z"
        fill="white" />
</svg>
    