<svg width="22" height="21" viewBox="0 0 22 21" fill="none" xmlns="http://www.w3.org/2000/svg">
    <rect x="0.402344" width="21" height="21" rx="10.5" fill="#E6F6F6" />
    <path
        d="M15.4023 15.9998H6.40234C6.19734 15.9998 6.02734 15.8298 6.02734 15.6248C6.02734 15.4198 6.19734 15.2498 6.40234 15.2498H15.4023C15.6073 15.2498 15.7773 15.4198 15.7773 15.6248C15.7773 15.8298 15.6073 15.9998 15.4023 15.9998ZM14.4123 6.74081C13.4423 5.77081 12.4923 5.74581 11.4973 6.74081L10.8923 7.34581C10.8423 7.39581 10.8223 7.47581 10.8423 7.54581C11.0336 8.202 11.3872 8.79937 11.8705 9.28267C12.3538 9.76597 12.9512 10.1196 13.6073 10.3108C13.6428 10.3224 13.6808 10.3239 13.717 10.315C13.7532 10.3062 13.7862 10.2874 13.8123 10.2608L14.4123 9.65581C14.9073 9.16581 15.1473 8.69081 15.1473 8.21081C15.1523 7.71581 14.9123 7.23581 14.4123 6.74081ZM12.7073 10.7648C12.5623 10.6948 12.4223 10.6248 12.2873 10.5448C12.1777 10.4795 12.0709 10.4094 11.9673 10.3348C11.8823 10.2798 11.7823 10.1998 11.6873 10.1198C11.6567 10.0975 11.6283 10.0724 11.6023 10.0448C11.4373 9.90481 11.2523 9.72481 11.0873 9.52481C11.0723 9.51481 11.0473 9.47981 11.0123 9.43481C10.9623 9.37481 10.8773 9.27481 10.8023 9.15981C10.7311 9.06577 10.6659 8.96723 10.6073 8.86481C10.5273 8.72981 10.4573 8.59481 10.3873 8.45481C10.3769 8.43242 10.3668 8.40992 10.3568 8.38731C10.2828 8.22081 10.0653 8.17231 9.93684 8.30081L7.07234 11.1653C7.00734 11.2303 6.94734 11.3553 6.93234 11.4403L6.66234 13.3553C6.61234 13.6953 6.70734 14.0153 6.91734 14.2303C7.09734 14.4053 7.34734 14.5003 7.61734 14.5003C7.67734 14.5003 7.73734 14.4953 7.79734 14.4853L9.71734 14.2153C9.80734 14.2003 9.93234 14.1403 9.99234 14.0753L12.8533 11.2148C12.9833 11.0848 12.9338 10.8623 12.7653 10.7898C12.746 10.7815 12.7267 10.7732 12.7073 10.7648Z"
        fill="#225765" />
</svg>
    