<svg width="20" height="20" viewBox="0 0 20 20" fill="none" xmlns="http://www.w3.org/2000/svg">
    <path
        d="M14.962 5.04078C13.5923 3.67079 12.2508 3.63548 10.8458 5.04078L9.99154 5.89526C9.92093 5.96587 9.89269 6.07886 9.92093 6.17773C10.191 7.10451 10.6903 7.94821 11.3727 8.6308C12.0552 9.31339 12.8987 9.81283 13.8253 10.0829C13.8753 10.0993 13.929 10.1014 13.9801 10.0889C14.0313 10.0764 14.0779 10.0499 14.1148 10.0123L14.962 9.15781C15.661 8.46575 15.9999 7.79488 15.9999 7.11695C16.007 6.41783 15.6681 5.7399 14.962 5.04078ZM12.5544 10.7241C12.3497 10.6253 12.152 10.5264 11.9614 10.4134C11.8065 10.3211 11.6558 10.2222 11.5095 10.1168C11.3895 10.0391 11.2483 9.92614 11.1141 9.81315C11.0709 9.78164 11.0307 9.74618 10.9941 9.70722C10.7611 9.50949 10.4999 9.25526 10.2669 8.97279C10.2457 8.95867 10.2104 8.90924 10.161 8.84568C10.0904 8.76094 9.97036 8.6197 9.86445 8.45728C9.76381 8.32446 9.67183 8.18529 9.5891 8.04063C9.47613 7.84996 9.37729 7.6593 9.27844 7.46156C9.26374 7.42994 9.24939 7.39816 9.23537 7.36623C9.13088 7.13107 8.82376 7.06257 8.6423 7.24406L4.59743 11.2898C4.50565 11.3816 4.42092 11.5581 4.39974 11.6782L4.01848 14.3828C3.94788 14.863 4.08203 15.315 4.37856 15.6187C4.63273 15.8658 4.98575 16 5.36701 16C5.45173 16 5.53646 15.9929 5.62118 15.9788L8.33236 15.5975C8.45944 15.5763 8.63595 15.4915 8.72067 15.3997L12.7606 11.3597C12.9442 11.1761 12.8743 10.8618 12.6363 10.7594C12.609 10.7477 12.5817 10.736 12.5544 10.7241Z"
        fill="#225765" />
</svg>
     