<svg width="48" height="25" viewBox="0 0 48 25" fill="none" xmlns="http://www.w3.org/2000/svg">
    <rect width="48" height="25" rx="2" fill="#04A7A7" fill-opacity="0.1" />
    <path
        d="M5.4976 18V7.81818H11.6425V8.91193H6.73056V12.3523H11.3243V13.446H6.73056V16.9062H11.722V18H5.4976ZM16.5892 18.1591C15.9529 18.1591 15.3911 17.9983 14.9039 17.6768C14.4166 17.352 14.0355 16.8946 13.7604 16.3047C13.4853 15.7114 13.3477 15.0104 13.3477 14.2017C13.3477 13.3996 13.4853 12.7036 13.7604 12.1136C14.0355 11.5237 14.4183 11.0679 14.9088 10.7464C15.3994 10.425 15.9661 10.2642 16.6091 10.2642C17.1063 10.2642 17.499 10.3471 17.7874 10.5128C18.079 10.6752 18.3011 10.8608 18.4536 11.0696C18.6093 11.2751 18.7303 11.4441 18.8165 11.5767H18.9159V7.81818H20.0892V18H18.9557V16.8267H18.8165C18.7303 16.9659 18.6077 17.1416 18.4486 17.3537C18.2895 17.5625 18.0625 17.7498 17.7675 17.9155C17.4725 18.0779 17.0798 18.1591 16.5892 18.1591ZM16.7483 17.1051C17.219 17.1051 17.6167 16.9825 17.9415 16.7372C18.2663 16.4886 18.5132 16.1456 18.6823 15.7081C18.8513 15.2673 18.9358 14.7585 18.9358 14.1818C18.9358 13.6117 18.853 13.1129 18.6872 12.6854C18.5215 12.2545 18.2762 11.9197 17.9514 11.6811C17.6266 11.4392 17.2256 11.3182 16.7483 11.3182C16.2512 11.3182 15.8369 11.4458 15.5054 11.701C15.1773 11.9529 14.9304 12.2959 14.7646 12.7301C14.6022 13.161 14.521 13.6449 14.521 14.1818C14.521 14.7254 14.6039 15.2192 14.7696 15.6634C14.9387 16.1042 15.1872 16.4555 15.5154 16.7173C15.8468 16.9759 16.2578 17.1051 16.7483 17.1051ZM22.401 18V10.3636H23.5743V18H22.401ZM22.9976 9.09091C22.7689 9.09091 22.5717 9.01302 22.406 8.85724C22.2436 8.70147 22.1624 8.5142 22.1624 8.29545C22.1624 8.0767 22.2436 7.88944 22.406 7.73366C22.5717 7.57789 22.7689 7.5 22.9976 7.5C23.2263 7.5 23.4218 7.57789 23.5843 7.73366C23.75 7.88944 23.8328 8.0767 23.8328 8.29545C23.8328 8.5142 23.75 8.70147 23.5843 8.85724C23.4218 9.01302 23.2263 9.09091 22.9976 9.09091ZM29.0443 10.3636V11.358H25.0869V10.3636H29.0443ZM26.2403 8.53409H27.4136V15.8125C27.4136 16.1439 27.4617 16.3925 27.5578 16.5582C27.6572 16.7206 27.7832 16.83 27.9356 16.8864C28.0914 16.9394 28.2555 16.9659 28.4278 16.9659C28.5571 16.9659 28.6631 16.9593 28.746 16.946C28.8289 16.9295 28.8952 16.9162 28.9449 16.9062L29.1835 17.9602C29.104 17.9901 28.9929 18.0199 28.8504 18.0497C28.7079 18.0829 28.5273 18.0994 28.3085 18.0994C27.9771 18.0994 27.6523 18.0282 27.3341 17.8857C27.0192 17.7431 26.7574 17.526 26.5486 17.2344C26.3431 16.9427 26.2403 16.5748 26.2403 16.1307V8.53409Z"
        fill="#225765" />
    <path
        d="M42.75 16.6659H35.25C35.0792 16.6659 34.9375 16.5242 34.9375 16.3534C34.9375 16.1825 35.0792 16.0409 35.25 16.0409H42.75C42.9208 16.0409 43.0625 16.1825 43.0625 16.3534C43.0625 16.5242 42.9208 16.6659 42.75 16.6659ZM41.925 8.95002C41.1167 8.14169 40.325 8.12086 39.4958 8.95002L38.9917 9.45419C38.95 9.49586 38.9333 9.56252 38.95 9.62086C39.1094 10.1677 39.404 10.6655 39.8068 11.0682C40.2095 11.471 40.7073 11.7657 41.2542 11.925C41.2837 11.9347 41.3153 11.9359 41.3455 11.9286C41.3757 11.9212 41.4032 11.9055 41.425 11.8834L41.925 11.3792C42.3375 10.9709 42.5375 10.575 42.5375 10.175C42.5417 9.76252 42.3417 9.36252 41.925 8.95002ZM40.5042 12.3034C40.3833 12.245 40.2667 12.1867 40.1542 12.12C40.0628 12.0656 39.9738 12.0072 39.8875 11.945C39.8167 11.8992 39.7333 11.8325 39.6542 11.7659C39.6287 11.7473 39.605 11.7263 39.5833 11.7034C39.4458 11.5867 39.2917 11.4367 39.1542 11.27C39.1417 11.2617 39.1208 11.2325 39.0917 11.195C39.05 11.145 38.9792 11.0617 38.9167 10.9659C38.8573 10.8875 38.803 10.8054 38.7542 10.72C38.6875 10.6075 38.6292 10.495 38.5708 10.3784C38.5622 10.3597 38.5537 10.3409 38.5454 10.3221C38.4838 10.1834 38.3025 10.1429 38.1954 10.25L35.8083 12.6371C35.7542 12.6913 35.7042 12.7954 35.6917 12.8663L35.4667 14.4621C35.425 14.7454 35.5042 15.0121 35.6792 15.1913C35.8292 15.3371 36.0375 15.4163 36.2625 15.4163C36.3125 15.4163 36.3625 15.4121 36.4125 15.4038L38.0125 15.1788C38.0875 15.1663 38.1917 15.1163 38.2417 15.0621L40.6258 12.6784C40.7342 12.57 40.6929 12.3846 40.5525 12.3242C40.5364 12.3173 40.5203 12.3103 40.5042 12.3034Z"
        fill="#225765" />
</svg>
    