<svg width="81" height="40" viewBox="0 0 81 40" fill="none" xmlns="http://www.w3.org/2000/svg">
<path d="M18.7935 13.3335H13.2068C10.7802 13.3335 9.3335 14.7802 9.3335 17.2068V22.7868C9.3335 25.2202 10.7802 26.6668 13.2068 26.6668H18.7868C21.2135 26.6668 22.6602 25.2202 22.6602 22.7935V17.2068C22.6668 14.7802 21.2202 13.3335 18.7935 13.3335ZM19.5002 20.2202C19.5002 20.4935 19.2735 20.7202 19.0002 20.7202C18.7268 20.7202 18.5002 20.4935 18.5002 20.2202V18.2068L13.3535 23.3535C13.2535 23.4535 13.1268 23.5002 13.0002 23.5002C12.8735 23.5002 12.7468 23.4535 12.6468 23.3535C12.5538 23.2594 12.5017 23.1324 12.5017 23.0002C12.5017 22.8679 12.5538 22.7409 12.6468 22.6468L17.7935 17.5002H15.7802C15.5068 17.5002 15.2802 17.2735 15.2802 17.0002C15.2802 16.7268 15.5068 16.5002 15.7802 16.5002H19.0002C19.2735 16.5002 19.5002 16.7268 19.5002 17.0002V20.2202Z" fill="#4EA507"/>
<path d="M29.4907 25V14.8182H35.8742V16.1406H31.0269V19.2429H35.5411V20.5604H31.0269V23.6776H35.9339V25H29.4907ZM38.9802 17.3636L40.6656 20.3366L42.3659 17.3636H43.9916L41.6102 21.1818L44.0115 25H42.3857L40.6656 22.1463L38.9504 25H37.3197L39.6961 21.1818L37.3495 17.3636H38.9802ZM45.5178 27.8636V17.3636H46.9695V18.6016H47.0938C47.18 18.4425 47.3043 18.2585 47.4667 18.0497C47.6291 17.8409 47.8545 17.6586 48.1428 17.5028C48.4312 17.3438 48.8124 17.2642 49.2863 17.2642C49.9028 17.2642 50.453 17.42 50.9369 17.7315C51.4208 18.0431 51.8003 18.4922 52.0754 19.0788C52.3538 19.6655 52.493 20.3714 52.493 21.1967C52.493 22.022 52.3554 22.7296 52.0803 23.3196C51.8053 23.9062 51.4274 24.3587 50.9468 24.6768C50.4662 24.9917 49.9177 25.1491 49.3012 25.1491C48.8372 25.1491 48.4577 25.0713 48.1627 24.9155C47.8711 24.7597 47.6424 24.5774 47.4767 24.3686C47.3109 24.1598 47.1833 23.9742 47.0938 23.8118H47.0044V27.8636H45.5178ZM46.9745 21.1818C46.9745 21.7187 47.0524 22.1894 47.2082 22.5938C47.364 22.9981 47.5893 23.3146 47.8843 23.5433C48.1793 23.7687 48.5406 23.8814 48.9681 23.8814C49.4123 23.8814 49.7835 23.7637 50.0818 23.5284C50.3801 23.2898 50.6054 22.9666 50.7579 22.5589C50.9137 22.1513 50.9916 21.6922 50.9916 21.1818C50.9916 20.678 50.9153 20.2256 50.7629 19.8246C50.6137 19.4235 50.3883 19.107 50.0867 18.875C49.7884 18.643 49.4156 18.527 48.9681 18.527C48.5373 18.527 48.1727 18.638 47.8744 18.8601C47.5794 19.0821 47.3557 19.392 47.2032 19.7898C47.0508 20.1875 46.9745 20.6515 46.9745 21.1818ZM57.3751 25.1541C56.6592 25.1541 56.0344 24.9901 55.5008 24.6619C54.9672 24.3338 54.5529 23.8748 54.2579 23.2848C53.9629 22.6948 53.8154 22.0054 53.8154 21.2166C53.8154 20.4245 53.9629 19.7318 54.2579 19.1385C54.5529 18.5452 54.9672 18.0845 55.5008 17.7564C56.0344 17.4283 56.6592 17.2642 57.3751 17.2642C58.091 17.2642 58.7158 17.4283 59.2494 17.7564C59.783 18.0845 60.1973 18.5452 60.4923 19.1385C60.7873 19.7318 60.9347 20.4245 60.9347 21.2166C60.9347 22.0054 60.7873 22.6948 60.4923 23.2848C60.1973 23.8748 59.783 24.3338 59.2494 24.6619C58.7158 24.9901 58.091 25.1541 57.3751 25.1541ZM57.3801 23.9062C57.8441 23.9062 58.2285 23.7836 58.5335 23.5384C58.8384 23.2931 59.0638 22.9666 59.2096 22.5589C59.3588 22.1513 59.4333 21.7022 59.4333 21.2116C59.4333 20.7244 59.3588 20.277 59.2096 19.8693C59.0638 19.4583 58.8384 19.1286 58.5335 18.88C58.2285 18.6314 57.8441 18.5071 57.3801 18.5071C56.9127 18.5071 56.5249 18.6314 56.2167 18.88C55.9118 19.1286 55.6847 19.4583 55.5356 19.8693C55.3898 20.277 55.3169 20.7244 55.3169 21.2116C55.3169 21.7022 55.3898 22.1513 55.5356 22.5589C55.6847 22.9666 55.9118 23.2931 56.2167 23.5384C56.5249 23.7836 56.9127 23.9062 57.3801 23.9062ZM62.594 25V17.3636H64.0308V18.5767H64.1104C64.2496 18.1657 64.4948 17.8426 64.8461 17.6072C65.2008 17.3686 65.6018 17.2493 66.0493 17.2493C66.1421 17.2493 66.2515 17.2526 66.3774 17.2592C66.5067 17.2659 66.6077 17.2741 66.6807 17.2841V18.706C66.621 18.6894 66.5149 18.6712 66.3625 18.6513C66.21 18.6281 66.0576 18.6165 65.9051 18.6165C65.5538 18.6165 65.2406 18.6911 64.9655 18.8402C64.6937 18.986 64.4782 19.1899 64.3192 19.4517C64.1601 19.7102 64.0805 20.0052 64.0805 20.3366V25H62.594ZM71.9829 17.3636V18.5568H67.8117V17.3636H71.9829ZM68.9303 15.5341H70.4168V22.7578C70.4168 23.0462 70.4599 23.2633 70.5461 23.4091C70.6323 23.5516 70.7433 23.6494 70.8792 23.7024C71.0184 23.7521 71.1692 23.777 71.3316 23.777C71.4509 23.777 71.5553 23.7687 71.6448 23.7521C71.7343 23.7356 71.8039 23.7223 71.8536 23.7124L72.1221 24.9403C72.0359 24.9735 71.9133 25.0066 71.7542 25.0398C71.5951 25.0762 71.3962 25.0961 71.1576 25.0994C70.7665 25.1061 70.4019 25.0365 70.0638 24.8906C69.7258 24.7448 69.4523 24.5194 69.2435 24.2145C69.0347 23.9096 68.9303 23.5268 68.9303 23.0661V15.5341Z" fill="#4EA507"/>
</svg>
