<svg width="19" height="20" viewBox="0 0 19 20" fill="none" xmlns="http://www.w3.org/2000/svg">
    <path
        d="M13.2632 6.83594C15.0757 6.84686 16.0574 6.93516 16.6974 7.63424C17.4299 8.43437 17.4298 9.72149 17.4298 12.2957V13.206C17.4298 15.7811 17.4299 17.0683 16.6974 17.8684C15.9657 18.6676 14.7865 18.6676 12.4298 18.6676H5.76318C3.40652 18.6676 2.22735 18.6676 1.49568 17.8684C0.763184 17.0674 0.763184 15.7811 0.763184 13.206V12.2957C0.763184 9.72149 0.763184 8.43437 1.49568 7.63424C2.13568 6.93516 3.11735 6.84686 4.92985 6.83594"
        stroke="#275A7F" stroke-width="1.5" stroke-linecap="round" />
    <path d="M9.09668 12.8333V1M9.09668 1L11.5967 4.1859M9.09668 1L6.59668 4.1859" stroke="#275A7F"
        stroke-width="1.5" stroke-linecap="round" stroke-linejoin="round" />
</svg>
    