<svg width="70" height="29" viewBox="0 0 70 29" fill="none" xmlns="http://www.w3.org/2000/svg">
    <rect width="70" height="29" rx="5" fill="white" />
    <path
        d="M10.153 7.16699H15.573C16.0263 7.16699 16.393 7.54033 16.393 8.00033V8.91366C16.393 9.24699 16.1863 9.66033 15.9797 9.86699L14.2197 11.4537C13.973 11.6603 13.813 12.0737 13.813 12.407V14.1937C13.813 14.4403 13.6463 14.7737 13.4463 14.9003L12.8663 15.2803C12.333 15.6137 11.593 15.2403 11.593 14.5737V12.367C11.593 12.0737 11.4263 11.7003 11.2663 11.4937L9.70634 9.82699C9.49967 9.62033 9.33301 9.24699 9.33301 9.00033V8.04033C9.33301 7.54033 9.69967 7.16699 10.153 7.16699Z"
        fill="#71939C" />
    <path
        d="M19.333 7.83301H17.733C17.5464 7.83301 17.3997 7.97967 17.3997 8.16634V8.91301C17.3997 9.57301 17.0464 10.2197 16.6997 10.573L14.8864 12.193C14.8664 12.2397 14.833 12.3063 14.813 12.3597V14.193C14.813 14.7997 14.453 15.4597 13.9597 15.7597L13.413 16.113C13.1064 16.3063 12.7664 16.3997 12.4264 16.3997C12.1197 16.3997 11.813 16.3197 11.533 16.1663C11.1983 15.9814 10.9306 15.6953 10.7684 15.349C10.687 15.1757 10.6664 14.9823 10.6664 14.7917V13.3063C10.6669 13.2626 10.6583 13.2193 10.641 13.1791C10.6238 13.1389 10.5984 13.1028 10.5664 13.073L9.89969 12.4063C9.85373 12.359 9.79464 12.3266 9.73006 12.3132C9.66547 12.2998 9.59835 12.306 9.53736 12.3312C9.47637 12.3563 9.4243 12.3991 9.38788 12.4541C9.35146 12.5091 9.33235 12.5737 9.33303 12.6397V17.833C9.33303 19.673 10.8264 21.1663 12.6664 21.1663H19.333C21.173 21.1663 22.6664 19.673 22.6664 17.833V11.1663C22.6664 9.32634 21.173 7.83301 19.333 7.83301ZM19.9997 18.333H15.333C15.0597 18.333 14.833 18.1063 14.833 17.833C14.833 17.5597 15.0597 17.333 15.333 17.333H19.9997C20.273 17.333 20.4997 17.5597 20.4997 17.833C20.4997 18.1063 20.273 18.333 19.9997 18.333ZM19.9997 15.6663H16.6664C16.393 15.6663 16.1664 15.4397 16.1664 15.1663C16.1664 14.893 16.393 14.6663 16.6664 14.6663H19.9997C20.273 14.6663 20.4997 14.893 20.4997 15.1663C20.4997 15.4397 20.273 15.6663 19.9997 15.6663Z"
        fill="#71939C" />
    <path
        d="M29.233 20V9.81818H35.3381V10.9119H30.4659V14.3523H34.8807V15.446H30.4659V20H29.233ZM37.2907 20V12.3636H38.464V20H37.2907ZM37.8873 11.0909C37.6586 11.0909 37.4614 11.013 37.2956 10.8572C37.1332 10.7015 37.052 10.5142 37.052 10.2955C37.052 10.0767 37.1332 9.88944 37.2956 9.73366C37.4614 9.57789 37.6586 9.5 37.8873 9.5C38.1159 9.5 38.3115 9.57789 38.4739 9.73366C38.6396 9.88944 38.7225 10.0767 38.7225 10.2955C38.7225 10.5142 38.6396 10.7015 38.4739 10.8572C38.3115 11.013 38.1159 11.0909 37.8873 11.0909ZM41.7862 9.81818V20H40.6129V9.81818H41.7862ZM47.2562 12.3636V13.358H43.2988V12.3636H47.2562ZM44.4522 10.5341H45.6255V17.8125C45.6255 18.1439 45.6736 18.3925 45.7697 18.5582C45.8691 18.7206 45.9951 18.83 46.1475 18.8864C46.3033 18.9394 46.4674 18.9659 46.6397 18.9659C46.769 18.9659 46.8751 18.9593 46.9579 18.946C47.0408 18.9295 47.1071 18.9162 47.1568 18.9062L47.3954 19.9602C47.3159 19.9901 47.2048 20.0199 47.0623 20.0497C46.9198 20.0829 46.7392 20.0994 46.5204 20.0994C46.189 20.0994 45.8642 20.0282 45.546 19.8857C45.2311 19.7431 44.9693 19.526 44.7605 19.2344C44.555 18.9427 44.4522 18.5748 44.4522 18.1307V10.5341ZM52.1408 20.1591C51.405 20.1591 50.7703 19.9967 50.2367 19.6719C49.7064 19.3438 49.2971 18.8864 49.0087 18.2997C48.7237 17.7098 48.5811 17.0237 48.5811 16.2415C48.5811 15.4593 48.7237 14.7699 49.0087 14.1733C49.2971 13.5734 49.6981 13.1061 50.2118 12.7713C50.7289 12.4332 51.3321 12.2642 52.0215 12.2642C52.4192 12.2642 52.812 12.3305 53.1998 12.4631C53.5875 12.5956 53.9405 12.8111 54.2587 13.1094C54.5769 13.4044 54.8304 13.7955 55.0194 14.2827C55.2083 14.7699 55.3027 15.3698 55.3027 16.0824V16.5795H49.4164V15.5653H54.1096C54.1096 15.1345 54.0234 14.75 53.851 14.4119C53.682 14.0739 53.44 13.8071 53.1252 13.6115C52.8136 13.416 52.4457 13.3182 52.0215 13.3182C51.5542 13.3182 51.1498 13.4342 50.8084 13.6662C50.4703 13.8949 50.2102 14.1932 50.0279 14.5611C49.8456 14.929 49.7544 15.3234 49.7544 15.7443V16.4205C49.7544 16.9972 49.8539 17.486 50.0527 17.8871C50.2549 18.2848 50.535 18.5881 50.8929 18.7969C51.2509 19.0024 51.6668 19.1051 52.1408 19.1051C52.449 19.1051 52.7275 19.062 52.976 18.9759C53.2279 18.8864 53.445 18.7538 53.6273 18.5781C53.8096 18.3991 53.9505 18.1771 54.0499 17.9119L55.1834 18.2301C55.0641 18.6146 54.8636 18.9527 54.5819 19.2443C54.3001 19.5327 53.9521 19.758 53.5378 19.9205C53.1235 20.0795 52.6578 20.1591 52.1408 20.1591ZM57.0875 20V12.3636H58.2211V13.517H58.3006C58.4398 13.1392 58.6917 12.8326 59.0563 12.5973C59.4209 12.362 59.8319 12.2443 60.2892 12.2443C60.3754 12.2443 60.4831 12.246 60.6124 12.2493C60.7417 12.2526 60.8394 12.2576 60.9057 12.2642V13.4574C60.8659 13.4474 60.7748 13.4325 60.6323 13.4126C60.4931 13.3894 60.3456 13.3778 60.1898 13.3778C59.8186 13.3778 59.4872 13.4557 59.1955 13.6115C58.9071 13.764 58.6784 13.9761 58.5094 14.2479C58.3437 14.5163 58.2608 14.8229 58.2608 15.1676V20H57.0875Z"
        fill="#04242D" />
</svg>
    