<svg width="183" height="36" viewBox="0 0 183 36" fill="none" xmlns="http://www.w3.org/2000/svg">
    <path d="M12.8755 31.863L10.4949 35.4209H6.10352e-05V21.5787H3.67715V31.8611H12.8755V31.863Z"
        fill="#0F0F0F" />
    <path
        d="M18.6276 35.4228L20.848 31.8649H23.8322C24.5437 31.8649 25.3782 31.865 25.9464 31.9059C25.626 31.4086 25.1286 30.561 24.7393 29.8997L22.6083 26.2376L17.0312 35.4247H12.6798L20.2985 22.9069C20.7959 22.1004 21.5242 21.3553 22.6772 21.3553C23.7781 21.3553 24.5065 22.037 25.0206 22.9069L32.4437 35.4247H18.6276V35.4228Z"
        fill="#0F0F0F" />
    <path
        d="M39.3507 26.7739H46.9508V35.4227H38.7994C34.6789 35.4227 31.6426 32.3808 31.6426 28.3666C31.6426 24.3114 34.6789 21.5806 38.7994 21.5806H47.3066L44.9278 25.1813H38.7994C36.8099 25.1813 35.3011 26.5877 35.3011 28.5547C35.3011 30.5609 36.7578 31.8649 38.7994 31.8649H43.2923V29.8587H37.1471L39.3507 26.7739Z"
        fill="#0F0F0F" />
    <path
        d="M66.1467 28.4914C66.1467 33.437 63.2333 35.65 57.4625 35.65C51.6731 35.65 48.7783 33.4351 48.7783 28.4914C48.7783 23.5457 51.6731 21.3533 57.4625 21.3533C63.2333 21.3514 66.1467 23.5457 66.1467 28.4914ZM62.4882 28.4914C62.4882 25.5128 61.1564 24.954 57.4625 24.954C53.7687 24.954 52.4368 25.5128 52.4368 28.4914C52.4368 31.4699 53.7687 32.0492 57.4625 32.0492C61.1564 32.0492 62.4882 31.4699 62.4882 28.4914Z"
        fill="#0F0F0F" />
    <path
        d="M79.1078 27.1037C82.0025 27.1037 83.5654 28.3666 83.5654 30.8907C83.5654 33.7258 82.0919 35.4228 78.4688 35.4228H67.4041L69.766 31.8649H78.752C79.6219 31.8649 80.0131 31.5743 80.0131 30.8516C80.0131 30.1474 79.6219 29.8587 78.752 29.8587H72.2882C69.2333 29.8587 67.8306 28.266 67.8306 25.8854C67.8306 23.2776 69.3227 21.5825 72.9271 21.5825H83.245L80.883 25.1832H72.6421C71.789 25.1832 71.381 25.4309 71.381 26.135C71.381 26.8392 71.789 27.1074 72.6421 27.1074H79.1078V27.1037Z"
        fill="#0F0F0F" />
    <path
        d="M109.029 35.4227H104.108L101.463 31.7605H95.8149V35.4227H92.1378V28.3461H102.474C103.611 28.3461 104.499 27.7463 104.499 26.7944C104.499 25.7178 103.735 25.1813 102.474 25.1813H92.1378L94.5352 21.5806H102.173C104.872 21.5806 108.281 22.5734 108.281 26.5262C108.281 28.6777 107.126 30.4566 105.173 30.913C105.581 31.2651 106.027 31.7624 106.842 32.7329L109.029 35.4227Z"
        fill="#0F0F0F" />
    <path d="M114.157 35.4227H110.48V21.5806H114.157V35.4227Z" fill="#0F0F0F" />
    <path
        d="M124.492 35.4227H116.536V26.7944H120.23V31.863H124.492C126.535 31.863 128.009 30.5386 128.009 28.5529C128.009 26.6082 126.481 25.1794 124.492 25.1794H116.536L118.881 21.5787H124.492C128.648 21.5787 131.649 24.3728 131.649 28.3647C131.649 32.3809 128.612 35.4227 124.492 35.4227Z"
        fill="#0F0F0F" />
    <path
        d="M147.398 31.863L145.036 35.4209H133.599V21.5787H147.363L144.984 25.1794H137.295V26.8354H146.707L144.593 29.9797H137.295V31.863H147.398Z"
        fill="#0F0F0F" />
    <path d="M161.25 10.7894H150.461V21.5788H161.25V10.7894Z" fill="#0039C2" />
    <path d="M172.039 0H161.25V10.7894H172.039V0Z" fill="#FDF101" />
    <path d="M182.829 10.7894H172.039V21.5788H182.829V10.7894Z" fill="#47A54E" />
    <path d="M150.461 0H139.671V10.7894H150.461V0Z" fill="#E41C1E" />
</svg>