<svg width="20" height="20" viewBox="0 0 20 20" fill="none" xmlns="http://www.w3.org/2000/svg">
    <circle cx="10" cy="10" r="9" fill="#FF3739" />
    <path fill-rule="evenodd" clip-rule="evenodd"
        d="M12.9396 6.59479C12.8696 6.51597 12.7717 6.47656 12.6458 6.47656C12.5198 6.47656 12.4184 6.51597 12.3414 6.59479C12.2715 6.66704 12.2365 6.76556 12.2365 6.89036V8.46448H9.33856L7.89224 6.64405C7.79431 6.53239 7.67538 6.47656 7.53547 6.47656C7.40255 6.47656 7.29762 6.51597 7.22067 6.59479C7.15071 6.66704 7.11573 6.76556 7.11573 6.89036V8.46448H6.88162C6.65872 8.46448 6.47803 8.63414 6.47803 8.84342C6.47803 9.0527 6.65872 9.22235 6.88162 9.22235H7.11573V10.8367H6.88162C6.65872 10.8367 6.47803 11.0064 6.47803 11.2156C6.47803 11.4249 6.65872 11.5946 6.88162 11.5946H7.11573V13.1071C7.11573 13.2319 7.15071 13.3337 7.22067 13.4126C7.29062 13.4848 7.38856 13.5209 7.51448 13.5209C7.6404 13.5209 7.73834 13.4848 7.8083 13.4126C7.88525 13.3337 7.92372 13.2319 7.92372 13.1071V11.5946H10.8777L12.2785 13.3534C12.3764 13.4651 12.4918 13.5209 12.6248 13.5209C12.7577 13.5209 12.8591 13.4848 12.9291 13.4126C13.006 13.3337 13.0445 13.2319 13.0445 13.1071V11.5946H13.1188C13.3417 11.5946 13.5224 11.4249 13.5224 11.2156C13.5224 11.0064 13.3417 10.8367 13.1188 10.8367H13.0445V9.22235H13.1188C13.3417 9.22235 13.5224 9.0527 13.5224 8.84342C13.5224 8.63414 13.3417 8.46448 13.1188 8.46448H13.0445V6.89036C13.0445 6.76556 13.0095 6.66704 12.9396 6.59479ZM10.2741 10.8367L7.92372 10.8367V9.22235H8.98845L10.2741 10.8367ZM12.2365 12.1121L11.8254 11.5946H12.2365V12.1121ZM11.2233 10.8367H12.2365V9.22235H9.94067L11.2233 10.8367Z"
        fill="white" />
    <path fill-rule="evenodd" clip-rule="evenodd"
        d="M7.37191 6.74183C7.34884 6.76581 7.32667 6.80679 7.32667 6.89036V8.46448C7.32667 8.58098 7.23223 8.67542 7.11573 8.67542H6.88162C6.7625 8.67542 6.68896 8.76296 6.68896 8.84342C6.68896 8.92387 6.76249 9.01141 6.88162 9.01141H7.11573C7.23223 9.01141 7.32667 9.10585 7.32667 9.22235V10.8367C7.32667 10.9532 7.23223 11.0476 7.11573 11.0476H6.88162C6.76249 11.0476 6.68896 11.1352 6.68896 11.2156C6.68896 11.2961 6.76249 11.3836 6.88162 11.3836H7.11573C7.23223 11.3836 7.32667 11.4781 7.32667 11.5946V13.1071C7.32667 13.1873 7.34727 13.2356 7.37524 13.2688C7.39654 13.2893 7.43435 13.31 7.51448 13.31C7.59856 13.31 7.63604 13.2872 7.65676 13.2658C7.69002 13.2318 7.71279 13.1848 7.71279 13.1071V11.5946C7.71279 11.4781 7.80723 11.3836 7.92372 11.3836H10.8777C10.9419 11.3836 11.0027 11.4129 11.0427 11.4632L12.4401 13.2177C12.5021 13.2871 12.5612 13.31 12.6248 13.31C12.7197 13.31 12.7589 13.2851 12.7775 13.2658C12.8108 13.2318 12.8336 13.1848 12.8336 13.1071V11.5946C12.8336 11.4781 12.928 11.3836 13.0445 11.3836H13.1188C13.2379 11.3836 13.3115 11.2961 13.3115 11.2156C13.3115 11.1352 13.2379 11.0476 13.1188 11.0476H13.0445C12.928 11.0476 12.8336 10.9532 12.8336 10.8367V9.22235C12.8336 9.10585 12.928 9.01141 13.0445 9.01141H13.1188C13.2379 9.01141 13.3115 8.92387 13.3115 8.84342C13.3115 8.76297 13.2379 8.67542 13.1188 8.67542H13.0445C12.928 8.67542 12.8336 8.58098 12.8336 8.46448V6.89036C12.8336 6.80643 12.8112 6.76546 12.788 6.74152L12.7817 6.73494C12.7595 6.71002 12.7242 6.6875 12.6458 6.6875C12.568 6.6875 12.5241 6.70977 12.4927 6.74182C12.4696 6.7658 12.4474 6.80678 12.4474 6.89036V8.46448C12.4474 8.58098 12.353 8.67542 12.2365 8.67542H9.33856C9.27423 8.67542 9.21341 8.64607 9.1734 8.5957L7.7306 6.77969C7.67088 6.71308 7.60927 6.6875 7.53547 6.6875C7.4471 6.6875 7.40118 6.71201 7.37191 6.74183ZM7.06974 6.44743C7.19439 6.31975 7.35832 6.26562 7.53547 6.26562C7.74023 6.26562 7.91563 6.35082 8.05082 6.50496L8.0576 6.51268L9.44037 8.25355H12.0256V6.89036C12.0256 6.7247 12.0732 6.56862 12.1899 6.44806C12.3123 6.32265 12.4719 6.26562 12.6458 6.26562C12.8176 6.26562 12.9768 6.32109 13.0943 6.45136C13.2087 6.57147 13.2554 6.7262 13.2554 6.89036V8.26842C13.5217 8.32709 13.7333 8.55351 13.7333 8.84342C13.7333 9.13332 13.5217 9.35975 13.2554 9.41842V10.6406C13.5217 10.6993 13.7333 10.9257 13.7333 11.2156C13.7333 11.5055 13.5217 11.732 13.2554 11.7906V13.1071C13.2554 13.2789 13.2007 13.4361 13.0803 13.5596C12.959 13.6846 12.7955 13.7319 12.6248 13.7319C12.4236 13.7319 12.2526 13.6439 12.1199 13.4925L12.1133 13.485L10.776 11.8055H8.13466V13.1071C8.13466 13.2789 8.07997 13.4361 7.95958 13.5596C7.84041 13.6825 7.68213 13.7319 7.51448 13.7319C7.34672 13.7319 7.18832 13.6824 7.06913 13.5593L7.06276 13.5527C6.95242 13.4284 6.9048 13.2735 6.9048 13.1071V11.8055H6.88162C6.55495 11.8055 6.26709 11.5537 6.26709 11.2156C6.26709 10.8775 6.55495 10.6258 6.88162 10.6258H6.9048V9.43329H6.88162C6.55495 9.43329 6.26709 9.18152 6.26709 8.84342C6.26709 8.50531 6.55495 8.25355 6.88162 8.25355H6.9048V6.89036C6.9048 6.7247 6.953 6.56799 7.06974 6.44743ZM7.71279 9.22235C7.71279 9.10585 7.80723 9.01141 7.92372 9.01141H8.98845C9.05269 9.01141 9.11343 9.04069 9.15345 9.09094L9.79629 9.89812L10.4391 10.7053C10.4896 10.7687 10.4993 10.8553 10.4642 10.9283C10.429 11.0013 10.3551 11.0476 10.2741 11.0476H7.92372C7.80723 11.0476 7.71279 10.9532 7.71279 10.8367V9.22235ZM8.13466 9.43329V10.6258L9.83648 10.6258L8.88678 9.43329H8.13466ZM9.75071 9.13066C9.7859 9.05775 9.85971 9.01141 9.94067 9.01141H12.2365C12.353 9.01141 12.4474 9.10585 12.4474 9.22235V10.8367C12.4474 10.9532 12.353 11.0476 12.2365 11.0476H11.2233C11.1589 11.0476 11.0981 11.0183 11.0581 10.9679L9.77551 9.35357C9.72515 9.29018 9.71551 9.20356 9.75071 9.13066ZM10.3777 9.43329L11.3251 10.6258H12.0256V9.43329H10.3777ZM11.6354 11.5029C11.6706 11.43 11.7444 11.3836 11.8254 11.3836H12.2365C12.353 11.3836 12.4474 11.4781 12.4474 11.5946V12.1121C12.4474 12.2018 12.3907 12.2817 12.306 12.3112C12.2213 12.3408 12.1272 12.3135 12.0714 12.2433L11.6602 11.7258C11.6099 11.6624 11.6002 11.5758 11.6354 11.5029Z"
        fill="white" />
</svg>
    