<svg width="18" height="18" viewBox="0 0 18 18" fill="none" xmlns="http://www.w3.org/2000/svg">
    <circle cx="9" cy="9" r="9" fill="#6212B1" />
    <path
        fill-rule="evenodd"
        clip-rule="evenodd"
        d="M11.9396 5.59479C11.8696 5.51597 11.7717 5.47656 11.6458 5.47656C11.5198 5.47656 11.4184 5.51597 11.3414 5.59479C11.2715 5.66704 11.2365 5.76556 11.2365 5.89036V7.46448H8.33856L6.89224 5.64405C6.79431 5.53239 6.67538 5.47656 6.53547 5.47656C6.40255 5.47656 6.29762 5.51597 6.22067 5.59479C6.15071 5.66704 6.11573 5.76556 6.11573 5.89036V7.46448H5.88162C5.65872 7.46448 5.47803 7.63414 5.47803 7.84342C5.47803 8.0527 5.65872 8.22235 5.88162 8.22235H6.11573V9.8367H5.88162C5.65872 9.8367 5.47803 10.0064 5.47803 10.2156C5.47803 10.4249 5.65872 10.5946 5.88162 10.5946H6.11573V12.1071C6.11573 12.2319 6.15071 12.3337 6.22067 12.4126C6.29062 12.4848 6.38856 12.5209 6.51448 12.5209C6.6404 12.5209 6.73834 12.4848 6.8083 12.4126C6.88525 12.3337 6.92372 12.2319 6.92372 12.1071V10.5946H9.8777L11.2785 12.3534C11.3764 12.4651 11.4918 12.5209 11.6248 12.5209C11.7577 12.5209 11.8591 12.4848 11.9291 12.4126C12.006 12.3337 12.0445 12.2319 12.0445 12.1071V10.5946H12.1188C12.3417 10.5946 12.5224 10.4249 12.5224 10.2156C12.5224 10.0064 12.3417 9.8367 12.1188 9.8367H12.0445V8.22235H12.1188C12.3417 8.22235 12.5224 8.0527 12.5224 7.84342C12.5224 7.63414 12.3417 7.46448 12.1188 7.46448H12.0445V5.89036C12.0445 5.76556 12.0095 5.66704 11.9396 5.59479ZM9.27413 9.8367L6.92372 9.8367V8.22235H7.98845L9.27413 9.8367ZM11.2365 11.1121L10.8254 10.5946H11.2365V11.1121ZM10.2233 9.8367H11.2365V8.22235H8.94067L10.2233 9.8367Z"
        fill="white"
    />
    <path
        fill-rule="evenodd"
        clip-rule="evenodd"
        d="M6.37191 5.74183C6.34884 5.76581 6.32667 5.80679 6.32667 5.89036V7.46448C6.32667 7.58098 6.23223 7.67542 6.11573 7.67542H5.88162C5.7625 7.67542 5.68896 7.76296 5.68896 7.84342C5.68896 7.92387 5.76249 8.01141 5.88162 8.01141H6.11573C6.23223 8.01141 6.32667 8.10585 6.32667 8.22235V9.8367C6.32667 9.9532 6.23223 10.0476 6.11573 10.0476H5.88162C5.76249 10.0476 5.68896 10.1352 5.68896 10.2156C5.68896 10.2961 5.76249 10.3836 5.88162 10.3836H6.11573C6.23223 10.3836 6.32667 10.4781 6.32667 10.5946V12.1071C6.32667 12.1873 6.34727 12.2356 6.37524 12.2688C6.39654 12.2893 6.43435 12.31 6.51448 12.31C6.59856 12.31 6.63604 12.2872 6.65676 12.2658C6.69002 12.2318 6.71279 12.1848 6.71279 12.1071V10.5946C6.71279 10.4781 6.80723 10.3836 6.92372 10.3836H9.8777C9.94195 10.3836 10.0027 10.4129 10.0427 10.4632L11.4401 12.2177C11.5021 12.2871 11.5612 12.31 11.6248 12.31C11.7197 12.31 11.7589 12.2851 11.7775 12.2658C11.8108 12.2318 11.8336 12.1848 11.8336 12.1071V10.5946C11.8336 10.4781 11.928 10.3836 12.0445 10.3836H12.1188C12.2379 10.3836 12.3115 10.2961 12.3115 10.2156C12.3115 10.1352 12.2379 10.0476 12.1188 10.0476H12.0445C11.928 10.0476 11.8336 9.9532 11.8336 9.8367V8.22235C11.8336 8.10585 11.928 8.01141 12.0445 8.01141H12.1188C12.2379 8.01141 12.3115 7.92387 12.3115 7.84342C12.3115 7.76297 12.2379 7.67542 12.1188 7.67542H12.0445C11.928 7.67542 11.8336 7.58098 11.8336 7.46448V5.89036C11.8336 5.80643 11.8112 5.76546 11.788 5.74152L11.7817 5.73494C11.7595 5.71002 11.7242 5.6875 11.6458 5.6875C11.568 5.6875 11.5241 5.70977 11.4927 5.74182C11.4696 5.7658 11.4474 5.80678 11.4474 5.89036V7.46448C11.4474 7.58098 11.353 7.67542 11.2365 7.67542H8.33856C8.27423 7.67542 8.21341 7.64607 8.1734 7.5957L6.7306 5.77969C6.67088 5.71308 6.60927 5.6875 6.53547 5.6875C6.4471 5.6875 6.40118 5.71201 6.37191 5.74183ZM6.06974 5.44743C6.19439 5.31975 6.35832 5.26562 6.53547 5.26562C6.74023 5.26562 6.91563 5.35082 7.05082 5.50496L7.0576 5.51268L8.44037 7.25355H11.0256V5.89036C11.0256 5.7247 11.0732 5.56862 11.1899 5.44806C11.3123 5.32265 11.4719 5.26562 11.6458 5.26562C11.8176 5.26562 11.9768 5.32109 12.0943 5.45136C12.2087 5.57147 12.2554 5.7262 12.2554 5.89036V7.26842C12.5217 7.32709 12.7333 7.55351 12.7333 7.84342C12.7333 8.13332 12.5217 8.35975 12.2554 8.41842V9.64064C12.5217 9.69931 12.7333 9.92573 12.7333 10.2156C12.7333 10.5055 12.5217 10.732 12.2554 10.7906V12.1071C12.2554 12.2789 12.2007 12.4361 12.0803 12.5596C11.959 12.6846 11.7955 12.7319 11.6248 12.7319C11.4236 12.7319 11.2526 12.6439 11.1199 12.4925L11.1133 12.485L9.77604 10.8055H7.13466V12.1071C7.13466 12.2789 7.07997 12.4361 6.95958 12.5596C6.84041 12.6825 6.68213 12.7319 6.51448 12.7319C6.34672 12.7319 6.18832 12.6824 6.06913 12.5593L6.06276 12.5527C5.95242 12.4284 5.9048 12.2735 5.9048 12.1071V10.8055H5.88162C5.55495 10.8055 5.26709 10.5537 5.26709 10.2156C5.26709 9.87753 5.55495 9.62577 5.88162 9.62577H5.9048V8.43329H5.88162C5.55495 8.43329 5.26709 8.18152 5.26709 7.84342C5.26709 7.50531 5.55495 7.25355 5.88162 7.25355H5.9048V5.89036C5.9048 5.7247 5.953 5.56799 6.06974 5.44743ZM6.71279 8.22235C6.71279 8.10585 6.80723 8.01141 6.92372 8.01141H7.98845C8.05269 8.01141 8.11343 8.04069 8.15345 8.09094L8.79629 8.89812L9.43914 9.70529C9.4896 9.76866 9.49932 9.85532 9.46415 9.92829C9.42898 10.0013 9.35513 10.0476 9.27413 10.0476H6.92372C6.80723 10.0476 6.71279 9.9532 6.71279 9.8367V8.22235ZM7.13466 8.43329V9.62577L8.83648 9.62577L7.88678 8.43329H7.13466ZM8.75071 8.13066C8.7859 8.05775 8.85971 8.01141 8.94067 8.01141H11.2365C11.353 8.01141 11.4474 8.10585 11.4474 8.22235V9.8367C11.4474 9.9532 11.353 10.0476 11.2365 10.0476H10.2233C10.1589 10.0476 10.0981 10.0183 10.0581 9.96792L8.77551 8.35357C8.72515 8.29018 8.71551 8.20356 8.75071 8.13066ZM9.37767 8.43329L10.3251 9.62577H11.0256V8.43329H9.37767ZM10.6354 10.5029C10.6706 10.43 10.7444 10.3836 10.8254 10.3836H11.2365C11.353 10.3836 11.4474 10.4781 11.4474 10.5946V11.1121C11.4474 11.2018 11.3907 11.2817 11.306 11.3112C11.2213 11.3408 11.1272 11.3135 11.0714 11.2433L10.6602 10.7258C10.6099 10.6624 10.6002 10.5758 10.6354 10.5029Z"
        fill="white"
    />
</svg>