<svg width="18" height="18" viewBox="0 0 18 18" fill="none" xmlns="http://www.w3.org/2000/svg">
<circle cx="9" cy="9" r="9" fill="#225765"/>
<path fill-rule="evenodd" clip-rule="evenodd" d="M11.9396 5.59625C11.8696 5.51744 11.7717 5.47803 11.6458 5.47803C11.5198 5.47803 11.4184 5.51744 11.3414 5.59625C11.2715 5.6685 11.2365 5.76703 11.2365 5.89182V7.46595H8.33856L6.89224 5.64552C6.79431 5.53386 6.67538 5.47803 6.53547 5.47803C6.40255 5.47803 6.29762 5.51744 6.22067 5.59625C6.15071 5.6685 6.11573 5.76703 6.11573 5.89182V7.46595H5.88162C5.65872 7.46595 5.47803 7.6356 5.47803 7.84488C5.47803 8.05416 5.65872 8.22381 5.88162 8.22381H6.11573V9.83817H5.88162C5.65872 9.83817 5.47803 10.0078 5.47803 10.2171C5.47803 10.4264 5.65872 10.596 5.88162 10.596H6.11573V12.1086C6.11573 12.2334 6.15071 12.3352 6.22067 12.414C6.29062 12.4863 6.38856 12.5224 6.51448 12.5224C6.6404 12.5224 6.73834 12.4863 6.8083 12.414C6.88525 12.3352 6.92372 12.2334 6.92372 12.1086V10.596H9.8777L11.2785 12.3549C11.3764 12.4666 11.4918 12.5224 11.6248 12.5224C11.7577 12.5224 11.8591 12.4863 11.9291 12.414C12.006 12.3352 12.0445 12.2334 12.0445 12.1086V10.596H12.1188C12.3417 10.596 12.5224 10.4264 12.5224 10.2171C12.5224 10.0078 12.3417 9.83817 12.1188 9.83817H12.0445V8.22382H12.1188C12.3417 8.22382 12.5224 8.05416 12.5224 7.84488C12.5224 7.6356 12.3417 7.46595 12.1188 7.46595H12.0445V5.89182C12.0445 5.76703 12.0095 5.6685 11.9396 5.59625ZM9.27413 9.83817L6.92372 9.83817V8.22382H7.98845L9.27413 9.83817ZM11.2365 11.1135L10.8254 10.596H11.2365V11.1135ZM10.2233 9.83817H11.2365V8.22382H8.94067L10.2233 9.83817Z" fill="white"/>
<path fill-rule="evenodd" clip-rule="evenodd" d="M6.37191 5.74329C6.34884 5.76727 6.32667 5.80825 6.32667 5.89182V7.46595C6.32667 7.58245 6.23223 7.67689 6.11573 7.67689H5.88162C5.7625 7.67689 5.68896 7.76443 5.68896 7.84488C5.68896 7.92533 5.76249 8.01288 5.88162 8.01288H6.11573C6.23223 8.01288 6.32667 8.10732 6.32667 8.22381V9.83817C6.32667 9.95467 6.23223 10.0491 6.11573 10.0491H5.88162C5.76249 10.0491 5.68896 10.1367 5.68896 10.2171C5.68896 10.2976 5.76249 10.3851 5.88162 10.3851H6.11573C6.23223 10.3851 6.32667 10.4795 6.32667 10.596V12.1086C6.32667 12.1888 6.34727 12.2371 6.37524 12.2703C6.39654 12.2908 6.43435 12.3115 6.51448 12.3115C6.59856 12.3115 6.63604 12.2887 6.65676 12.2673C6.69002 12.2332 6.71279 12.1863 6.71279 12.1086V10.596C6.71279 10.4795 6.80723 10.3851 6.92372 10.3851H9.8777C9.94195 10.3851 10.0027 10.4144 10.0427 10.4646L11.4401 12.2192C11.5021 12.2886 11.5612 12.3115 11.6248 12.3115C11.7197 12.3115 11.7589 12.2865 11.7775 12.2673C11.8108 12.2332 11.8336 12.1863 11.8336 12.1086V10.596C11.8336 10.4795 11.928 10.3851 12.0445 10.3851H12.1188C12.2379 10.3851 12.3115 10.2976 12.3115 10.2171C12.3115 10.1367 12.2379 10.0491 12.1188 10.0491H12.0445C11.928 10.0491 11.8336 9.95467 11.8336 9.83817V8.22382C11.8336 8.10732 11.928 8.01288 12.0445 8.01288H12.1188C12.2379 8.01288 12.3115 7.92533 12.3115 7.84488C12.3115 7.76443 12.2379 7.67689 12.1188 7.67689H12.0445C11.928 7.67689 11.8336 7.58245 11.8336 7.46595V5.89182C11.8336 5.80789 11.8112 5.76692 11.788 5.74298L11.7817 5.73641C11.7595 5.71148 11.7242 5.68896 11.6458 5.68896C11.568 5.68896 11.5241 5.71123 11.4927 5.74328C11.4696 5.76726 11.4474 5.80824 11.4474 5.89182V7.46595C11.4474 7.58245 11.353 7.67689 11.2365 7.67689H8.33856C8.27423 7.67689 8.21341 7.64753 8.1734 7.59716L6.7306 5.78115C6.67088 5.71454 6.60927 5.68896 6.53547 5.68896C6.4471 5.68896 6.40118 5.71348 6.37191 5.74329ZM6.06974 5.4489C6.19439 5.32122 6.35832 5.26709 6.53547 5.26709C6.74023 5.26709 6.91563 5.35229 7.05082 5.50642L7.0576 5.51414L8.44037 7.25501H11.0256V5.89182C11.0256 5.72616 11.0732 5.57009 11.1899 5.44952C11.3123 5.32411 11.4719 5.26709 11.6458 5.26709C11.8176 5.26709 11.9768 5.32256 12.0943 5.45283C12.2087 5.57293 12.2554 5.72767 12.2554 5.89182V7.26988C12.5217 7.32855 12.7333 7.55498 12.7333 7.84488C12.7333 8.13479 12.5217 8.36121 12.2554 8.41988V9.6421C12.5217 9.70077 12.7333 9.9272 12.7333 10.2171C12.7333 10.507 12.5217 10.7334 12.2554 10.7921V12.1086C12.2554 12.2804 12.2007 12.4376 12.0803 12.5611C11.959 12.6861 11.7955 12.7333 11.6248 12.7333C11.4236 12.7333 11.2526 12.6453 11.1199 12.494L11.1133 12.4865L9.77604 10.807H7.13466V12.1086C7.13466 12.2804 7.07997 12.4375 6.95958 12.561C6.84041 12.6839 6.68213 12.7333 6.51448 12.7333C6.34672 12.7333 6.18832 12.6839 6.06913 12.5608L6.06276 12.5542C5.95242 12.4299 5.9048 12.275 5.9048 12.1086V10.807H5.88162C5.55495 10.807 5.26709 10.5552 5.26709 10.2171C5.26709 9.879 5.55495 9.62723 5.88162 9.62723H5.9048V8.43475H5.88162C5.55495 8.43475 5.26709 8.18299 5.26709 7.84488C5.26709 7.50678 5.55495 7.25501 5.88162 7.25501H5.9048V5.89182C5.9048 5.72616 5.953 5.56946 6.06974 5.4489ZM6.71279 8.22382C6.71279 8.10732 6.80723 8.01288 6.92372 8.01288H7.98845C8.05269 8.01288 8.11343 8.04215 8.15345 8.09241L8.79629 8.89958L9.43914 9.70676C9.4896 9.77012 9.49932 9.85678 9.46415 9.92975C9.42898 10.0027 9.35513 10.0491 9.27413 10.0491H6.92372C6.80723 10.0491 6.71279 9.95467 6.71279 9.83817V8.22382ZM7.13466 8.43475V9.62723L8.83648 9.62723L7.88678 8.43475H7.13466ZM8.75071 8.13212C8.7859 8.05921 8.85971 8.01288 8.94067 8.01288H11.2365C11.353 8.01288 11.4474 8.10732 11.4474 8.22382V9.83817C11.4474 9.95467 11.353 10.0491 11.2365 10.0491H10.2233C10.1589 10.0491 10.0981 10.0198 10.0581 9.96938L8.77551 8.35503C8.72515 8.29164 8.71551 8.20503 8.75071 8.13212ZM9.37767 8.43475L10.3251 9.62723H11.0256V8.43475H9.37767ZM10.6354 10.5043C10.6706 10.4314 10.7444 10.3851 10.8254 10.3851H11.2365C11.353 10.3851 11.4474 10.4795 11.4474 10.596V11.1135C11.4474 11.2032 11.3907 11.2831 11.306 11.3127C11.2213 11.3422 11.1272 11.315 11.0714 11.2447L10.6602 10.7273C10.6099 10.6639 10.6002 10.5772 10.6354 10.5043Z" fill="white"/>
</svg>
