<svg width="18" height="18" viewBox="0 0 18 18" fill="none" xmlns="http://www.w3.org/2000/svg">
<circle cx="9" cy="9" r="9" fill="#0592F6"/>
<path fill-rule="evenodd" clip-rule="evenodd" d="M11.9401 5.59479C11.8701 5.51597 11.7722 5.47656 11.6462 5.47656C11.5203 5.47656 11.4189 5.51597 11.3419 5.59479C11.272 5.66704 11.237 5.76556 11.237 5.89036V7.46448H8.33904L6.89273 5.64405C6.79479 5.53239 6.67587 5.47656 6.53596 5.47656C6.40304 5.47656 6.29811 5.51597 6.22116 5.59479C6.1512 5.66704 6.11622 5.76556 6.11622 5.89036V7.46448H5.88211C5.65921 7.46448 5.47852 7.63414 5.47852 7.84342C5.47852 8.0527 5.65921 8.22235 5.88211 8.22235H6.11622V9.8367H5.88211C5.65921 9.8367 5.47852 10.0064 5.47852 10.2156C5.47852 10.4249 5.65921 10.5946 5.88211 10.5946H6.11622V12.1071C6.11622 12.2319 6.1512 12.3337 6.22116 12.4126C6.29111 12.4848 6.38905 12.5209 6.51497 12.5209C6.64089 12.5209 6.73883 12.4848 6.80879 12.4126C6.88574 12.3337 6.92421 12.2319 6.92421 12.1071V10.5946H9.87819L11.279 12.3534C11.3769 12.4651 11.4923 12.5209 11.6253 12.5209C11.7582 12.5209 11.8596 12.4848 11.9296 12.4126C12.0065 12.3337 12.045 12.2319 12.045 12.1071V10.5946H12.1193C12.3422 10.5946 12.5229 10.4249 12.5229 10.2156C12.5229 10.0064 12.3422 9.8367 12.1193 9.8367H12.045V8.22235H12.1193C12.3422 8.22235 12.5229 8.0527 12.5229 7.84342C12.5229 7.63414 12.3422 7.46448 12.1193 7.46448H12.045V5.89036C12.045 5.76556 12.01 5.66704 11.9401 5.59479ZM9.27462 9.8367L6.92421 9.8367V8.22235H7.98894L9.27462 9.8367ZM11.237 11.1121L10.8259 10.5946H11.237V11.1121ZM10.2237 9.8367H11.237V8.22235H8.94116L10.2237 9.8367Z" fill="white"/>
<path fill-rule="evenodd" clip-rule="evenodd" d="M6.3724 5.74183C6.34933 5.76581 6.32716 5.80679 6.32716 5.89036V7.46448C6.32716 7.58098 6.23272 7.67542 6.11622 7.67542H5.88211C5.76298 7.67542 5.68945 7.76296 5.68945 7.84342C5.68945 7.92387 5.76298 8.01141 5.88211 8.01141H6.11622C6.23272 8.01141 6.32716 8.10585 6.32716 8.22235V9.8367C6.32716 9.9532 6.23272 10.0476 6.11622 10.0476H5.88211C5.76298 10.0476 5.68945 10.1352 5.68945 10.2156C5.68945 10.2961 5.76298 10.3836 5.88211 10.3836H6.11622C6.23272 10.3836 6.32716 10.4781 6.32716 10.5946V12.1071C6.32716 12.1873 6.34776 12.2356 6.37573 12.2688C6.39703 12.2893 6.43483 12.31 6.51497 12.31C6.59905 12.31 6.63653 12.2872 6.65724 12.2658C6.69051 12.2318 6.71328 12.1848 6.71328 12.1071V10.5946C6.71328 10.4781 6.80772 10.3836 6.92421 10.3836H9.87819C9.94243 10.3836 10.0032 10.4129 10.0432 10.4632L11.4406 12.2177C11.5026 12.2871 11.5616 12.31 11.6253 12.31C11.7202 12.31 11.7594 12.2851 11.778 12.2658C11.8113 12.2318 11.8341 12.1848 11.8341 12.1071V10.5946C11.8341 10.4781 11.9285 10.3836 12.045 10.3836H12.1193C12.2384 10.3836 12.312 10.2961 12.312 10.2156C12.312 10.1352 12.2384 10.0476 12.1193 10.0476H12.045C11.9285 10.0476 11.8341 9.9532 11.8341 9.8367V8.22235C11.8341 8.10585 11.9285 8.01141 12.045 8.01141H12.1193C12.2384 8.01141 12.312 7.92387 12.312 7.84342C12.312 7.76297 12.2384 7.67542 12.1193 7.67542H12.045C11.9285 7.67542 11.8341 7.58098 11.8341 7.46448V5.89036C11.8341 5.80643 11.8117 5.76546 11.7885 5.74152L11.7821 5.73494C11.76 5.71002 11.7247 5.6875 11.6462 5.6875C11.5685 5.6875 11.5246 5.70977 11.4932 5.74182C11.4701 5.7658 11.4479 5.80678 11.4479 5.89036V7.46448C11.4479 7.58098 11.3535 7.67542 11.237 7.67542H8.33904C8.27471 7.67542 8.2139 7.64607 8.17389 7.5957L6.73109 5.77969C6.67137 5.71308 6.60975 5.6875 6.53596 5.6875C6.44759 5.6875 6.40166 5.71201 6.3724 5.74183ZM6.07022 5.44743C6.19488 5.31975 6.35881 5.26562 6.53596 5.26562C6.74072 5.26562 6.91612 5.35082 7.05131 5.50496L7.05809 5.51268L8.44086 7.25355H11.0261V5.89036C11.0261 5.7247 11.0737 5.56862 11.1904 5.44806C11.3128 5.32265 11.4724 5.26562 11.6462 5.26562C11.8181 5.26562 11.9773 5.32109 12.0948 5.45136C12.2092 5.57147 12.2559 5.7262 12.2559 5.89036V7.26842C12.5222 7.32709 12.7338 7.55351 12.7338 7.84342C12.7338 8.13332 12.5222 8.35975 12.2559 8.41842V9.64064C12.5222 9.69931 12.7338 9.92573 12.7338 10.2156C12.7338 10.5055 12.5222 10.732 12.2559 10.7906V12.1071C12.2559 12.2789 12.2012 12.4361 12.0808 12.5596C11.9595 12.6846 11.796 12.7319 11.6253 12.7319C11.4241 12.7319 11.2531 12.6439 11.1204 12.4925L11.1138 12.485L9.77652 10.8055H7.13515V12.1071C7.13515 12.2789 7.08046 12.4361 6.96007 12.5596C6.8409 12.6825 6.68261 12.7319 6.51497 12.7319C6.34721 12.7319 6.18881 12.6824 6.06961 12.5593L6.06325 12.5527C5.95291 12.4284 5.90528 12.2735 5.90528 12.1071V10.8055H5.88211C5.55544 10.8055 5.26758 10.5537 5.26758 10.2156C5.26758 9.87753 5.55544 9.62577 5.88211 9.62577H5.90528V8.43329H5.88211C5.55544 8.43329 5.26758 8.18152 5.26758 7.84342C5.26758 7.50531 5.55544 7.25355 5.88211 7.25355H5.90528V5.89036C5.90528 5.7247 5.95349 5.56799 6.07022 5.44743ZM6.71328 8.22235C6.71328 8.10585 6.80772 8.01141 6.92421 8.01141H7.98894C8.05318 8.01141 8.11392 8.04069 8.15394 8.09094L8.79678 8.89812L9.43962 9.70529C9.49009 9.76866 9.49981 9.85532 9.46464 9.92829C9.42947 10.0013 9.35562 10.0476 9.27462 10.0476H6.92421C6.80772 10.0476 6.71328 9.9532 6.71328 9.8367V8.22235ZM7.13515 8.43329V9.62577L8.83697 9.62577L7.88727 8.43329H7.13515ZM8.75119 8.13066C8.78639 8.05775 8.8602 8.01141 8.94116 8.01141H11.237C11.3535 8.01141 11.4479 8.10585 11.4479 8.22235V9.8367C11.4479 9.9532 11.3535 10.0476 11.237 10.0476H10.2237C10.1594 10.0476 10.0986 10.0183 10.0586 9.96792L8.776 8.35357C8.72564 8.29018 8.716 8.20356 8.75119 8.13066ZM9.37815 8.43329L10.3256 9.62577H11.0261V8.43329H9.37815ZM10.6359 10.5029C10.6711 10.43 10.7449 10.3836 10.8259 10.3836H11.237C11.3535 10.3836 11.4479 10.4781 11.4479 10.5946V11.1121C11.4479 11.2018 11.3912 11.2817 11.3065 11.3112C11.2218 11.3408 11.1276 11.3135 11.0718 11.2433L10.6607 10.7258C10.6103 10.6624 10.6007 10.5758 10.6359 10.5029Z" fill="white"/>
</svg>
