<svg width="16" height="16" viewBox="0 0 16 16" fill="none" xmlns="http://www.w3.org/2000/svg">
<path d="M8 4.29333V6.51334" stroke="#04242D" stroke-miterlimit="10" stroke-linecap="round"/>
<path d="M8.01327 1.33334C5.55993 1.33334 3.57327 3.32001 3.57327 5.77334V7.17334C3.57327 7.62668 3.3866 8.30668 3.15327 8.69334L2.3066 10.1067C1.7866 10.98 2.1466 11.9533 3.1066 12.2733C6.29326 13.3333 9.73993 13.3333 12.9266 12.2733C13.8266 11.9733 14.2133 10.92 13.7266 10.1067L12.8799 8.69334C12.6466 8.30668 12.4599 7.62001 12.4599 7.17334V5.77334C12.4533 3.33334 10.4533 1.33334 8.01327 1.33334Z" stroke="#04242D" stroke-miterlimit="10" stroke-linecap="round"/>
<path d="M10.22 12.5467C10.22 13.7667 9.22003 14.7667 8.00003 14.7667C7.39336 14.7667 6.83336 14.5133 6.43336 14.1133C6.03336 13.7133 5.78003 13.1533 5.78003 12.5467" stroke="#04242D" stroke-miterlimit="10"/>
</svg>
