<svg width="20" height="20" viewBox="0 0 20 20" fill="none" xmlns="http://www.w3.org/2000/svg">
    <g clip-path="url(#clip0_1375_27164)">
        <path
            d="M16.1167 12.075L15.2833 10.6916C15.1083 10.3833 14.95 9.79997 14.95 9.4583V7.34997C14.949 6.42 14.6847 5.50932 14.1877 4.72328C13.6907 3.93725 12.9814 3.30799 12.1417 2.9083C11.9273 2.52775 11.6147 2.21176 11.2365 1.99333C10.8583 1.77491 10.4284 1.66208 9.99166 1.66664C9.08333 1.66664 8.26666 2.1583 7.83333 2.9333C6.20833 3.74164 5.08333 5.41664 5.08333 7.34997V9.4583C5.08333 9.79997 4.92499 10.3833 4.74999 10.6833L3.90833 12.075C3.57499 12.6333 3.49999 13.25 3.70833 13.8166C3.90833 14.375 4.38333 14.8083 4.99999 15.0166C6.61666 15.5666 8.31666 15.8333 10.0167 15.8333C11.7167 15.8333 13.4167 15.5666 15.0333 15.025C15.6167 14.8333 16.0667 14.3916 16.2833 13.8166C16.5 13.2416 16.4417 12.6083 16.1167 12.075ZM12.3583 16.675C12.1831 17.1601 11.8627 17.5795 11.4408 17.8762C11.0189 18.1729 10.5158 18.3325 9.99999 18.3333C9.34166 18.3333 8.69166 18.0666 8.23333 17.5916C7.96666 17.3416 7.76666 17.0083 7.64999 16.6666C7.75833 16.6833 7.86666 16.6916 7.98333 16.7083C8.17499 16.7333 8.37499 16.7583 8.57499 16.775C9.04999 16.8166 9.53333 16.8416 10.0167 16.8416C10.4917 16.8416 10.9667 16.8166 11.4333 16.775C11.6083 16.7583 11.7833 16.75 11.95 16.725L12.3583 16.675Z"
            fill="#04242D" />
        <circle cx="14" cy="4" r="4" fill="#FF5757" stroke="#D5F0F7" />
    </g>
    <defs>
        <clipPath id="clip0_1375_27164">
            <rect width="20" height="20" fill="white" />
        </clipPath>
    </defs>
</svg>