<svg width="20" height="20" viewBox="0 0 20 20" fill="none" xmlns="http://www.w3.org/2000/svg">
    <rect width="20" height="20" rx="4" fill="#33B8D3" fill-opacity="0.08" />
    <path
        d="M18.3083 1.9443C17.9984 1.59411 17.6173 1.3141 17.1905 1.12297C16.7637 0.93184 16.301 0.833993 15.8333 0.835967C15.3954 0.835418 14.9617 0.921263 14.5571 1.08858C14.1524 1.25591 13.7847 1.50142 13.4751 1.81105C13.1655 2.12069 12.9199 2.48837 12.7526 2.89304C12.5853 3.29771 12.4995 3.73141 12.5 4.1693C12.5 4.7943 12.675 5.38597 12.9833 5.88597C13.15 6.1693 13.3667 6.42763 13.6167 6.6443C14.2 7.17763 14.975 7.50263 15.8333 7.50263C16.2 7.50263 16.55 7.4443 16.875 7.32763C19.1495 6.61068 19.884 3.69232 18.3083 1.9443Z"
        fill="#04242D" />
    <path
        d="M18.3333 9.99743C18.3333 8.90576 18.125 7.85576 17.7333 6.89743C17.475 7.08076 17.1833 7.22243 16.875 7.32243C16.7833 7.35576 16.6917 7.38076 16.5917 7.40577C17.0944 8.68215 17.2147 10.0773 16.938 11.4209C16.6613 12.7645 15.9995 13.9986 15.0333 14.9724C14.7917 14.6641 14.4833 14.3808 14.1167 14.1391C11.8583 12.6224 8.15832 12.6224 5.88332 14.1391C5.51666 14.3808 5.21666 14.6641 4.96666 14.9724C3.654 13.6493 2.91719 11.8612 2.91666 9.99743C2.91666 6.0891 6.09166 2.9141 9.99999 2.9141C10.9083 2.9141 11.7833 3.0891 12.5833 3.40577C12.6083 3.30577 12.6333 3.2141 12.6667 3.1141C12.7667 2.80576 12.9083 2.52243 13.1 2.2641C12.1154 1.86475 11.0625 1.66096 9.99999 1.6641C5.40832 1.6641 1.66666 5.40576 1.66666 9.99743C1.66666 12.4141 2.70832 14.5891 4.35832 16.1141C4.35832 16.1224 4.35832 16.1224 4.34999 16.1308C4.43332 16.2141 4.53332 16.2808 4.61666 16.3558C4.66666 16.3974 4.70832 16.4391 4.75832 16.4724C4.90832 16.5974 5.07499 16.7141 5.23332 16.8308L5.39999 16.9474C5.55832 17.0558 5.72499 17.1558 5.89999 17.2474C5.95832 17.2808 6.02499 17.3224 6.08332 17.3558C6.24999 17.4474 6.42499 17.5308 6.60832 17.6058C6.67499 17.6391 6.74166 17.6724 6.80832 17.6974C6.99166 17.7724 7.17499 17.8391 7.35832 17.8974C7.42499 17.9224 7.49166 17.9474 7.55832 17.9641C7.75832 18.0224 7.95832 18.0724 8.15832 18.1224C8.21666 18.1391 8.27499 18.1558 8.34166 18.1641C8.57499 18.2141 8.80832 18.2474 9.04999 18.2724C9.08332 18.2724 9.11666 18.2808 9.14999 18.2891C9.43332 18.3141 9.71666 18.3308 9.99999 18.3308C10.2833 18.3308 10.5667 18.3141 10.8417 18.2891C10.875 18.2891 10.9083 18.2808 10.9417 18.2724C11.1833 18.2474 11.4167 18.2141 11.65 18.1641C11.7083 18.1558 11.7667 18.1308 11.8333 18.1224C12.0333 18.0724 12.2417 18.0308 12.4333 17.9641C12.5 17.9391 12.5667 17.9141 12.6333 17.8974C12.8167 17.8308 13.0083 17.7724 13.1833 17.6974C13.25 17.6724 13.3167 17.6391 13.3833 17.6058C13.5583 17.5308 13.7333 17.4474 13.9083 17.3558C13.975 17.3224 14.0333 17.2808 14.0917 17.2474C14.2583 17.1474 14.425 17.0558 14.5917 16.9474C14.65 16.9141 14.7 16.8724 14.7583 16.8308C14.925 16.7141 15.0833 16.5974 15.2333 16.4724C15.2833 16.4308 15.325 16.3891 15.375 16.3558C15.4667 16.2808 15.5583 16.2058 15.6417 16.1308C15.6417 16.1224 15.6417 16.1224 15.6333 16.1141C17.2917 14.5891 18.3333 12.4141 18.3333 9.99743Z"
        fill="#04242D" />
    <path
        d="M10 5.77344C8.275 5.77344 6.875 7.17344 6.875 8.89844C6.875 10.5901 8.2 11.9651 9.95833 12.0151H10.1083C10.9173 11.9885 11.6842 11.6485 12.2471 11.067C12.81 10.4854 13.1248 9.7078 13.125 8.89844C13.125 7.17344 11.725 5.77344 10 5.77344Z"
        fill="#04242D" />
    <path fill-rule="evenodd" clip-rule="evenodd"
        d="M17.1456 2.64696C17.1144 2.61177 17.0706 2.59417 17.0144 2.59417C16.9582 2.59417 16.9129 2.61177 16.8786 2.64696C16.8473 2.67921 16.8317 2.7232 16.8317 2.77891V3.48169H15.5379L14.8922 2.66895C14.8485 2.6191 14.7954 2.59417 14.7329 2.59417C14.6736 2.59417 14.6267 2.61177 14.5924 2.64696C14.5612 2.67921 14.5455 2.7232 14.5455 2.77891V3.48169H14.441C14.3415 3.48169 14.2608 3.55743 14.2608 3.65086C14.2608 3.7443 14.3415 3.82004 14.441 3.82004H14.5455V4.54077H14.441C14.3415 4.54077 14.2608 4.61652 14.2608 4.70995C14.2608 4.80338 14.3415 4.87913 14.441 4.87913H14.5455V5.55442C14.5455 5.61013 14.5612 5.65559 14.5924 5.69078C14.6236 5.72303 14.6673 5.73916 14.7236 5.73916C14.7798 5.73916 14.8235 5.72303 14.8547 5.69078C14.8891 5.65559 14.9063 5.61013 14.9063 5.55442V4.87913H16.2251L16.8505 5.66438C16.8942 5.71423 16.9457 5.73916 17.0051 5.73916C17.0644 5.73916 17.1097 5.72303 17.1409 5.69078C17.1753 5.65559 17.1925 5.61013 17.1925 5.55442V4.87913H17.2256C17.3251 4.87913 17.4058 4.80338 17.4058 4.70995C17.4058 4.61652 17.3251 4.54077 17.2256 4.54077H17.1925V3.82004H17.2256C17.3251 3.82004 17.4058 3.7443 17.4058 3.65086C17.4058 3.55743 17.3251 3.48169 17.2256 3.48169H17.1925V2.77891C17.1925 2.7232 17.1768 2.67921 17.1456 2.64696ZM15.9556 4.54077L14.9063 4.54077V3.82004H15.3816L15.9556 4.54077ZM16.8317 5.11016L16.6482 4.87913H16.8317V5.11016ZM16.3794 4.54077H16.8317V3.82004H15.8067L16.3794 4.54077Z"
        fill="white" />
    <path fill-rule="evenodd" clip-rule="evenodd"
        d="M14.6599 2.7126C14.6496 2.72331 14.6397 2.7416 14.6397 2.77891V3.48169C14.6397 3.5337 14.5975 3.57586 14.5455 3.57586H14.441C14.3878 3.57586 14.355 3.61495 14.355 3.65086C14.355 3.68678 14.3878 3.72587 14.441 3.72587H14.5455C14.5975 3.72587 14.6397 3.76803 14.6397 3.82004V4.54077C14.6397 4.59278 14.5975 4.63495 14.5455 4.63495H14.441C14.3878 4.63495 14.355 4.67403 14.355 4.70995C14.355 4.74587 14.3878 4.78495 14.441 4.78495H14.5455C14.5975 4.78495 14.6397 4.82712 14.6397 4.87913V5.55442C14.6397 5.59023 14.6489 5.61178 14.6614 5.62661C14.6709 5.63575 14.6878 5.64499 14.7236 5.64499C14.7611 5.64499 14.7778 5.63482 14.7871 5.62527C14.8019 5.61005 14.8121 5.5891 14.8121 5.55442V4.87913C14.8121 4.82712 14.8543 4.78495 14.9063 4.78495H16.2251C16.2538 4.78495 16.2809 4.79802 16.2987 4.82046L16.9226 5.6038C16.9503 5.63476 16.9767 5.64499 17.0051 5.64499C17.0474 5.64499 17.0649 5.63386 17.0733 5.62527C17.0881 5.61006 17.0983 5.5891 17.0983 5.55442V4.87913C17.0983 4.82712 17.1404 4.78495 17.1925 4.78495H17.2256C17.2788 4.78495 17.3116 4.74587 17.3116 4.70995C17.3116 4.67403 17.2788 4.63495 17.2256 4.63495H17.1925C17.1404 4.63495 17.0983 4.59278 17.0983 4.54077V3.82004C17.0983 3.76803 17.1404 3.72587 17.1925 3.72587H17.2256C17.2788 3.72587 17.3116 3.68678 17.3116 3.65086C17.3116 3.61495 17.2788 3.57586 17.2256 3.57586H17.1925C17.1404 3.57586 17.0983 3.5337 17.0983 3.48169V2.77891C17.0983 2.74144 17.0883 2.72315 17.078 2.71246L17.0751 2.70953C17.0652 2.6984 17.0495 2.68835 17.0144 2.68835C16.9797 2.68835 16.9601 2.69829 16.9461 2.7126C16.9358 2.7233 16.9259 2.7416 16.9259 2.77891V3.48169C16.9259 3.5337 16.8837 3.57586 16.8317 3.57586H15.5379C15.5092 3.57586 15.4821 3.56276 15.4642 3.54027L14.82 2.72951C14.7934 2.69977 14.7659 2.68835 14.7329 2.68835C14.6935 2.68835 14.673 2.69929 14.6599 2.7126ZM14.525 2.58117C14.5807 2.52417 14.6538 2.5 14.7329 2.5C14.8243 2.5 14.9027 2.53804 14.963 2.60685L14.966 2.6103L15.5834 3.38751H16.7376V2.77891C16.7376 2.70495 16.7588 2.63527 16.8109 2.58145C16.8656 2.52546 16.9368 2.5 17.0144 2.5C17.0912 2.5 17.1622 2.52476 17.2147 2.58292C17.2658 2.63654 17.2866 2.70563 17.2866 2.77891V3.39415C17.4055 3.42035 17.5 3.52144 17.5 3.65086C17.5 3.78029 17.4055 3.88138 17.2866 3.90758V4.45324C17.4055 4.47943 17.5 4.58052 17.5 4.70995C17.5 4.83938 17.4055 4.94047 17.2866 4.96666V5.55442C17.2866 5.63111 17.2622 5.70128 17.2084 5.75643C17.1543 5.81224 17.0813 5.83333 17.0051 5.83333C16.9152 5.83333 16.8389 5.79404 16.7797 5.72648L16.7767 5.72312L16.1797 4.9733H15.0004V5.55442C15.0004 5.6311 14.976 5.70126 14.9223 5.7564C14.8691 5.81128 14.7984 5.83333 14.7236 5.83333C14.6487 5.83333 14.5779 5.81124 14.5247 5.75628L14.5219 5.75335C14.4726 5.69785 14.4514 5.62869 14.4514 5.55442V4.9733H14.441C14.2952 4.9733 14.1667 4.8609 14.1667 4.70995C14.1667 4.559 14.2952 4.4466 14.441 4.4466H14.4514V3.91421H14.441C14.2952 3.91421 14.1667 3.80181 14.1667 3.65086C14.1667 3.49992 14.2952 3.38751 14.441 3.38751H14.4514V2.77891C14.4514 2.70495 14.4729 2.63499 14.525 2.58117ZM14.8121 3.82004C14.8121 3.76803 14.8543 3.72587 14.9063 3.72587H15.3816C15.4103 3.72587 15.4374 3.73894 15.4553 3.76137L15.7423 4.12174L16.0293 4.48211C16.0518 4.51039 16.0561 4.54909 16.0404 4.58166C16.0247 4.61424 15.9918 4.63495 15.9556 4.63495L14.9063 4.63495C14.8543 4.63495 14.8121 4.59278 14.8121 4.54077V3.82004ZM15.0004 3.91421V4.4466L15.7602 4.4466L15.3362 3.91421H15.0004ZM15.7219 3.7791C15.7376 3.74655 15.7706 3.72587 15.8067 3.72587H16.8317C16.8837 3.72587 16.9259 3.76803 16.9259 3.82004V4.54077C16.9259 4.59278 16.8837 4.63495 16.8317 4.63495H16.3794C16.3506 4.63495 16.3235 4.62184 16.3056 4.59936L15.733 3.87862C15.7105 3.85032 15.7062 3.81165 15.7219 3.7791ZM16.0018 3.91421L16.4248 4.4466H16.7376V3.91421H16.0018ZM16.5634 4.83819C16.5791 4.80564 16.612 4.78495 16.6482 4.78495H16.8317C16.8837 4.78495 16.9259 4.82712 16.9259 4.87913V5.11016C16.9259 5.15022 16.9006 5.18589 16.8627 5.19908C16.8249 5.21227 16.7829 5.2001 16.758 5.16874L16.5744 4.93771C16.552 4.90941 16.5476 4.87074 16.5634 4.83819Z"
        fill="white" />
</svg>
    