<svg width="20" height="20" viewBox="0 0 20 20" fill="none" xmlns="http://www.w3.org/2000/svg">
<path d="M14.6083 6.4724C14.55 6.46406 14.4916 6.46406 14.4333 6.4724C13.1416 6.43073 12.1166 5.3724 12.1166 4.0724C12.1166 2.7474 13.1916 1.66406 14.525 1.66406C15.85 1.66406 16.9333 2.73906 16.9333 4.0724C16.925 5.3724 15.9 6.43073 14.6083 6.4724Z" fill="#758E95"/>
<path d="M17.325 12.2464C16.3916 12.8714 15.0833 13.1048 13.875 12.9464C14.1916 12.2631 14.3583 11.5048 14.3666 10.7048C14.3666 9.87143 14.1833 9.07976 13.8333 8.3881C15.0666 8.22143 16.375 8.45476 17.3166 9.07976C18.6333 9.94643 18.6333 11.3714 17.325 12.2464Z" fill="#758E95"/>
<path d="M5.36665 6.4724C5.42499 6.46406 5.48332 6.46406 5.54165 6.4724C6.83332 6.43073 7.85832 5.3724 7.85832 4.0724C7.85832 2.73906 6.78332 1.66406 5.44999 1.66406C4.12499 1.66406 3.04999 2.73906 3.04999 4.0724C3.04999 5.3724 4.07499 6.43073 5.36665 6.4724Z" fill="#758E95"/>
<path d="M5.45831 10.7049C5.45831 11.5133 5.63331 12.2799 5.94998 12.9716C4.77498 13.0966 3.54998 12.8466 2.64998 12.2549C1.33331 11.3799 1.33331 9.95492 2.64998 9.07992C3.54164 8.47992 4.79998 8.23825 5.98331 8.37159C5.64164 9.07159 5.45831 9.86325 5.45831 10.7049Z" fill="#758E95"/>
<path d="M10.1 13.225C10.0333 13.2167 9.95833 13.2167 9.88333 13.225C8.35 13.175 7.125 11.9167 7.125 10.3667C7.13333 8.78333 8.40833 7.5 10 7.5C11.5833 7.5 12.8667 8.78333 12.8667 10.3667C12.8583 11.9167 11.6417 13.175 10.1 13.225Z" fill="#758E95"/>
<path d="M7.39169 14.9531C6.13335 15.7948 6.13335 17.1781 7.39169 18.0115C8.82502 18.9698 11.175 18.9698 12.6084 18.0115C13.8667 17.1698 13.8667 15.7865 12.6084 14.9531C11.1834 13.9948 8.83335 13.9948 7.39169 14.9531Z" fill="#758E95"/>
</svg>
