<svg width="20" height="20" viewBox="0 0 20 20" fill="none" xmlns="http://www.w3.org/2000/svg">
    <rect width="20" height="20" rx="4" fill="#33B8D3" fill-opacity="0.08" />
    <path
        d="M7.5 1.66406C5.31666 1.66406 3.54166 3.43906 3.54166 5.6224C3.54166 7.76406 5.21666 9.4974 7.4 9.5724C7.46666 9.56406 7.53333 9.56406 7.58333 9.5724H7.64166C8.66613 9.53821 9.63714 9.10696 10.3494 8.36982C11.0617 7.63268 11.4593 6.64743 11.4583 5.6224C11.4583 3.43906 9.68333 1.66406 7.5 1.66406ZM11.7333 11.7882C9.40833 10.2382 5.61666 10.2382 3.275 11.7882C2.21666 12.4966 1.63333 13.4549 1.63333 14.4799C1.63333 15.5049 2.21666 16.4549 3.26666 17.1549C4.43333 17.9382 5.96666 18.3299 7.5 18.3299C9.03333 18.3299 10.5667 17.9382 11.7333 17.1549C12.7833 16.4466 13.3667 15.4966 13.3667 14.4632C13.3583 13.4382 12.7833 12.4882 11.7333 11.7882ZM16.6583 6.1124C16.7917 7.72906 15.6417 9.14573 14.05 9.3374H14.0083C13.9583 9.3374 13.9083 9.3374 13.8667 9.35406C13.0583 9.39573 12.3167 9.1374 11.7583 8.6624C12.6167 7.89573 13.1083 6.74573 13.0083 5.49573C12.9512 4.84573 12.7304 4.22078 12.3667 3.67906C12.8033 3.46663 13.2851 3.36362 13.7705 3.37891C14.2558 3.39421 14.7301 3.52735 15.1526 3.76686C15.575 4.00636 15.9328 4.34504 16.1951 4.75367C16.4574 5.1623 16.6164 5.62862 16.6583 6.1124Z"
        fill="#04242D" />
    <path
        d="M18.3233 13.8227C18.2567 14.6311 17.74 15.3311 16.8733 15.8061C16.04 16.2644 14.99 16.4811 13.9483 16.4561C14.5483 15.9144 14.8983 15.2394 14.965 14.5227C15.0483 13.4894 14.5567 12.4977 13.5733 11.7061C13.015 11.2644 12.365 10.9144 11.6567 10.6561C13.4983 10.1227 15.815 10.4811 17.24 11.6311C18.0067 12.2477 18.3983 13.0227 18.3233 13.8227Z"
        fill="#225765" />
</svg>
    