<svg width="20" height="20" viewBox="0 0 18 18" fill="none" xmlns="http://www.w3.org/2000/svg">
    <path
        d="M8.17499 15.1834C10.1663 15.1834 12.0761 14.3924 13.4842 12.9843C14.8923 11.5762 15.6833 9.66642 15.6833 7.67508C15.6833 5.68375 14.8923 3.77397 13.4842 2.36589C12.0761 0.957802 10.1663 0.166748 8.17499 0.166748C6.18366 0.166748 4.27388 0.957802 2.8658 2.36589C1.45771 3.77397 0.666656 5.68375 0.666656 7.67508C0.666656 9.66642 1.45771 11.5762 2.8658 12.9843C4.27388 14.3924 6.18366 15.1834 8.17499 15.1834ZM17.325 14.2917C17.05 13.7834 16.4667 13.5001 15.6833 13.5001C15.0917 13.5001 14.5833 13.7417 14.2833 14.1584C13.9833 14.5751 13.9167 15.1334 14.1 15.6917C14.4583 16.7751 15.0833 17.0167 15.425 17.0584C15.475 17.0667 15.525 17.0667 15.5833 17.0667C15.95 17.0667 16.5167 16.9084 17.0667 16.0834C17.5083 15.4417 17.5917 14.8001 17.325 14.2917Z"
        fill="#225765" />
</svg>
    