<svg width="20" height="20" viewBox="0 0 20 20" fill="none" xmlns="http://www.w3.org/2000/svg">
<path d="M18.3083 1.94039C17.9984 1.59021 17.6173 1.31019 17.1905 1.11906C16.7637 0.927934 16.301 0.830087 15.8333 0.832061C15.3954 0.831512 14.9617 0.917357 14.5571 1.08468C14.1524 1.252 13.7847 1.49751 13.4751 1.80715C13.1655 2.11679 12.9199 2.48447 12.7526 2.88913C12.5853 3.2938 12.4995 3.7275 12.5 4.16539C12.5 4.79039 12.675 5.38206 12.9833 5.88206C13.15 6.16539 13.3667 6.42373 13.6167 6.64039C14.2 7.17373 14.975 7.49873 15.8333 7.49873C16.2 7.49873 16.55 7.44039 16.875 7.32373C19.1495 6.60677 19.884 3.68841 18.3083 1.94039Z" fill="#71939C"/>
<path d="M18.3333 10.0013C18.3333 8.90967 18.125 7.85967 17.7333 6.90134C17.475 7.08467 17.1833 7.22634 16.875 7.32634C16.7833 7.35967 16.6917 7.38467 16.5917 7.40967C17.0944 8.68606 17.2147 10.0812 16.938 11.4248C16.6613 12.7684 15.9995 14.0025 15.0333 14.9763C14.7917 14.668 14.4833 14.3847 14.1167 14.143C11.8583 12.6263 8.15834 12.6263 5.88334 14.143C5.51667 14.3847 5.21667 14.668 4.96667 14.9763C3.65402 13.6532 2.91721 11.8651 2.91667 10.0013C2.91667 6.093 6.09167 2.918 10 2.918C10.9083 2.918 11.7833 3.093 12.5833 3.40967C12.6083 3.30967 12.6333 3.218 12.6667 3.118C12.7667 2.80967 12.9083 2.52634 13.1 2.268C12.1154 1.86866 11.0625 1.66486 10 1.668C5.40834 1.668 1.66667 5.40967 1.66667 10.0013C1.66667 12.418 2.70834 14.593 4.35834 16.118C4.35834 16.1263 4.35834 16.1263 4.35 16.1347C4.43334 16.218 4.53334 16.2847 4.61667 16.3597C4.66667 16.4013 4.70834 16.443 4.75834 16.4763C4.90834 16.6013 5.07501 16.718 5.23334 16.8347L5.40001 16.9513C5.55834 17.0597 5.72501 17.1597 5.9 17.2513C5.95834 17.2847 6.02501 17.3263 6.08334 17.3597C6.25001 17.4513 6.425 17.5347 6.60834 17.6097C6.675 17.643 6.74167 17.6763 6.80834 17.7013C6.99167 17.7763 7.175 17.843 7.35834 17.9013C7.425 17.9263 7.49167 17.9513 7.55834 17.968C7.75834 18.0263 7.95834 18.0763 8.15834 18.1263C8.21667 18.143 8.27501 18.1597 8.34167 18.168C8.57501 18.218 8.80834 18.2513 9.05 18.2763C9.08334 18.2763 9.11667 18.2847 9.15 18.293C9.43334 18.318 9.71667 18.3347 10 18.3347C10.2833 18.3347 10.5667 18.318 10.8417 18.293C10.875 18.293 10.9083 18.2847 10.9417 18.2763C11.1833 18.2513 11.4167 18.218 11.65 18.168C11.7083 18.1597 11.7667 18.1347 11.8333 18.1263C12.0333 18.0763 12.2417 18.0347 12.4333 17.968C12.5 17.943 12.5667 17.918 12.6333 17.9013C12.8167 17.8347 13.0083 17.7763 13.1833 17.7013C13.25 17.6763 13.3167 17.643 13.3833 17.6097C13.5583 17.5347 13.7333 17.4513 13.9083 17.3597C13.975 17.3263 14.0333 17.2847 14.0917 17.2513C14.2583 17.1513 14.425 17.0597 14.5917 16.9513C14.65 16.918 14.7 16.8763 14.7583 16.8347C14.925 16.718 15.0833 16.6013 15.2333 16.4763C15.2833 16.4347 15.325 16.393 15.375 16.3597C15.4667 16.2847 15.5583 16.2097 15.6417 16.1347C15.6417 16.1263 15.6417 16.1263 15.6333 16.118C17.2917 14.593 18.3333 12.418 18.3333 10.0013Z" fill="#71939C"/>
<path d="M10 5.77344C8.275 5.77344 6.875 7.17344 6.875 8.89844C6.875 10.5901 8.2 11.9651 9.95833 12.0151H10.1083C10.9173 11.9885 11.6842 11.6485 12.2471 11.067C12.81 10.4854 13.1248 9.7078 13.125 8.89844C13.125 7.17344 11.725 5.77344 10 5.77344Z" fill="#71939C"/>
<path fill-rule="evenodd" clip-rule="evenodd" d="M17.1456 2.64696C17.1144 2.61177 17.0707 2.59417 17.0144 2.59417C16.9582 2.59417 16.9129 2.61177 16.8786 2.64696C16.8474 2.67921 16.8317 2.7232 16.8317 2.77891V3.48169H15.5379L14.8922 2.66895C14.8485 2.6191 14.7954 2.59417 14.7329 2.59417C14.6736 2.59417 14.6268 2.61177 14.5924 2.64696C14.5612 2.67921 14.5456 2.7232 14.5456 2.77891V3.48169H14.441C14.3415 3.48169 14.2608 3.55743 14.2608 3.65086C14.2608 3.7443 14.3415 3.82004 14.441 3.82004H14.5456V4.54077H14.441C14.3415 4.54077 14.2608 4.61652 14.2608 4.70995C14.2608 4.80338 14.3415 4.87913 14.441 4.87913H14.5456V5.55442C14.5456 5.61013 14.5612 5.65559 14.5924 5.69078C14.6236 5.72303 14.6674 5.73916 14.7236 5.73916C14.7798 5.73916 14.8235 5.72303 14.8547 5.69078C14.8891 5.65559 14.9063 5.61013 14.9063 5.55442V4.87913H16.2251L16.8505 5.66438C16.8942 5.71423 16.9457 5.73916 17.0051 5.73916C17.0644 5.73916 17.1097 5.72303 17.1409 5.69078C17.1753 5.65559 17.1925 5.61013 17.1925 5.55442V4.87913H17.2256C17.3252 4.87913 17.4058 4.80338 17.4058 4.70995C17.4058 4.61652 17.3252 4.54077 17.2256 4.54077H17.1925V3.82004H17.2256C17.3252 3.82004 17.4058 3.7443 17.4058 3.65086C17.4058 3.55743 17.3252 3.48169 17.2256 3.48169H17.1925V2.77891C17.1925 2.7232 17.1769 2.67921 17.1456 2.64696ZM15.9556 4.54077L14.9063 4.54077V3.82004H15.3816L15.9556 4.54077ZM16.8317 5.11016L16.6482 4.87913H16.8317V5.11016ZM16.3794 4.54077H16.8317V3.82004H15.8068L16.3794 4.54077Z" fill="white"/>
<path fill-rule="evenodd" clip-rule="evenodd" d="M14.6599 2.7126C14.6496 2.72331 14.6397 2.7416 14.6397 2.77891V3.48169C14.6397 3.5337 14.5976 3.57586 14.5456 3.57586H14.441C14.3878 3.57586 14.355 3.61495 14.355 3.65086C14.355 3.68678 14.3878 3.72587 14.441 3.72587H14.5456C14.5976 3.72587 14.6397 3.76803 14.6397 3.82004V4.54077C14.6397 4.59278 14.5976 4.63495 14.5456 4.63495H14.441C14.3878 4.63495 14.355 4.67403 14.355 4.70995C14.355 4.74587 14.3878 4.78495 14.441 4.78495H14.5456C14.5976 4.78495 14.6397 4.82712 14.6397 4.87913V5.55442C14.6397 5.59023 14.6489 5.61178 14.6614 5.62661C14.6709 5.63575 14.6878 5.64499 14.7236 5.64499C14.7611 5.64499 14.7778 5.63482 14.7871 5.62527C14.8019 5.61005 14.8121 5.5891 14.8121 5.55442V4.87913C14.8121 4.82712 14.8543 4.78495 14.9063 4.78495H16.2251C16.2538 4.78495 16.2809 4.79802 16.2988 4.82046L16.9226 5.6038C16.9503 5.63476 16.9767 5.64499 17.0051 5.64499C17.0475 5.64499 17.065 5.63386 17.0733 5.62527C17.0881 5.61006 17.0983 5.5891 17.0983 5.55442V4.87913C17.0983 4.82712 17.1405 4.78495 17.1925 4.78495H17.2256C17.2788 4.78495 17.3117 4.74587 17.3117 4.70995C17.3117 4.67403 17.2788 4.63495 17.2256 4.63495H17.1925C17.1405 4.63495 17.0983 4.59278 17.0983 4.54077V3.82004C17.0983 3.76803 17.1405 3.72587 17.1925 3.72587H17.2256C17.2788 3.72587 17.3117 3.68678 17.3117 3.65086C17.3117 3.61495 17.2788 3.57586 17.2256 3.57586H17.1925C17.1405 3.57586 17.0983 3.5337 17.0983 3.48169V2.77891C17.0983 2.74144 17.0883 2.72315 17.078 2.71246L17.0751 2.70953C17.0652 2.6984 17.0495 2.68835 17.0144 2.68835C16.9798 2.68835 16.9602 2.69829 16.9461 2.7126C16.9358 2.7233 16.9259 2.7416 16.9259 2.77891V3.48169C16.9259 3.5337 16.8838 3.57586 16.8317 3.57586H15.5379C15.5092 3.57586 15.4821 3.56276 15.4642 3.54027L14.8201 2.72951C14.7934 2.69977 14.7659 2.68835 14.7329 2.68835C14.6935 2.68835 14.673 2.69929 14.6599 2.7126ZM14.525 2.58117C14.5807 2.52417 14.6539 2.5 14.7329 2.5C14.8244 2.5 14.9027 2.53804 14.963 2.60685L14.9661 2.6103L15.5834 3.38751H16.7376V2.77891C16.7376 2.70495 16.7588 2.63527 16.8109 2.58145C16.8656 2.52546 16.9368 2.5 17.0144 2.5C17.0912 2.5 17.1622 2.52476 17.2147 2.58292C17.2658 2.63654 17.2866 2.70563 17.2866 2.77891V3.39415C17.4055 3.42035 17.5 3.52144 17.5 3.65086C17.5 3.78029 17.4055 3.88138 17.2866 3.90758V4.45324C17.4055 4.47943 17.5 4.58052 17.5 4.70995C17.5 4.83938 17.4055 4.94047 17.2866 4.96666V5.55442C17.2866 5.63111 17.2622 5.70128 17.2085 5.75643C17.1543 5.81224 17.0813 5.83333 17.0051 5.83333C16.9153 5.83333 16.8389 5.79404 16.7797 5.72648L16.7767 5.72312L16.1797 4.9733H15.0005V5.55442C15.0005 5.6311 14.976 5.70126 14.9223 5.7564C14.8691 5.81128 14.7984 5.83333 14.7236 5.83333C14.6487 5.83333 14.578 5.81124 14.5247 5.75628L14.5219 5.75335C14.4726 5.69785 14.4514 5.62869 14.4514 5.55442V4.9733H14.441C14.2952 4.9733 14.1667 4.8609 14.1667 4.70995C14.1667 4.559 14.2952 4.4466 14.441 4.4466H14.4514V3.91421H14.441C14.2952 3.91421 14.1667 3.80181 14.1667 3.65086C14.1667 3.49992 14.2952 3.38751 14.441 3.38751H14.4514V2.77891C14.4514 2.70495 14.4729 2.63499 14.525 2.58117ZM14.8121 3.82004C14.8121 3.76803 14.8543 3.72587 14.9063 3.72587H15.3816C15.4103 3.72587 15.4374 3.73894 15.4553 3.76137L15.7423 4.12174L16.0293 4.48211C16.0518 4.51039 16.0562 4.54909 16.0405 4.58166C16.0248 4.61424 15.9918 4.63495 15.9556 4.63495L14.9063 4.63495C14.8543 4.63495 14.8121 4.59278 14.8121 4.54077V3.82004ZM15.0005 3.91421V4.4466L15.7602 4.4466L15.3362 3.91421H15.0005ZM15.7219 3.7791C15.7377 3.74655 15.7706 3.72587 15.8068 3.72587H16.8317C16.8838 3.72587 16.9259 3.76803 16.9259 3.82004V4.54077C16.9259 4.59278 16.8838 4.63495 16.8317 4.63495H16.3794C16.3506 4.63495 16.3235 4.62184 16.3056 4.59936L15.733 3.87862C15.7105 3.85032 15.7062 3.81165 15.7219 3.7791ZM16.0019 3.91421L16.4248 4.4466H16.7376V3.91421H16.0019ZM16.5634 4.83819C16.5791 4.80564 16.612 4.78495 16.6482 4.78495H16.8317C16.8838 4.78495 16.9259 4.82712 16.9259 4.87913V5.11016C16.9259 5.15022 16.9006 5.18589 16.8628 5.19908C16.8249 5.21227 16.7829 5.2001 16.758 5.16874L16.5744 4.93771C16.552 4.90941 16.5477 4.87074 16.5634 4.83819Z" fill="white"/>
</svg>
