<svg width="18" height="19" viewBox="0 0 18 19" fill="none" xmlns="http://www.w3.org/2000/svg">
    <path
        d="M14 5.35499C13.9373 5.34571 13.8735 5.34571 13.8108 5.35499C13.1377 5.33231 12.4996 5.04055 12.0319 4.54157C11.5641 4.0426 11.3035 3.37565 11.3053 2.68213C11.3053 1.2065 12.4679 0 13.9099 0C15.3429 0 16.5145 1.19722 16.5145 2.68213C16.5126 3.37608 16.2495 4.04225 15.7806 4.54068C15.3118 5.0391 14.6735 5.33098 14 5.35499ZM16.9399 11.7865C15.9305 12.4826 14.5155 12.7425 13.2087 12.5661C13.5512 11.8051 13.7315 10.9606 13.7405 10.0696C13.7405 9.14153 13.5422 8.25986 13.1637 7.48956C14.4975 7.30394 15.9125 7.5638 16.9309 8.25986C18.3549 9.22506 18.3549 10.8121 16.9399 11.7865ZM4.00516 5.35499C4.06824 5.34571 4.13133 5.34571 4.19442 5.35499C4.86753 5.33231 5.5056 5.04055 5.97332 4.54157C6.44105 4.0426 6.70166 3.37565 6.6999 2.68213C6.6999 2.33052 6.63264 1.98235 6.50197 1.6575C6.37131 1.33265 6.17978 1.03749 5.93834 0.78886C5.6969 0.540232 5.41027 0.343009 5.09481 0.208452C4.77935 0.0738957 4.44124 0.00464026 4.09979 0.00464026C3.75834 0.00464026 3.42023 0.0738957 3.10477 0.208452C2.78931 0.343009 2.50268 0.540232 2.26123 0.78886C2.01979 1.03749 1.82827 1.33265 1.6976 1.6575C1.56693 1.98235 1.49968 2.33052 1.49968 2.68213C1.49968 4.12993 2.60822 5.30858 4.00516 5.35499ZM4.1052 10.0696C4.1052 10.9698 4.29446 11.8237 4.63693 12.594C3.36617 12.7332 2.04133 12.4548 1.06798 11.7958C-0.355994 10.8213 -0.355994 9.23434 1.06798 8.25986C2.03232 7.59165 3.39321 7.32251 4.67298 7.471C4.30347 8.25058 4.1052 9.13225 4.1052 10.0696ZM9.12426 12.8724C9.04641 12.8631 8.96778 12.8631 8.88993 12.8724C8.08858 12.8447 7.32915 12.4969 6.77238 11.9028C6.2156 11.3087 5.90517 10.5148 5.9068 9.68909C5.91581 7.92575 7.29472 6.49652 9.01611 6.49652C10.7285 6.49652 12.1164 7.92575 12.1164 9.68909C12.1159 10.5157 11.8036 11.3097 11.2453 11.9037C10.687 12.4976 9.92651 12.8449 9.12426 12.8724ZM6.1952 14.7935C4.83431 15.7309 4.83431 17.2715 6.1952 18.1995C7.74535 19.2668 10.2869 19.2668 11.837 18.1995C13.1979 17.2622 13.1979 15.7216 11.837 14.7935C10.2959 13.7262 7.75436 13.7262 6.1952 14.7935Z"
        fill="#FF3739" />
</svg>
    