<svg width="54" height="54" viewBox="0 0 54 54" fill="none" xmlns="http://www.w3.org/2000/svg">
<path d="M7.125 40.2503H6.375H7.125ZM7.125 13.7503H7.875H7.125ZM15.9583 4.91699V4.16699V4.91699ZM38.0417 4.91699V4.16699V4.91699ZM46.875 13.7503H46.125H46.875ZM46.875 27.7581H47.625H46.875ZM25.5494 49.0837V48.3337V49.0837ZM15.9583 49.0837V49.8337V49.0837ZM44.2878 34.0042L43.7574 33.4739L44.2878 34.0042ZM31.7956 46.4964L32.3259 47.0268L31.7956 46.4964ZM29.2083 40.2503H28.4583H29.2083ZM38.0417 31.417V30.667V31.417ZM19.8447 19.845C19.5518 20.1379 19.5518 20.6128 19.8447 20.9057C20.1376 21.1986 20.6124 21.1986 20.9053 20.9057L19.8447 19.845ZM23.8769 16.8734L24.4073 17.4037L23.8769 16.8734ZM30.1231 16.8734L29.5927 17.4037L30.1231 16.8734ZM33.0947 20.9057C33.3876 21.1986 33.8624 21.1986 34.1553 20.9057C34.4482 20.6128 34.4482 20.1379 34.1553 19.845L33.0947 20.9057ZM27.75 15.9587C27.75 15.5444 27.4142 15.2087 27 15.2087C26.5858 15.2087 26.25 15.5444 26.25 15.9587H27.75ZM26.25 27.0003C26.25 27.4145 26.5858 27.7503 27 27.7503C27.4142 27.7503 27.75 27.4145 27.75 27.0003H26.25ZM7.875 40.2503L7.875 13.7503H6.375L6.375 40.2503H7.875ZM15.9583 5.66699L38.0417 5.66699V4.16699L15.9583 4.16699V5.66699ZM46.125 13.7503V27.7581H47.625V13.7503H46.125ZM25.5494 48.3337H15.9583V49.8337H25.5494V48.3337ZM43.7574 33.4739L31.2652 45.9661L32.3259 47.0268L44.8181 34.5345L43.7574 33.4739ZM25.5494 49.8337C28.0911 49.8337 30.5287 48.824 32.3259 47.0268L31.2652 45.9661C29.7493 47.482 27.6933 48.3337 25.5494 48.3337V49.8337ZM46.125 27.7581C46.125 29.9019 45.2734 31.958 43.7574 33.4739L44.8181 34.5345C46.6153 32.7373 47.625 30.2998 47.625 27.7581H46.125ZM7.875 13.7503C7.875 9.28602 11.494 5.66699 15.9583 5.66699V4.16699C10.6656 4.16699 6.375 8.4576 6.375 13.7503H7.875ZM6.375 40.2503C6.375 45.5431 10.6656 49.8337 15.9583 49.8337V48.3337C11.494 48.3337 7.875 44.7146 7.875 40.2503H6.375ZM38.0417 5.66699C42.506 5.66699 46.125 9.28603 46.125 13.7503H47.625C47.625 8.4576 43.3344 4.16699 38.0417 4.16699V5.66699ZM29.9583 49.0837V40.2503H28.4583V49.0837H29.9583ZM38.0417 32.167L46.875 32.167V30.667L38.0417 30.667V32.167ZM29.9583 40.2503C29.9583 35.786 33.5774 32.167 38.0417 32.167V30.667C32.7489 30.667 28.4583 34.9576 28.4583 40.2503H29.9583ZM20.9053 20.9057L24.4073 17.4037L23.3466 16.3431L19.8447 19.845L20.9053 20.9057ZM29.5927 17.4037L33.0947 20.9057L34.1553 19.845L30.6534 16.3431L29.5927 17.4037ZM26.25 15.9587V27.0003H27.75V15.9587H26.25ZM24.4073 17.4037C25.8392 15.9718 28.1608 15.9718 29.5927 17.4037L30.6534 16.3431C28.6357 14.3253 25.3643 14.3253 23.3466 16.3431L24.4073 17.4037Z" fill="#808D97"/>
</svg>
