<svg width="20" height="20" viewBox="0 0 20 20" fill="none" xmlns="http://www.w3.org/2000/svg">
    <rect width="20" height="20" rx="4" fill="#33B8D3" fill-opacity="0.08" />
    <path fill-rule="evenodd" clip-rule="evenodd"
        d="M6.928 3C6.50497 3.00014 6.08948 3.11721 5.72365 3.33935C5.35781 3.56149 5.05463 3.88081 4.8448 4.26494L3.2504 7.18301H2.32C2.23513 7.18301 2.15374 7.21826 2.09373 7.28102C2.03371 7.34378 2 7.42889 2 7.51765V7.91503C1.99984 8.06442 2.04749 8.20957 2.13534 8.32737C2.22319 8.44517 2.34621 8.52885 2.4848 8.56507L2.504 8.56925C2.16995 9.29431 2.04301 10.1048 2.1384 10.9034L2.7184 15.7565C2.76677 16.1612 2.95484 16.5336 3.24728 16.8035C3.53971 17.0734 3.91635 17.2223 4.3064 17.2222H4.4C4.82435 17.2222 5.23131 17.0459 5.53137 16.7322C5.83143 16.4184 6 15.9928 6 15.549H14C14 15.9928 14.1686 16.4184 14.4686 16.7322C14.7687 17.0459 15.1757 17.2222 15.6 17.2222H15.6936C16.0836 17.2223 16.4603 17.0734 16.7527 16.8035C17.0452 16.5336 17.2332 16.1612 17.2816 15.7565L17.8616 10.9042C17.957 10.1056 17.8301 9.29515 17.496 8.57009L17.5152 8.56507C17.6538 8.52885 17.7768 8.44517 17.8647 8.32737C17.9525 8.20957 18.0002 8.06442 18 7.91503V7.51765C18 7.42889 17.9663 7.34378 17.9063 7.28102C17.8463 7.21826 17.7649 7.18301 17.68 7.18301H16.7496L15.1552 4.26494C14.9454 3.88081 14.6422 3.56149 14.2764 3.33935C13.9105 3.11721 13.495 3.00014 13.072 3H6.9288H6.928ZM15.1376 7.60465L13.7664 5.09485C13.6964 4.96668 13.5952 4.86016 13.4731 4.78611C13.351 4.71206 13.2123 4.6731 13.0712 4.6732H6.9288C6.78765 4.6731 6.64899 4.71206 6.5269 4.78611C6.4048 4.86016 6.30361 4.96668 6.2336 5.09485L4.8624 7.60465C4.79291 7.73187 4.75659 7.87593 4.75706 8.02243C4.75754 8.16894 4.79479 8.31274 4.8651 8.43946C4.93541 8.56618 5.0363 8.67137 5.15769 8.74451C5.27908 8.81764 5.41671 8.85616 5.5568 8.85621H14.4432C14.5833 8.85616 14.7209 8.81764 14.8423 8.74451C14.9637 8.67137 15.0646 8.56618 15.1349 8.43946C15.2052 8.31274 15.2425 8.16894 15.2429 8.02243C15.2434 7.87593 15.2071 7.73187 15.1376 7.60465ZM4.4 12.2352V11.6496C4.39996 11.5771 4.41793 11.5059 4.45214 11.4429C4.48635 11.3799 4.53564 11.3272 4.59516 11.2901C4.65469 11.253 4.72241 11.2327 4.7917 11.2312C4.86098 11.2297 4.92945 11.247 4.9904 11.2815L7.184 12.5197C7.4824 12.6887 7.3584 13.163 7.0192 13.1488L5.168 13.071C4.9617 13.0624 4.76658 12.9707 4.62344 12.8151C4.48031 12.6594 4.40025 12.452 4.4 12.2361V12.2352ZM15.6 11.6496V12.2352C15.6002 12.4514 15.5203 12.6593 15.3771 12.8153C15.2339 12.9713 15.0386 13.0632 14.832 13.0718L12.9808 13.1488C12.6416 13.163 12.5168 12.6887 12.816 12.5197L15.0096 11.2815C15.0705 11.247 15.139 11.2297 15.2083 11.2312C15.2776 11.2327 15.3453 11.253 15.4048 11.2901C15.4644 11.3272 15.5136 11.3799 15.5479 11.4429C15.5821 11.5059 15.6 11.5771 15.6 11.6496Z"
        fill="#04242D" />
</svg>
    