<svg width="16" height="17" viewBox="0 0 16 17" fill="none" xmlns="http://www.w3.org/2000/svg">
    <path
        d="M11.3577 0H4.65032C1.73687 0 0 1.73687 0 4.65032V11.3497C0 14.2711 1.73687 16.008 4.65032 16.008H11.3497C14.2631 16.008 16 14.2711 16 11.3577V4.65032C16.008 1.73687 14.2711 0 11.3577 0ZM11.8619 7.05952C11.6298 7.29163 11.2456 7.29163 11.0135 7.05952L8.60429 4.65032V12.8064C8.60429 13.1345 8.33215 13.4067 8.00399 13.4067C7.67582 13.4067 7.40369 13.1345 7.40369 12.8064V4.65032L4.99449 7.05952C4.76237 7.29163 4.37818 7.29163 4.14607 7.05952C4.09002 7.00404 4.04559 6.93796 4.01535 6.86512C3.98512 6.79229 3.9697 6.71416 3.96998 6.63531C3.96998 6.48323 4.03401 6.32315 4.14607 6.21109L7.57978 2.77738C7.69233 2.66497 7.84491 2.60182 8.00399 2.60182C8.16307 2.60182 8.31564 2.66497 8.4282 2.77738L11.8619 6.21109C12.094 6.44321 12.094 6.8194 11.8619 7.05952Z"
        fill="#FF3739" />
</svg>
    