<svg width="16" height="17" viewBox="0 0 16 17" fill="none" xmlns="http://www.w3.org/2000/svg">
    <path
        d="M4.64234 16.0078L11.3497 16.0078C14.2631 16.0078 16 14.2709 16 11.3575L16 4.65816C16 1.7367 14.2631 -0.000164032 11.3497 -0.000164032L4.65034 -0.000164032C1.73689 -0.000164032 2.76566e-05 1.7367 2.76566e-05 4.65015L2.76566e-05 11.3575C-0.00797653 14.2709 1.72889 16.0078 4.64234 16.0078ZM4.13809 8.9483C4.3702 8.71618 4.7544 8.71618 4.98651 8.9483L7.39571 11.3575L7.39571 3.20143C7.39571 2.87327 7.66785 2.60113 7.99601 2.60113C8.32418 2.60113 8.59631 2.87327 8.59631 3.20143L8.59631 11.3575L11.0055 8.9483C11.2376 8.71618 11.6218 8.71618 11.8539 8.9483C11.91 9.00377 11.9544 9.06986 11.9846 9.14269C12.0149 9.21552 12.0303 9.29365 12.03 9.37251C12.03 9.52458 11.966 9.68466 11.8539 9.79672L8.42022 13.2304C8.30767 13.3428 8.15509 13.406 7.99601 13.406C7.83693 13.406 7.68436 13.3428 7.5718 13.2304L4.13809 9.79672C3.90597 9.5646 3.90597 9.18841 4.13809 8.9483Z"
        fill="#15A323" />
</svg>
    