<svg width="17" height="14" viewBox="0 0 17 14" fill="none" xmlns="http://www.w3.org/2000/svg">
    <path
        d="M12.3529 0H4.11765C1.64706 0 0 1.23529 0 4.11765V9.88235C0 12.7647 1.64706 14 4.11765 14H12.3529C14.8235 14 16.4706 12.7647 16.4706 9.88235V4.11765C16.4706 1.23529 14.8235 0 12.3529 0ZM1.44118 4.11765C1.44118 2.64353 2.64353 1.44118 4.11765 1.44118H5.35294C5.69059 1.44118 5.97059 1.72118 5.97059 2.05882C5.97059 2.39647 5.69059 2.67647 5.35294 2.67647H4.11765C3.32706 2.67647 2.67647 3.32706 2.67647 4.11765V5.35294C2.67647 5.69059 2.39647 5.97059 2.05882 5.97059C1.72118 5.97059 1.44118 5.69059 1.44118 5.35294V4.11765ZM5.35294 12.5588H4.11765C2.64353 12.5588 1.44118 11.3565 1.44118 9.88235V8.64706C1.44118 8.30941 1.72118 8.02941 2.05882 8.02941C2.39647 8.02941 2.67647 8.30941 2.67647 8.64706V9.88235C2.67647 10.6729 3.32706 11.3235 4.11765 11.3235H5.35294C5.69059 11.3235 5.97059 11.6035 5.97059 11.9412C5.97059 12.2788 5.69059 12.5588 5.35294 12.5588ZM8.23529 9.47059C6.86824 9.47059 5.76471 8.36706 5.76471 7C5.76471 5.63294 6.86824 4.52941 8.23529 4.52941C9.60235 4.52941 10.7059 5.63294 10.7059 7C10.7059 8.36706 9.60235 9.47059 8.23529 9.47059ZM15.0294 9.88235C15.0294 11.3565 13.8271 12.5588 12.3529 12.5588H11.1176C10.78 12.5588 10.5 12.2788 10.5 11.9412C10.5 11.6035 10.78 11.3235 11.1176 11.3235H12.3529C13.1435 11.3235 13.7941 10.6729 13.7941 9.88235V8.64706C13.7941 8.30941 14.0741 8.02941 14.4118 8.02941C14.7494 8.02941 15.0294 8.30941 15.0294 8.64706V9.88235ZM15.0294 5.35294C15.0294 5.69059 14.7494 5.97059 14.4118 5.97059C14.0741 5.97059 13.7941 5.69059 13.7941 5.35294V4.11765C13.7941 3.32706 13.1435 2.67647 12.3529 2.67647H11.1176C10.78 2.67647 10.5 2.39647 10.5 2.05882C10.5 1.72118 10.78 1.44118 11.1176 1.44118H12.3529C13.8271 1.44118 15.0294 2.64353 15.0294 4.11765V5.35294Z"
        fill="#03C2FE" />
</svg>
    