<svg width="332" height="203" viewBox="0 0 332 203" fill="none" xmlns="http://www.w3.org/2000/svg">
<g clip-path="url(#clip0_42_18)">
<rect y="0.373047" width="332" height="202" rx="16" fill="#EFFFE1"/>
<g clip-path="url(#clip1_42_18)">
<g opacity="0.3">
<mask id="mask0_42_18" style="mask-type:luminance" maskUnits="userSpaceOnUse" x="-48" y="102" width="907" height="448">
<path d="M744.435 327.792C748.124 330.284 751.556 333.12 754.742 336.28C760.316 336.483 765.624 337.009 770.682 337.83C763.056 333.081 754.201 329.854 744.435 327.792ZM726.224 325.534C729.671 328.835 732.827 332.551 735.754 336.593C741.894 336.15 747.763 336.04 753.403 336.206C750.005 332.917 746.33 329.993 742.375 327.444C737.244 326.483 731.851 325.855 726.224 325.534ZM714.618 316.274C718.431 318.746 721.987 321.587 725.348 324.712C730.72 324.969 735.877 325.508 740.802 326.343C733.062 321.651 724.266 318.372 714.618 316.274ZM707.579 325.553C710.698 329.608 713.59 334.017 716.207 338.846C722.583 337.862 728.789 337.091 734.742 336.632C731.724 332.537 728.461 328.788 724.905 325.461C719.357 325.194 713.58 325.225 707.579 325.553ZM696.905 313.948C700.499 317.216 703.856 320.858 706.99 324.849C712.883 324.495 718.565 324.423 724.025 324.638C720.446 321.39 716.647 318.458 712.568 315.932C707.565 314.966 702.337 314.314 696.905 313.948ZM684.843 304.76C688.767 307.227 692.475 310.037 695.994 313.147C701.176 313.445 706.166 314.016 710.959 314.858C703.098 310.249 694.386 306.879 684.843 304.76ZM688.612 327.405C691.424 332.096 694.021 337.154 696.379 342.614C702.894 341.187 709.254 339.962 715.412 338.99C712.729 334.124 709.781 329.664 706.586 325.591C700.791 325.934 694.799 326.537 688.612 327.405ZM678.879 313.792C682.182 317.767 685.305 322.052 688.176 326.767C694.304 325.887 700.247 325.258 705.995 324.886C702.764 320.85 699.309 317.162 695.6 313.875C690.227 313.564 684.649 313.54 678.879 313.792ZM667.629 302.364C671.369 305.601 674.922 309.167 678.258 313.107C683.923 312.827 689.401 312.815 694.687 313.074C690.941 309.848 686.998 306.934 682.804 304.424C677.93 303.458 672.871 302.769 667.629 302.364ZM655.328 293.382C659.285 295.81 663.072 298.541 666.684 301.583C671.678 301.918 676.492 302.528 681.153 303.373C673.259 298.886 664.656 295.533 655.328 293.382ZM669.533 330.73C672.144 335.948 674.578 341.502 676.815 347.423C683.266 345.681 689.575 344.126 695.732 342.766C693.329 337.27 690.666 332.212 687.8 327.499C681.88 328.347 675.785 329.431 669.533 330.73ZM660.672 315.389C663.721 319.946 666.591 324.845 669.26 330.123C675.448 328.822 681.495 327.723 687.363 326.861C684.438 322.124 681.263 317.811 677.897 313.829C672.327 314.101 666.584 314.621 660.672 315.389ZM650.21 302.035C653.715 305.943 657.068 310.148 660.203 314.77C666.059 313.986 671.752 313.444 677.274 313.145C673.84 309.156 670.188 305.547 666.332 302.293C661.129 301.942 655.757 301.853 650.21 302.035ZM638.397 290.786C642.286 293.981 646.016 297.488 649.555 301.367C654.997 301.155 660.27 301.211 665.384 301.51C661.478 298.3 657.382 295.422 653.076 292.919C648.344 291.939 643.447 291.233 638.397 290.786ZM626.114 282.143C630.021 284.49 633.791 287.114 637.418 290.021C642.219 290.4 646.865 291.04 651.386 291.891C643.56 287.562 635.118 284.332 626.114 282.143ZM650.977 335.112C653.491 340.707 655.856 346.621 658.063 352.869C664.24 350.947 670.286 349.202 676.232 347.589C673.977 341.646 671.526 336.069 668.887 330.848C663.059 332.073 657.067 333.519 650.977 335.112ZM642.496 318.386C645.4 323.436 648.15 328.817 650.741 334.536C656.831 332.934 662.798 331.511 668.628 330.273C665.913 324.956 662.973 320.062 659.872 315.482C654.226 316.234 648.429 317.208 642.496 318.386ZM632.742 303.375C636.049 307.836 639.199 312.643 642.188 317.797C648.062 316.616 653.808 315.629 659.401 314.862C656.211 310.216 652.805 305.986 649.237 302.07C643.886 302.273 638.389 302.703 632.742 303.375ZM621.572 290.279C625.277 294.114 628.848 298.248 632.241 302.771C637.833 302.083 643.276 301.632 648.582 301.402C644.942 297.475 641.11 293.926 637.107 290.715C632.074 290.32 626.896 290.173 621.572 290.279ZM609.214 279.213C613.248 282.361 617.146 285.817 620.886 289.627C626.106 289.493 631.182 289.606 636.124 289.95C632.054 286.763 627.815 283.911 623.396 281.42C618.817 280.408 614.071 279.704 609.214 279.213ZM596.993 270.912C600.84 273.169 604.57 275.697 608.197 278.463C612.805 278.883 617.282 279.554 621.66 280.409C613.924 276.247 605.679 273.119 596.993 270.912ZM633.334 340.149C635.833 346.001 638.211 352.15 640.465 358.601C646.254 356.608 651.917 354.792 657.529 353.043C655.308 346.781 652.927 340.855 650.397 335.25C644.825 336.718 639.104 338.394 633.334 340.149ZM624.944 322.376C627.795 327.803 630.52 333.549 633.119 339.601C638.891 337.838 644.597 336.177 650.17 334.7C647.56 328.96 644.789 323.558 641.86 318.503C636.341 319.611 630.689 320.921 624.944 322.376ZM615.44 306.042C618.649 310.971 621.723 316.24 624.674 321.818C630.404 320.356 636.046 319.033 641.552 317.913C638.522 312.73 635.306 307.944 631.951 303.466C626.571 304.125 621.068 304.982 615.44 306.042ZM604.823 291.362C608.38 295.725 611.802 300.44 615.1 305.469C620.669 304.404 626.119 303.536 631.449 302.863C628 298.315 624.374 294.157 620.606 290.314C615.47 290.444 610.211 290.788 604.823 291.362ZM592.969 278.528C596.867 282.285 600.648 286.353 604.291 290.774C609.624 290.185 614.832 289.82 619.919 289.662C616.078 285.804 612.075 282.306 607.927 279.141C603.063 278.702 598.076 278.499 592.969 278.528ZM580.263 267.771C584.375 270.832 588.371 274.205 592.248 277.889C597.251 277.831 602.136 278.002 606.907 278.39C602.767 275.304 598.491 272.531 594.069 270.096C589.592 269.055 584.973 268.314 580.263 267.771ZM567.977 259.69C571.749 261.851 575.418 264.29 579.023 266.906C583.442 267.363 587.752 268.056 591.977 268.93C584.358 264.947 576.342 261.894 567.977 259.69ZM616.903 345.475C619.445 351.537 621.904 357.841 624.251 364.467C629.531 362.508 634.811 360.557 639.966 358.774C637.704 352.31 635.312 346.163 632.803 340.302C627.592 341.894 622.262 343.663 616.903 345.475ZM608.366 326.967C611.231 332.701 614.034 338.628 616.7 344.952C622.051 343.136 627.383 341.352 632.588 339.753C629.978 333.69 627.238 327.945 624.373 322.513C619.131 323.851 613.779 325.359 608.366 326.967ZM598.857 309.638C602.038 314.953 605.141 320.51 608.119 326.437C613.523 324.823 618.87 323.301 624.103 321.955C621.135 316.366 618.043 311.088 614.812 306.158C609.592 307.153 604.272 308.315 598.857 309.638ZM588.366 293.698C591.861 298.528 595.267 303.635 598.554 309.096C603.954 307.765 609.262 306.592 614.469 305.584C611.128 300.525 607.643 295.833 604.037 291.452C598.916 292.016 593.697 292.755 588.366 293.698ZM576.915 279.35C580.71 283.631 584.407 288.216 587.994 293.139C593.268 292.194 598.436 291.44 603.506 290.864C599.807 286.417 595.969 282.33 592.008 278.562C587.082 278.619 582.053 278.877 576.915 279.35ZM564.4 266.778C568.48 270.472 572.475 274.441 576.352 278.775C581.433 278.286 586.409 278.007 591.286 277.922C587.248 274.135 583.081 270.687 578.791 267.57C574.1 267.075 569.298 266.821 564.4 266.778ZM551.545 256.441C555.665 259.395 559.702 262.627 563.646 266.152C568.439 266.164 573.13 266.403 577.733 266.833C573.598 263.894 569.362 261.23 565.01 258.88C560.619 257.825 556.122 257.033 551.545 256.441ZM539.073 248.48C542.839 250.599 546.527 252.983 550.166 255.527C554.287 256.01 558.367 256.6 562.34 257.452C554.868 253.658 547.109 250.672 539.073 248.48ZM601.793 350.814C604.447 356.994 607.033 363.42 609.549 370.094C614.328 368.221 619.078 366.384 623.765 364.643C621.414 358.016 618.955 351.699 616.409 345.639C611.598 347.271 606.715 349.012 601.793 350.814ZM593.016 331.809C595.941 337.706 598.79 343.881 601.565 350.321C606.493 348.512 611.387 346.755 616.205 345.115C613.53 338.784 610.718 332.858 607.842 327.12C602.968 328.574 598.02 330.146 593.016 331.809ZM583.3 313.782C586.518 319.367 589.684 325.158 592.749 331.313C597.758 329.641 602.715 328.053 607.595 326.589C604.605 320.654 601.488 315.094 598.292 309.775C593.367 310.984 588.373 312.315 583.3 313.782ZM572.712 296.896C576.217 302.09 579.673 307.481 583.021 313.267C588.085 311.794 593.073 310.451 597.99 309.233C594.683 303.762 591.259 298.644 587.743 293.812C582.812 294.693 577.809 295.707 572.712 296.896ZM561.273 281.352C565.047 286.076 568.762 291.038 572.38 296.37C577.455 295.175 582.44 294.148 587.352 293.257C583.724 288.308 579.973 283.735 576.134 279.44C571.265 279.907 566.317 280.529 561.273 281.352ZM549.019 267.34C553.042 271.533 557 275.996 560.868 280.807C565.857 279.979 570.751 279.346 575.57 278.864C571.636 274.504 567.581 270.516 563.439 266.812C558.717 266.8 553.914 266.961 549.019 267.34ZM536.137 255.242C540.301 258.803 544.405 262.624 548.425 266.776C553.265 266.381 558.012 266.2 562.684 266.185C558.552 262.537 554.314 259.222 549.99 256.196C545.46 255.656 540.833 255.358 536.137 255.242ZM522.923 245.119C527.081 247.989 531.181 251.12 535.214 254.52C539.746 254.6 544.228 254.814 548.609 255.281C544.502 252.479 540.315 249.942 536.049 247.672C531.748 246.603 527.37 245.758 522.923 245.119ZM510.286 237.282C514.072 239.372 517.799 241.728 521.494 244.217C525.436 244.737 529.35 245.345 533.181 246.199C525.762 242.483 518.127 239.508 510.286 237.282ZM588.215 355.879C591.058 362.094 593.848 368.56 596.598 375.213C600.818 373.484 604.94 371.901 609.09 370.276C606.567 363.599 603.975 357.171 601.313 350.989C596.974 352.577 592.638 354.161 588.215 355.879ZM578.945 336.646C582.014 342.648 585.023 348.93 587.993 355.407C592.412 353.686 596.751 352.088 601.087 350.497C598.303 344.054 595.444 337.881 592.51 331.978C588.028 333.47 583.528 334.99 578.945 336.646ZM568.933 318.155C572.24 323.89 575.487 329.923 578.69 336.17C583.266 334.511 587.765 332.979 592.243 331.483C589.173 325.329 586.007 319.517 582.782 313.935C578.212 315.258 573.617 316.629 568.933 318.155ZM558.133 300.593C561.689 306.01 565.189 311.713 568.638 317.674C573.325 316.14 577.93 314.752 582.504 313.419C579.142 307.625 575.673 302.23 572.153 297.034C567.533 298.118 562.88 299.265 558.133 300.593ZM546.512 284.154C550.324 289.206 554.096 294.48 557.801 300.1C562.545 298.765 567.201 297.6 571.821 296.507C568.183 291.165 564.449 286.192 560.653 281.467C556 282.234 551.303 283.095 546.512 284.154ZM534.186 269.039C538.223 273.637 542.22 278.46 546.148 283.641C550.912 282.577 555.586 281.705 560.214 280.928C556.307 276.096 552.304 271.633 548.238 267.429C543.624 267.805 538.943 268.332 534.186 269.039ZM521.309 255.524C525.494 259.571 529.641 263.852 533.722 268.473C538.439 267.757 543.067 267.254 547.644 266.865C543.527 262.647 539.321 258.783 535.053 255.181C530.546 255.1 525.954 255.241 521.309 255.524ZM507.969 243.726C512.242 247.178 516.471 250.896 520.648 254.9C525.199 254.601 529.709 254.413 534.128 254.459C529.937 250.972 525.671 247.792 521.344 244.872C516.952 244.288 512.491 243.914 507.969 243.726ZM494.404 233.806C498.646 236.619 502.846 239.7 507.006 243.016C511.362 243.166 515.674 243.459 519.914 243.971C515.734 241.218 511.493 238.723 507.198 236.474C502.985 235.393 498.722 234.496 494.404 233.806ZM481.502 226.066C485.34 228.134 489.14 230.464 492.918 232.914C496.727 233.477 500.508 234.144 504.236 235.013C496.807 231.341 489.232 228.331 481.502 226.066ZM576.448 360.615C579.526 366.831 582.574 373.257 585.597 379.87C589.117 378.38 592.675 376.834 596.158 375.4C593.404 368.744 590.61 362.277 587.761 356.062C584.028 357.52 580.231 359.077 576.448 360.615ZM566.515 341.311C569.781 347.353 573.009 353.677 576.217 360.142C580.006 358.599 583.8 357.05 587.539 355.588C584.563 349.11 581.547 342.826 578.472 336.824C574.523 338.256 570.528 339.768 566.515 341.311ZM555.962 322.577C559.427 328.405 562.85 334.55 566.254 340.834C570.273 339.283 574.263 337.786 578.215 336.349C575.005 330.097 571.747 324.064 568.432 318.326C564.315 319.672 560.16 321.085 555.962 322.577ZM544.762 304.584C548.431 310.147 552.058 316.044 555.665 322.093C559.868 320.594 564.014 319.197 568.136 317.845C564.679 311.882 561.171 306.167 557.607 300.75C553.37 301.94 549.091 303.211 544.762 304.584ZM532.906 287.515C536.779 292.757 540.611 298.334 544.42 304.09C548.754 302.709 553.021 301.458 557.261 300.261C553.549 294.643 549.776 289.338 545.953 284.292C541.658 285.252 537.303 286.337 532.906 287.515ZM520.372 271.566C524.449 276.44 528.493 281.596 532.506 287.007C536.914 285.816 541.263 284.754 545.568 283.784C541.616 278.59 537.601 273.725 533.539 269.121C529.214 269.783 524.802 270.651 520.372 271.566ZM507.253 256.915C511.51 261.358 515.741 266.037 519.936 271.028C524.355 270.104 528.738 269.27 533.053 268.598C528.925 263.947 524.737 259.613 520.502 255.552C516.147 255.838 511.719 256.326 507.253 256.915ZM493.675 243.74C498.058 247.682 502.418 251.857 506.742 256.346C511.138 255.751 515.506 255.235 519.797 254.929C515.539 250.882 511.228 247.139 506.871 243.664C502.529 243.511 498.127 243.548 493.675 243.74ZM479.794 232.212C484.231 235.596 488.645 239.214 493.028 243.126C497.367 242.918 501.667 242.838 505.907 242.954C501.583 239.549 497.211 236.423 492.798 233.558C488.512 232.923 484.176 232.475 479.794 232.212ZM465.867 222.483C470.225 225.255 474.563 228.263 478.876 231.516C483.062 231.739 487.211 232.107 491.31 232.666C487.064 229.971 482.78 227.504 478.46 225.286C474.296 224.181 470.103 223.223 465.867 222.483ZM452.472 214.767C456.479 216.861 460.472 219.139 464.447 221.617C468.125 222.218 471.776 222.952 475.398 223.833C467.85 220.163 460.214 217.075 452.472 214.767ZM566.499 364.685C569.797 370.865 573.086 377.201 576.356 383.783C579.323 382.494 582.234 381.291 585.17 380.052C582.144 373.433 579.091 367.01 576.008 360.792C572.847 362.076 569.698 363.339 566.499 364.685ZM555.814 345.532C559.308 351.615 562.799 357.747 566.265 364.232C569.462 362.884 572.617 361.605 575.777 360.319C572.564 353.849 569.33 347.527 566.058 341.482C562.668 342.789 559.249 344.148 555.814 345.532ZM544.61 326.789C548.271 332.688 551.921 338.759 555.556 345.076C558.987 343.691 562.41 342.315 565.797 341.004C562.386 334.716 558.955 328.572 555.482 322.741C551.894 324.024 548.251 325.409 544.61 326.789ZM532.856 308.6C536.691 314.281 540.512 320.202 544.321 326.327C547.956 324.945 551.601 323.543 555.184 322.257C551.567 316.2 547.929 310.305 544.249 304.737C540.494 305.938 536.673 307.274 532.856 308.6ZM520.54 291.127C524.551 296.547 528.547 302.242 532.531 308.131C536.34 306.803 540.16 305.449 543.907 304.244C540.084 298.478 536.237 292.902 532.349 287.653C528.46 288.708 524.501 289.914 520.54 291.127ZM507.668 274.544C511.848 279.65 516.014 285.048 520.169 290.647C524.117 289.431 528.071 288.204 531.95 287.144C527.927 281.734 523.877 276.544 519.791 271.674C515.798 272.512 511.741 273.509 507.668 274.544ZM494.251 259.04C498.591 263.782 502.922 268.794 507.24 274.05C511.294 273.01 515.339 271.991 519.316 271.144C515.107 266.151 510.866 261.429 506.596 256.989C502.528 257.541 498.404 258.249 494.251 259.04ZM480.336 244.792C484.823 249.125 489.303 253.659 493.769 258.519C497.893 257.722 501.995 256.991 506.038 256.426C501.688 251.933 497.31 247.704 492.902 243.766C488.758 243.962 484.567 244.311 480.336 244.792ZM466.095 231.961C470.667 235.816 475.236 239.856 479.792 244.235C483.955 243.747 488.085 243.371 492.166 243.154C487.728 239.221 483.262 235.545 478.769 232.153C474.584 231.928 470.36 231.862 466.095 231.961ZM451.681 220.702C456.265 224.024 460.847 227.528 465.419 231.356C469.569 231.239 473.684 231.266 477.759 231.453C473.314 228.138 468.845 225.056 464.351 222.252C460.16 221.565 455.938 221.036 451.681 220.702ZM437.335 211.153C441.825 213.901 446.315 216.803 450.797 220.02C454.829 220.309 458.83 220.763 462.804 221.367C458.499 218.736 454.178 216.287 449.835 214.106C445.688 212.965 441.526 211.94 437.335 211.153ZM423.958 203.706C427.999 205.774 432.041 207.894 436.078 210.327C439.625 210.959 443.151 211.767 446.666 212.659C439.141 209.07 431.573 206.026 423.958 203.706ZM558.286 368.237C561.833 374.329 565.381 380.671 568.928 387.067C571.261 386.034 573.611 384.975 575.93 383.963C572.66 377.385 569.372 371.044 566.075 364.868C563.498 365.958 560.881 367.117 558.286 368.237ZM546.935 349.178C550.629 355.148 554.327 361.451 558.024 367.795C560.63 366.668 563.254 365.511 565.841 364.415C562.37 357.927 558.874 351.797 555.377 345.712C552.577 346.843 549.763 347.997 546.935 349.178ZM534.919 330.493C538.832 336.424 542.747 342.402 546.664 348.724C549.499 347.539 552.313 346.39 555.118 345.255C551.478 338.934 547.821 332.864 544.154 326.963C541.084 328.125 538.03 329.254 534.919 330.493ZM522.468 312.263C526.516 317.993 530.567 323.897 534.621 330.032C537.737 328.787 540.79 327.667 543.866 326.501C540.049 320.372 536.219 314.45 532.375 308.766C529.085 309.907 525.808 311.021 522.468 312.263ZM509.568 294.618C513.759 300.126 517.954 305.884 522.153 311.816C525.486 310.572 528.764 309.442 532.051 308.297C528.055 302.402 524.048 296.706 520.026 291.283C516.562 292.346 513.088 293.431 509.568 294.618ZM496.19 277.665C500.526 282.916 504.869 288.463 509.216 294.163C512.726 292.973 516.199 291.869 519.656 290.802C515.486 285.194 511.303 279.796 507.108 274.684C503.496 275.608 499.863 276.587 496.19 277.665ZM482.354 261.572C486.826 266.519 491.307 271.78 495.792 277.198C499.452 276.117 503.079 275.118 506.679 274.189C502.347 268.928 498.003 263.896 493.649 259.152C489.914 259.87 486.153 260.665 482.354 261.572ZM468.102 246.513C472.691 251.104 477.292 256.011 481.897 261.089C485.678 260.177 489.425 259.362 493.143 258.636C488.664 253.776 484.171 249.197 479.671 244.867C475.845 245.312 471.995 245.842 468.102 246.513ZM453.437 232.672C458.14 236.876 462.852 241.302 467.573 246.007C471.445 245.327 475.281 244.773 479.09 244.315C474.506 239.927 469.909 235.843 465.308 231.986C461.38 232.091 457.428 232.3 453.437 232.672ZM438.57 220.186C443.321 223.936 448.083 227.874 452.857 232.123C456.798 231.741 460.704 231.508 464.585 231.383C459.962 227.536 455.331 223.975 450.696 220.647C446.679 220.353 442.64 220.174 438.57 220.186ZM423.652 209.2C428.374 212.439 433.107 215.867 437.852 219.589C441.826 219.557 445.77 219.699 449.692 219.956C445.127 216.714 440.555 213.706 435.981 210.949C431.89 210.215 427.783 209.596 423.652 209.2ZM409.041 199.915C413.589 202.587 418.147 205.413 422.72 208.523C426.632 208.872 430.522 209.423 434.398 210.074C430.043 207.5 425.684 205.085 421.324 202.935C417.24 201.759 413.145 200.739 409.041 199.915ZM396.089 192.914C399.913 194.834 403.74 196.786 407.585 199.008C411.079 199.673 414.561 200.57 418.042 201.489C410.723 198.054 403.404 195.225 396.089 192.914ZM551.844 371.024C555.72 377.099 559.593 383.123 563.494 389.508C565.165 388.758 566.847 387.993 568.514 387.253C564.963 380.857 561.412 374.514 557.863 368.42C555.858 369.284 553.861 370.136 551.844 371.024ZM539.597 352.234C543.575 358.205 547.564 364.319 551.567 370.587C553.591 369.695 555.591 368.846 557.599 367.979C553.9 361.635 550.202 355.321 546.507 349.353C544.205 350.311 541.92 351.238 539.597 352.234ZM527.039 333.735C531.108 339.526 535.208 345.659 539.308 351.808C541.634 350.809 543.931 349.862 546.236 348.9C542.313 342.575 538.393 336.596 534.474 330.663C532.015 331.648 529.516 332.714 527.039 333.735ZM513.85 315.62C518.128 321.37 522.413 327.177 526.725 333.305C529.204 332.28 531.714 331.193 534.176 330.202C530.118 324.068 526.064 318.168 522.013 312.44C519.313 313.453 516.573 314.556 513.85 315.62ZM500.22 297.912C504.639 303.498 509.07 309.196 513.525 315.175C516.254 314.105 518.994 313.011 521.697 311.994C517.491 306.057 513.286 300.297 509.088 294.787C506.15 295.784 503.19 296.836 500.22 297.912ZM486.179 280.735C490.72 286.103 495.281 291.676 499.862 297.456C502.836 296.375 505.795 295.333 508.736 294.331C504.377 288.625 500.022 283.079 495.675 277.823C492.526 278.75 489.37 279.698 486.179 280.735ZM471.746 264.242C476.4 269.352 481.081 274.723 485.779 280.266C488.972 279.222 492.125 278.288 495.276 277.356C490.775 271.93 486.278 266.666 481.79 261.713C478.458 262.509 475.126 263.3 471.746 264.242ZM456.963 248.599C461.713 253.405 466.494 258.501 471.292 263.756C474.675 262.805 477.999 262.032 481.334 261.231C476.708 256.141 472.087 251.228 467.476 246.629C463.988 247.23 460.503 247.815 456.963 248.599ZM441.914 233.987C446.738 238.441 451.599 243.205 456.474 248.124C459.998 247.335 463.468 246.733 466.942 246.124C462.206 241.42 457.478 236.95 452.762 232.748C449.163 233.086 445.561 233.433 441.914 233.987ZM426.566 220.563C431.466 224.646 436.392 228.932 441.348 233.492C444.98 232.927 448.571 232.555 452.157 232.203C447.35 227.94 442.553 223.967 437.768 220.211C434.051 220.231 430.324 220.293 426.566 220.563ZM411.195 208.489C416.083 212.123 420.992 215.909 425.938 220.013C429.666 219.73 433.363 219.651 437.051 219.614C432.236 215.857 427.434 212.402 422.644 209.142C418.841 208.801 415.027 208.559 411.195 208.489ZM396.015 197.911C400.765 201.021 405.535 204.274 410.342 207.824C414.148 207.871 417.932 208.141 421.709 208.465C416.963 205.266 412.232 202.353 407.515 199.624C403.689 198.904 399.854 198.354 396.015 197.911ZM381.387 188.991C385.85 191.533 390.329 194.183 394.845 197.109C398.603 197.512 402.354 198.11 406.101 198.787C401.578 196.213 397.069 193.881 392.574 191.725C388.842 190.634 385.114 189.806 381.387 188.991ZM368.43 182.139C372.137 183.971 375.851 185.837 379.596 187.931C382.906 188.615 386.221 189.445 389.536 190.325C382.46 187.071 375.428 184.413 368.43 182.139ZM613.811 478.493C611.885 475.181 609.964 471.908 608.053 468.697C611.122 474.536 614.182 480.254 617.265 486.28C616.113 483.684 614.963 481.052 613.811 478.493ZM534.149 354.643C538.403 360.505 542.664 366.417 546.967 372.584C548.375 371.956 549.753 371.378 551.15 370.767C547.145 364.507 543.154 358.387 539.174 352.421C537.509 353.142 535.818 353.914 534.149 354.643ZM520.65 336.414C525.028 342.216 529.423 348.129 533.848 354.221C535.523 353.489 537.217 352.719 538.886 351.995C534.781 345.847 530.676 339.709 526.601 333.919C524.625 334.737 522.639 335.571 520.65 336.414ZM506.799 318.366C511.272 324.027 515.796 329.988 520.325 335.987C522.32 335.138 524.306 334.31 526.288 333.488C521.974 327.365 517.685 321.537 513.405 315.794C511.204 316.649 509.021 317.465 506.799 318.366ZM492.503 300.744C497.12 306.296 501.767 312.017 506.446 317.931C508.679 317.022 510.869 316.209 513.081 315.348C508.617 309.366 504.18 303.663 499.753 298.077C497.343 298.948 494.936 299.816 492.503 300.744ZM477.792 283.607C482.553 289.024 487.327 294.517 492.153 300.312C494.58 299.383 496.989 298.495 499.394 297.621C494.803 291.837 490.232 286.258 485.682 280.888C483.07 281.745 480.428 282.684 477.792 283.607ZM462.745 266.986C467.598 272.186 472.484 277.57 477.408 283.164C480.035 282.24 482.675 281.28 485.281 280.419C480.568 274.869 475.873 269.492 471.205 264.378C468.409 265.173 465.567 266.11 462.745 266.986ZM447.39 251.028C452.326 255.975 457.306 261.172 462.316 266.531C465.134 265.652 467.971 264.707 470.764 263.906C465.952 258.645 461.156 253.547 456.392 248.739C453.413 249.419 450.396 250.245 447.39 251.028ZM431.79 235.891C436.785 240.541 441.834 245.479 446.907 250.554C449.915 249.763 452.928 248.954 455.908 248.268C451.007 243.337 446.124 238.57 441.276 234.107C438.134 234.608 434.96 235.258 431.79 235.891ZM416.033 221.742C421.052 226.04 426.132 230.656 431.233 235.391C434.402 234.749 437.569 234.119 440.709 233.611C435.736 229.05 430.787 224.712 425.869 220.629C422.608 220.89 419.319 221.321 416.033 221.742ZM400.079 208.751C405.136 212.697 410.23 216.814 415.375 221.205C418.672 220.771 421.966 220.363 425.238 220.092C420.221 215.945 415.239 212.103 410.282 208.439C406.894 208.41 403.485 208.591 400.079 208.751ZM384.239 197.047C389.238 200.561 394.264 204.208 399.351 208.158C402.749 207.982 406.145 207.838 409.525 207.849C404.585 204.221 399.684 200.895 394.805 197.731C391.289 197.361 387.764 197.195 384.239 197.047ZM368.735 186.774C373.559 189.795 378.412 192.947 383.321 196.377C386.782 196.501 390.243 196.642 393.696 196.972C388.956 193.928 384.254 191.174 379.572 188.554C375.956 187.813 372.344 187.271 368.735 186.774ZM353.933 178.084C358.419 180.557 362.931 183.143 367.493 185.972C370.92 186.415 374.348 186.841 377.78 187.494C373.41 185.095 369.078 182.976 364.76 180.933C361.138 179.839 357.532 178.927 353.933 178.084ZM341.008 171.389C344.662 173.162 348.335 175.011 352.042 177.02C355.076 177.693 358.107 178.33 361.157 179.17C354.367 176.101 347.666 173.613 341.008 171.389ZM595.825 446.655C594.131 444.196 592.435 441.734 590.744 439.292C594.174 444.814 597.647 450.627 601.114 456.399C599.348 453.11 597.587 449.879 595.825 446.655ZM606.491 462.322C603.791 458.298 601.109 454.352 598.431 450.43C600.538 454.316 602.661 458.46 604.775 462.441C607.228 466.529 609.668 470.537 612.132 474.704C610.252 470.555 608.372 466.369 606.491 462.322ZM617.198 478.523C614.207 473.976 611.207 469.391 608.245 464.975C610.237 469.289 612.227 473.89 614.218 478.32C616.923 482.922 619.656 487.719 622.382 492.47C620.654 487.818 618.936 483.047 617.198 478.523ZM516.073 338.332C520.707 344.021 525.384 349.884 530.094 355.881C531.206 355.388 532.319 354.894 533.43 354.406C529.002 348.322 524.599 342.391 520.218 336.595C518.835 337.176 517.465 337.732 516.073 338.332ZM501.354 320.627C506.118 326.271 510.899 331.98 515.735 337.909C517.133 337.305 518.506 336.75 519.893 336.167C515.359 330.172 510.828 324.201 506.35 318.541C504.692 319.218 503.018 319.934 501.354 320.627ZM486.384 303.175C491.211 308.666 496.101 314.41 501.005 320.214C502.665 319.521 504.343 318.785 505.996 318.106C501.321 312.204 496.671 306.461 492.056 300.921C490.176 301.648 488.274 302.427 486.384 303.175ZM471.022 286.034C475.964 291.402 480.975 297.036 486.005 302.754C487.906 301.998 489.815 301.221 491.706 300.49C486.873 294.694 482.09 289.191 477.322 283.775C475.228 284.51 473.131 285.256 471.022 286.034ZM455.182 269.338C460.295 274.619 465.419 279.944 470.627 285.593C472.741 284.81 474.839 284.071 476.937 283.333C472.003 277.736 467.106 272.344 462.241 267.142C459.892 267.864 457.554 268.543 455.182 269.338ZM439.148 253.232C444.301 258.27 449.495 263.467 454.746 268.883C457.123 268.082 459.46 267.413 461.814 266.687C456.788 261.322 451.793 256.117 446.843 251.167C444.285 251.83 441.731 252.477 439.148 253.232ZM422.938 237.811C428.135 242.595 433.395 247.614 438.695 252.789C441.265 252.031 443.813 251.362 446.36 250.694C441.265 245.608 436.195 240.661 431.18 236.006C428.443 236.558 425.697 237.151 422.938 237.811ZM406.581 223.182C411.801 227.674 417.098 232.453 422.426 237.348C425.169 236.684 427.901 236.065 430.623 235.506C425.49 230.755 420.38 226.131 415.332 221.821C412.426 222.204 409.507 222.668 406.581 223.182ZM390.171 209.506C395.378 213.66 400.672 218.126 405.992 222.692C408.894 222.173 411.791 221.679 414.674 221.285C409.51 216.892 404.388 212.718 399.312 208.774C396.273 208.932 393.224 209.193 390.171 209.506ZM373.67 196.945C378.891 200.769 384.151 204.733 389.489 208.977C392.526 208.653 395.561 208.356 398.585 208.181C393.437 204.2 388.35 200.527 383.293 196.993C380.088 196.878 376.88 196.877 373.67 196.945ZM357.413 185.615C362.525 189.021 367.671 192.546 372.899 196.359C376.06 196.276 379.22 196.233 382.376 196.323C377.36 192.841 372.404 189.645 367.479 186.588C364.119 186.153 360.765 185.842 357.413 185.615ZM341.624 175.65C346.513 178.58 351.439 181.637 356.439 184.947C359.702 185.147 362.968 185.394 366.238 185.787C361.457 182.851 356.734 180.182 352.038 177.637C348.555 176.858 345.084 176.198 341.624 175.65ZM326.69 167.195C331.186 169.596 335.719 172.119 340.311 174.847C343.582 175.337 346.858 175.882 350.149 176.573C345.775 174.244 341.456 172.16 337.157 170.159C333.65 169.063 330.159 168.062 326.69 167.195ZM313.835 160.664C317.419 162.37 321.044 164.207 324.692 166.124C327.555 166.805 330.419 167.483 333.308 168.316C326.728 165.387 320.24 162.852 313.835 160.664ZM586.566 430C583.374 425.864 580.185 421.738 577.024 417.702C579.665 421.813 582.304 425.917 584.96 430.135C587.822 434.223 590.716 438.451 593.607 442.664C591.256 438.39 588.908 434.162 586.566 430ZM598.487 445.482C595.084 441.01 591.725 436.678 588.351 432.3C590.969 436.975 593.585 441.627 596.212 446.439C599.187 450.779 602.147 455.051 605.143 459.484C602.925 454.737 600.707 450.094 598.487 445.482ZM610.455 461.514C606.91 456.752 603.34 451.909 599.842 447.297C602.193 452.207 604.545 457.075 606.896 462.137C610.037 466.807 613.231 471.703 616.409 476.532C614.434 471.415 612.443 466.477 610.455 461.514ZM621.985 476.959C618.457 472.184 614.981 467.58 611.476 462.881C613.521 468.009 615.573 473.052 617.605 478.342C620.715 483.055 623.804 487.67 626.929 492.453C625.302 487.159 623.639 482.091 621.985 476.959ZM497.703 322.191C502.653 327.656 507.701 333.42 512.751 339.188C513.606 338.814 514.455 338.453 515.305 338.089C510.471 332.175 505.683 326.445 500.919 320.814C499.85 321.265 498.772 321.738 497.703 322.191ZM481.811 304.992C486.954 310.486 492.106 316.008 497.342 321.783C498.416 321.327 499.497 320.855 500.571 320.401C495.661 314.603 490.763 308.844 485.93 303.355C484.559 303.897 483.19 304.431 481.811 304.992ZM465.647 287.981C470.85 293.344 476.121 298.916 481.422 304.573C482.805 304.009 484.177 303.477 485.552 302.934C480.521 297.224 475.5 291.561 470.558 286.2C468.92 286.796 467.298 287.348 465.647 287.981ZM449.355 271.408C454.575 276.567 459.914 282.082 465.245 287.572C466.895 286.937 468.525 286.36 470.163 285.761C464.947 280.11 459.809 274.772 454.688 269.492C452.919 270.096 451.13 270.78 449.355 271.408ZM432.589 255.302C437.997 260.408 443.408 265.524 448.935 270.982C450.703 270.353 452.494 269.649 454.257 269.04C449 263.628 443.798 258.427 438.639 253.392C436.631 253.993 434.606 254.663 432.589 255.302ZM415.623 239.689C421.068 244.579 426.56 249.608 432.128 254.859C434.149 254.216 436.175 253.553 438.185 252.949C432.87 247.769 427.593 242.74 422.381 237.954C420.136 238.497 417.882 239.079 415.623 239.689ZM398.518 224.706C403.979 229.347 409.518 234.212 415.108 239.226C417.369 238.61 419.622 238.039 421.87 237.49C416.519 232.586 411.2 227.798 405.958 223.3C403.483 223.736 401.007 224.172 398.518 224.706ZM381.364 210.498C386.809 214.848 392.353 219.482 397.931 224.214C400.421 223.672 402.895 223.25 405.37 222.81C400.022 218.233 394.699 213.747 389.466 209.585C386.768 209.856 384.072 210.094 381.364 210.498ZM364.331 197.272C369.708 201.281 375.195 205.596 380.71 209.991C383.406 209.578 386.087 209.336 388.772 209.057C383.415 204.813 378.119 200.79 372.881 196.969C370.032 197.024 367.183 197.058 364.331 197.272ZM347.342 185.146C352.709 188.848 358.115 192.654 363.624 196.748C366.454 196.523 369.281 196.454 372.109 196.382C366.817 192.537 361.606 188.984 356.433 185.56C353.4 185.358 350.367 185.166 347.342 185.146ZM330.717 174.194C335.926 177.488 341.175 180.889 346.522 184.563C349.496 184.567 352.478 184.715 355.459 184.891C350.349 181.527 345.312 178.426 340.317 175.459C337.109 174.96 333.903 174.487 330.717 174.194ZM314.693 164.54C319.631 167.376 324.616 170.339 329.685 173.526C332.779 173.791 335.889 174.201 339.005 174.656C334.18 171.819 329.424 169.214 324.707 166.736C321.354 165.919 318.006 165.135 314.693 164.54ZM299.665 156.324C304.156 158.648 308.699 161.112 313.303 163.734C316.418 164.267 319.56 164.938 322.71 165.666C318.351 163.415 314.05 161.355 309.782 159.404C306.393 158.309 303.002 157.206 299.665 156.324ZM288.681 150.739C291.59 152.119 294.589 153.735 297.547 155.241C300.249 155.923 302.977 156.706 305.716 157.538C299.957 155.014 294.274 152.734 288.681 150.739ZM549.623 382.096C547.813 380.08 546 378.052 544.188 376.033C548.402 381.114 552.723 386.53 557.031 391.901C554.534 388.519 552.1 385.399 549.623 382.096ZM558.34 391.822C556.632 389.897 554.965 388.076 553.256 386.15C554.749 388.155 556.219 390.06 557.72 392.101C557.927 392.009 558.133 391.916 558.34 391.822ZM563.362 397.56C561.809 395.787 560.233 393.957 558.691 392.212C558.466 392.314 558.242 392.414 558.019 392.514C559.389 394.387 560.781 396.352 562.155 398.238C565.278 402.14 568.35 405.884 571.497 409.865C568.772 405.68 566.064 401.598 563.362 397.56ZM590.491 429.028C586.594 424.447 582.772 420.054 578.912 415.564C581.582 420.183 584.267 425.012 586.948 429.777C590.478 434.347 593.972 438.81 597.53 443.471C595.184 438.614 592.838 433.733 590.491 429.028ZM603.775 444.954C599.773 440.147 595.728 435.234 591.789 430.585C594.155 435.347 596.52 440.367 598.885 445.285C602.491 450.03 606.18 455.044 609.837 459.956C607.817 454.935 605.807 449.812 603.775 444.954ZM616.604 460.333C612.634 455.533 608.726 450.887 604.789 446.169C606.825 451.057 608.835 456.27 610.857 461.323C614.43 466.108 617.98 470.816 621.579 475.682C619.921 470.558 618.286 465.291 616.604 460.333ZM629.347 476.025C625.372 471.116 621.341 466.066 617.432 461.327C619.113 466.301 620.738 471.633 622.393 476.774C625.942 481.59 629.591 486.731 633.194 491.724C631.91 486.501 630.671 481.074 629.347 476.025ZM559.113 392.023C559.837 392.839 560.571 393.677 561.3 394.502C560.702 393.609 560.107 392.733 559.509 391.845L559.113 392.023ZM543.575 374.69C544.509 375.734 545.433 376.756 546.37 377.808C545.543 376.711 544.72 375.635 543.894 374.543C543.788 374.591 543.68 374.641 543.575 374.69ZM478.976 306.118C484.27 311.424 489.722 317.111 495.143 322.725C495.732 322.471 496.322 322.219 496.911 321.968C491.671 316.196 486.51 310.661 481.364 305.17C480.567 305.487 479.778 305.787 478.976 306.118ZM462.003 289.459C467.489 294.79 472.967 300.098 478.568 305.707C479.376 305.372 480.171 305.07 480.974 304.752C475.672 299.099 470.397 293.527 465.191 288.166C464.132 288.585 463.061 289.043 462.003 289.459ZM444.864 273.047C450.377 278.235 455.96 283.586 461.59 289.054C462.653 288.635 463.727 288.178 464.79 287.757C459.458 282.269 454.109 276.733 448.888 271.577C447.55 272.056 446.206 272.553 444.864 273.047ZM427.508 256.905C433.05 261.924 438.741 267.295 444.416 272.629C445.764 272.132 447.111 271.638 448.454 271.157C442.925 265.704 437.5 260.56 432.091 255.459C430.564 255.937 429.043 256.392 427.508 256.905ZM409.806 241.261C415.483 246.19 421.199 251.208 427.017 256.472C428.564 255.951 430.094 255.5 431.63 255.017C426.047 249.759 420.541 244.723 415.083 239.829C413.325 240.296 411.573 240.741 409.806 241.261ZM392.069 226.229C397.755 230.945 403.488 235.771 409.319 240.83C411.075 240.309 412.82 239.838 414.568 239.365C408.956 234.341 403.398 229.468 397.917 224.82C395.973 225.248 394.019 225.752 392.069 226.229ZM374.287 211.808C379.952 216.278 385.708 220.956 391.524 225.774C393.459 225.297 395.401 224.764 397.33 224.327C391.729 219.585 386.164 214.948 380.698 210.592C378.565 210.937 376.424 211.412 374.287 211.808ZM356.57 198.144C362.176 202.323 367.907 206.79 373.668 211.326C375.804 210.922 377.945 210.463 380.078 210.109C374.539 205.706 369.022 201.366 363.622 197.352C361.272 197.556 358.921 197.866 356.57 198.144ZM338.994 185.388C344.52 189.255 350.165 193.392 355.85 197.621C358.197 197.333 360.544 197.04 362.891 196.831C357.362 192.734 351.916 188.868 346.531 185.17C344.016 185.179 341.504 185.28 338.994 185.388ZM321.569 173.666C327.045 177.236 332.55 180.867 338.189 184.802C340.694 184.683 343.202 184.601 345.711 184.586C340.295 180.879 334.979 177.45 329.706 174.135C326.986 173.912 324.275 173.767 321.569 173.666ZM304.683 163.098C309.914 166.251 315.189 169.505 320.576 173.001C323.267 173.085 325.968 173.254 328.674 173.468C323.485 170.223 318.385 167.219 313.334 164.343C310.439 163.86 307.554 163.444 304.683 163.098ZM288.655 153.83C293.499 156.51 298.404 159.323 303.389 162.308C306.224 162.627 309.082 163.067 311.945 163.538C307.094 160.802 302.317 158.26 297.592 155.854C294.597 155.117 291.615 154.431 288.655 153.83ZM274.2 146.119C278.337 148.211 282.558 150.486 286.801 152.809C289.667 153.361 292.571 154.062 295.477 154.772C291.149 152.605 286.874 150.568 282.651 148.672C279.812 147.751 276.999 146.915 274.2 146.119ZM263.044 140.673C265.663 141.897 268.337 143.239 271 144.556C273.419 145.205 275.889 146.01 278.345 146.774C273.166 144.54 268.067 142.509 263.044 140.673ZM521.539 349.907C518.931 347.305 516.391 344.84 513.805 342.285C518.357 347.133 522.927 352.025 527.531 356.999C525.543 354.665 523.513 352.199 521.539 349.907ZM528.24 356.701C527.354 355.806 526.451 354.876 525.571 353.994C526.362 354.918 527.165 355.884 527.961 356.824L528.24 356.701ZM537.418 366.007C534.472 363.004 531.542 360.037 528.622 357.088L528.303 357.228C530.375 359.675 532.45 362.13 534.529 364.598C537.391 367.741 540.313 371.032 543.227 374.303C543.346 374.249 543.467 374.193 543.586 374.138C541.525 371.406 539.459 368.653 537.418 366.007ZM544.861 373.552C543.182 371.848 541.518 370.172 539.834 368.456C541.216 370.256 542.613 372.123 544 373.947C544.288 373.814 544.576 373.68 544.861 373.552ZM552.319 381.181C549.942 378.732 547.578 376.314 545.23 373.928C544.926 374.064 544.616 374.208 544.308 374.352C546.203 376.844 548.094 379.314 550.001 381.859C552.942 385.167 555.831 388.348 558.762 391.633L559.225 391.425C556.918 387.981 554.609 384.52 552.319 381.181ZM561.228 390.525C558.861 388.036 556.474 385.504 554.15 383.101C555.972 385.768 557.807 388.519 559.638 391.24C560.167 391.002 560.697 390.764 561.228 390.525ZM596.42 427.923C591.948 423.078 587.411 418.097 583.014 413.409C585.639 418.487 588.264 423.561 590.889 428.823C594.917 433.57 599.066 438.618 603.163 443.537C600.926 438.207 598.673 433.062 596.42 427.923ZM610.533 443.2C606.1 438.366 601.731 433.665 597.339 428.917C599.623 434.145 601.909 439.329 604.177 444.753C608.175 449.54 612.151 454.271 616.182 459.144C614.321 453.682 612.423 448.467 610.533 443.2ZM624.509 458.648C620.1 453.76 615.643 448.774 611.307 444.037C613.213 449.371 615.134 454.607 617.011 460.138C620.965 464.929 625.032 470.005 629.051 474.961C627.574 469.357 626.031 464.049 624.509 458.648ZM638.26 473.982C633.899 469.116 629.511 464.191 625.189 459.405C626.72 464.862 628.282 470.184 629.765 475.846C633.702 480.691 637.68 485.645 641.643 490.557C640.571 484.846 639.394 479.484 638.26 473.982ZM562.017 390.718C563.494 392.272 564.954 393.79 566.433 395.35C565.406 393.646 564.368 391.824 563.341 390.123L562.017 390.718ZM552.69 380.936C555.626 383.965 558.648 387.168 561.652 390.335L563.085 389.691C559.18 383.31 555.304 377.274 551.425 371.204C550.036 371.809 548.667 372.379 547.267 373.004C549.065 375.592 550.884 378.302 552.69 380.936ZM545.656 373.733C547.383 375.48 549.106 377.217 550.859 379.015C549.521 377.073 548.178 375.1 546.846 373.186C546.451 373.365 546.048 373.557 545.656 373.733ZM537.779 365.746C540.29 368.301 542.788 370.831 545.285 373.357C545.704 373.169 546.129 372.969 546.552 372.775C542.25 366.62 537.982 360.676 533.73 354.828C532.63 355.311 531.524 355.804 530.421 356.291C532.864 359.404 535.316 362.556 537.779 365.746ZM529.051 356.897C531.158 359.038 533.248 361.141 535.363 363.297C533.563 360.975 531.785 358.745 529.997 356.479C529.682 356.618 529.367 356.757 529.051 356.897ZM521.893 349.64C524.115 351.856 526.404 354.208 528.669 356.51C529.003 356.362 529.336 356.216 529.669 356.069C524.963 350.09 520.274 344.183 515.644 338.513C514.795 338.871 513.957 339.21 513.1 339.584C516.028 342.923 518.934 346.203 521.893 349.64ZM512.126 340.025C514.03 341.882 515.932 343.733 517.856 345.626C516.107 343.61 514.409 341.744 512.675 339.776C512.492 339.86 512.307 339.945 512.126 340.025ZM507.262 335.271C508.757 336.736 510.249 338.195 511.738 339.646C511.933 339.561 512.129 339.471 512.325 339.381C507.277 333.617 502.22 327.832 497.272 322.376C496.691 322.624 496.111 322.873 495.53 323.122C499.437 327.163 503.3 331.097 507.262 335.271ZM495.047 323.328C495.48 323.751 495.917 324.183 496.344 324.597C495.924 324.162 495.509 323.738 495.091 323.309L495.047 323.328ZM477.53 306.693C483.204 312.045 488.866 317.37 494.647 322.937L494.704 322.912C489.278 317.292 483.837 311.633 478.527 306.297C478.196 306.427 477.865 306.554 477.53 306.693ZM459.981 290.279C465.592 295.426 471.351 300.867 477.1 306.289C477.44 306.148 477.775 306.019 478.112 305.888C472.503 300.26 467.04 294.984 461.551 289.642C461.028 289.854 460.502 290.071 459.981 290.279ZM442.01 274.089C447.801 279.249 453.613 284.45 459.542 289.884C460.073 289.672 460.606 289.452 461.138 289.237C455.491 283.746 449.916 278.431 444.387 273.221C443.595 273.509 442.805 273.79 442.01 274.089ZM423.801 258.124C429.656 263.185 435.557 268.338 441.551 273.675C442.35 273.373 443.144 273.094 443.94 272.803C438.244 267.443 432.558 262.105 426.998 257.066C425.934 257.415 424.871 257.752 423.801 258.124ZM405.629 242.599C411.43 247.443 417.379 252.579 423.331 257.72C424.392 257.349 425.45 256.987 426.507 256.633C420.688 251.364 414.977 246.353 409.3 241.423C408.08 241.798 406.851 242.22 405.629 242.599ZM387.172 227.5C393.077 232.246 399.047 237.116 405.112 242.176C406.345 241.791 407.582 241.371 408.813 240.991C402.959 235.913 397.222 231.106 391.517 226.372C390.07 226.732 388.621 227.114 387.172 227.5ZM368.56 212.896C374.512 217.482 380.498 222.134 386.62 227.047C388.073 226.657 389.523 226.281 390.972 225.918C385.128 221.076 379.362 216.413 373.671 211.925C371.968 212.237 370.266 212.53 368.56 212.896ZM350.007 198.911C355.895 203.241 361.876 207.75 367.937 212.414C369.645 212.041 371.348 211.758 373.053 211.443C367.254 206.878 361.504 202.426 355.863 198.223C353.911 198.439 351.96 198.61 350.007 198.911ZM331.807 185.792C337.549 189.805 343.437 194.09 349.355 198.436C351.285 198.131 353.213 197.927 355.143 197.7C349.436 193.457 343.758 189.286 338.214 185.409C336.076 185.501 333.94 185.613 331.807 185.792ZM313.822 173.556C319.466 177.279 325.223 181.216 331.044 185.273C333.147 185.086 335.253 184.934 337.36 184.827C331.681 180.869 326.126 177.196 320.613 173.611C318.343 173.539 316.082 173.536 313.822 173.556ZM296.141 162.318C301.684 165.747 307.247 169.212 312.968 172.974C315.183 172.943 317.395 172.897 319.62 172.947C314.13 169.391 308.765 166.115 303.437 162.919C300.993 162.65 298.568 162.487 296.141 162.318ZM279.17 152.195C284.403 155.212 289.686 158.325 295.087 161.653C297.438 161.802 299.777 161.896 302.144 162.128C296.967 159.043 291.89 156.179 286.864 153.424C284.278 152.934 281.728 152.578 279.17 152.195ZM263.288 143.344C268.045 145.888 272.887 148.588 277.79 151.397C280.213 151.741 282.616 152.007 285.061 152.431C280.333 149.867 275.675 147.454 271.08 145.176C268.453 144.477 265.878 143.935 263.288 143.344ZM249.469 136.106C253.332 138.02 257.346 140.211 261.31 142.309C263.687 142.826 266.053 143.311 268.452 143.892C264.391 141.916 260.348 139.979 256.392 138.223C254.049 137.431 251.775 136.808 249.469 136.106ZM237.597 130.564C240.408 131.857 243.207 133.128 246.074 134.519C247.78 135.012 249.494 135.52 251.206 136.026C246.606 134.074 242.056 132.225 237.597 130.564ZM571.534 410.627L571.212 410.775C573.697 414.234 576.146 417.542 578.644 421.061C577.12 418.677 575.588 416.242 574.069 413.894C573.22 412.794 572.369 411.684 571.534 410.627ZM573.76 409.599C573.272 409.82 572.777 410.053 572.286 410.28C573.004 411.384 573.732 412.561 574.451 413.673C577.99 418.171 581.58 422.835 585.163 427.477C582.526 422.815 579.893 418.182 577.267 413.66C576.098 412.305 574.927 410.95 573.76 409.599ZM574.627 409.199C574.476 409.269 574.324 409.34 574.174 409.408L576.006 411.529C575.545 410.738 575.087 409.984 574.627 409.199ZM577.695 407.797C576.813 408.195 575.923 408.602 575.034 409.011C575.908 410.502 576.776 411.926 577.65 413.432C581.638 418.062 585.567 422.546 589.591 427.266C587.025 422.145 584.459 417.145 581.894 412.201C580.483 410.71 579.112 409.301 577.695 407.797ZM579.286 407.097C578.899 407.267 578.514 407.433 578.122 407.61C579.159 408.711 580.171 409.761 581.195 410.832C580.558 409.611 579.922 408.308 579.286 407.097ZM585.701 404.278C583.698 405.16 581.716 406.012 579.698 406.917C580.558 408.556 581.418 410.311 582.278 411.969C586.741 416.723 591.356 421.794 595.898 426.713C592.516 419.02 589.116 411.554 585.701 404.278ZM594.157 400.561C591.489 401.721 588.805 402.906 586.118 404.095C589.702 411.736 593.268 419.606 596.817 427.707C601.257 432.504 605.68 437.268 610.163 442.154C604.928 427.617 599.613 413.618 594.157 400.561ZM604.335 396.172C601.104 397.543 597.844 398.958 594.582 400.374C600.159 413.735 605.589 428.086 610.936 442.992C615.312 447.77 619.797 452.774 624.245 457.699C617.975 435.539 611.342 414.994 604.335 396.172ZM616.485 391.13C612.598 392.724 608.705 394.324 604.766 395.994C611.867 415.082 618.582 435.941 624.924 458.457C629.273 463.268 633.696 468.235 638.087 473.135C631.79 442.72 624.574 415.4 616.485 391.13ZM630.561 385.465C626.055 387.238 621.512 389.067 616.93 390.945C625.085 415.445 632.35 443.051 638.684 473.8C642.078 477.584 645.414 481.25 648.864 485.151C649.817 486.229 650.758 487.28 651.703 488.341C646.487 448.997 639.401 414.746 630.561 385.465ZM784.178 347.85C789.955 347.998 795.419 348.5 800.599 349.319C793.074 344.535 784.223 341.284 774.295 339.313C777.857 341.828 781.158 344.666 784.178 347.85ZM764.581 348.388C770.937 347.865 777.012 347.667 782.815 347.774C779.577 344.471 776.042 341.535 772.214 338.958C766.947 338.016 761.423 337.378 755.583 337.123C758.874 340.494 761.886 344.233 764.581 348.388ZM744.279 350.996C750.936 349.911 757.409 349.045 763.603 348.502C760.802 344.266 757.668 340.469 754.246 337.049C748.513 336.838 742.56 336.893 736.308 337.315C739.254 341.467 741.932 345.998 744.279 350.996ZM723.457 355.101C730.32 353.55 737.003 352.214 743.462 351.143C741.059 346.098 738.314 341.532 735.298 337.354C729.27 337.783 723.047 338.455 716.573 339.439C719.137 344.247 721.409 349.502 723.457 355.101ZM702.816 360.306C709.64 358.423 716.305 356.735 722.795 355.256C720.719 349.631 718.387 344.393 715.777 339.583C709.573 340.547 703.169 341.764 696.599 343.193C698.882 348.544 700.955 354.247 702.816 360.306ZM682.918 366.198C689.483 364.126 695.915 362.221 702.219 360.474C700.342 354.409 698.26 348.69 695.953 343.346C689.784 344.699 683.471 346.238 677.004 347.979C679.153 353.721 681.131 359.784 682.918 366.198ZM664.137 372.411C670.321 370.263 676.387 368.266 682.371 366.373C680.572 359.956 678.582 353.891 676.421 348.144C670.468 349.753 664.422 351.483 658.233 353.403C660.348 359.432 662.325 365.749 664.137 372.411ZM646.758 378.622C652.474 376.489 658.062 374.527 663.628 372.593C661.808 365.926 659.823 359.607 657.699 353.578C652.091 355.323 646.419 357.154 640.635 359.141C642.793 365.352 644.845 371.818 646.758 378.622ZM630.866 384.777C636.034 382.742 641.202 380.709 646.266 378.812C644.349 372.005 642.296 365.521 640.133 359.305C634.986 361.08 629.719 363.023 624.448 364.974C626.68 371.308 628.803 377.959 630.866 384.777ZM616.765 390.457C621.345 388.577 625.894 386.736 630.398 384.958C628.33 378.135 626.199 371.49 623.961 365.15C619.271 366.89 614.526 368.71 609.743 370.583C612.147 376.983 614.483 383.623 616.765 390.457ZM604.59 395.507C608.537 393.834 612.427 392.24 616.32 390.642C614.034 383.804 611.693 377.164 609.283 370.764C605.135 372.387 601.015 373.967 596.796 375.694C599.438 382.096 602.042 388.672 604.59 395.507ZM594.38 399.915C597.647 398.495 600.923 397.062 604.159 395.686C601.607 388.848 598.999 382.273 596.353 375.87C592.875 377.301 589.317 378.853 585.802 380.339C588.69 386.669 591.555 393.158 594.38 399.915ZM585.903 403.64C588.597 402.447 591.283 401.264 593.957 400.101C591.13 393.344 588.264 386.851 585.375 380.52C582.451 381.754 579.547 382.958 576.592 384.239C579.709 390.526 582.808 397.05 585.903 403.64ZM579.467 406.468C581.493 405.56 583.478 404.709 585.487 403.823C582.388 397.231 579.286 390.71 576.165 384.42C573.845 385.429 571.504 386.472 569.169 387.504C572.601 393.695 576.034 399.935 579.467 406.468ZM577.752 407.222C578.191 407.024 578.623 406.839 579.057 406.649C575.623 400.117 572.188 393.878 568.755 387.69C567.093 388.429 565.415 389.194 563.75 389.94C565.094 392.161 566.451 394.541 567.798 396.782C571.13 400.289 574.394 403.659 577.752 407.222ZM574.784 408.588C575.634 408.193 576.489 407.792 577.329 407.413C574.447 404.356 571.646 401.465 568.788 398.455C570.784 401.795 572.783 405.173 574.784 408.588ZM573.841 409.022C574.019 408.942 574.198 408.858 574.377 408.776C572.056 404.817 569.736 400.885 567.423 397.023C565.47 394.965 563.54 392.954 561.593 390.908L559.92 391.66C561.196 393.552 562.468 395.416 563.746 397.335C567.07 401.127 570.48 405.136 573.841 409.022ZM572.02 409.863C572.49 409.646 572.961 409.426 573.427 409.213C570.891 406.281 568.329 403.286 565.809 400.393C567.871 403.494 569.945 406.672 572.02 409.863ZM570.92 410.37L571.226 410.23C569.778 408.397 568.35 406.628 566.911 404.821C568.248 406.674 569.58 408.506 570.92 410.37ZM372.02 514.665C438.843 476.084 507.083 439.553 570.511 410.559C567.594 406.503 564.691 402.5 561.783 398.478C560.264 396.588 558.759 394.743 557.243 392.863C483.424 426.43 402.572 471.633 325.266 518.68L324.255 518.767C401.746 471.57 482.85 426.184 556.918 392.461C552.179 386.573 547.437 380.678 542.782 375.054C459.388 412.691 366.465 467.175 280.338 522.538L279.407 522.618C365.672 467.131 458.817 412.465 542.449 374.661C539.645 371.277 536.911 368.112 534.136 364.819C531.892 362.349 529.692 359.986 527.479 357.593C435.47 398.654 331.299 462.924 238.333 526.145L237.438 526.222C330.498 462.897 434.872 398.444 527.112 357.199C521.834 351.484 516.589 345.852 511.399 340.354C411.553 384.216 296.895 458.958 199.079 529.515L198.24 529.587C296.118 458.948 410.962 384.022 511.036 339.964C509.683 338.531 508.286 336.991 506.938 335.572C502.82 331.536 498.669 327.433 494.609 323.516C387.616 369.482 263.292 455.449 162.676 532.641L161.869 532.71C262.508 455.458 386.996 369.304 494.208 323.124C488.416 317.545 482.761 312.242 477.074 306.874C363.445 354.275 230.269 452.499 128.938 535.538L128.168 535.604C229.488 452.53 362.806 354.116 476.652 306.477C470.893 301.043 465.144 295.629 459.519 290.466C339.507 338.424 198.115 450.233 98.0389 538.191L97.3103 538.254C197.344 450.291 338.857 338.293 459.081 290.072C453.144 284.624 447.333 279.432 441.536 274.262C315.262 321.912 166.511 448.948 69.8476 540.612L69.153 540.672C165.743 449.032 314.593 321.799 441.076 273.849C435.073 268.498 429.181 263.371 423.318 258.303C290.645 304.616 135.448 448.995 44.4092 542.797L43.7565 542.853C134.692 449.117 289.969 304.548 422.849 257.899C416.88 252.742 410.93 247.623 405.112 242.765C265.559 286.388 104.87 450.913 21.7666 544.741L21.1428 544.794C104.107 451.082 264.845 286.362 404.595 242.342C398.519 237.273 392.54 232.392 386.628 227.641C239.292 267.249 74.4174 455.705 1.90541 546.446L1.30985 546.497C73.6448 455.931 238.551 267.261 386.075 227.188C379.928 222.254 373.931 217.613 367.955 213.011C211.193 247.105 43.5886 465.207 -15.137 547.91L-15.7044 547.958C42.7976 465.521 210.399 247.192 367.333 212.529C361.257 207.856 355.278 203.367 349.377 199.031C179.827 225.741 10.6939 484.302 -29.2976 549.126L-29.8325 549.172C9.82661 484.847 178.97 225.94 348.725 198.556C342.769 194.185 336.859 189.907 331.079 185.874C150.432 201.846 -12.2557 496.702 -36.2884 542.089L-36.3499 541.278C-11.1887 493.879 150.598 202.069 330.317 185.355C324.474 181.287 318.678 177.308 313.015 173.579C129.66 176.085 -15.2135 476.628 -37.5508 525.437L-37.6184 524.545C-14.2818 473.708 129.84 176.438 312.161 172.997C306.37 169.195 300.752 165.717 295.146 162.26C107.134 150.228 -18.5501 455.741 -38.8344 508.505L-38.9111 507.494C-17.6316 452.378 107.442 150.807 294.092 161.595C288.579 158.209 283.2 155.071 277.863 152.009C83.1521 124.315 -22.1701 433.188 -40.153 491.111L-40.2423 489.934C-21.3674 429.508 83.5437 125.277 276.485 151.212C271.374 148.298 266.352 145.549 261.399 142.925C57.7866 98.5454 -26.3241 408.45 -41.5329 472.91L-41.6422 471.468C-25.6188 404.209 58.358 100.101 259.425 141.891C254.955 139.548 250.509 137.245 246.168 135.136C31.817 73.2393 -31.1121 379.542 -43.0368 453.071L-43.1781 451.207C-30.5743 374.843 32.5524 76.1826 242.774 133.551C239.315 131.906 235.842 130.236 232.466 128.737C7.05306 49.4225 -36.8358 342.447 -44.8421 429.258L-45.0409 426.636C-36.524 337.693 7.69493 56.257 224.303 125.293C-10.4129 27.3816 -43.632 286.337 -47.5729 393.236L-47.8676 389.348C-43.223 278.753 -7.26719 21.861 232.344 128.113C240.129 130.85 248.099 133.966 256.32 137.611C264.826 140.469 273.613 144.023 282.585 148.054C291.424 150.943 300.494 154.557 309.757 158.793C318.718 161.655 327.847 165.219 337.151 169.544C346.236 172.371 355.439 175.902 364.771 180.313C373.984 183.088 383.264 186.618 392.612 191.099C402.201 193.9 411.805 197.582 421.4 202.315C430.974 205.049 440.487 208.746 449.92 213.477C459.613 216.167 469.177 219.838 478.566 224.646C488.384 227.28 497.994 230.95 507.332 235.825C517.286 238.388 526.93 242.084 536.213 247.012C546.311 249.495 555.976 253.235 565.199 258.204C575.441 260.625 585.141 264.372 594.29 269.403C604.775 271.773 614.575 275.587 623.71 280.742C634.438 283.064 644.335 286.934 653.433 292.227C664.305 294.496 674.223 298.35 683.2 303.713C694.219 305.934 704.169 309.764 713.016 315.203C724.165 317.396 734.181 321.157 742.87 326.695C754.166 328.848 764.232 332.571 772.77 338.19C784.239 340.269 794.316 344.001 802.705 349.685C849.518 357.939 870.625 394.776 850.846 473.55L850.207 473.604C869.445 396.52 849.327 359.801 804.191 350.841C830.805 370.091 839.856 409.574 824.264 475.832L823.675 475.883C839.396 408.783 829.736 369.258 802.095 350.477C796.717 349.527 791.018 348.932 784.982 348.717C806.238 371.965 812.657 413.336 798.937 478.007L798.363 478.056C812.094 413.022 805.369 371.652 783.624 348.642C777.717 348.471 771.562 348.58 765.065 349.081C781.828 375.555 786.405 417.908 775.001 480.062L774.452 480.109C785.827 417.81 781.077 375.488 764.06 349.156C757.839 349.671 751.311 350.537 744.613 351.607C757.904 380.427 761.414 422.94 752.546 481.99L752.018 482.036C760.846 422.942 757.23 380.475 743.797 351.754C737.296 352.813 730.558 354.15 723.643 355.699C734.582 386.021 737.823 428.023 731.589 483.79L731.09 483.833C737.298 428.064 734 386.1 722.982 355.854C716.484 357.322 709.807 359.004 702.972 360.88C712.424 391.999 715.923 433.02 712.265 485.449L711.779 485.491C715.413 433.081 711.878 392.103 702.374 361.047C696.066 362.787 689.629 364.684 683.057 366.751C691.717 398.094 695.835 437.815 694.634 486.963L694.16 487.004C695.344 437.89 691.202 398.214 682.51 366.927C676.522 368.814 670.455 370.802 664.266 372.945C672.671 404.075 677.659 442.311 678.755 488.327L678.291 488.366C677.182 442.394 672.181 404.203 663.757 373.127C658.197 375.055 652.614 377.011 646.903 379.137C655.454 409.737 661.452 446.446 664.678 489.535L664.222 489.574C660.988 446.534 654.983 409.868 646.423 379.318C641.365 381.208 636.19 383.255 631.028 385.284C639.913 414.768 647.021 449.282 652.24 488.945L653.61 490.486L653.067 490.532L652.341 489.715L652.454 490.585L652.004 490.623L651.803 489.112C650.715 487.89 649.63 486.678 648.533 485.438C645.254 481.729 642.082 478.245 638.856 474.648C639.99 480.174 641.166 485.558 642.236 491.294L642.363 491.451L641.819 491.498L641.813 491.466C637.886 486.598 633.947 481.698 630.041 476.886C631.325 481.802 632.524 487.091 633.766 492.19L633.036 492.252C629.618 487.502 626.159 482.615 622.801 478.052C624.367 482.937 625.948 487.722 627.496 492.728L626.64 492.802C623.877 488.584 621.148 484.513 618.393 480.333C619.967 484.451 621.518 488.837 623.079 493.107L622.287 493.175C620.152 489.456 618.018 485.739 615.898 482.109C617.554 485.824 619.212 489.523 620.869 493.297L620.279 493.348C614.962 482.804 609.666 472.588 604.39 462.655C597.736 451.576 591.118 440.739 584.566 430.34C579.941 423.72 575.366 417.316 570.803 410.965C507.639 439.802 439.668 476.154 373.067 514.576L372.02 514.665L372.02 514.665Z" fill="white"/>
</mask>
<g mask="url(#mask0_42_18)">
<path d="M836.86 -50.6243L-75.2841 27.7002L-35.7132 549.675L876.431 471.351L836.86 -50.6243Z" fill="#4EA507"/>
</g>
</g>
</g>
<path d="M112.961 123.957C110.223 122.398 108.276 119.524 107.841 116.404C107.407 113.285 108.495 109.988 110.702 107.74C111.406 107.023 112.242 106.396 113.216 106.146C114.189 105.896 115.315 106.083 116.018 106.802C117.976 102.613 122.826 99.4077 127.449 99.3734C132.072 99.3391 136.564 101.851 139.232 105.627C141.901 109.402 142.786 114.311 141.938 118.856C141.409 121.695 140.186 124.479 138.075 126.449C134.771 129.533 129.754 130.177 125.338 129.215C120.922 128.254 116.887 126.194 112.961 123.957Z" fill="#212121"/>
<path d="M116.264 146.585L99.2124 154.673C91.1352 158.504 85.2533 165.808 83.1914 174.507C80.5568 185.62 80.714 196.995 80.4901 209.563C80.4644 211.028 80.6607 212.504 81.1905 213.87C83.3248 219.368 88.2796 218.863 92.0471 217.227C97.7612 214.745 97.2476 214.765 101.988 210.463C103.65 228.073 102.175 244.048 95.5983 260.468C99.7631 263.614 104.784 265.089 109.985 265.525C115.187 265.959 120.417 265.538 125.636 265.488C139.354 265.352 153.094 267.804 165.919 272.674C164.926 264.414 164.342 256.538 164.27 248.219C164.18 237.619 164.088 227.021 163.997 216.422C166.77 217.484 169.176 217.902 172.124 218.259C175.072 218.615 178.222 218.19 180.648 216.477C183.078 214.761 184.535 211.922 185.144 209.009C185.752 206.098 185.596 203.085 185.357 200.119C184.524 189.787 182.706 179.535 179.943 169.545C177.161 159.482 169.265 151.602 159.165 148.96C153.464 147.469 147.661 146.28 142.111 145.182C133.43 143.463 124.259 142.793 116.264 146.585Z" fill="#FCB685"/>
<mask id="mask1_42_18" style="mask-type:luminance" maskUnits="userSpaceOnUse" x="80" y="143" width="106" height="130">
<path d="M116.264 146.584L99.2124 154.672C91.1352 158.503 85.2533 165.807 83.1914 174.506C80.5568 185.619 80.714 196.994 80.4901 209.562C80.4644 211.027 80.6607 212.503 81.1905 213.869C83.3248 219.367 88.2796 218.862 92.0471 217.226C97.7612 214.745 97.2476 214.764 101.988 210.462C103.65 228.072 102.175 244.047 95.5983 260.467C99.7631 263.614 104.784 265.089 109.985 265.524C115.187 265.958 120.417 265.537 125.636 265.487C139.354 265.351 153.094 267.803 165.919 272.673C164.926 264.413 164.342 256.537 164.27 248.218C164.18 237.618 164.088 227.02 163.997 216.421C166.77 217.483 169.176 217.901 172.124 218.258C175.072 218.614 178.222 218.189 180.648 216.476C183.078 214.76 184.535 211.921 185.144 209.008C185.752 206.097 185.596 203.084 185.357 200.118C184.524 189.786 182.706 179.534 179.943 169.544C177.161 159.481 169.265 151.601 159.165 148.959C153.464 147.468 147.661 146.279 142.111 145.181C133.43 143.462 124.259 142.792 116.264 146.584Z" fill="white"/>
</mask>
<g mask="url(#mask1_42_18)">
<path d="M71.4229 173.167L68.8665 168.053C107.291 148.848 151.698 142.671 193.904 150.662L192.842 156.28C151.855 148.522 108.735 154.518 71.4229 173.167ZM192.842 170.87L193.904 165.252C151.701 157.261 107.292 163.438 68.8665 182.642L71.4229 187.756C108.737 169.109 151.857 163.112 192.842 170.87ZM192.842 185.459L193.904 179.842C151.698 171.852 107.292 178.027 68.8665 197.233L71.4229 202.347C108.735 183.697 151.855 177.7 192.842 185.459ZM192.842 200.048L193.904 194.431C151.701 186.442 107.292 192.617 68.8665 211.822L71.4229 216.935C108.737 198.288 151.857 192.29 192.842 200.048ZM192.842 214.638L193.904 209.021C151.698 201.031 107.292 207.208 68.8665 226.412L71.4229 231.526C108.735 212.877 151.855 206.878 192.842 214.638ZM192.842 229.228L193.904 223.61C151.701 215.62 107.292 221.796 68.8665 241L71.4229 246.114C108.737 227.467 151.857 221.469 192.842 229.228ZM192.842 243.818L193.904 238.201C151.698 230.211 107.292 236.387 68.8665 255.592L71.4229 260.706C108.735 242.055 151.855 236.058 192.842 243.818ZM192.842 258.407L193.904 252.79C151.701 244.8 107.292 250.976 68.8665 270.18L71.4229 275.294C108.737 256.646 151.857 250.649 192.842 258.407ZM192.842 272.996L193.904 267.379C151.698 259.388 107.292 265.564 68.8665 284.77L71.4229 289.884C108.735 271.235 151.855 265.238 192.842 272.996Z" fill="white"/>
</g>
<path opacity="0.7" d="M185.356 204.918C184.844 200.234 183.939 195.575 182.691 190.967C171.242 188.448 161.843 190.971 161.843 190.971L163.997 201.891L143.598 197.198L133.68 190.971H127.435V192.596C126.157 192.785 124.995 192.964 123.926 193.134C122.479 193.011 118.788 193.337 111.495 194.431V192.024L108.742 192.505L102.865 200.447L99.5612 201.842L99.1505 191.681C99.1505 191.681 92.1557 188.002 81.6345 191.681C81.0657 197.377 80.6493 201.752 80.5369 206.728C80.5283 207.303 80.5188 207.881 80.5092 208.461C80.5045 209.11 80.5054 209.777 80.5102 210.457C80.5654 211.624 80.7684 212.782 81.1915 213.871C82.3568 216.872 84.3644 218.077 86.5597 218.293C86.7027 218.302 86.8427 218.319 86.9866 218.322C87.0009 218.323 87.0152 218.322 87.0295 218.323C87.5383 218.332 88.0547 218.296 88.5712 218.239C89.7651 218.074 90.9561 217.701 92.0481 217.227C97.7622 214.746 97.2486 214.765 101.989 210.464C102.05 211.115 102.099 211.759 102.151 212.406C102.586 212.035 103.049 211.631 103.551 211.187L109.394 206.225C109.394 206.225 113.029 205.984 117.09 204.299L120.051 203.592C120.647 204.183 131.079 203.517 131.079 203.517L141.318 205.224C148.834 210.36 163.997 216.935 163.997 216.935C163.999 216.935 164 216.936 164.001 216.936C164 216.764 163.999 216.593 163.997 216.421C166.77 217.483 169.175 217.901 172.124 218.257C175.072 218.614 178.223 218.189 180.648 216.476C183.078 214.76 184.535 211.921 185.144 209.008C185.325 208.142 185.432 207.267 185.495 206.386C185.457 205.895 185.41 205.406 185.356 204.918Z" fill="#BF9375"/>
<path d="M137.519 127.68L142.109 145.18C142.109 145.18 142.741 157.316 129.272 157.684C115.802 158.052 117.124 146.199 117.124 146.199C117.124 146.199 121.316 144.679 123.136 144.394L123.638 131.112L137.519 127.68Z" fill="#784940"/>
<path opacity="0.5" d="M137.519 127.68L123.638 131.112L123.136 144.394C122.204 144.539 120.652 145.009 119.357 145.433C121.472 147.647 124.725 148.715 127.791 148.368C131.278 147.974 134.461 145.907 136.586 143.114C138.142 141.07 139.16 138.667 139.742 136.158L137.519 127.68Z" fill="#784940"/>
<path d="M111.914 123.962C112.841 128.978 114.394 133.878 116.526 138.513C117.54 140.717 118.765 142.952 120.783 144.299C123.438 146.071 127.097 145.91 129.888 144.358C132.678 142.805 134.653 140.047 135.794 137.065C136.933 134.082 137.311 130.866 137.52 127.68C139.043 126.943 140.331 125.535 140.916 123.948C141.501 122.36 141.447 120.547 140.766 118.997C140.522 118.44 140.185 117.901 139.682 117.56C139.178 117.219 138.481 117.116 137.959 117.429C135.998 118.605 135.339 121.744 135.632 124.116C134.738 121.329 133.614 118.321 130.846 117.032C128.078 115.743 124.951 115.518 121.905 115.313C120.084 115.19 118.237 115.07 116.449 115.438C114.662 115.807 112.91 116.732 111.947 118.281C110.985 119.833 111.843 122.065 111.914 123.962Z" fill="#784940"/>
<path d="M111.495 185.887V173.479L127.435 172.744V197.877H111.495V185.887Z" fill="#212121"/>
<path d="M111.495 173.479L127.435 172.744V174.229L111.495 174.963V173.479Z" fill="#585858"/>
<path d="M114.003 194.376C114.003 194.376 143.191 183.111 112.823 190.458C112.823 190.458 140.37 180.009 111.494 185.886V182.621L108.741 183.274L102.864 194.049L99.5602 195.943L99.1495 182.156C99.1495 182.156 92.1548 177.164 81.6336 182.156C80.9123 191.963 80.434 198.877 80.513 208.239C80.5426 211.734 81.0886 215.827 84.1291 217.553C86.5064 218.903 89.5011 218.219 92.0481 217.226C98.0109 214.902 99.4516 213.536 103.551 208.621L109.395 201.887C109.395 201.887 113.03 201.561 117.09 199.275C117.09 199.275 134.212 192.254 116.253 196.989C116.251 196.989 139.51 188.499 114.003 194.376Z" fill="#784940"/>
<g opacity="0.5">
<path d="M119.003 193.278C121.134 193.295 123.421 193.246 125.208 193.192C126.849 192.209 126.18 191.794 119.003 193.278Z" fill="#784940"/>
<path d="M120.429 188.745C122.568 188.722 124.823 188.631 126.469 188.551C127.139 187.827 125.788 187.669 120.429 188.745Z" fill="#784940"/>
<path d="M116.562 196.909C117.912 197.04 120.176 197.008 122.332 196.927C125.267 195.454 126.577 194.284 116.562 196.909Z" fill="#784940"/>
<path d="M116.491 196.901C117.442 196.55 121.033 195.205 123.508 194.06C114.738 195.92 114.2 196.662 116.491 196.901Z" fill="#784940"/>
<path d="M117.175 188.708C120.174 187.445 123.75 185.801 124.526 184.855C111.389 187.646 112.692 188.522 117.175 188.708Z" fill="#784940"/>
<path d="M116.872 193.233C119.873 192.009 124.365 190.09 126.003 188.939C108.81 192.093 111.203 193.03 116.872 193.233Z" fill="#784940"/>
</g>
<path d="M185.356 200.117C184.844 193.762 183.939 187.44 182.691 181.188C171.242 177.769 161.843 181.194 161.843 181.194L163.997 196.01L143.598 189.643L133.68 181.195H127.435V183.398C96.4558 189.643 128.905 187.561 128.905 187.561C92.6598 193.928 128.415 192.214 128.415 192.214C99.2724 197.846 127.925 195.765 127.925 195.765C108.456 200.173 131.079 198.214 131.079 198.214L141.318 200.53C148.834 207.499 163.997 216.42 163.997 216.42C166.77 217.481 169.176 217.9 172.124 218.256C175.072 218.612 178.222 218.187 180.648 216.474C183.078 214.758 184.535 211.92 185.143 209.007C185.751 206.096 185.595 203.083 185.356 200.117Z" fill="#784940"/>
<path d="M157.72 194.051C159.222 194.365 160.701 194.754 162.176 195.155C163.653 195.548 165.113 195.995 166.574 196.441C168.029 196.904 169.485 197.368 170.923 197.884C172.364 198.394 173.801 198.915 175.214 199.511C173.713 199.198 172.234 198.808 170.759 198.409C169.282 198.016 167.821 197.57 166.361 197.123C164.906 196.66 163.451 196.196 162.012 195.678C160.571 195.168 159.134 194.646 157.72 194.051Z" fill="#212121"/>
<path d="M163.997 196.011C163.551 193.966 163.182 191.91 162.826 189.852C162.467 187.795 162.172 185.729 161.842 183.667C161.57 181.597 161.267 179.531 161.023 177.457C160.78 175.383 160.547 173.307 160.394 171.22C160.841 173.265 161.21 175.32 161.567 177.378C161.923 179.436 162.221 181.502 162.548 183.564C162.819 185.634 163.125 187.699 163.367 189.773C163.61 191.848 163.842 193.924 163.997 196.011Z" fill="#212121"/>
<path d="M102.864 194.051C101.712 194.881 100.521 195.643 99.3229 196.395C98.13 197.154 96.9094 197.864 95.6878 198.574C94.4587 199.269 93.2286 199.963 91.9708 200.609C90.7169 201.261 89.4573 201.904 88.1576 202.478C89.3096 201.647 90.5006 200.885 91.6974 200.133C92.8903 199.374 94.1119 198.663 95.3334 197.955C96.5635 197.26 97.7936 196.565 99.0514 195.92C100.305 195.268 101.565 194.625 102.864 194.051Z" fill="#212121"/>
<path d="M99.5602 195.942C99.3582 194.106 99.2344 192.267 99.1219 190.428C99.0019 188.589 98.9381 186.749 98.8742 184.908C98.8275 183.067 98.7818 181.227 98.7913 179.384C98.7942 177.541 98.8075 175.698 98.9018 173.854C99.1048 175.69 99.2287 177.529 99.3411 179.368C99.4611 181.207 99.525 183.047 99.5879 184.887C99.6336 186.728 99.6794 188.569 99.6689 190.412C99.667 192.255 99.6527 194.097 99.5602 195.942Z" fill="#212121"/>
<path opacity="0.5" d="M180.647 216.474C183.077 214.758 184.534 211.92 185.143 209.007C185.751 206.095 185.595 203.082 185.356 200.117C184.524 189.784 182.705 179.533 179.942 169.542C179.221 166.935 178.151 164.48 176.794 162.219C176.943 162.824 187.213 204.937 176.79 211.427C166.292 217.963 155.994 211.427 155.994 211.427L163.996 216.42C166.769 217.481 169.174 217.9 172.123 218.256C175.072 218.612 178.222 218.187 180.647 216.474Z" fill="#BF9375"/>
<path opacity="0.5" d="M84.5197 211.427C79.3601 205.004 84.3396 171.527 84.5149 170.358C83.9794 171.699 83.5297 173.082 83.1914 174.506C80.5568 185.619 80.714 196.994 80.4901 209.562C80.4644 211.026 80.6607 212.503 81.1905 213.869C83.3248 219.367 88.2796 218.862 92.0471 217.226C96.0928 215.468 97.0218 214.959 98.8989 213.288C98.836 213.321 89.7526 217.94 84.5197 211.427Z" fill="#BF9375"/>
<path d="M240.917 194.822C241.728 197.669 242.133 200.631 242.115 203.591C242.098 206.404 241.675 209.288 240.291 211.737C238.906 214.186 236.428 216.137 233.621 216.333C231.698 216.467 230.503 214.377 229.768 212.594C229.034 210.811 228.908 208.843 228.858 206.916C228.793 204.454 228.842 201.947 229.581 199.597C230.32 197.247 231.841 195.046 234.064 193.985C236.287 192.924 240.242 192.453 240.917 194.822Z" fill="#1A2633"/>
<path d="M234.081 209.118C238.63 202.369 242.479 195.147 245.545 187.608C244.6 185.619 243.015 184.055 241.002 183.164C238.989 182.273 236.654 182.129 234.547 182.767C230.51 183.989 227.712 187.932 226.902 192.071C226.092 196.211 226.979 200.507 228.362 204.492C228.816 205.8 229.347 207.126 230.302 208.129C231.257 209.131 232.761 209.535 234.081 209.118Z" fill="#AD7264"/>
<path d="M227.466 123.772C230.14 122.125 232.139 119.824 232.324 116.209C232.378 115.148 232.245 114.063 231.806 113.096C231.367 112.129 230.603 111.288 229.623 110.878C229.74 108.035 227.904 105.392 225.684 103.612C221.45 100.216 215.739 98.7299 210.387 99.6319C205.034 100.534 200.126 103.808 197.238 108.404C194.35 113 193.528 118.843 195.038 124.057C191.104 124.785 187.584 127.243 185.4 130.596C183.216 133.948 182.186 137.952 181.895 141.942C181.75 143.931 181.783 145.957 182.304 147.882C182.825 149.807 183.87 151.635 185.463 152.834C187.203 154.144 189.448 154.608 191.625 154.663C195.591 154.764 199.581 153.596 202.866 151.371C206.151 149.146 208.717 145.876 210.096 142.155C211.023 139.652 211.429 136.955 212.622 134.567C214.883 130.042 219.558 127.293 224.079 125.448C225.265 124.963 226.417 124.418 227.466 123.772Z" fill="#212121"/>
<path d="M200.068 137.748C192.267 135.634 183.847 138.67 179.522 145.497C178.337 147.368 177.378 149.39 176.676 151.46C174.185 158.8 174.337 166.736 174.516 174.485C175.043 197.286 175.569 220.087 176.096 242.887C176.507 260.676 180.395 278.322 185.066 295.492C185.744 297.983 186.485 300.519 187.99 302.617C189.495 304.715 191.927 306.324 194.504 306.165C197.933 305.953 200.527 302.66 201.125 299.277C201.723 295.894 200.8 292.448 199.884 289.137C202.078 292.574 205.703 295.941 208.762 298.636C211.821 301.331 215.871 303.177 219.919 302.69C223.741 302.23 226.994 299.825 230.238 297.753C233.482 295.681 237.267 293.81 241.036 294.592C239.854 262.227 237.628 229.174 233.551 197.045C237.768 193.806 239.706 187.857 238.656 182.644C237.817 178.479 235.196 174.929 232.645 171.532C232.357 164.38 231.515 156.519 227.112 150.875C223.74 146.552 218.547 144.098 213.44 142.104C209.155 140.433 204.618 138.981 200.068 137.748Z" fill="#364F6B"/>
<path d="M211.856 202.124C212.98 217.72 209.656 233.567 202.41 247.343C209.434 233.452 212.471 217.618 211.109 202.184L211.856 202.124Z" fill="white"/>
<path d="M217.262 198.948C221.459 211.66 221.721 225.589 218.046 238.381C221.48 225.522 220.937 211.675 216.552 199.19L217.262 198.948Z" fill="#EFFFE1"/>
<path d="M205.326 127.143L199.102 137.522L208.822 148.405L217.258 159.741L213.439 142.106L213.715 135.985L211.745 129.707L205.326 127.143Z" fill="#D19688"/>
<path opacity="0.7" d="M203.526 130.145C204.94 132.456 207.246 134.575 208.883 135.793C210.182 136.759 211.596 137.573 213.088 138.201C213.257 138.272 213.432 138.337 213.606 138.401L213.715 135.985L211.746 129.707L205.327 127.143L203.526 130.145Z" fill="#D19688"/>
<path d="M229.191 114.573C228.844 121.805 226.58 128.936 222.692 135.043C221.85 136.366 220.779 137.745 219.236 138.03C218.038 138.251 216.831 137.75 215.751 137.185C211.419 134.916 207.755 131.387 205.325 127.143C211.297 127.233 217.078 123.712 220.187 118.613C221.196 116.958 221.96 115.091 223.415 113.81C224.87 112.529 227.921 113.108 229.191 114.573Z" fill="#D19688"/>
<path d="M245.629 185.248L258.47 170.762L258.334 169.527L252.256 168.691L238.727 184.298L245.629 185.248Z" fill="#212121"/>
<path d="M258.334 169.527L253.537 168.867L252.256 168.691L251.39 169.689L238.727 184.298L240.013 184.475L252.748 170.089L258.47 170.762L258.334 169.527Z" fill="#585858"/>
<path d="M207.488 189.324C208.577 196.027 208.193 202.965 206.37 209.507C213.347 202.015 222.205 195.852 231.253 191.061C235.763 188.673 241.63 189.767 246.81 189.396C247.477 189.348 248.08 188.984 248.469 188.441C248.729 188.078 249.006 187.718 249.152 187.343C249.749 187.09 250.756 186.639 251.238 186.204C251.719 185.77 252.058 185.123 251.955 184.483C251.852 183.843 251.218 183.525 250.566 183.455C251.287 183.33 252.043 182.977 252.682 182.621C253.321 182.265 253.856 181.633 253.893 180.902C253.93 180.171 253.325 179.695 252.591 179.458C253.223 179.631 254.378 179.561 254.89 179.136C255.402 178.711 255.587 177.935 255.32 177.325C254.864 176.284 253.506 176.073 252.371 176.01C248.612 175.799 244.853 175.588 241.094 175.377C241.156 174.473 240.736 173.936 239.864 173.689C239.273 173.522 238.644 173.634 238.04 173.748C236.298 174.075 234.555 174.403 232.813 174.73C230.785 177.193 228.925 180.168 226.897 182.631C220.851 184.77 213.533 187.185 207.488 189.324Z" fill="#D19688"/>
<path d="M249.152 187.343H244.377" stroke="black" stroke-miterlimit="10"/>
<path d="M250.566 183.455H245.15" stroke="black" stroke-miterlimit="10"/>
<path d="M252.591 179.457L245.15 178.898" stroke="black" stroke-miterlimit="10"/>
<path d="M207.488 189.324C205.804 189.787 204.115 190.228 202.421 190.646C200.725 191.053 199.035 191.489 197.333 191.872L196.943 191.96L196.94 191.555L196.893 185.848L196.931 180.142C196.933 178.24 196.995 176.338 197.04 174.436C197.079 172.534 197.166 170.632 197.264 168.729C197.361 170.631 197.449 172.533 197.488 174.436C197.533 176.338 197.595 178.24 197.597 180.142L197.635 185.848L197.588 191.555L197.195 191.238C198.901 190.877 200.619 190.569 202.331 190.233C204.045 189.907 205.764 189.604 207.488 189.324Z" fill="#EFFFE1"/>
<path d="M202.376 220.534C203.032 218.266 203.766 216.028 204.511 213.795C205.214 211.537 206.196 209.4 206.576 207.09C207.09 204.809 207.413 202.485 207.642 200.154C207.873 197.822 207.963 195.474 207.944 193.113C208.274 195.453 208.329 197.83 208.216 200.196C208.105 202.564 207.77 204.918 207.308 207.246C207.053 208.388 206.76 209.591 206.309 210.673C205.891 211.776 205.498 212.888 205.054 213.981C204.195 216.179 203.324 218.371 202.376 220.534Z" fill="#EFFFE1"/>
<path d="M197.181 177.881C195.132 176.409 193.349 174.619 191.772 172.681C190.208 170.734 188.837 168.619 187.839 166.335C188.912 168.585 190.347 170.641 191.963 172.521C193.59 174.391 195.416 176.101 197.463 177.469L197.181 177.881Z" fill="#EFFFE1"/>
<path d="M197.112 181.391C194.233 181.264 191.418 180.507 188.82 179.331C186.222 178.149 183.821 176.541 181.78 174.564C183.878 176.48 186.314 178.008 188.92 179.102C191.525 180.191 194.32 180.85 197.126 180.891L197.112 181.391Z" fill="#EFFFE1"/>
</g>
<defs>
<clipPath id="clip0_42_18">
<rect y="0.373047" width="332" height="202" rx="16" fill="white"/>
</clipPath>
<clipPath id="clip1_42_18">
<rect width="332" height="168" fill="white" transform="translate(0 35.373)"/>
</clipPath>
</defs>
</svg>
