<svg width="188" height="263" viewBox="0 0 188 263" fill="none" xmlns="http://www.w3.org/2000/svg">
<g opacity="0.2">
<g opacity="0.3">
<path d="M33.4025 142.382C33.4025 142.382 67.5065 104.311 94.9793 88.139C122.452 71.9673 211.903 64.7246 211.903 64.7246L198.969 155.541C198.969 155.541 93.5634 153.137 33.4025 158.526" stroke="#808D97" stroke-width="0.524" stroke-miterlimit="10" stroke-linecap="round" stroke-linejoin="round"/>
<path d="M224.064 51.8506C224.064 51.8506 159.917 50.4814 94.9791 74.2385" stroke="#808D97" stroke-width="0.524" stroke-miterlimit="10" stroke-linecap="round" stroke-linejoin="round"/>
<path d="M62.1779 192.753C68.1881 192.753 103.369 176.168 174.499 173.566" stroke="#808D97" stroke-width="0.524" stroke-miterlimit="10" stroke-linecap="round" stroke-linejoin="round"/>
<path d="M74.2562 192.098C74.2562 192.098 76.4953 216.669 148.624 218.07" stroke="#808D97" stroke-width="0.524" stroke-miterlimit="10" stroke-linecap="round" stroke-linejoin="round"/>
<path d="M40.4058 153.778C40.4058 153.778 142.059 148.617 195.71 152.742" stroke="#808D97" stroke-width="0.524" stroke-miterlimit="10" stroke-linecap="round" stroke-linejoin="round"/>
<path d="M33.4025 60.293C33.4025 60.293 51.5769 77.2664 82.0611 82.2858" stroke="#808D97" stroke-width="0.524" stroke-miterlimit="10" stroke-linecap="round" stroke-linejoin="round"/>
<path d="M37.923 138.444C37.923 138.444 42.8475 138.259 48.2599 135.334C53.6723 132.409 85.7034 98.3412 102.648 92.8245C119.593 87.3073 209.742 75.0342 209.742 75.0342" stroke="#808D97" stroke-width="0.524" stroke-miterlimit="10" stroke-linecap="round" stroke-linejoin="round"/>
</g>
<g opacity="0.3">
<path d="M67.2254 68.9292V93.5468C67.2254 94.6681 66.3137 95.5746 65.1976 95.5746H30.8913C29.7699 95.5746 28.8634 94.6681 28.8634 93.5468V68.9292C28.8634 67.8079 29.7699 66.9014 30.8913 66.9014H65.1976C66.3137 66.9014 67.2254 67.8079 67.2254 68.9292Z" fill="white"/>
<mask id="mask0_10194_68171" style="mask-type:luminance" maskUnits="userSpaceOnUse" x="28" y="66" width="40" height="30">
<path d="M67.2253 68.9263V93.5438C67.2253 94.6652 66.3136 95.5717 65.1974 95.5717H30.8912C29.7698 95.5717 28.8633 94.6652 28.8633 93.5438V68.9263C28.8633 67.805 29.7698 66.8984 30.8912 66.8984H65.1974C66.3136 66.8984 67.2253 67.805 67.2253 68.9263Z" fill="white"/>
</mask>
<g mask="url(#mask0_10194_68171)">
<path opacity="0.4" d="M67.2256 87.6562V93.546C67.2256 94.6674 66.3138 95.5739 65.1977 95.5739H56.5045V90.009C56.5045 88.7095 57.5578 87.6562 58.8573 87.6562H67.2256Z" fill="#92E3A9"/>
</g>
<path d="M67.2255 68.9292V93.5468C67.2255 94.6681 66.3137 95.5746 65.1976 95.5746H30.8913C29.7699 95.5746 28.8634 94.6681 28.8634 93.5468V68.9292C28.8634 67.8079 29.7699 66.9014 30.8913 66.9014H65.1976C66.3137 66.9014 67.2255 67.8079 67.2255 68.9292Z" stroke="#263238" stroke-width="0.524" stroke-miterlimit="10" stroke-linecap="round" stroke-linejoin="round"/>
<path d="M59.364 91.1306H36.7225C35.5325 91.1306 34.5673 90.1659 34.5673 88.9754V88.3974C34.5673 87.2074 35.5319 86.2422 36.7225 86.2422H59.364C60.554 86.2422 61.5192 87.2069 61.5192 88.3974V88.9754C61.5192 90.1659 60.5545 91.1306 59.364 91.1306Z" fill="#92E3A9" stroke="#263238" stroke-width="0.524" stroke-miterlimit="10" stroke-linecap="round" stroke-linejoin="round"/>
<path d="M52.0431 87.6572H49.9858V89.7145H52.0431V87.6572Z" fill="#263238"/>
<path d="M46.0219 87.6572H45.3752V89.7145H46.0219V87.6572Z" fill="#263238"/>
<path d="M44.7681 87.6572H44.1215V89.7145H44.7681V87.6572Z" fill="#263238"/>
<path d="M57.529 87.6572V88.6565L55.7395 87.6572V89.7139L57.529 88.7147V89.7139H58.1756V87.6572H57.529Z" fill="#263238"/>
<path d="M38.5576 89.7139V88.7147L40.3471 89.7139V87.6572L38.5576 88.6565V87.6572H37.911V89.7139H38.5576Z" fill="#263238"/>
<path d="M44.9707 82.4356H35.1944C34.8318 82.4356 34.5378 82.1416 34.5378 81.779V72.0032C34.5378 71.6406 34.8318 71.3467 35.1944 71.3467H44.9707C45.3333 71.3467 45.6273 71.6406 45.6273 72.0032V81.779C45.6273 82.1416 45.3333 82.4356 44.9707 82.4356Z" fill="#92E3A9" stroke="#263238" stroke-width="0.524" stroke-miterlimit="10" stroke-linecap="round" stroke-linejoin="round"/>
<path d="M37.3831 79.7913C37.3831 80.4934 38.2513 81.063 39.3229 81.063C40.3945 81.063 41.2628 80.4934 41.2628 79.7913C41.2628 79.0891 40.3945 78.5195 39.3229 78.5195C38.2513 78.5195 37.3831 79.0891 37.3831 79.7913Z" fill="#263238"/>
<path d="M39.5587 73.0254L40.8912 79.7913H41.2622L40.2881 74.8442L40.0345 73.5599C39.7343 73.3062 39.5786 73.0579 39.5598 73.0285L39.5587 73.0254Z" fill="#263238"/>
<path d="M39.5598 73.0264L39.8889 74.6618C39.8889 74.6618 40.0325 74.7535 40.2882 74.842C40.5827 74.9458 41.026 75.0459 41.5741 75.0003C42.5671 74.9175 43.024 75.7323 43.0502 75.7805C43.0318 75.7061 42.6498 74.2625 41.3058 74.1152C40.7456 74.0545 40.3243 73.8035 40.0351 73.5577C39.7343 73.3046 39.5787 73.0562 39.5598 73.0264Z" fill="#263238"/>
<path d="M49.4215 76.8916H48.4222V82.436H49.4215V76.8916Z" fill="#263238"/>
<path d="M51.4428 76.8916H50.4435V82.436H51.4428V76.8916Z" fill="#263238"/>
<path d="M53.4636 75.1084H52.4644V82.4355H53.4636V75.1084Z" fill="#263238"/>
<path d="M55.4849 73.9199H54.4856V82.436H55.4849V73.9199Z" fill="#263238"/>
<path d="M57.506 75.1084H56.5067V82.4355H57.506V75.1084Z" fill="#263238"/>
<path d="M59.527 73.9199H58.5277V82.436H59.527V73.9199Z" fill="#263238"/>
<path d="M61.5481 76.8916H60.5488V82.436H61.5481V76.8916Z" fill="#263238"/>
<path d="M52.4723 97.1465H65.1976C67.1825 97.1465 68.7975 95.532 68.7975 93.5466V81.4951" stroke="#263238" stroke-width="0.524" stroke-miterlimit="10" stroke-linecap="round" stroke-linejoin="round"/>
<path d="M48.1189 97.1465H50.8138" stroke="#263238" stroke-width="0.524" stroke-miterlimit="10" stroke-linecap="round" stroke-linejoin="round"/>
<path d="M27.2915 82.3242V93.5467C27.2915 95.5316 28.9065 97.1466 30.8914 97.1466H42.9366" stroke="#263238" stroke-width="0.524" stroke-miterlimit="10" stroke-linecap="round" stroke-linejoin="round"/>
<path d="M36.3033 65.3291H30.8914C28.9065 65.3291 27.2915 66.9441 27.2915 68.929V77.9711" stroke="#263238" stroke-width="0.524" stroke-miterlimit="10" stroke-linecap="round" stroke-linejoin="round"/>
<path d="M40.6567 65.3291H38.1687" stroke="#263238" stroke-width="0.524" stroke-miterlimit="10" stroke-linecap="round" stroke-linejoin="round"/>
<path d="M68.7975 72.3743V68.929C68.7975 66.9441 67.1826 65.3291 65.1976 65.3291H43.973" stroke="#263238" stroke-width="0.524" stroke-miterlimit="10" stroke-linecap="round" stroke-linejoin="round"/>
<path d="M68.7975 80.6662V78.3857" stroke="#263238" stroke-width="0.524" stroke-miterlimit="10" stroke-linecap="round" stroke-linejoin="round"/>
</g>
<g opacity="0.3">
<path d="M126.709 60.4141H120.954C118.969 60.4141 117.354 62.029 117.354 64.0134V70.0263" stroke="#263238" stroke-width="0.524" stroke-miterlimit="10"/>
<path d="M136.867 60.4141H132.928" stroke="#263238" stroke-width="0.524" stroke-miterlimit="10"/>
<path d="M173.478 70.0263V64.0134C173.478 62.0285 171.864 60.4141 169.878 60.4141H138.525" stroke="#263238" stroke-width="0.524" stroke-miterlimit="10"/>
<path d="M154.902 103.161H169.879C171.863 103.161 173.478 101.546 173.478 99.5614V85.7812" stroke="#263238" stroke-width="0.524" stroke-miterlimit="10"/>
<path d="M141.841 103.16H146.817" stroke="#263238" stroke-width="0.524" stroke-miterlimit="10"/>
<path d="M117.354 78.1123V99.5628C117.354 101.548 118.969 103.162 120.954 103.162H139.146" stroke="#263238" stroke-width="0.524" stroke-miterlimit="10"/>
<path d="M173.478 82.0507V78.1123" stroke="#263238" stroke-width="0.524" stroke-miterlimit="10"/>
<path d="M169.879 101.59H120.954C119.834 101.59 118.927 100.682 118.927 99.5623V64.0147C118.927 62.8949 119.834 61.9873 120.954 61.9873H169.879C170.998 61.9873 171.906 62.8949 171.906 64.0147V99.5623C171.906 100.682 170.998 101.59 169.879 101.59Z" fill="white" stroke="#263238" stroke-width="0.524" stroke-miterlimit="10" stroke-linecap="round" stroke-linejoin="round"/>
<path d="M164.939 79.1831C165.82 75.4293 163.491 71.6723 159.737 70.7916C155.983 69.911 152.226 72.2402 151.345 75.9941C150.465 79.7479 152.794 83.5049 156.548 84.3855C160.302 85.2662 164.059 82.937 164.939 79.1831Z" fill="#92E3A9" stroke="#263238" stroke-width="0.524" stroke-miterlimit="10" stroke-linecap="round" stroke-linejoin="round"/>
<path d="M161.555 73.8165L161.364 73.6263C161.167 73.4293 160.848 73.4293 160.651 73.6263L159.145 75.1323C158.948 75.3293 158.948 75.6489 159.145 75.846L159.674 76.3752C159.896 76.5968 159.896 76.9568 159.674 77.179L157.723 79.1304C157.501 79.3526 157.141 79.3526 156.919 79.1304L156.39 78.6011C156.193 78.4041 155.873 78.4041 155.676 78.6011L154.17 80.1071C153.973 80.3041 153.973 80.6238 154.17 80.8208L154.361 81.011C155.304 81.9547 156.834 81.9547 157.778 81.011L161.555 77.234C162.498 76.2898 162.498 74.7597 161.555 73.8165Z" fill="#263238"/>
<path d="M143.29 88.3744H125.56C125.086 88.3744 124.702 87.9903 124.702 87.5166V69.7865C124.702 69.3128 125.086 68.9287 125.56 68.9287H143.29C143.764 68.9287 144.148 69.3128 144.148 69.7865V87.5166C144.149 87.9903 143.764 88.3744 143.29 88.3744Z" fill="#92E3A9" stroke="#263238" stroke-width="0.524" stroke-miterlimit="10" stroke-linecap="round" stroke-linejoin="round"/>
<path d="M140.635 72.6561C140.635 72.6561 141.634 71.7695 142.409 74.6814C143.184 77.5933 142.667 80.8352 141.212 84.0358C139.758 87.2364 142.95 87.02 143.004 88.373H126.796C126.796 88.373 124.659 85.8143 126.796 84.0358C128.934 82.2579 128.772 82.8479 128.285 80.7399C127.797 78.6318 127.04 73.0806 131.989 70.5685C139.531 66.7407 140.635 72.6561 140.635 72.6561Z" fill="#263238"/>
<path d="M137.51 84.4214C137.51 84.4214 136.727 86.586 137.16 88.1554H130.937C130.937 88.1554 132.088 86.3921 131.512 83.7564C130.937 81.1202 137.51 84.4214 137.51 84.4214Z" fill="white" stroke="#263238" stroke-width="0.262" stroke-miterlimit="10" stroke-linecap="round" stroke-linejoin="round"/>
<path d="M130.377 77.6478C130.377 77.6478 129.933 76.9655 129.535 77.1033C129.138 77.2412 129.14 79.0919 129.172 79.5735C129.204 80.055 130.171 81.1308 130.577 80.8358" fill="white"/>
<path d="M130.377 77.6478C130.377 77.6478 129.933 76.9655 129.535 77.1033C129.138 77.2412 129.14 79.0919 129.172 79.5735C129.204 80.055 130.171 81.1308 130.577 80.8358" stroke="#263238" stroke-width="0.262" stroke-miterlimit="10" stroke-linecap="round" stroke-linejoin="round"/>
<path d="M140.139 79.0857C140.139 79.0857 140.761 78.5607 141.101 78.8069C141.442 79.0532 140.907 80.8254 140.738 81.2771C140.568 81.7288 139.332 82.4802 139.028 82.0809" fill="white"/>
<path d="M140.139 79.0857C140.139 79.0857 140.761 78.5607 141.101 78.8069C141.442 79.0532 140.907 80.8254 140.738 81.2771C140.568 81.7288 139.332 82.4802 139.028 82.0809" stroke="#263238" stroke-width="0.262" stroke-miterlimit="10" stroke-linecap="round" stroke-linejoin="round"/>
<path d="M134.108 86.1733C132.473 85.9322 130.851 83.1608 130.655 82.3811C130.438 81.5128 129.958 77.2312 130.892 74.8853C131.941 72.249 134.137 71.1371 136.276 71.4525C138.416 71.768 140.197 73.4657 140.441 76.2922C140.659 78.8074 138.965 82.7694 138.507 83.5381C138.095 84.2282 135.831 86.4269 134.108 86.1733Z" fill="white" stroke="#263238" stroke-width="0.262" stroke-miterlimit="10" stroke-linecap="round" stroke-linejoin="round"/>
<path d="M137.812 79.3044C137.767 79.6073 137.596 79.8326 137.429 79.808C137.262 79.7834 137.163 79.5182 137.208 79.2154C137.252 78.9125 137.424 78.6872 137.59 78.7118C137.757 78.7364 137.856 79.0021 137.812 79.3044Z" fill="#263238"/>
<path d="M132.477 78.5201C132.433 78.8229 132.532 79.0881 132.698 79.1127C132.865 79.1373 133.036 78.912 133.081 78.6091C133.125 78.3063 133.026 78.0411 132.86 78.0165C132.693 77.9919 132.522 78.2172 132.477 78.5201Z" fill="#263238"/>
<path d="M134.721 79.1592C134.763 80.203 133.868 80.3796 134.039 80.7411C134.21 81.1027 134.614 81.2185 134.614 81.2185" fill="white"/>
<path d="M134.721 79.1592C134.763 80.203 133.868 80.3796 134.039 80.7411C134.21 81.1027 134.614 81.2185 134.614 81.2185" stroke="#263238" stroke-width="0.262" stroke-miterlimit="10" stroke-linecap="round" stroke-linejoin="round"/>
<path d="M132.889 82.0732C132.889 82.0732 134.647 82.8928 136.347 82.5826" stroke="#263238" stroke-width="0.262" stroke-miterlimit="10" stroke-linecap="round" stroke-linejoin="round"/>
<path d="M133.131 82.1758C133.131 82.1758 133.121 83.7357 134.203 84.0072C135.285 84.2786 136.13 82.6175 136.13 82.6175" stroke="#263238" stroke-width="0.262" stroke-miterlimit="10" stroke-linecap="round" stroke-linejoin="round"/>
<path d="M131.512 77.144C131.512 77.144 132.487 75.9137 133.996 76.3041" stroke="#263238" stroke-width="0.262" stroke-miterlimit="10" stroke-linecap="round" stroke-linejoin="round"/>
<path d="M138.989 78.2447C138.989 78.2447 138.41 76.7854 136.853 76.7246" stroke="#263238" stroke-width="0.262" stroke-miterlimit="10" stroke-linecap="round" stroke-linejoin="round"/>
<path d="M137.879 73.7074C137.879 73.7074 136.853 75.0546 134.623 75.4429C131.832 75.9291 130.291 78.3442 130.328 79.3508C130.328 79.3508 129.469 77.4597 129.851 74.9078C130.405 71.2032 133.862 70.1431 136.375 70.4009C138.889 70.6593 140.102 73.1792 140.102 73.1792C140.102 73.1792 141.989 74.649 141.715 76.5013C141.454 78.274 141.023 78.3238 140.795 78.7247C140.479 79.2806 140.893 79.5122 139.79 80.4245C139.79 80.4245 140.226 77.9502 139.684 76.1041C139.144 74.2581 137.879 73.7074 137.879 73.7074Z" fill="#263238"/>
<path d="M138.57 73.0801C138.57 73.0801 137.586 76.8398 131.989 77.4277C131.989 77.4277 135.759 76.746 137.502 73.3012L138.57 73.0801Z" fill="#263238"/>
<path d="M144.149 92.4336H124.702V94.2194H144.149V92.4336Z" fill="#263238"/>
<path d="M154.7 91.542H150.155V94.3758H154.7V91.542Z" fill="#92E3A9" stroke="#263238" stroke-width="0.524" stroke-miterlimit="10" stroke-linecap="round" stroke-linejoin="round"/>
<path d="M154.701 92.4928L156.161 91.9248V93.9946L154.701 93.3862V92.4928Z" fill="#92E3A9" stroke="#263238" stroke-width="0.524" stroke-miterlimit="10" stroke-linecap="round" stroke-linejoin="round"/>
<path d="M166.13 93.8242H164.351L163.658 94.6448L163.093 93.8242H161.185V91.2744H166.13V93.8242Z" fill="#92E3A9" stroke="#263238" stroke-width="0.524" stroke-miterlimit="10" stroke-linecap="round" stroke-linejoin="round"/>
</g>
<g opacity="0.3">
<path d="M101.965 69.4251H107.494C109.479 69.4251 111.093 67.8106 111.093 65.8252V55.582" stroke="#263238" stroke-width="0.524" stroke-miterlimit="10" stroke-linecap="round" stroke-linejoin="round"/>
<path d="M95.3312 69.4248H98.8556" stroke="#263238" stroke-width="0.524" stroke-miterlimit="10" stroke-linecap="round" stroke-linejoin="round"/>
<path d="M72.7173 53.5107V65.8268C72.7173 67.8118 74.3317 69.4267 76.3166 69.4267H93.4656" stroke="#263238" stroke-width="0.524" stroke-miterlimit="10" stroke-linecap="round" stroke-linejoin="round"/>
<path d="M81.0283 39.9453H76.3175C74.3326 39.9453 72.7181 41.5603 72.7181 43.5447V50.6077" stroke="#263238" stroke-width="0.524" stroke-miterlimit="10" stroke-linecap="round" stroke-linejoin="round"/>
<path d="M87.2469 39.9453H84.9664" stroke="#263238" stroke-width="0.524" stroke-miterlimit="10" stroke-linecap="round" stroke-linejoin="round"/>
<path d="M111.093 48.3272V43.5447C111.093 41.5598 109.479 39.9453 107.494 39.9453H88.9054" stroke="#263238" stroke-width="0.524" stroke-miterlimit="10" stroke-linecap="round" stroke-linejoin="round"/>
<path d="M107.494 67.8538H76.3173C75.1975 67.8538 74.2899 66.9463 74.2899 65.8265V43.5449C74.2899 42.4251 75.1975 41.5176 76.3173 41.5176H107.494C108.613 41.5176 109.521 42.4251 109.521 43.5449V65.8259C109.521 66.9457 108.613 67.8538 107.494 67.8538Z" fill="white" stroke="#263238" stroke-width="0.524" stroke-miterlimit="10" stroke-linecap="round" stroke-linejoin="round"/>
<path d="M106.054 45.6152H77.7557V63.7577H106.054V45.6152Z" fill="white"/>
<mask id="mask1_10194_68171" style="mask-type:luminance" maskUnits="userSpaceOnUse" x="77" y="45" width="30" height="19">
<path d="M106.055 45.6172H77.756V63.7596H106.055V45.6172Z" fill="white"/>
</mask>
<g mask="url(#mask1_10194_68171)">
<path opacity="0.3" d="M106.055 45.6172H77.756V63.7596H106.055V45.6172Z" fill="#92E3A9"/>
</g>
<path d="M106.054 45.6152H77.7557V63.7577H106.054V45.6152Z" stroke="#263238" stroke-width="0.524" stroke-miterlimit="10" stroke-linecap="round" stroke-linejoin="round"/>
<path d="M106.054 45.6152H77.7557V48.0623H106.054V45.6152Z" fill="#92E3A9" stroke="#263238" stroke-width="0.524" stroke-miterlimit="10" stroke-linecap="round" stroke-linejoin="round"/>
<path d="M89.9978 49.8828H87.0466V51.8766H89.9978V49.8828Z" fill="#263238"/>
<path d="M93.3807 49.8828H90.4296V51.8766H93.3807V49.8828Z" fill="#263238"/>
<path d="M96.7638 49.8828H93.8126V51.8766H96.7638V49.8828Z" fill="#263238"/>
<path d="M100.147 49.8828H97.1956V51.8766H100.147V49.8828Z" fill="#263238"/>
<path d="M103.53 49.8828H100.578V51.8766H103.53V49.8828Z" fill="#263238"/>
<path d="M83.2319 52.248H80.2808V54.2419H83.2319V52.248Z" fill="#263238"/>
<path d="M86.6147 52.248H83.6636V54.2419H86.6147V52.248Z" fill="#263238"/>
<path d="M89.9977 52.248H87.0465V54.2419H89.9977V52.248Z" fill="#263238"/>
<path d="M93.3809 52.248H90.4297V54.2419H93.3809V52.248Z" fill="#263238"/>
<path d="M96.7637 52.248H93.8125V54.2419H96.7637V52.248Z" fill="#263238"/>
<path d="M100.147 52.248H97.1954V54.2419H100.147V52.248Z" fill="#263238"/>
<path d="M103.53 52.248H100.578V54.2419H103.53V52.248Z" fill="#263238"/>
<path d="M83.2319 54.6162H80.2808V56.61H83.2319V54.6162Z" fill="#263238"/>
<path d="M86.6147 54.6162H83.6636V56.61H86.6147V54.6162Z" fill="#263238"/>
<path d="M89.9977 54.6162H87.0465V56.61H89.9977V54.6162Z" fill="#263238"/>
<path d="M93.3809 54.6162H90.4297V56.61H93.3809V54.6162Z" fill="#263238"/>
<path d="M96.7637 54.6162H93.8125V56.61H96.7637V54.6162Z" fill="white" stroke="#263238" stroke-width="0.524" stroke-miterlimit="10" stroke-linecap="round" stroke-linejoin="round"/>
<path d="M100.147 54.6162H97.1954V56.61H100.147V54.6162Z" fill="#263238"/>
<path d="M103.53 54.6162H100.578V56.61H103.53V54.6162Z" fill="#263238"/>
<path d="M83.2319 56.9814H80.2808V58.9753H83.2319V56.9814Z" fill="#263238"/>
<path d="M86.6147 56.9814H83.6636V58.9753H86.6147V56.9814Z" fill="white" stroke="#263238" stroke-width="0.524" stroke-miterlimit="10" stroke-linecap="round" stroke-linejoin="round"/>
<path d="M89.9977 56.9814H87.0465V58.9753H89.9977V56.9814Z" fill="#263238"/>
<path d="M93.3809 56.9814H90.4297V58.9753H93.3809V56.9814Z" fill="#263238"/>
<path d="M96.7637 56.9814H93.8125V58.9753H96.7637V56.9814Z" fill="#263238"/>
<path d="M100.147 56.9814H97.1954V58.9753H100.147V56.9814Z" fill="#263238"/>
<path d="M103.53 56.9814H100.578V58.9753H103.53V56.9814Z" fill="#263238"/>
<path d="M83.2319 59.3496H80.2808V61.3434H83.2319V59.3496Z" fill="#263238"/>
<path d="M86.6149 59.3496H83.6637V61.3434H86.6149V59.3496Z" fill="#263238"/>
<path d="M89.9979 59.3496H87.0468V61.3434H89.9979V59.3496Z" fill="#263238"/>
<path d="M93.3809 59.3496H90.4297V61.3434H93.3809V59.3496Z" fill="#263238"/>
</g>
<g opacity="0.7">
<path d="M116.08 124.585V121.269" stroke="#263238" stroke-width="0.524" stroke-miterlimit="10" stroke-linecap="round" stroke-linejoin="round"/>
<path d="M107.584 141.83H112.481C114.466 141.83 116.08 140.215 116.08 138.23V126.657" stroke="#263238" stroke-width="0.524" stroke-miterlimit="10" stroke-linecap="round" stroke-linejoin="round"/>
<path d="M95.1464 141.831H97.2193" stroke="#263238" stroke-width="0.524" stroke-miterlimit="10" stroke-linecap="round" stroke-linejoin="round"/>
<path d="M69.5938 132.255V138.231C69.5938 140.216 71.2087 141.83 73.1931 141.83H91.8297" stroke="#263238" stroke-width="0.524" stroke-miterlimit="10" stroke-linecap="round" stroke-linejoin="round"/>
<path d="M69.5938 124.792V130.182" stroke="#263238" stroke-width="0.524" stroke-miterlimit="10" stroke-linecap="round" stroke-linejoin="round"/>
<path d="M80.428 106.287H73.1931C71.2082 106.287 69.5938 107.902 69.5938 109.887V121.683" stroke="#263238" stroke-width="0.524" stroke-miterlimit="10" stroke-linecap="round" stroke-linejoin="round"/>
<path d="M91.6223 106.287H87.8909" stroke="#263238" stroke-width="0.524" stroke-miterlimit="10" stroke-linecap="round" stroke-linejoin="round"/>
<path d="M116.08 117.951V109.886C116.08 107.901 114.465 106.286 112.48 106.286H93.2805" stroke="#263238" stroke-width="0.524" stroke-miterlimit="10" stroke-linecap="round" stroke-linejoin="round"/>
<path d="M112.481 140.259H73.1931C72.0733 140.259 71.1658 139.352 71.1658 138.232V109.888C71.1658 108.768 72.0733 107.86 73.1931 107.86H112.481C113.6 107.86 114.508 108.768 114.508 109.888V138.232C114.508 139.351 113.6 140.259 112.481 140.259Z" fill="white" stroke="#263238" stroke-width="0.524" stroke-miterlimit="10" stroke-linecap="round" stroke-linejoin="round"/>
<g opacity="0.8">
<path d="M109.566 112.269H75.052V135.649H109.566V112.269Z" fill="#92E3A9" stroke="#263238" stroke-width="0.524" stroke-miterlimit="10" stroke-linecap="round" stroke-linejoin="round"/>
<path d="M109.566 124.033L104.98 124.933L107.075 135.649H104.033L102.052 125.504L85.2988 128.78L86.0843 132.816L94.6926 131.137L96.5999 130.761L96.9353 132.467L97.5599 135.649H95.5724L95.0216 132.843L86.4202 134.521L86.6418 135.649H83.9291L82.6867 129.291L80.0814 129.794L81.2231 135.649H78.7923L77.738 130.257L75.052 130.781V127.666L82.1024 126.289L80.7526 119.38L75.052 120.494V118.447L75.9386 118.272L75.052 113.753V112.269H76.657L77.7579 117.916L80.3701 117.406L79.363 112.269H82.0689L84.7078 125.779L88.4952 125.04L87.7297 121.139L87.246 118.648L88.1929 117.238L91.5365 112.269H94.3635L89.6632 119.259L90.7039 124.61L109.566 120.917V124.033Z" fill="white" stroke="#263238" stroke-width="0.524" stroke-miterlimit="10" stroke-linecap="round" stroke-linejoin="round"/>
<path d="M101.639 116.847C100.253 115.46 98.005 115.46 96.6185 116.847C95.232 118.233 95.232 120.481 96.6185 121.868L99.129 124.378L101.639 121.868C103.026 120.481 103.026 118.233 101.639 116.847ZM100.162 120.391C99.5911 120.962 98.6658 120.962 98.0946 120.391C97.5234 119.82 97.5234 118.894 98.0946 118.323C98.6658 117.752 99.5911 117.752 100.162 118.323C100.733 118.894 100.733 119.82 100.162 120.391Z" fill="#263238"/>
</g>
</g>
<path d="M85.4844 204.392C77.3991 200.572 70.1836 201.368 70.1836 201.368L68.3758 196.448L65.5148 188.651C66.065 184.228 75.6384 170.594 75.6384 170.594L76.8175 174.65L85.4844 204.392Z" fill="#757575"/>
<mask id="mask2_10194_68171" style="mask-type:luminance" maskUnits="userSpaceOnUse" x="65" y="170" width="21" height="35">
<path d="M85.4845 204.391C77.3992 200.571 70.1837 201.367 70.1837 201.367L68.3759 196.447L65.5149 188.65C66.0651 184.227 75.6386 170.593 75.6386 170.593L76.8176 174.649L85.4845 204.391Z" fill="white"/>
</mask>
<g mask="url(#mask2_10194_68171)">
<path opacity="0.3" d="M85.4845 204.392C77.3992 200.572 70.1837 201.368 70.1837 201.368L68.3759 196.448L70.3671 196.836L67.9305 191.265L73.6421 187.828C73.6421 187.828 73.0448 179.313 76.8176 174.649L85.4845 204.392Z" fill="black" fill-opacity="0.7"/>
</g>
<path d="M85.4844 204.392C77.3991 200.572 70.1836 201.368 70.1836 201.368L68.3758 196.448L65.5148 188.651C66.065 184.228 75.6385 170.594 75.6385 170.594L76.8175 174.65L85.4844 204.392Z" stroke="#263238" stroke-width="0.524" stroke-miterlimit="10" stroke-linecap="round" stroke-linejoin="round"/>
<path d="M72.9608 204.392C72.6307 205.099 67.0344 216.501 67.0344 216.501L48.9983 186.026C48.9983 186.026 51.4768 185.811 54.4479 185.612C58.2469 185.36 62.8528 185.135 64.1314 185.407C64.9698 185.585 66.437 188.111 67.9304 191.266H67.9356C68.7688 193.026 69.6124 194.981 70.367 196.836C71.9338 200.682 73.1023 204.088 72.9608 204.392Z" fill="#757575"/>
<mask id="mask3_10194_68171" style="mask-type:luminance" maskUnits="userSpaceOnUse" x="48" y="185" width="25" height="32">
<path d="M72.9606 204.391C72.6304 205.098 67.0341 216.501 67.0341 216.501L48.998 186.025C48.998 186.025 51.4766 185.81 54.4476 185.611C58.2466 185.359 62.8526 185.134 64.1312 185.406C64.9696 185.585 66.4368 188.11 67.9302 191.265H67.9354C68.7686 193.025 69.6122 194.98 70.3668 196.835C71.9335 200.681 73.102 204.087 72.9606 204.391Z" fill="white"/>
</mask>
<g mask="url(#mask3_10194_68171)">
<path opacity="0.3" d="M72.9606 204.391C72.6304 205.099 67.0341 216.501 67.0341 216.501L48.998 186.025C48.998 186.025 51.4766 185.81 54.4476 185.611L63.5128 195.494L70.3668 196.835C71.9335 200.682 73.102 204.088 72.9606 204.391Z" fill="black" fill-opacity="0.7"/>
</g>
<path d="M72.9608 204.392C72.6307 205.099 67.0344 216.501 67.0344 216.501L48.9983 186.026C48.9983 186.026 51.4768 185.811 54.4479 185.612C58.2469 185.36 62.8528 185.135 64.1314 185.407C64.9698 185.585 66.437 188.111 67.9304 191.266H67.9357C68.7688 193.026 69.6124 194.981 70.367 196.836C71.9338 200.682 73.1023 204.088 72.9608 204.392Z" stroke="#263238" stroke-width="0.524" stroke-miterlimit="10" stroke-linecap="round" stroke-linejoin="round"/>
<path d="M74.2918 229.155C58.4723 215.521 46.2997 197.411 38.7279 177.913C38.0467 176.158 37.397 174.392 36.7944 172.621C36.0922 170.572 35.4477 168.513 34.8503 166.443C38.7594 164.761 44.3505 162.749 48.9983 162.639C50.6437 162.602 50.4603 169.86 50.0621 175.55C49.9992 176.436 49.9311 177.279 49.8682 178.055C49.6586 180.491 49.4595 182.231 49.4595 182.231C49.4595 182.231 70.0003 213.184 72.9766 219.608C74.0351 221.903 74.339 225.493 74.2918 229.155Z" fill="#757575"/>
<mask id="mask4_10194_68171" style="mask-type:luminance" maskUnits="userSpaceOnUse" x="34" y="162" width="41" height="68">
<path d="M74.2919 229.155C58.4724 215.521 46.2999 197.411 38.7281 177.913C38.0469 176.158 37.3971 174.392 36.7945 172.621C36.0923 170.572 35.4478 168.513 34.8505 166.443C38.7595 164.761 44.3506 162.749 48.9985 162.639C50.6438 162.602 50.4604 169.86 50.0622 175.55C49.9993 176.436 49.9312 177.279 49.8683 178.055C49.6587 180.491 49.4596 182.231 49.4596 182.231C49.4596 182.231 70.0004 213.184 72.9767 219.608C74.0352 221.903 74.3391 225.493 74.2919 229.155Z" fill="white"/>
</mask>
<g mask="url(#mask4_10194_68171)">
<path opacity="0.3" d="M74.2919 229.155C58.4723 215.521 46.2998 197.411 38.728 177.913C38.0468 176.158 37.397 174.392 36.7944 172.621C40.279 171.583 44.7226 170.535 46.719 171.222C48.0238 171.672 49.1556 173.465 50.0621 175.55C49.9992 176.436 49.9311 177.279 49.8682 178.055C49.6586 180.491 49.4595 182.231 49.4595 182.231C49.4595 182.231 70.0003 213.184 72.9766 219.608C74.0351 221.903 74.339 225.492 74.2919 229.155Z" fill="black" fill-opacity="0.7"/>
</g>
<path d="M74.2918 229.155C58.4723 215.521 46.2997 197.411 38.7279 177.913C38.0467 176.158 37.397 174.392 36.7944 172.621C36.0922 170.572 35.4477 168.513 34.8503 166.443C38.7594 164.761 44.3505 162.749 48.9983 162.639C50.6437 162.602 50.4603 169.86 50.0621 175.55C49.9992 176.436 49.9311 177.279 49.8682 178.055C49.6586 180.491 49.4595 182.231 49.4595 182.231C49.4595 182.231 70.0003 213.184 72.9766 219.608C74.0351 221.903 74.339 225.493 74.2918 229.155Z" stroke="#263238" stroke-width="0.524" stroke-miterlimit="10" stroke-linecap="round" stroke-linejoin="round"/>
<path opacity="0.3" d="M67.9358 191.266C68.7689 193.026 69.6126 194.981 70.3671 196.836L67.9305 191.266H67.9358Z" fill="black" fill-opacity="0.7"/>
<path d="M146.635 243.655V254.345C142.317 254.455 138.005 254.335 133.745 253.978C121.719 252.977 110.091 250.148 99.8001 245.531C96.5146 244.059 93.3235 242.408 90.2319 240.595C85.6259 237.902 81.24 234.852 77.0847 231.493C77.0847 231.493 86.9359 229.769 91.5995 230.388C96.2631 231.011 146.635 243.655 146.635 243.655Z" fill="#92E3A9"/>
<mask id="mask5_10194_68171" style="mask-type:luminance" maskUnits="userSpaceOnUse" x="77" y="230" width="70" height="25">
<path d="M146.635 243.656V254.346C142.317 254.456 138.005 254.336 133.745 253.979C121.719 252.978 110.091 250.149 99.8001 245.532C96.5146 244.06 93.3235 242.409 90.2319 240.596C85.6259 237.903 81.24 234.853 77.0847 231.494C77.0847 231.494 86.9359 229.77 91.5995 230.389C96.2631 231.012 146.635 243.656 146.635 243.656Z" fill="white"/>
</mask>
<g mask="url(#mask5_10194_68171)">
<path opacity="0.3" d="M146.635 243.656V254.346C142.317 254.456 138.005 254.336 133.745 253.979C121.719 252.978 110.091 250.149 99.8001 245.532C96.5146 244.06 93.3235 242.409 90.2319 240.596C85.6259 237.903 81.24 234.853 77.0847 231.494C77.0847 231.494 86.9359 229.77 91.5995 230.389C96.2631 231.012 146.635 243.656 146.635 243.656Z" fill="black" fill-opacity="0.7"/>
</g>
<path d="M146.635 243.655V254.345C142.317 254.455 138.005 254.335 133.745 253.978C121.719 252.977 110.091 250.148 99.8001 245.531C96.5146 244.059 93.3235 242.408 90.2319 240.595C85.6259 237.902 81.24 234.852 77.0847 231.493C77.0847 231.493 86.9359 229.769 91.5995 230.388C96.2631 231.011 146.635 243.655 146.635 243.655Z" stroke="#263238" stroke-width="0.524" stroke-miterlimit="10" stroke-linecap="round" stroke-linejoin="round"/>
<path d="M230.507 207.631C228.138 211.928 225.55 215.947 222.799 219.605C218.444 225.384 213.257 230.436 207.456 234.764C198.171 241.691 187.313 246.764 175.785 250.007C175.749 250.018 175.707 250.028 175.67 250.039C171.027 251.343 166.28 252.349 161.48 253.062L172.447 233.616L207.204 172.01C207.204 172.01 210.956 162.777 216.102 159.795C216.615 159.497 217.139 159.261 217.674 159.104C218.392 158.894 219.193 158.721 220.053 158.585C220.053 158.585 220.053 158.585 220.058 158.585C224.659 157.856 230.863 158.134 234.117 158.585C235.286 158.747 236.072 158.936 236.276 159.104C236.989 159.701 239.939 176.417 230.507 207.631Z" fill="#757575"/>
<mask id="mask6_10194_68171" style="mask-type:luminance" maskUnits="userSpaceOnUse" x="161" y="158" width="77" height="96">
<path d="M230.506 207.63C228.138 211.927 225.549 215.946 222.798 219.604C218.444 225.383 213.256 230.435 207.456 234.763C198.17 241.69 187.313 246.763 175.785 250.006C175.748 250.017 175.706 250.027 175.67 250.038C171.027 251.342 166.28 252.348 161.48 253.061L172.447 233.615L207.204 172.009C207.204 172.009 210.956 162.776 216.102 159.794C216.615 159.496 217.139 159.26 217.674 159.103C218.391 158.893 219.193 158.72 220.053 158.584C220.053 158.584 220.053 158.584 220.058 158.584C224.659 157.855 230.863 158.133 234.117 158.584C235.285 158.746 236.071 158.935 236.276 159.103C236.988 159.7 239.938 176.416 230.506 207.63Z" fill="white"/>
</mask>
<g mask="url(#mask6_10194_68171)">
<path opacity="0.3" d="M230.507 207.63C228.138 211.927 225.55 215.946 222.799 219.604C218.444 225.383 213.257 230.435 207.456 234.763C198.171 241.69 187.313 246.763 175.785 250.006C174.061 248.408 172.903 247.187 172.961 246.784C173.045 246.186 172.788 240.338 172.448 233.615L207.204 172.009C207.204 172.009 210.956 162.776 216.102 159.794C219.681 163.834 221.981 171.249 220.435 181.289C218.36 194.735 220.923 198.843 220.923 198.843C220.923 198.843 225.293 194.342 225.66 181.063C226.032 167.785 226.86 164.573 231.832 162.828C231.832 162.828 219.67 163.478 220.053 158.584C220.053 158.584 220.053 158.584 220.058 158.584C224.659 157.855 230.863 158.133 234.117 158.584C235.286 158.746 236.072 158.935 236.276 159.103C236.989 159.7 239.939 176.416 230.507 207.63Z" fill="black" fill-opacity="0.7"/>
</g>
<path d="M230.507 207.631C228.138 211.928 225.55 215.947 222.799 219.605C218.444 225.384 213.257 230.436 207.456 234.764C198.171 241.691 187.313 246.764 175.785 250.007C175.749 250.018 175.707 250.028 175.67 250.039C171.027 251.343 166.28 252.349 161.48 253.062L172.447 233.616L207.204 172.01C207.204 172.01 210.956 162.777 216.102 159.795C216.615 159.497 217.139 159.261 217.674 159.104C218.392 158.894 219.193 158.721 220.053 158.585C220.053 158.585 220.053 158.585 220.058 158.585C224.659 157.856 230.863 158.134 234.117 158.585C235.286 158.747 236.072 158.936 236.276 159.104C236.989 159.701 239.939 176.417 230.507 207.631Z" stroke="#263238" stroke-width="0.524" stroke-miterlimit="10" stroke-linecap="round" stroke-linejoin="round"/>
<path d="M98.5165 170.592L85.4144 166.548C85.4144 166.548 73.779 156.294 72.9631 155.44C72.1472 154.587 65.5139 157.008 65.5139 158.837C65.5139 160.667 68.0354 165.534 68.0354 165.534L72.9631 162.64C72.9631 162.64 74.6378 171.986 76.5698 173.979C78.5013 175.972 84.8616 175.462 84.8616 175.462L99.7872 182.228L98.5165 170.592Z" fill="white" stroke="#263238" stroke-width="0.524" stroke-miterlimit="10" stroke-linecap="round" stroke-linejoin="round"/>
<path d="M81.3696 175.463C78.0952 174.871 76.1066 174.258 75.6371 170.592C75.1671 166.926 67.9673 159.803 70.8692 156.901C70.8692 156.901 71.5949 156.694 72.1132 157.523C72.6314 158.352 74.6713 160.649 75.7759 161.625C76.8811 162.602 77.2955 164.675 78.6427 165.608" stroke="#263238" stroke-width="0.524" stroke-miterlimit="10" stroke-linecap="round" stroke-linejoin="round"/>
<path d="M199.29 162.64C199.29 162.64 168.057 165.213 161.147 166.533C154.237 167.853 134.06 173.393 134.06 173.393C134.06 173.393 106.144 169.838 101.998 168.016C97.8526 166.194 94.8124 168.426 94.8124 168.426L89.5608 166.977C89.5608 166.977 87.9024 175.457 89.5608 179.808L93.9834 181.287C93.9834 181.287 93.7072 186.48 106.698 191.262C119.688 196.045 139.036 197.979 147.88 197.979C151.309 197.979 165.485 196.593 165.485 196.593L167.43 204.389L199.29 162.64Z" fill="#263238"/>
<path d="M163.496 168.428C163.496 168.428 161.147 181.259 162.391 193.697" stroke="white" stroke-width="0.524" stroke-miterlimit="10" stroke-linecap="round" stroke-linejoin="round"/>
<path d="M154.375 180.311C154.375 180.311 155.895 188.86 159.903 191.624" stroke="white" stroke-width="0.524" stroke-miterlimit="10" stroke-linecap="round" stroke-linejoin="round"/>
<path d="M133.922 174.211C133.922 174.211 132.401 176.425 133.922 179.809C135.442 183.193 138.759 185.405 138.759 185.405" stroke="white" stroke-width="0.524" stroke-miterlimit="10" stroke-linecap="round" stroke-linejoin="round"/>
<path d="M94.5357 169.464C94.5357 169.464 93.101 173.332 93.9829 178.495" stroke="white" stroke-width="0.524" stroke-miterlimit="10" stroke-linecap="round" stroke-linejoin="round"/>
<path d="M168.941 176.561C168.941 176.561 163.737 186.096 162.027 195.494" stroke="white" stroke-width="0.524" stroke-miterlimit="10" stroke-linecap="round" stroke-linejoin="round"/>
<path d="M188.772 162.831C188.772 162.831 184.744 164.32 182.036 167.246C179.328 170.172 178.169 175.464 178.169 175.464L190.919 167.081L188.772 162.831Z" fill="#263238"/>
<path d="M184.699 174.166C184.798 173.915 188.671 164.504 187.418 163.623C186.695 163.12 186.658 162.214 186.003 161.124C185.317 159.987 183.955 158.645 180.439 157.34C180.234 157.262 180.019 157.189 179.799 157.11L185.432 138.22L202.588 140.892C202.588 140.892 200.712 153.861 205.281 161.176L184.699 174.166Z" fill="white" stroke="#263238" stroke-width="0.524" stroke-miterlimit="10" stroke-linecap="round" stroke-linejoin="round"/>
<path d="M207.456 234.763C198.139 241.711 187.24 246.794 175.67 250.038C162.13 253.842 147.465 246.786 147.465 246.786L144.057 242.319C147.934 239.186 150.089 239.317 150.089 239.317C150.089 239.317 161.145 166.533 205.282 161.178C205.282 161.178 215.531 171.715 216.574 192.476C217.38 208.542 210.956 226.363 207.456 234.763Z" fill="#263238"/>
<path d="M184.532 168.14C184.532 168.14 181.002 169.937 180.487 175.464C180.487 175.464 164.903 197.476 160.267 215.377V218.468L163.487 214.604C163.487 214.604 173.919 185.778 181.904 175.464L187.417 170.836L184.532 168.14Z" fill="#92E3A9" stroke="#263238" stroke-width="0.524" stroke-miterlimit="10" stroke-linecap="round" stroke-linejoin="round"/>
<path d="M205.282 158.734C199.888 157.799 184.737 166.309 184.737 166.309L183.457 177.744L208.41 164.47C208.41 164.47 206.592 158.961 205.282 158.734Z" fill="#263238"/>
<path d="M183.759 175.043L183.457 177.742C183.457 177.742 193.612 166.117 207.205 163.443" stroke="white" stroke-width="0.524" stroke-miterlimit="10" stroke-linecap="round" stroke-linejoin="round"/>
<path d="M180.449 169.485C180.449 169.485 178.555 172.9 178.169 175.464C178.169 175.464 181.074 170.572 183.457 168.14" stroke="white" stroke-width="0.524" stroke-miterlimit="10" stroke-linecap="round" stroke-linejoin="round"/>
<path d="M92.952 215.176L72.7748 160.438C72.3079 159.171 70.902 158.523 69.635 158.989C68.368 159.456 67.7198 160.862 68.1867 162.129L88.3638 216.868C88.8307 218.135 90.2366 218.783 91.5036 218.316C92.7707 217.849 93.4194 216.443 92.952 215.176Z" fill="#999999" stroke="#263238" stroke-width="0.524" stroke-miterlimit="10" stroke-linecap="round" stroke-linejoin="round"/>
<path d="M199.331 176.917C192.076 176.696 157.499 210.635 157.499 210.635C157.499 210.635 123.603 209.197 119.44 209.371C115.277 209.544 112.704 210.951 112.704 210.951L107.042 210.623C107.042 210.623 106.586 220.23 108.671 223.673L112.396 223.889C112.396 223.889 118.582 230.216 123.559 231.55C131.262 233.613 157.35 234.117 163.872 233.524C170.394 232.931 207.205 213.034 211.451 201.482" fill="#263238"/>
<path d="M110.039 222.068L105.935 221.569C103.855 224.159 98.0595 223.134 98.0595 223.134C98.0998 225.362 91.3712 224.63 90.353 223.718C89.3349 222.804 87.5454 218.8 87.252 218.063C86.9591 217.325 88.1255 212.194 88.1255 212.194C88.1255 212.194 79.4187 213.637 76.5786 213.568C74.1027 213.507 74.3055 211.512 74.3055 211.512C74.3055 211.512 82.3033 210.434 90.4715 208.381C91.6263 208.09 102.404 211.528 102.404 211.528L108.281 212.292C108.281 212.292 110.272 215.839 110.039 222.068Z" fill="white" stroke="#263238" stroke-width="0.524" stroke-miterlimit="10" stroke-linecap="round" stroke-linejoin="round"/>
<path d="M88.3005 220.361C88.3005 220.361 88.5672 217.858 90.8184 213.035" stroke="#263238" stroke-width="0.524" stroke-miterlimit="10" stroke-linecap="round" stroke-linejoin="round"/>
<path d="M88.1256 212.193C88.1256 212.193 88.8529 210.711 88.5354 210.104" stroke="#263238" stroke-width="0.524" stroke-miterlimit="10" stroke-linecap="round" stroke-linejoin="round"/>
<path d="M90.3531 223.717C89.8543 222.384 92.5005 216.862 92.9055 216.179" stroke="#263238" stroke-width="0.524" stroke-miterlimit="10" stroke-linecap="round" stroke-linejoin="round"/>
<path d="M98.0595 223.133C98.0595 223.133 95.5029 221.673 95.1219 218.96" stroke="#263238" stroke-width="0.524" stroke-miterlimit="10" stroke-linecap="round" stroke-linejoin="round"/>
<path d="M95.7931 220.842C95.7931 220.842 95.2408 221.945 93.5011 222.723" stroke="#263238" stroke-width="0.524" stroke-miterlimit="10" stroke-linecap="round" stroke-linejoin="round"/>
<path d="M113.676 213.035C113.676 213.035 115.418 219.413 114.712 222.416" stroke="white" stroke-width="0.524" stroke-miterlimit="10" stroke-linecap="round" stroke-linejoin="round"/>
<path d="M159.225 211.303C159.225 211.303 171.08 207.85 175.752 209.377" stroke="white" stroke-width="0.524" stroke-miterlimit="10" stroke-linecap="round" stroke-linejoin="round"/>
<path d="M181.188 200.415C181.188 200.415 201.646 204.27 207.205 197.637" stroke="white" stroke-width="0.524" stroke-miterlimit="10" stroke-linecap="round" stroke-linejoin="round"/>
<path d="M171.303 197.636C171.303 197.636 175.81 193.531 180.812 193.303C180.812 193.303 195.364 174.867 205.282 178.496" stroke="white" stroke-width="0.524" stroke-miterlimit="10" stroke-linecap="round" stroke-linejoin="round"/>
<path d="M192.54 178.495C192.54 178.495 183.413 186.005 183.06 190.68" stroke="white" stroke-width="0.524" stroke-miterlimit="10" stroke-linecap="round" stroke-linejoin="round"/>
<path d="M208.41 208.438C208.41 208.438 199.576 218.625 190.519 220.361C190.519 220.361 171.618 234.944 160.267 233.703" stroke="white" stroke-width="0.524" stroke-miterlimit="10" stroke-linecap="round" stroke-linejoin="round"/>
<path d="M187.394 222.616C187.394 222.616 195.972 225.119 201.362 220.81" stroke="white" stroke-width="0.524" stroke-miterlimit="10" stroke-linecap="round" stroke-linejoin="round"/>
<path d="M183.06 227.071C183.535 228.315 189.921 234.396 195.331 235.709" stroke="white" stroke-width="0.524" stroke-miterlimit="10" stroke-linecap="round" stroke-linejoin="round"/>
<path d="M84.2531 233.364L81.827 234.748L81.5441 234.91C80.6795 234.281 79.8201 233.642 78.9764 232.987L71.2265 214.846L68.4912 208.438H74.5015C74.5015 208.438 78.0961 214.165 80.9676 221.412C82.461 225.185 83.7606 229.366 84.2531 233.364Z" fill="#999999"/>
<mask id="mask7_10194_68171" style="mask-type:luminance" maskUnits="userSpaceOnUse" x="68" y="208" width="17" height="27">
<path d="M84.253 233.364L81.8269 234.748L81.5439 234.91C80.6793 234.281 79.82 233.642 78.9763 232.987L71.2264 214.846L68.4911 208.438H74.5014C74.5014 208.438 78.096 214.165 80.9675 221.412C82.4609 225.185 83.7604 229.366 84.253 233.364Z" fill="white"/>
</mask>
<g mask="url(#mask7_10194_68171)">
<path opacity="0.3" d="M81.827 234.746C81.8741 234.898 81.916 235.055 81.958 235.207C81.8217 235.108 81.6802 235.008 81.544 234.909C80.6794 234.28 79.82 233.641 78.9764 232.986L71.2264 214.845H73.6421C73.6421 214.845 73.705 214.897 73.8255 214.997C74.6062 215.631 77.7974 218.266 80.9676 221.41C82.461 225.183 83.7605 229.365 84.2531 233.363L81.827 234.746Z" fill="black" fill-opacity="0.7"/>
</g>
<path d="M84.2531 233.364L81.827 234.748L81.5441 234.91C80.6795 234.281 79.8201 233.642 78.9764 232.987L71.2265 214.846L68.4912 208.438H74.5015C74.5015 208.438 78.0961 214.165 80.9676 221.412C82.461 225.185 83.7606 229.366 84.2531 233.364Z" stroke="#263238" stroke-width="0.524" stroke-miterlimit="10" stroke-linecap="round" stroke-linejoin="round"/>
<path d="M81.9578 235.21C81.8215 235.111 81.6801 235.011 81.5438 234.911C80.6792 234.283 79.8199 233.643 78.9762 232.988C77.3833 231.757 75.8165 230.484 74.2917 229.158C62.8999 219.338 53.3998 207.197 46.1424 193.893C43.3233 188.721 40.8447 183.371 38.7278 177.916L49.868 178.057L51.9064 178.084C51.9064 178.084 61.7628 192.31 70.4298 208.439C71.5931 210.598 72.7301 212.799 73.8253 214.999C77.2208 221.838 80.1552 228.718 81.8268 234.749C81.8739 234.901 81.9159 235.058 81.9578 235.21Z" fill="#999999"/>
<mask id="mask8_10194_68171" style="mask-type:luminance" maskUnits="userSpaceOnUse" x="38" y="177" width="44" height="59">
<path d="M81.9578 235.211C81.8215 235.112 81.6801 235.012 81.5438 234.912C80.6792 234.284 79.8199 233.644 78.9762 232.989C77.3833 231.758 75.8165 230.485 74.2917 229.159C62.8999 219.339 53.3998 207.198 46.1424 193.894C43.3233 188.722 40.8447 183.372 38.7278 177.917L49.868 178.058L51.9064 178.085C51.9064 178.085 61.7628 192.311 70.4298 208.44C71.5931 210.599 72.7301 212.8 73.8253 215C77.2208 221.839 80.1552 228.719 81.8268 234.75C81.8739 234.902 81.9159 235.059 81.9578 235.211Z" fill="white"/>
</mask>
<g mask="url(#mask8_10194_68171)">
<path opacity="0.3" d="M81.9576 235.211C79.3167 233.314 76.7595 231.297 74.2915 229.159C62.8997 219.339 53.3996 207.198 46.1422 193.894C50.5805 194.014 55.9463 194.135 57.4659 194.051C60.1907 193.909 71.2261 214.848 71.2261 214.848H73.6417C73.6417 214.848 73.7046 214.901 73.8251 215C77.3097 222.011 80.307 229.07 81.9576 235.211Z" fill="black" fill-opacity="0.7"/>
</g>
<path d="M81.9578 235.21C81.8215 235.111 81.6801 235.011 81.5438 234.911C80.6792 234.283 79.8199 233.643 78.9762 232.988C77.3833 231.757 75.8165 230.484 74.2917 229.158C62.8999 219.338 53.3998 207.197 46.1424 193.893C43.3233 188.721 40.8447 183.371 38.7278 177.916L49.868 178.057L51.9064 178.084C51.9064 178.084 61.7628 192.31 70.4298 208.439C71.5931 210.598 72.7301 212.799 73.8253 214.999C77.2208 221.838 80.1552 228.718 81.8268 234.749C81.8739 234.901 81.9159 235.058 81.9578 235.21Z" stroke="#263238" stroke-width="0.524" stroke-miterlimit="10" stroke-linecap="round" stroke-linejoin="round"/>
<path d="M175.67 250.036C169.151 251.865 162.423 253.117 155.637 253.793C148.333 254.516 140.965 254.579 133.745 253.976C121.719 252.976 110.091 250.146 99.7999 245.53C96.5145 244.057 93.3233 242.406 90.2317 240.593C91.4788 239.959 92.6526 239.514 93.6953 239.315C96.4201 238.801 106.932 239.839 119.675 241.469C126.98 242.401 135.018 243.528 142.747 244.675C156.947 246.782 170.095 248.941 175.67 250.036Z" fill="#92E3A9"/>
<mask id="mask9_10194_68171" style="mask-type:luminance" maskUnits="userSpaceOnUse" x="90" y="239" width="86" height="16">
<path d="M175.67 250.033C169.151 251.862 162.423 253.114 155.637 253.79C148.333 254.513 140.965 254.576 133.745 253.973C121.719 252.973 110.091 250.143 99.7999 245.527C96.5145 244.054 93.3233 242.404 90.2317 240.59C91.4788 239.956 92.6526 239.511 93.6953 239.312C96.4201 238.798 106.932 239.836 119.675 241.466C126.98 242.398 135.018 243.525 142.747 244.672C156.947 246.779 170.095 248.938 175.67 250.033Z" fill="white"/>
</mask>
<g mask="url(#mask9_10194_68171)">
<path opacity="0.3" d="M175.67 250.033C169.151 251.862 162.423 253.114 155.637 253.79C154.118 252.182 152.132 250.526 149.748 249.457C143.732 246.758 119.675 241.466 119.675 241.466C126.98 242.399 135.018 243.525 142.747 244.673C156.947 246.779 170.094 248.938 175.67 250.033Z" fill="black" fill-opacity="0.7"/>
</g>
<path d="M175.67 250.036C169.151 251.865 162.423 253.117 155.637 253.793C148.333 254.516 140.965 254.579 133.745 253.976C121.719 252.976 110.091 250.146 99.7999 245.53C96.5145 244.057 93.3233 242.406 90.2317 240.593C91.4788 239.959 92.6526 239.514 93.6953 239.315C96.4201 238.801 106.932 239.839 119.675 241.469C126.98 242.401 135.018 243.528 142.747 244.675C156.947 246.782 170.095 248.941 175.67 250.036Z" stroke="#263238" stroke-width="0.524" stroke-miterlimit="10" stroke-linecap="round" stroke-linejoin="round"/>
<path d="M188.293 155.141C188.293 155.141 188.23 158.892 186.003 161.125C185.317 159.988 183.955 158.646 180.438 157.341C180.627 156.66 180.811 156.199 180.811 156.199L188.293 155.141Z" fill="#263238"/>
<path d="M204.196 145.448C205.03 143.284 205.428 140.845 205.233 138.101C203.97 120.374 199.778 116.248 192.871 117.399C167.089 121.697 174.73 134.794 173.741 139.133C172.751 143.472 169.098 143.808 169.599 145.788C169.797 146.568 172.834 146.648 172.834 146.648L173.017 150.741L174.176 151.019C174.176 151.019 175.109 160.329 177.483 161.41C180.487 162.779 189.46 157.36 189.445 153.996" fill="white"/>
<path d="M204.196 145.448C205.03 143.284 205.428 140.845 205.233 138.101C203.97 120.374 199.778 116.248 192.871 117.399C167.089 121.697 174.73 134.794 173.741 139.133C172.751 143.472 169.098 143.808 169.599 145.788C169.797 146.568 172.834 146.648 172.834 146.648L173.017 150.741L174.176 151.019C174.176 151.019 175.109 160.329 177.483 161.41C180.487 162.779 189.46 157.36 189.445 153.996" stroke="#263238" stroke-width="0.524" stroke-miterlimit="10" stroke-linecap="round" stroke-linejoin="round"/>
<path d="M175.753 132.773C175.753 132.773 179.376 132.033 181.187 134.928" stroke="#263238" stroke-width="0.524" stroke-miterlimit="10" stroke-linecap="round" stroke-linejoin="round"/>
<path d="M177.264 138.135C177.397 138.992 177.866 139.631 178.314 139.562C178.761 139.493 179.016 138.742 178.884 137.885C178.752 137.027 178.282 136.388 177.835 136.457C177.387 136.526 177.132 137.277 177.264 138.135Z" fill="#263238"/>
<path d="M174.176 151.019C174.176 151.019 177.718 151.019 179.799 150.206" stroke="#263238" stroke-width="0.524" stroke-miterlimit="10" stroke-linecap="round" stroke-linejoin="round"/>
<path d="M190.919 142.317L188.951 143.441C188.951 143.441 188.865 138.565 186.83 136.263C184.796 133.962 183.593 128.449 184.733 126.783C184.733 126.783 178.933 124.588 174.275 127.49C174.275 127.49 168.509 124.719 170.184 115.974C170.184 115.974 173.645 118.791 178.074 116.59C185.51 112.895 194.588 113.185 198.04 116.807C198.04 116.807 207.205 114.924 209.118 129.562C210.307 138.655 205.697 146.952 202.844 149.871C202.844 149.871 201.128 149.17 200.469 145.794C199.844 142.593 200.598 137.456 196.346 136.542C188.063 134.762 190.919 142.317 190.919 142.317Z" fill="#263238"/>
<path d="M179.018 150.456C179.018 150.456 177.525 152.545 176.172 152.545C174.82 152.545 174.755 151.5 174.755 151.5" stroke="#263238" stroke-width="0.524" stroke-miterlimit="10" stroke-linecap="round" stroke-linejoin="round"/>
<path opacity="0.4" d="M172.03 118.552C172.03 118.552 173.576 122.179 179.799 120.314C186.023 118.448 191.373 116.064 195.331 117.723" stroke="white" stroke-width="0.524" stroke-miterlimit="10" stroke-linecap="round" stroke-linejoin="round"/>
<path opacity="0.4" d="M193.278 119.007C193.278 119.007 189.651 119.809 187.74 122.651C185.829 125.493 187.577 131.035 190.064 132.691" stroke="white" stroke-width="0.524" stroke-miterlimit="10" stroke-linecap="round" stroke-linejoin="round"/>
</g>
</svg>
