<svg width="332" height="192" viewBox="0 0 332 192" fill="none" xmlns="http://www.w3.org/2000/svg">
<g clip-path="url(#clip0_10194_66760)">
<g opacity="0.15">
<mask id="mask0_10194_66760" style="mask-type:luminance" maskUnits="userSpaceOnUse" x="-305" y="-229" width="854" height="570">
<path d="M549 -228.624H-305V340.709H549V-228.624Z" fill="white"/>
</mask>
<g mask="url(#mask0_10194_66760)">
<path d="M549 178.223L-305.014 177.565V-228.624H549V178.223Z" fill="url(#paint0_linear_10194_66760)"/>
</g>
<mask id="mask1_10194_66760" style="mask-type:luminance" maskUnits="userSpaceOnUse" x="-305" y="-229" width="854" height="570">
<path d="M549 -228.624H-305V340.709H549V-228.624Z" fill="white"/>
</mask>
<g mask="url(#mask1_10194_66760)">
<path opacity="0.7" d="M-305.214 10.4951L549 92.7823V153.076L-305.196 146.643L-305.214 10.4951Z" fill="#B0F5FF"/>
</g>
<mask id="mask2_10194_66760" style="mask-type:luminance" maskUnits="userSpaceOnUse" x="-305" y="-229" width="854" height="570">
<path d="M549 -228.624H-305V340.709H549V-228.624Z" fill="white"/>
</mask>
<g mask="url(#mask2_10194_66760)">
<path d="M-171.062 23.4187C-171.062 23.4187 -132.452 17.3752 -118.017 28.5285C-118.017 28.5285 -91.8545 1.95626 -66.5917 6.22626C-41.329 10.4963 -31.9677 36.818 -31.9677 36.818C-31.9677 36.818 5.57698 25.1253 38.5243 43.6087C38.5243 43.6087 58.2076 39.5166 79.2388 47.5314L-171.062 23.4187Z" fill="#C1FFFF"/>
</g>
<mask id="mask3_10194_66760" style="mask-type:luminance" maskUnits="userSpaceOnUse" x="-305" y="-229" width="854" height="570">
<path d="M549 -228.624H-305V340.709H549V-228.624Z" fill="white"/>
</mask>
<g mask="url(#mask3_10194_66760)">
<path opacity="0.5" d="M-305.214 -97.7656L549 -6.95837V38.0133L-305.214 -37.3708V-97.7656Z" fill="#B0F5FF"/>
</g>
<mask id="mask4_10194_66760" style="mask-type:luminance" maskUnits="userSpaceOnUse" x="-305" y="-229" width="854" height="570">
<path d="M549 -228.624H-305V340.709H549V-228.624Z" fill="white"/>
</mask>
<g mask="url(#mask4_10194_66760)">
<path d="M-351.335 -190.695L-295.363 -143.443L-295.346 -143.429L-295.326 -143.409C-286.635 -134.899 -277.483 -126.818 -268.164 -118.971C-258.827 -111.137 -249.25 -103.589 -239.438 -96.3568C-219.802 -81.927 -199.259 -68.6587 -177.582 -57.5026C-155.924 -46.3935 -133.071 -37.2599 -109.154 -32.459C-103.178 -31.2848 -97.1492 -30.3838 -91.0858 -29.8074C-85.0196 -29.2594 -78.9235 -29.0772 -72.8387 -29.2679C-60.6621 -29.5939 -48.5481 -31.7972 -37.0148 -35.7028L-36.9024 -35.7413L-36.8241 -35.6544L-36.8227 -35.653C-26.3484 -24.393 -15.2279 -13.7308 -3.71451 -3.53407C7.82159 6.63849 19.8217 16.3043 32.4524 25.0849C45.0845 33.8327 58.3528 41.7877 72.5491 47.7131C79.6444 50.6522 86.9817 53.0705 94.5325 54.4895C102.063 55.9157 109.845 56.3598 117.427 55.1158L117.512 55.1016L117.578 55.1628C122.564 59.7815 127.839 64.097 133.267 68.192C138.706 72.2769 144.334 76.1142 150.193 79.5644C156.055 83.0032 162.142 86.0947 168.529 88.4204C174.885 90.7788 181.618 92.3089 188.406 92.252H188.494L188.548 92.3203C192.24 96.8551 196.251 101.146 200.466 105.209C202.568 107.247 204.748 109.205 206.986 111.094C209.211 113 211.549 114.766 213.916 116.49L213.833 116.607C211.452 114.894 209.098 113.141 206.859 111.245C204.607 109.366 202.411 107.418 200.293 105.389C196.045 101.343 192.007 97.0771 188.269 92.5424L188.411 92.6093C181.559 92.6676 174.789 91.1247 168.405 88.7563C161.991 86.4206 155.887 83.3192 150.011 79.8733C144.137 76.4146 138.498 72.5701 133.052 68.4795C127.612 64.376 122.336 60.059 117.331 55.4232L117.482 55.4702C109.849 56.7227 102.026 56.2744 94.4642 54.8425C86.8821 53.4178 79.5235 50.9924 72.4096 48.0461C58.1791 42.1065 44.8937 34.1401 32.246 25.381C19.6011 16.5904 7.59103 6.91745 -3.95364 -3.26222C-15.4769 -13.4689 -26.6003 -24.1326 -37.0902 -35.4096L-37.0917 -35.4111L-36.9024 -35.3627C-48.4613 -31.4129 -60.6108 -29.1655 -72.8273 -28.8039C-78.932 -28.5947 -85.0509 -28.7612 -91.1371 -29.2921C-97.2218 -29.8515 -103.271 -30.7397 -109.269 -31.8997C-133.271 -36.6465 -156.206 -45.7373 -177.942 -56.808C-199.698 -67.9257 -220.316 -81.1584 -240.029 -95.5569C-249.879 -102.773 -259.495 -110.307 -268.872 -118.128C-278.234 -125.969 -287.41 -134.021 -296.178 -142.557L-296.141 -142.523L-352.259 -189.602L-351.335 -190.695Z" fill="#5C4079"/>
</g>
<mask id="mask5_10194_66760" style="mask-type:luminance" maskUnits="userSpaceOnUse" x="-305" y="-229" width="854" height="570">
<path d="M549 -228.624H-305V340.709H549V-228.624Z" fill="white"/>
</mask>
<g mask="url(#mask5_10194_66760)">
<path d="M549.214 32.835L502.219 39.4777L461.939 84.8236L449.062 91.4293L396.777 132.706L351.931 126.301L288.564 142.669H162.891L89.6532 98.546L38.9982 102.104L12.1456 114.914L-5.21196 121.93L-25.0831 142.669H-66.5847L-94.6585 129.859H-144.703L-184.373 142.669L-233.808 132.706L-249.675 142.669L-259.441 96.411L-305.214 50.927L-305.197 146.646L549.214 151.209V32.835Z" fill="url(#paint1_linear_10194_66760)"/>
<path d="M38.9982 102.104L76.0433 117.049H120.366L89.6532 98.5459L38.9982 102.104Z" fill="#B2F7FF"/>
<path d="M-305.164 91.7607L-273.855 98.0135L-270.8 105.47L-255.04 108.882L-251.414 112.958L-195.274 123.323L-193.536 127.192L-138.117 136.392H-32.4446L-11.2811 120.075L17.8489 120.431L21.746 127.192L57.4346 133.597L58.5861 137.393L132.816 141.039L136.902 138.223L158.227 133.597H167.703L195.173 130.357L282.948 144.272L318.985 121.847L326.234 120.075L344.196 109.703H380.847L390.455 103.126L423.462 100.822L464.112 109.703L514.878 156.236H-305.214L-305.164 91.7607Z" fill="url(#paint2_linear_10194_66760)"/>
<path d="M362.119 131.861L370.753 132.443L342.406 136.116L325.448 133.601L362.119 131.861Z" fill="#B2F7FF"/>
<path d="M318.985 121.85L344.197 124.002L326.234 120.078L318.985 121.85Z" fill="#B2F7FF"/>
<path d="M136.902 138.227H155.346L167.881 137.398L167.703 133.602H153.712L136.902 138.227Z" fill="#B2F7FF"/>
<path d="M128.301 141.044L134.01 143.743L51.6346 142.393L54.0714 137.397L128.301 141.044Z" fill="#B2F7FF"/>
<path d="M52.9185 133.599L39.6132 135.912L19.6766 133.599L17.2313 127.194L52.9185 133.599Z" fill="#B2F7FF"/>
<path d="M17.8489 120.434L4.50369 124.002H-13.1271L-11.2811 120.078L17.8489 120.434Z" fill="#B2F7FF"/>
</g>
<mask id="mask6_10194_66760" style="mask-type:luminance" maskUnits="userSpaceOnUse" x="-305" y="-229" width="854" height="570">
<path d="M549 -228.624H-305V340.709H549V-228.624Z" fill="white"/>
</mask>
<g mask="url(#mask6_10194_66760)">
<path d="M549 152.98H-305V340.71H549V152.98Z" fill="url(#paint3_linear_10194_66760)"/>
</g>
<mask id="mask7_10194_66760" style="mask-type:luminance" maskUnits="userSpaceOnUse" x="-305" y="-229" width="854" height="570">
<path d="M549 -228.624H-305V340.709H549V-228.624Z" fill="white"/>
</mask>
<g mask="url(#mask7_10194_66760)">
<path opacity="0.2" d="M548.86 192.687L548.863 189.362L-304.979 184.191L-305.154 192.687H548.86Z" fill="#D97EA4"/>
</g>
<mask id="mask8_10194_66760" style="mask-type:luminance" maskUnits="userSpaceOnUse" x="-305" y="-229" width="854" height="570">
<path d="M549 -228.624H-305V340.709H549V-228.624Z" fill="white"/>
</mask>
<g mask="url(#mask8_10194_66760)">
<path d="M215.909 156.756L216.523 115.166L216.801 115.145L217.009 156.722L215.909 156.756Z" fill="url(#paint4_linear_10194_66760)"/>
<path d="M216.801 115.145H217.009L217.469 156.609L217.009 156.722L216.801 115.145Z" fill="url(#paint5_linear_10194_66760)"/>
<path d="M213.889 116.782L220.24 116.192L220.781 115.04L221.016 114.991L220.781 116.782L213.525 117.414V115.563L213.841 115.7L213.889 116.782Z" fill="url(#paint6_linear_10194_66760)"/>
<path d="M221.016 114.991L221.329 115.146V116.721L220.781 116.782L221.016 114.991Z" fill="url(#paint7_linear_10194_66760)"/>
</g>
<mask id="mask9_10194_66760" style="mask-type:luminance" maskUnits="userSpaceOnUse" x="-305" y="-229" width="854" height="570">
<path d="M549 -228.624H-305V340.709H549V-228.624Z" fill="white"/>
</mask>
<g mask="url(#mask9_10194_66760)">
<path d="M-306.692 340.71L-309.498 272.102L207.838 152.98L242.814 153.154L340.904 340.71H-306.692Z" fill="url(#paint8_linear_10194_66760)"/>
</g>
<mask id="mask10_10194_66760" style="mask-type:luminance" maskUnits="userSpaceOnUse" x="-305" y="-229" width="854" height="570">
<path d="M549 -228.624H-305V340.709H549V-228.624Z" fill="white"/>
</mask>
<g mask="url(#mask10_10194_66760)">
<g opacity="0.3">
<path fill-rule="evenodd" clip-rule="evenodd" d="M8.66263 176.957C8.5388 176.288 11.0211 176.022 10.8304 176.941C10.1116 176.947 9.38711 176.951 8.66263 176.957Z" fill="#FEABA2"/>
<path fill-rule="evenodd" clip-rule="evenodd" d="M11.4098 168.169C11.6674 167.728 14.0757 167.959 14.4472 168.147C13.8081 168.767 12.5371 167.993 11.4098 168.169Z" fill="#FEABA2"/>
<path fill-rule="evenodd" clip-rule="evenodd" d="M16.9024 176.693C17.5201 176.373 18.5805 176.252 19.9256 176.263C20.2971 177.033 17.8802 176.538 16.9024 176.693Z" fill="#FEABA2"/>
<path fill-rule="evenodd" clip-rule="evenodd" d="M22.4619 174.206C20.4521 173.83 25.3513 173.375 24.6339 174.192C23.5593 174.465 22.8106 173.607 22.4619 174.206Z" fill="#FEABA2"/>
<path fill-rule="evenodd" clip-rule="evenodd" d="M25.495 174.183C25.29 173.671 29.2383 173.42 28.9665 174.158C27.6456 173.887 27.4179 174.269 25.495 174.183Z" fill="#FEABA2"/>
<path fill-rule="evenodd" clip-rule="evenodd" d="M44.4996 184.447C45.0263 184.151 45.9799 184.05 47.0887 184.021C47.2339 184.674 45.2141 184.776 44.4996 184.447Z" fill="#FEABA2"/>
<path fill-rule="evenodd" clip-rule="evenodd" d="M44.9976 173.226C45.0973 173.004 45.8559 173.081 45.8531 172.813C46.6686 173.393 46.9519 173.265 48.0421 173.41C47.3888 173.975 45.4389 173.448 44.9976 173.226Z" fill="#FEABA2"/>
<path fill-rule="evenodd" clip-rule="evenodd" d="M46.616 156.489C46.246 155.716 48.6571 156.213 49.642 156.059C49.5965 156.64 47.8444 156.445 46.616 156.489Z" fill="#FEABA2"/>
<path fill-rule="evenodd" clip-rule="evenodd" d="M162.189 173.186C164.691 172.806 168.295 173.676 170.037 174.353C168.13 174.847 165.224 173.393 162.189 173.186Z" fill="#FEABA2"/>
<path fill-rule="evenodd" clip-rule="evenodd" d="M162.299 163.397C162.63 162.223 164.831 164.109 164.888 162.969C165.481 163.029 165.266 163.478 165.35 163.783C163.758 163.551 163.391 163.511 162.299 163.397Z" fill="#FEABA2"/>
<path fill-rule="evenodd" clip-rule="evenodd" d="M164.277 170.725C164.189 170.282 165.813 170.618 166.438 170.504C166.156 171.132 166.149 170.897 166.469 171.522C165.46 171.393 165.288 170.855 164.277 170.725Z" fill="#FEABA2"/>
<path fill-rule="evenodd" clip-rule="evenodd" d="M166.831 169.28C167.261 168.766 168.54 168.259 168.993 168.856C168.628 169.16 167.911 169.302 166.831 169.28Z" fill="#FEABA2"/>
<path fill-rule="evenodd" clip-rule="evenodd" d="M171.22 170.674C172.422 170.207 175.371 169.588 176.415 170.229C175.652 170.651 174.813 170.298 175.571 171.05C174.841 170.577 173.025 170.627 171.22 170.674Z" fill="#FEABA2"/>
<path fill-rule="evenodd" clip-rule="evenodd" d="M183.383 170.993C182.614 169.911 191.321 169.999 189.907 171.354C189.395 171.324 189.526 170.986 189.452 170.747C187.742 171.175 185.177 170.376 183.383 170.993Z" fill="#FEABA2"/>
<path fill-rule="evenodd" clip-rule="evenodd" d="M206.761 169.195C206.933 168.736 208.897 169.095 209.791 168.968C209.338 169.484 208.036 169.417 206.761 169.195Z" fill="#FEABA2"/>
<path fill-rule="evenodd" clip-rule="evenodd" d="M237.979 168.151C238.332 167.711 239.024 167.419 240.561 167.517C240.327 168.014 238.938 167.984 237.979 168.151Z" fill="#FEABA2"/>
<path fill-rule="evenodd" clip-rule="evenodd" d="M264.427 167.344C264.978 166.594 268.139 167.424 270.071 167.303C270.226 167.841 267.63 167.129 268.351 167.928C267.218 167.195 266.48 167.559 264.427 167.344Z" fill="#FEABA2"/>
<path fill-rule="evenodd" clip-rule="evenodd" d="M32.0082 174.135C32.4139 173.662 34.788 173.598 35.8968 173.699C35.0556 174.049 33.201 173.943 32.0082 174.135Z" fill="#FEABA2"/>
<path fill-rule="evenodd" clip-rule="evenodd" d="M44.8425 168.537C45.5869 168.138 47.8557 168.435 47.8557 167.696C49.0883 168.163 45.7008 168.989 44.8425 168.537Z" fill="#FEABA2"/>
<path fill-rule="evenodd" clip-rule="evenodd" d="M57.9941 167.255C57.7962 166.187 61.7588 165.762 61.4556 167.231C60.3041 167.239 59.1484 167.246 57.9941 167.255Z" fill="#FEABA2"/>
<path fill-rule="evenodd" clip-rule="evenodd" d="M62.3793 153.223C62.7906 152.52 66.635 152.887 67.2272 153.186C66.2066 154.175 64.1769 152.941 62.3793 153.223Z" fill="#FEABA2"/>
<path fill-rule="evenodd" clip-rule="evenodd" d="M71.1443 166.83C72.1307 166.319 73.8216 166.127 75.9694 166.144C76.5629 167.372 72.7057 166.581 71.1443 166.83Z" fill="#FEABA2"/>
<path fill-rule="evenodd" clip-rule="evenodd" d="M80.0175 162.857C76.8093 162.257 84.6291 161.53 83.4847 162.833C81.771 163.271 80.5754 161.9 80.0175 162.857Z" fill="#FEABA2"/>
<path fill-rule="evenodd" clip-rule="evenodd" d="M84.8595 162.821C84.5321 162.003 90.8347 161.604 90.4005 162.78C88.2926 162.349 87.9296 162.956 84.8595 162.821Z" fill="#FEABA2"/>
<path fill-rule="evenodd" clip-rule="evenodd" d="M115.194 179.205C116.033 178.732 117.556 178.571 119.326 178.524C119.556 179.566 116.332 179.731 115.194 179.205Z" fill="#FEABA2"/>
<path fill-rule="evenodd" clip-rule="evenodd" d="M115.988 161.29C116.146 160.936 117.357 161.06 117.353 160.63C118.655 161.555 119.106 161.35 120.847 161.582C119.805 162.486 116.692 161.646 115.988 161.29Z" fill="#FEABA2"/>
<path fill-rule="evenodd" clip-rule="evenodd" d="M95.2542 162.747C95.9032 161.994 99.6907 161.892 101.461 162.053C100.119 162.611 97.16 162.44 95.2542 162.747Z" fill="#FEABA2"/>
<path fill-rule="evenodd" clip-rule="evenodd" d="M115.74 153.811C116.929 153.172 120.548 153.647 120.548 152.469C122.517 153.215 117.111 154.531 115.74 153.811Z" fill="#FEABA2"/>
<path fill-rule="evenodd" clip-rule="evenodd" d="M166.2 163.372C166.004 162.945 166.485 162.828 166.611 162.554C167.611 162.66 167.438 163.961 169.243 163.349C170.588 163.543 168.309 163.692 168.396 163.969C167.712 163.745 167.47 163.31 166.2 163.372Z" fill="#FEABA2"/>
<path fill-rule="evenodd" clip-rule="evenodd" d="M167.329 171.112C167.887 170.26 170.147 171.139 171.239 171.287C171.017 171.452 170.8 171.623 170.826 171.902C172.537 171.404 172.016 172.349 173.454 172.496C173.92 172.44 173.731 172.087 174.305 172.081C175.661 171.976 176.248 172.245 176.067 172.884C173.831 172.558 174.096 172.631 171.73 172.916C171.723 172.713 171.716 172.509 171.709 172.305C170.702 172.376 170.042 172.284 169.532 172.117C169.776 172.637 170.133 172.826 169.134 173.136C168.974 173.629 171.105 173.011 170.45 173.741C169.557 173.552 168.72 173.335 167.83 173.148C169.737 172.864 168.628 172.457 168.214 171.717C169.055 172.094 169.306 171.731 170.383 171.701C170.645 170.886 168.717 171.129 167.329 171.112Z" fill="#FEABA2"/>
<path fill-rule="evenodd" clip-rule="evenodd" d="M168.781 162.535C169.918 162.786 170.104 162.972 171.391 162.719C171.387 163.07 171.73 163.245 172.281 163.325C172.185 163.356 168.822 163.216 168.781 162.535Z" fill="#FEABA2"/>
<path fill-rule="evenodd" clip-rule="evenodd" d="M175.6 171.868C176.878 171.127 177.903 172.258 178.231 172.665C178.666 172.529 178.663 172.191 179.521 172.247C178.58 173.645 177.118 171.991 175.6 171.868Z" fill="#FEABA2"/>
<path fill-rule="evenodd" clip-rule="evenodd" d="M327.976 159.54C326.86 159.649 325.488 158.836 326.637 158.529C326.63 158.213 327.121 159.185 327.976 159.54Z" fill="#FEABA2"/>
<path fill-rule="evenodd" clip-rule="evenodd" d="M285.834 175.286C285.84 175.084 286.364 175.119 286.695 175.074C286.953 174.643 289.199 173.954 291.869 174.013C289.532 174.291 288.557 175.186 285.834 175.286Z" fill="#FEABA2"/>
<path fill-rule="evenodd" clip-rule="evenodd" d="M295.311 172.972C294.586 172.978 293.863 172.983 293.139 172.988C293.167 172.699 293.191 172.41 292.686 172.381C293.362 172.218 293.311 171.728 294.4 171.755C294.014 172.683 297.928 173.472 294.901 173.792C295.233 173.607 295.352 173.326 295.311 172.972Z" fill="#FEABA2"/>
<path fill-rule="evenodd" clip-rule="evenodd" d="M280.795 184.42C280.784 184.148 280.778 183.873 280.767 183.603C280.629 184.148 283.37 184.465 282.078 183.798C282.704 183.12 283.151 184.213 284.253 183.987C283.571 184.344 282.314 184.44 280.795 184.42Z" fill="#FEABA2"/>
<path fill-rule="evenodd" clip-rule="evenodd" d="M304.229 184.25C304.632 183.83 305.882 183.794 307.252 183.818C306.094 184.104 305.593 184.548 304.229 184.25Z" fill="#FEABA2"/>
<path fill-rule="evenodd" clip-rule="evenodd" d="M311.887 179.5C312.145 179.317 312.394 179.134 311.873 179.093C312.833 178.663 312.691 179.522 314.476 179.076C314.443 179.596 313.037 179.49 311.887 179.5Z" fill="#FEABA2"/>
<path fill-rule="evenodd" clip-rule="evenodd" d="M313.26 181.735C313.85 181.331 316.934 181.459 317.602 181.704C317.011 182.106 313.924 181.978 313.26 181.735Z" fill="#FEABA2"/>
<path fill-rule="evenodd" clip-rule="evenodd" d="M314.91 179.072C316.213 178.847 317.686 179.049 319.685 179.037C318.911 179.487 316.285 179.096 315.359 179.476C315.418 179.235 315.247 179.114 314.91 179.072Z" fill="#FEABA2"/>
<path fill-rule="evenodd" clip-rule="evenodd" d="M276.275 178.944C277.617 178.611 280.009 177.937 281.902 178.497C280.521 178.871 277.97 178.715 276.275 178.944Z" fill="#FEABA2"/>
<path fill-rule="evenodd" clip-rule="evenodd" d="M279.355 180.149C278.762 180.087 278.976 179.641 278.893 179.336C280.044 179.401 282.706 178.527 282.378 179.719C280.983 179.581 279.308 178.935 279.355 180.149Z" fill="#FEABA2"/>
<path fill-rule="evenodd" clip-rule="evenodd" d="M295.997 184.715C296.061 184.478 295.89 184.355 295.548 184.311C297.053 183.692 298.851 184.085 300.331 184.479C299.309 184.913 297.649 184.347 295.997 184.715Z" fill="#FEABA2"/>
<path fill-rule="evenodd" clip-rule="evenodd" d="M302.756 179.157C301.983 179.189 301.835 178.916 301.015 178.968C301.985 178.224 302.639 178.53 304.47 178.329C305.56 178.588 302.188 178.477 302.756 179.157Z" fill="#FEABA2"/>
<path fill-rule="evenodd" clip-rule="evenodd" d="M314.507 180.094C316.238 179.435 319.812 180.077 321.86 179.225C320.61 180.378 316.98 179.909 314.507 180.094Z" fill="#FEABA2"/>
<path fill-rule="evenodd" clip-rule="evenodd" d="M319.322 181.279C319.173 181.629 319.674 181.663 320.2 181.683C320.098 182.156 319.059 182.162 318.477 181.898C318.339 181.463 320.282 180.425 320.189 181.275C319.903 181.279 319.614 181.281 319.322 181.279Z" fill="#FEABA2"/>
</g>
</g>
<mask id="mask11_10194_66760" style="mask-type:luminance" maskUnits="userSpaceOnUse" x="-305" y="-229" width="854" height="570">
<path d="M549 -228.624H-305V340.709H549V-228.624Z" fill="white"/>
</mask>
<g mask="url(#mask11_10194_66760)">
<path d="M-11.3507 339.464L226.171 153.025L225.634 153.007L-39.6864 340.709L-11.3507 339.464Z" fill="url(#paint9_linear_10194_66760)"/>
</g>
<mask id="mask12_10194_66760" style="mask-type:luminance" maskUnits="userSpaceOnUse" x="-305" y="-229" width="854" height="570">
<path d="M549 -228.624H-305V340.709H549V-228.624Z" fill="white"/>
</mask>
<g mask="url(#mask12_10194_66760)">
<mask id="mask13_10194_66760" style="mask-type:luminance" maskUnits="userSpaceOnUse" x="-310" y="152" width="651" height="189">
<path d="M-306.692 340.708L-309.498 272.1L207.839 152.979L242.814 153.152L340.905 340.708H-306.692Z" fill="white"/>
</mask>
<g mask="url(#mask13_10194_66760)">
<g opacity="0.3">
<path opacity="0.5" d="M1.12214 163.944C1.12214 164.296 56.6976 163.944 56.6976 163.944C56.6976 163.944 57.4904 162.276 56.6976 162.071C55.9048 161.864 25.195 161.681 24.4434 161.486C23.6919 161.291 45.1145 161.349 45.7906 161.174C46.4667 160.999 46.693 156.802 45.6397 156.528C44.5879 156.255 7.15421 156.333 6.40269 156.528C5.65117 156.723 3.54606 159.456 3.54606 159.456C3.54606 159.456 34.0638 159.3 34.0638 159.768C34.0638 160.236 33.4432 160.847 33.0489 160.847C32.6547 160.847 12.3594 160.905 12.0206 160.993C11.6818 161.082 12.2455 162.106 12.2455 162.106C12.2455 162.106 23.8585 162.018 24.1403 162.092C24.4221 162.166 26.113 163.395 26.113 163.395C26.113 163.395 1.11786 163.395 1.11786 163.511C1.11786 163.628 1.12214 163.944 1.12214 163.944Z" fill="white"/>
<path opacity="0.2" d="M1.12214 194.022C1.12214 194.373 56.6976 194.022 56.6976 194.022C56.6976 194.022 57.4904 192.353 56.6976 192.148C55.9048 191.942 25.195 191.759 24.4434 191.564C23.6919 191.369 45.1145 191.427 45.7906 191.252C46.4667 191.077 46.693 186.879 45.6397 186.607C44.5879 186.334 7.15421 186.412 6.40269 186.607C5.65117 186.802 3.54606 189.535 3.54606 189.535C3.54606 189.535 34.0638 189.379 34.0638 189.847C34.0638 190.315 33.4432 190.926 33.0489 190.926C32.6547 190.926 12.3594 190.984 12.0206 191.072C11.6818 191.161 12.2455 192.185 12.2455 192.185C12.2455 192.185 23.8585 192.097 24.1403 192.171C24.4221 192.244 26.113 193.474 26.113 193.474C26.113 193.474 1.11786 193.474 1.11786 193.59C1.11786 193.707 1.12214 194.022 1.12214 194.022Z" fill="white"/>
<path opacity="0.2" d="M55.7126 160.876C56.3887 161.052 91.7172 161.091 92.5442 160.876C93.3711 160.662 95.6997 156.725 94.9254 156.523C94.1511 156.322 68.7916 155.879 68.7916 155.879C68.7916 155.879 86.6815 155.841 86.6815 155.528C86.6815 155.216 87.0345 152.331 85.6638 151.975C84.2931 151.619 54.2095 151.545 54.2095 151.975C54.2095 152.406 55.7126 160.876 55.7126 160.876Z" fill="white"/>
<path opacity="0.2" d="M-8.49961 173.991C-7.82352 174.166 27.505 174.206 28.332 173.991C29.159 173.776 31.4875 169.839 30.7132 169.637C29.9389 169.436 4.57942 168.993 4.57942 168.993C4.57942 168.993 22.4693 168.955 22.4693 168.642C22.4693 168.33 22.8223 168.437 21.4516 168.081C20.0809 167.725 -9.47174 167.99 -9.47174 168.418C-9.47174 168.847 -8.49961 173.991 -8.49961 173.991Z" fill="white"/>
<path opacity="0.5" d="M82.571 173.949C81.9348 174.114 46.8382 174.269 46.8382 173.949C46.8382 173.628 48.411 170.214 49.0857 170.039C49.7603 169.864 74.3683 169.894 75.2664 169.66C76.166 169.427 76.3909 168.085 76.3909 167.881C76.3909 167.677 59.1984 167.561 59.1984 167.561C59.1984 167.561 60.3215 166.16 61.3335 166.16C62.3454 166.16 94.0886 166.321 94.7063 166.48C95.3241 166.641 95.0721 167.991 94.7063 168.085C94.3405 168.18 79.397 168.15 78.9757 168.26C78.5544 168.369 78.4704 169.121 78.4704 169.208C78.4704 169.294 92.5158 169.222 92.8532 169.31C93.1905 169.397 93.6402 170.506 93.078 170.506C92.5158 170.506 68.9753 170.578 68.9753 170.725C68.9753 170.87 81.8664 170.759 82.1782 170.84C82.4899 170.921 83.1332 173.803 82.571 173.949Z" fill="white"/>
<path opacity="0.5" d="M-5.44229 167.008C-6.88555 167.382 47.3691 167.36 48.7226 167.008C50.0762 166.656 49.5126 165.145 48.7226 164.94C47.9341 164.735 -0.661324 164.687 -2.16436 164.687C-3.6674 164.685 -5.44229 167.008 -5.44229 167.008Z" fill="white"/>
<path opacity="0.5" d="M31.9316 173.948C31.9316 174.241 43.0849 173.948 44.0997 173.948C45.1146 173.948 47.5883 170.6 46.8382 170.405C46.0895 170.21 34.895 170.022 34.4025 170.149C33.9115 170.277 31.9316 173.948 31.9316 173.948Z" fill="white"/>
<path opacity="0.5" d="M59.0205 165.466C59.9983 165.719 95.0807 165.778 95.0807 165.466C95.0807 165.154 95.1376 163.27 94.4985 163.104C93.8594 162.938 77.0513 162.695 77.0513 162.695C77.0513 162.695 104.833 162.9 105.623 162.695C106.413 162.49 106.224 161.465 105.623 161.308C105.023 161.152 59.0205 161.582 59.0205 161.718C59.0205 161.855 59.0205 163.476 59.0205 163.476C59.0205 163.476 77.5865 163.533 78.1885 163.689C78.7892 163.846 59.0959 163.67 58.4953 163.826C57.8932 163.983 58.5323 165.339 59.0205 165.466Z" fill="white"/>
<path opacity="0.2" d="M73.0019 169.331C72.212 169.536 45.2654 169.487 44.6648 169.331C44.0627 169.174 43.2372 168.081 43.6883 167.964C44.1395 167.848 71.3864 167.798 72.0255 167.964C72.6632 168.13 73.0019 169.331 73.0019 169.331Z" fill="white"/>
<path opacity="0.5" d="M29.0864 178.366C28.2964 178.571 -6.14825 178.288 -6.75032 178.132C-7.35097 177.975 -7.99004 174.987 -7.54026 174.871C-7.08907 174.754 27.4495 174.717 28.0886 174.882C28.7291 175.049 29.0864 178.366 29.0864 178.366Z" fill="white"/>
<path opacity="0.5" d="M31.1375 180.547C30.3475 180.752 3.40096 180.703 2.80031 180.547C2.19967 180.39 1.37269 179.297 1.82247 179.18C2.27366 179.064 29.5206 179.014 30.1596 179.18C30.8001 179.347 31.1375 180.547 31.1375 180.547Z" fill="white"/>
<path opacity="0.5" d="M123.05 155.275C122.261 155.48 107.855 155.295 107.253 155.139C106.652 154.982 105.825 153.889 106.276 153.772C106.728 153.656 121.735 153.501 122.374 153.666C123.013 153.834 123.05 155.275 123.05 155.275Z" fill="white"/>
<path opacity="0.2" d="M98.2576 169.135C98.2576 169.609 109.382 169.095 109.382 169.466C109.382 169.838 109.382 171.594 109.382 171.594C109.382 171.594 88.6359 171.399 87.8844 171.594C87.1328 171.789 88.7327 175.107 87.0303 175.107C85.3295 175.107 32.9707 174.838 31.9317 175.107C30.8941 175.376 33.7649 180.963 34.8168 181.236C35.8686 181.509 77.0599 180.924 78.2626 181.236C79.4653 181.548 78.4647 182.958 79.6504 183.266C80.836 183.573 105.356 183.567 106.147 183.774C106.937 183.979 107.2 184.672 107.2 184.672L82.1981 184.36V186.311L111.035 185.882C111.035 185.882 112.703 169.439 112.703 168.664C112.703 167.888 97.9558 167.859 97.9558 167.859L98.2576 169.135Z" fill="white"/>
<path opacity="0.5" d="M81.1505 181.94C81.8422 182.12 82.692 186.888 83.1802 187.014C83.6684 187.141 116.179 186.8 117.004 187.014C117.831 187.229 118.358 192.518 117.004 192.518C115.651 192.518 56.1098 192.128 56.1098 191.66C56.1098 191.192 56.1098 186.888 56.1098 186.888L73.2197 186.741C73.2197 186.741 57.7737 186.526 57.7737 186.311C57.7737 186.096 58.4697 183.257 58.4697 183.082C58.4697 182.907 26.8817 183.403 26.8817 183.082C26.8817 182.76 26.2056 182.115 26.8817 181.94C27.5563 181.764 80.2111 181.695 81.1505 181.94Z" fill="white"/>
<path opacity="0.5" d="M126.781 172.833C126.781 173.185 182.357 172.833 182.357 172.833C182.357 172.833 183.149 171.165 182.357 170.96C181.564 170.754 150.854 170.57 150.102 170.375C149.351 170.18 170.773 170.238 171.45 170.063C172.126 169.888 172.352 165.692 171.299 165.419C170.247 165.146 132.813 165.224 132.062 165.419C131.31 165.614 129.205 168.347 129.205 168.347C129.205 168.347 159.723 168.19 159.723 168.659C159.723 169.127 159.102 169.737 158.708 169.737C158.314 169.737 138.018 169.796 137.68 169.884C137.341 169.972 137.906 170.997 137.906 170.997C137.906 170.997 149.519 170.909 149.801 170.983C150.082 171.055 151.773 172.285 151.773 172.285C151.773 172.285 126.778 172.285 126.778 172.402C126.781 172.517 126.781 172.833 126.781 172.833Z" fill="white"/>
<path opacity="0.2" d="M181.373 169.764C182.049 169.939 217.378 169.979 218.205 169.764C219.032 169.549 221.36 165.612 220.586 165.41C219.812 165.21 194.452 164.767 194.452 164.767C194.452 164.767 212.342 164.728 212.342 164.415C212.342 164.102 212.695 161.218 211.324 160.863C209.954 160.507 179.87 160.433 179.87 160.863C179.869 161.294 181.373 169.764 181.373 169.764Z" fill="white"/>
<path opacity="0.2" d="M117.159 182.881C117.835 183.056 153.164 183.096 153.991 182.881C154.818 182.666 157.146 178.729 156.372 178.527C155.598 178.327 130.238 177.884 130.238 177.884C130.238 177.884 148.128 177.846 148.128 177.532C148.128 177.221 148.481 177.327 147.11 176.972C145.74 176.616 116.187 176.881 116.187 177.309C116.187 177.74 117.159 182.881 117.159 182.881Z" fill="white"/>
<path opacity="0.5" d="M193.491 157.469C194.167 157.644 229.496 157.684 230.323 157.469C231.15 157.254 233.478 153.317 232.704 153.115C231.93 152.915 206.57 152.472 206.57 152.472C206.57 152.472 241.749 152.848 241.749 152.536C241.749 152.224 244.078 151.915 242.707 151.56C241.337 151.204 192.519 151.468 192.519 151.897C192.519 152.325 193.491 157.469 193.491 157.469Z" fill="white"/>
<path opacity="0.2" d="M170.28 163.915C169.428 164.135 122.474 164.345 122.474 163.915C122.474 163.485 124.579 158.919 125.48 158.684C126.383 158.449 159.304 158.489 160.507 158.177C161.71 157.866 162.01 156.069 162.01 155.796C162.01 155.523 139.009 155.366 139.009 155.366C139.009 155.366 140.512 153.493 141.866 153.493C143.219 153.493 185.687 153.708 186.514 153.923C187.341 154.138 187.002 155.943 186.514 156.069C186.026 156.196 166.031 156.158 165.467 156.304C164.904 156.451 164.791 157.456 164.791 157.572C164.791 157.689 183.582 157.592 184.033 157.709C184.484 157.826 185.085 159.309 184.334 159.309C183.582 159.309 152.088 159.407 152.088 159.602C152.088 159.797 169.335 159.648 169.752 159.756C170.171 159.864 171.031 163.72 170.28 163.915Z" fill="white"/>
<path opacity="0.5" d="M208.23 182.84C207.594 183.005 172.497 183.162 172.497 182.84C172.497 182.52 174.07 179.105 174.744 178.93C175.419 178.755 200.027 178.785 200.925 178.552C201.825 178.318 202.05 176.976 202.05 176.773C202.05 176.569 184.857 176.452 184.857 176.452C184.857 176.452 185.98 175.052 186.992 175.052C188.003 175.052 219.747 175.213 220.365 175.372C220.983 175.533 220.731 176.882 220.365 176.976C219.999 177.071 205.056 177.042 204.634 177.151C204.213 177.261 204.129 178.012 204.129 178.099C204.129 178.187 218.175 178.113 218.512 178.202C218.849 178.288 219.299 179.397 218.737 179.397C218.175 179.397 194.634 179.47 194.634 179.616C194.634 179.763 207.525 179.651 207.837 179.732C208.149 179.813 208.792 182.695 208.23 182.84Z" fill="white"/>
<path opacity="0.5" d="M120.218 175.899C118.775 176.273 173.029 176.25 174.383 175.899C175.737 175.547 175.173 174.035 174.383 173.831C173.595 173.626 124.999 173.577 123.496 173.577C121.992 173.577 120.218 175.899 120.218 175.899Z" fill="white"/>
<path opacity="0.5" d="M157.592 182.836C157.592 183.129 168.745 182.836 169.76 182.836C170.775 182.836 173.249 179.489 172.498 179.294C171.75 179.099 160.555 178.911 160.063 179.037C159.57 179.165 157.592 182.836 157.592 182.836Z" fill="white"/>
<path opacity="0.5" d="M184.679 174.355C185.656 174.609 220.74 174.667 220.74 174.355C220.74 174.044 220.796 172.159 220.157 171.994C219.518 171.829 202.71 171.584 202.71 171.584C202.71 171.584 230.494 171.789 231.282 171.584C232.072 171.379 231.883 170.354 231.282 170.198C230.681 170.041 184.679 170.471 184.679 170.608C184.679 170.744 184.679 172.366 184.679 172.366C184.679 172.366 203.245 172.423 203.846 172.579C204.447 172.736 184.753 172.559 184.153 172.716C183.552 172.872 184.191 174.229 184.679 174.355Z" fill="white"/>
<path opacity="0.5" d="M127.551 156.218C128.527 156.471 163.611 156.529 163.611 156.218C163.611 155.906 163.668 154.022 163.029 153.856C162.39 153.691 145.582 153.447 145.582 153.447C145.582 153.447 173.365 153.651 174.154 153.447C174.944 153.242 174.755 152.217 174.154 152.06C173.553 151.904 127.551 152.333 127.551 152.47C127.551 152.607 127.551 154.228 127.551 154.228C127.551 154.228 146.117 154.285 146.718 154.441C147.32 154.598 127.625 154.421 127.024 154.578C126.424 154.735 127.063 156.091 127.551 156.218Z" fill="white"/>
<path opacity="0.2" d="M198.661 178.22C197.871 178.424 170.924 178.376 170.324 178.22C169.723 178.063 168.896 176.97 169.347 176.853C169.798 176.736 197.045 176.687 197.684 176.853C198.322 177.02 198.661 178.22 198.661 178.22Z" fill="white"/>
<path opacity="0.5" d="M154.745 187.258C153.955 187.463 119.51 187.18 118.908 187.023C118.308 186.867 117.669 183.879 118.118 183.762C118.57 183.646 153.108 183.609 153.747 183.774C154.388 183.94 154.745 187.258 154.745 187.258Z" fill="white"/>
<path opacity="0.5" d="M156.796 189.437C156.008 189.642 129.06 189.594 128.459 189.437C127.858 189.281 127.031 188.188 127.481 188.071C127.932 187.954 155.181 187.904 155.818 188.071C156.459 188.236 156.796 189.437 156.796 189.437Z" fill="white"/>
<path opacity="0.5" d="M220.032 159.892C219.244 160.097 192.296 160.049 191.695 159.892C191.094 159.736 190.267 158.643 190.717 158.526C191.168 158.409 218.417 158.359 219.054 158.526C219.693 158.693 220.032 159.892 220.032 159.892Z" fill="white"/>
<path opacity="0.5" d="M235.041 164.166C234.251 164.371 219.846 164.186 219.244 164.029C218.643 163.873 217.816 162.779 218.267 162.663C218.718 162.546 233.726 162.389 234.365 162.556C235.003 162.722 235.041 164.166 235.041 164.166Z" fill="white"/>
<path opacity="0.2" d="M223.916 178.026C223.916 178.5 235.041 177.986 235.041 178.357C235.041 178.729 235.041 180.485 235.041 180.485C235.041 180.485 214.295 180.29 213.543 180.485C212.792 180.68 214.391 183.998 212.689 183.998C210.987 183.998 158.629 183.729 157.59 183.998C156.553 184.267 159.424 189.852 160.476 190.125C161.527 190.399 202.719 189.814 203.921 190.125C205.124 190.437 204.123 191.848 205.309 192.155C206.495 192.463 231.016 192.457 231.806 192.663C232.596 192.868 232.859 193.561 232.859 193.561L207.857 193.25V195.201L236.694 194.771C236.694 194.771 238.362 178.329 238.362 177.553C238.362 176.777 223.615 176.749 223.615 176.749L223.916 178.026Z" fill="white"/>
<path opacity="0.5" d="M200.239 190.829C200.929 191.009 201.781 195.777 202.269 195.904C202.757 196.03 235.267 195.689 236.093 195.904C236.92 196.119 237.447 201.408 236.093 201.408C234.739 201.408 175.198 201.018 175.198 200.549C175.198 200.081 175.198 195.777 175.198 195.777L192.308 195.63C192.308 195.63 176.862 195.415 176.862 195.2C176.862 194.986 177.558 192.146 177.558 191.971C177.558 191.796 145.969 192.293 145.969 191.971C145.969 191.649 145.293 191.004 145.969 190.829C146.645 190.654 199.3 190.585 200.239 190.829Z" fill="white"/>
<path opacity="0.5" d="M244.206 160.033C244.206 160.385 299.783 160.033 299.783 160.033C299.783 160.033 300.576 158.365 299.783 158.16C298.99 157.954 268.28 157.77 267.529 157.575C266.777 157.38 288.2 157.439 288.876 157.264C289.552 157.088 289.778 152.891 288.725 152.619C287.673 152.346 250.24 152.424 249.488 152.619C248.737 152.814 246.632 155.547 246.632 155.547C246.632 155.547 277.149 155.39 277.149 155.859C277.149 156.327 276.529 156.938 276.134 156.938C275.74 156.938 255.445 156.996 255.106 157.084C254.767 157.172 255.331 158.197 255.331 158.197C255.331 158.197 266.944 158.109 267.226 158.183C267.508 158.256 269.198 159.485 269.198 159.485C269.198 159.485 244.203 159.485 244.203 159.602C244.206 159.716 244.206 160.033 244.206 160.033Z" fill="white"/>
<path opacity="0.5" d="M258.677 198.772C258.677 199.123 314.252 198.772 314.252 198.772C314.252 198.772 315.045 197.103 314.252 196.899C313.46 196.692 282.75 196.509 281.998 196.314C281.247 196.119 302.669 196.177 303.345 196.002C304.021 195.827 304.248 191.629 303.194 191.357C302.143 191.084 264.709 191.162 263.957 191.357C263.206 191.552 261.101 194.285 261.101 194.285C261.101 194.285 291.619 194.129 291.619 194.597C291.619 195.065 290.998 195.676 290.604 195.676C290.209 195.676 269.914 195.734 269.575 195.822C269.237 195.911 269.8 196.934 269.8 196.934C269.8 196.934 281.413 196.846 281.695 196.92C281.977 196.992 283.668 198.222 283.668 198.222C283.668 198.222 258.673 198.222 258.673 198.339C258.673 198.456 258.677 198.772 258.677 198.772Z" fill="white"/>
<path opacity="0.2" d="M244.206 190.11C244.206 190.462 299.783 190.11 299.783 190.11C299.783 190.11 300.576 188.442 299.783 188.237C298.99 188.031 268.28 187.847 267.529 187.652C266.777 187.457 288.2 187.516 288.876 187.341C289.552 187.166 289.778 182.97 288.725 182.696C287.673 182.423 250.24 182.501 249.488 182.696C248.736 182.891 246.631 185.624 246.631 185.624C246.631 185.624 277.149 185.468 277.149 185.936C277.149 186.404 276.528 187.015 276.134 187.015C275.74 187.015 255.445 187.073 255.106 187.161C254.767 187.25 255.331 188.274 255.331 188.274C255.331 188.274 266.944 188.186 267.226 188.26C267.507 188.333 269.198 189.563 269.198 189.563C269.198 189.563 244.203 189.563 244.203 189.679C244.206 189.793 244.206 190.11 244.206 190.11Z" fill="white"/>
<path opacity="0.2" d="M298.798 156.965C299.474 157.14 334.803 157.18 335.63 156.965C336.457 156.75 338.785 152.814 338.011 152.611C337.237 152.411 311.877 151.968 311.877 151.968C311.877 151.968 329.767 151.93 329.767 151.616C329.767 151.303 330.12 148.42 328.749 148.064C327.379 147.708 297.295 147.634 297.295 148.064C297.295 148.495 298.798 156.965 298.798 156.965Z" fill="white"/>
<path opacity="0.2" d="M234.584 170.081C235.261 170.256 270.589 170.295 271.416 170.081C272.243 169.866 274.572 165.929 273.797 165.727C273.023 165.526 247.663 165.083 247.663 165.083C247.663 165.083 265.553 165.045 265.553 164.732C265.553 164.42 265.906 164.527 264.536 164.171C263.165 163.815 233.612 164.08 233.612 164.508C233.612 164.939 234.584 170.081 234.584 170.081Z" fill="white"/>
<path opacity="0.5" d="M316.365 195.938C317.041 196.113 352.37 196.153 353.197 195.938C354.023 195.723 356.352 191.786 355.578 191.584C354.803 191.382 329.444 190.941 329.444 190.941C329.444 190.941 347.334 190.902 347.334 190.589C347.334 190.277 347.687 190.384 346.316 190.028C344.945 189.672 315.393 189.937 315.393 190.366C315.393 190.797 316.365 195.938 316.365 195.938Z" fill="white"/>
<path opacity="0.5" d="M325.655 170.04C325.019 170.205 289.922 170.36 289.922 170.04C289.922 169.72 291.495 166.305 292.17 166.13C292.844 165.955 317.452 165.985 318.35 165.751C319.25 165.518 319.473 164.176 319.473 163.972C319.473 163.767 302.281 163.651 302.281 163.651C302.281 163.651 303.404 162.25 304.416 162.25C305.428 162.25 337.171 162.411 337.789 162.57C338.407 162.73 338.155 164.08 337.789 164.174C337.423 164.27 322.48 164.24 322.058 164.349C321.637 164.459 321.553 165.211 321.553 165.297C321.553 165.384 335.598 165.312 335.936 165.4C336.273 165.487 336.723 166.595 336.161 166.595C335.598 166.595 312.058 166.668 312.058 166.815C312.058 166.96 324.949 166.849 325.261 166.93C325.575 167.012 326.217 169.895 325.655 170.04Z" fill="white"/>
<path opacity="0.5" d="M237.643 163.098C236.2 163.472 290.455 163.449 291.808 163.098C293.162 162.746 292.598 161.233 291.808 161.03C291.018 160.825 242.424 160.776 240.921 160.776C239.417 160.775 237.643 163.098 237.643 163.098Z" fill="white"/>
<path opacity="0.5" d="M275.017 170.037C275.017 170.331 286.17 170.037 287.185 170.037C288.2 170.037 290.674 166.69 289.923 166.495C289.175 166.3 277.98 166.112 277.488 166.239C276.995 166.367 275.017 170.037 275.017 170.037Z" fill="white"/>
<path opacity="0.5" d="M244.455 194.83C244.455 195.123 258.486 195.055 259.501 195.055C260.516 195.055 260.112 191.483 259.362 191.289C258.613 191.094 247.419 190.906 246.926 191.034C246.434 191.161 244.455 194.83 244.455 194.83Z" fill="white"/>
<path opacity="0.5" d="M302.105 161.556C303.081 161.809 338.165 161.867 338.165 161.556C338.165 161.244 338.222 159.359 337.583 159.194C336.944 159.029 320.135 158.784 320.135 158.784C320.135 158.784 347.919 158.989 348.707 158.784C349.497 158.579 349.309 157.555 348.707 157.398C348.107 157.242 302.105 157.671 302.105 157.808C302.105 157.945 302.105 159.566 302.105 159.566C302.105 159.566 320.671 159.623 321.271 159.779C321.873 159.936 302.179 159.759 301.578 159.916C300.977 160.073 301.616 161.429 302.105 161.556Z" fill="white"/>
<path opacity="0.2" d="M316.086 165.421C315.296 165.626 288.349 165.577 287.749 165.421C287.148 165.264 286.321 164.171 286.772 164.054C287.224 163.938 314.471 163.888 315.11 164.054C315.747 164.219 316.086 165.421 316.086 165.421Z" fill="white"/>
<path opacity="0.5" d="M272.17 174.457C271.38 174.662 236.936 174.379 236.334 174.222C235.731 174.066 235.094 171.078 235.544 170.962C235.995 170.845 270.533 170.808 271.172 170.973C271.813 171.139 272.17 174.457 272.17 174.457Z" fill="white"/>
<path opacity="0.5" d="M274.223 176.638C273.433 176.842 246.486 176.794 245.886 176.638C245.283 176.481 244.458 175.388 244.908 175.271C245.359 175.154 272.606 175.105 273.245 175.271C273.884 175.438 274.223 176.638 274.223 176.638Z" fill="white"/>
<path opacity="0.2" d="M341.342 165.224C341.342 165.698 352.466 165.184 352.466 165.555C352.466 165.927 352.466 167.683 352.466 167.683C352.466 167.683 331.72 167.488 330.968 167.683C330.217 167.878 331.817 171.196 330.114 171.196C328.412 171.196 276.055 170.927 275.016 171.196C273.978 171.465 276.848 177.051 277.901 177.325C278.953 177.598 320.144 177.013 321.347 177.325C322.549 177.636 321.549 179.047 322.734 179.354C323.92 179.662 348.441 179.656 349.231 179.863C350.021 180.067 350.284 180.761 350.284 180.761L325.282 180.449V182.4L354.119 181.97C354.119 181.97 355.787 165.528 355.787 164.752C355.787 163.977 341.04 163.948 341.04 163.948L341.342 165.224Z" fill="white"/>
<path opacity="0.5" d="M317.664 178.028C318.356 178.207 319.206 182.976 319.694 183.102C320.182 183.229 352.692 182.887 353.518 183.102C354.345 183.317 354.871 188.606 353.518 188.606C352.164 188.606 292.623 188.216 292.623 187.748C292.623 187.28 292.623 182.976 292.623 182.976L309.733 182.829C309.733 182.829 294.286 182.614 294.286 182.399C294.286 182.184 294.982 179.345 294.982 179.17C294.982 178.995 263.394 179.491 263.394 179.17C263.394 178.848 262.718 178.203 263.394 178.028C264.071 177.853 316.725 177.785 317.664 178.028Z" fill="white"/>
</g>
</g>
</g>
<mask id="mask14_10194_66760" style="mask-type:luminance" maskUnits="userSpaceOnUse" x="-305" y="-229" width="854" height="570">
<path d="M549 -228.624H-305V340.709H549V-228.624Z" fill="white"/>
</mask>
<g mask="url(#mask14_10194_66760)">
<path d="M-66.5731 340.71L223.502 153.057L222.939 152.98L-93.1923 340.71H-66.5731Z" fill="url(#paint10_linear_10194_66760)"/>
</g>
<mask id="mask15_10194_66760" style="mask-type:luminance" maskUnits="userSpaceOnUse" x="-305" y="-229" width="854" height="570">
<path d="M549 -228.624H-305V340.709H549V-228.624Z" fill="white"/>
</mask>
<g mask="url(#mask15_10194_66760)">
<path d="M315.975 340.707L240.579 153.141L240.194 153.138L298.789 340.707H315.975Z" fill="url(#paint11_linear_10194_66760)"/>
</g>
<mask id="mask16_10194_66760" style="mask-type:luminance" maskUnits="userSpaceOnUse" x="-305" y="-229" width="854" height="570">
<path d="M549 -228.624H-305V340.709H549V-228.624Z" fill="white"/>
</mask>
<g mask="url(#mask16_10194_66760)">
<path d="M-309.498 280.455L209.948 153.007H210.333L-308.409 285.673L-309.498 280.455Z" fill="url(#paint12_linear_10194_66760)"/>
</g>
<mask id="mask17_10194_66760" style="mask-type:luminance" maskUnits="userSpaceOnUse" x="-305" y="-229" width="854" height="570">
<path d="M549 -228.624H-305V340.709H549V-228.624Z" fill="white"/>
</mask>
<g mask="url(#mask17_10194_66760)">
<path d="M35.4471 153.074H-305.014L-304.972 130.913L-289.173 145.146L-275.964 141.346L-223.742 149.886L-214.633 144.036L-183.547 138.499L-174.58 128.009L-105.762 120.167L-77.4375 103.87L-33.7554 99.9697L-3.595 130.443L9.215 133.76L35.2051 151.978V152.021L35.4328 153.003L35.4471 153.074Z" fill="url(#paint13_linear_10194_66760)"/>
<path d="M201.593 150.709L204.505 153.556L40.6421 153.221L40.6734 153.127L40.7745 152.825L40.7816 152.787L70.9079 147.609L111.84 149.422L147.608 137.409L159.715 141.672L196.268 149.422L201.593 150.709Z" fill="url(#paint14_linear_10194_66760)"/>
<path opacity="0.5" d="M147.61 137.403L150.825 140.375L145.659 144.379L123.598 147.082L111.84 149.418L147.61 137.403Z" fill="white"/>
<path opacity="0.5" d="M79.5191 149.809V152.134L40.6735 153.126L40.7745 152.824L40.7816 152.786L70.9079 147.607L73.3802 148.244L79.5191 149.809Z" fill="white"/>
<path opacity="0.5" d="M9.21778 133.759L-11.0818 138.029L-3.59078 130.437L9.21778 133.759Z" fill="white"/>
<path opacity="0.5" d="M161.964 149.807L175.435 147.084L171.172 150.395L161.964 149.807Z" fill="white"/>
<path opacity="0.3" d="M150.825 140.375L157.607 144.379L154.217 148.706L132.32 153.393L204.052 153.286L201.593 150.709L159.714 141.666L147.61 137.403L150.825 140.375Z" fill="#CD6870"/>
<path opacity="0.3" d="M111.84 149.419L115.431 151.163L78.7447 153.18L79.519 152.132V149.807L70.905 147.61L111.84 149.419Z" fill="#CD6870"/>
<path opacity="0.3" d="M35.4328 153.003L-90.3187 153.074L-88.4115 141.531L-58.2937 138.03L-81.2236 134.229L-64.4568 111.57L-40.986 102.703L-33.7554 99.9697L-3.59503 130.443L9.21497 133.76L35.205 151.978V152.021L35.4328 153.003Z" fill="#CD6870"/>
<path opacity="0.4" d="M196.268 149.422L160.172 142.153L147.725 138.185L113.158 150.058L73.3803 148.245L70.9079 148.128L40.7745 152.825L40.7817 152.787L70.9079 147.609L111.84 149.422L147.609 137.409L159.715 141.672L196.268 149.422Z" fill="url(#paint15_linear_10194_66760)"/>
<path opacity="0.4" d="M35.2051 151.978V152.021L8.90186 134.229L-3.90814 130.97L-34.9226 102.318L-40.986 102.703L-77.4375 104.994L-105.378 121.419L-174.295 128.778L-183.063 139.453L-214.633 145.26L-223.742 151.082L-275.964 141.346L-223.742 149.886L-214.633 144.036L-183.547 138.499L-174.58 128.009L-105.762 120.167L-77.4375 103.87L-33.7554 99.9697L-3.595 130.443L9.215 133.76L35.2051 151.978Z" fill="url(#paint16_linear_10194_66760)"/>
</g>
<mask id="mask18_10194_66760" style="mask-type:luminance" maskUnits="userSpaceOnUse" x="-305" y="-229" width="854" height="570">
<path d="M549 -228.624H-305V340.709H549V-228.624Z" fill="white"/>
</mask>
<g mask="url(#mask18_10194_66760)">
<path d="M-172.008 170.663L-155.6 156.016L-135.23 154.584L-127.358 159.339L-110.361 165.192L-76.7571 161.55L-69.8938 164.281L-39.6252 164.405L-30.4945 167.98H24.7608L32.9236 170.682L-172.008 170.663Z" fill="url(#paint17_linear_10194_66760)"/>
<path opacity="0.3" d="M86.5732 170.85C86.5732 171.526 20.9434 172.075 -60.0173 172.075C-140.978 172.075 -206.608 171.527 -206.608 170.85C-206.608 170.172 -140.978 169.624 -60.0173 169.624C20.9434 169.624 86.5732 170.173 86.5732 170.85Z" fill="#D97EA4"/>
<path opacity="0.2" d="M29.0464 169.627L24.7607 167.98H-30.4945L-39.6252 164.405L-69.8938 164.281L-76.7571 161.55L-110.361 165.192L-127.358 159.339L-135.231 154.584L-155.6 156.016L-168.588 166.967L-155.6 156.487L-135.936 156.476L-127.159 160.078L-110.829 165.891L-76.992 162.128L-69.8938 164.281L-39.6252 164.903L-30.2241 168.138L24.7607 168.345L29.0464 169.627Z" fill="url(#paint18_linear_10194_66760)"/>
</g>
<mask id="mask19_10194_66760" style="mask-type:luminance" maskUnits="userSpaceOnUse" x="-305" y="-229" width="854" height="570">
<path d="M549 -228.624H-305V340.709H549V-228.624Z" fill="white"/>
</mask>
<g mask="url(#mask19_10194_66760)">
<path d="M-309.498 272.104L131.333 170.492L188.166 157.513C188.166 157.513 148.353 162.708 148.08 164.413C147.806 166.12 129.838 169.837 128.96 169.696C128.082 169.556 118.534 170.667 117.854 171.16C117.175 171.651 115.858 172.552 115.552 172.772C115.246 172.993 111.867 172.902 111.529 173.148C111.188 173.394 110.092 174.24 110.092 174.24C110.092 174.24 97.6283 175.185 96.676 175.872C95.7253 176.561 82.4228 179.923 79.3541 180.512C76.2868 181.102 5.47737 190.621 3.71101 191.899C1.94466 193.177 0.165482 197.157 -0.853622 197.894C-1.87273 198.631 -20.2822 196.942 -27.0757 198.855C-33.8693 200.769 -38.636 205.771 -41.9296 206.084C-45.2232 206.397 -182.156 221.321 -191.261 227.909C-200.367 234.498 -214.439 245.095 -219.357 244.306C-224.276 243.518 -288.817 250.468 -304.896 254.857C-320.976 259.247 -334.45 251.752 -334.45 251.752L-309.498 272.104Z" fill="url(#paint19_linear_10194_66760)"/>
</g>
<mask id="mask20_10194_66760" style="mask-type:luminance" maskUnits="userSpaceOnUse" x="-305" y="-229" width="854" height="570">
<path d="M549 -228.624H-305V340.709H549V-228.624Z" fill="white"/>
</mask>
<g mask="url(#mask20_10194_66760)">
<path d="M243.638 154.729C243.638 154.729 251.966 164.689 251.966 165.876C251.966 167.062 252.799 173 253.627 173.828C254.455 174.657 262.879 186.396 262.879 186.396C262.879 186.396 262.167 189.481 262.879 190.192C263.59 190.904 264.42 191.616 265.37 192.565C266.319 193.514 268.09 202.712 269.439 204.063C270.788 205.412 293.599 238.053 296.445 245.348C299.292 252.643 303.975 271.802 305.842 273.669C307.709 275.534 353.939 340.708 353.939 340.708H340.904L243.638 154.729Z" fill="url(#paint20_linear_10194_66760)"/>
</g>
<mask id="mask21_10194_66760" style="mask-type:luminance" maskUnits="userSpaceOnUse" x="-305" y="-229" width="854" height="570">
<path d="M549 -228.624H-305V340.709H549V-228.624Z" fill="white"/>
</mask>
<g mask="url(#mask21_10194_66760)">
<path d="M329.347 186.715L336.679 181.369L353.078 181.688L358.542 177.246L385.841 175.074L389.805 171.167L408.133 163.276L427.704 161.427L438.134 169.071L458.678 168.77L470.192 178.929L478.588 180.973L488.06 186.882L521.948 187.808L523.678 191.54H295.339L329.347 186.715Z" fill="url(#paint21_linear_10194_66760)"/>
<path opacity="0.2" d="M295.339 191.54L329.347 186.715L336.679 181.369L353.078 181.688L358.542 177.246L385.841 175.074L389.805 171.167L408.133 163.276L427.704 161.427L438.134 169.071L458.678 168.77L470.192 178.929L478.588 180.973L488.06 186.882L521.948 187.808L486.903 187.222L478.588 181.581L470.192 178.929L458.506 170.082L438.134 169.071L428.038 162.123L408.644 163.794L389.805 171.167L385.841 175.074L358.542 177.893L353.078 181.688L337.276 182.623L329.343 187.413L295.339 191.54Z" fill="url(#paint22_linear_10194_66760)"/>
</g>
<mask id="mask22_10194_66760" style="mask-type:luminance" maskUnits="userSpaceOnUse" x="-305" y="-229" width="854" height="570">
<path d="M549 -228.624H-305V340.709H549V-228.624Z" fill="white"/>
</mask>
<g mask="url(#mask22_10194_66760)">
<path opacity="0.57" d="M203.923 192.075C203.923 192.885 152.116 193.541 88.21 193.541C24.3038 193.541 -27.5027 192.885 -27.5027 192.075C-27.5027 191.266 24.3038 190.609 88.21 190.609C152.116 190.609 203.923 191.266 203.923 192.075Z" fill="#C8618E"/>
</g>
<mask id="mask23_10194_66760" style="mask-type:luminance" maskUnits="userSpaceOnUse" x="-305" y="-229" width="854" height="570">
<path d="M549 -228.624H-305V340.709H549V-228.624Z" fill="white"/>
</mask>
<g mask="url(#mask23_10194_66760)">
<path opacity="0.57" d="M169.522 166.429C197.723 166.429 220.584 166.14 220.584 165.783C220.584 165.426 197.723 165.137 169.522 165.137C141.321 165.137 118.46 165.426 118.46 165.783C118.46 166.14 141.321 166.429 169.522 166.429Z" fill="#C8618E"/>
</g>
<mask id="mask24_10194_66760" style="mask-type:luminance" maskUnits="userSpaceOnUse" x="-305" y="-229" width="854" height="570">
<path d="M549 -228.624H-305V340.709H549V-228.624Z" fill="white"/>
</mask>
<g mask="url(#mask24_10194_66760)">
<path opacity="0.57" d="M238.126 154.73C238.126 154.895 227.594 155.028 214.602 155.028C201.611 155.028 191.079 154.894 191.079 154.73C191.079 154.565 201.61 154.433 214.602 154.433C227.594 154.433 238.126 154.565 238.126 154.73Z" fill="#C8618E"/>
</g>
<mask id="mask25_10194_66760" style="mask-type:luminance" maskUnits="userSpaceOnUse" x="-305" y="-229" width="854" height="570">
<path d="M549 -228.624H-305V340.709H549V-228.624Z" fill="white"/>
</mask>
<g mask="url(#mask25_10194_66760)">
<path d="M321.722 253.636L315.915 132.595L315.077 131.146L316.14 254.061L321.722 253.636Z" fill="url(#paint23_linear_10194_66760)"/>
<path d="M344.491 135.985L314.268 87.6045L313.102 87.6927L288.625 137.79L344.491 135.985Z" fill="url(#paint24_linear_10194_66760)"/>
<path d="M342.695 136.094L313.102 87.6924L287.46 137.879L342.695 136.094Z" fill="url(#paint25_linear_10194_66760)"/>
<path d="M337.286 133.983L312.364 95.6113L291.659 136.107L337.286 133.983Z" fill="url(#paint26_linear_10194_66760)"/>
<path opacity="0.57" d="M315.145 139.087L315.975 140.731L320.431 253.736L321.722 253.638L316.124 136.953L315.126 136.986L315.145 139.087Z" fill="#C8618E"/>
</g>
<mask id="mask26_10194_66760" style="mask-type:luminance" maskUnits="userSpaceOnUse" x="-305" y="-229" width="854" height="570">
<path d="M549 -228.624H-305V340.709H549V-228.624Z" fill="white"/>
</mask>
<g mask="url(#mask26_10194_66760)">
</g>
<mask id="mask27_10194_66760" style="mask-type:luminance" maskUnits="userSpaceOnUse" x="-305" y="-229" width="854" height="570">
<path d="M549 -228.624H-305V340.709H549V-228.624Z" fill="white"/>
</mask>
<g mask="url(#mask27_10194_66760)">
<path d="M123.046 165.935L124.749 50.8255L125.517 50.7686L126.094 165.838L123.046 165.935Z" fill="url(#paint27_linear_10194_66760)"/>
<path d="M125.517 50.7686H126.093L127.365 165.528L126.093 165.838L125.517 50.7686Z" fill="url(#paint28_linear_10194_66760)"/>
<path d="M117.458 55.293L135.034 53.6618L136.531 50.4721L137.183 50.3369L136.531 55.293L116.448 57.0422V51.9239L117.323 52.2997L117.458 55.293Z" fill="url(#paint29_linear_10194_66760)"/>
<path d="M137.183 50.3369L138.047 50.7682V55.125L136.531 55.293L137.183 50.3369Z" fill="url(#paint30_linear_10194_66760)"/>
</g>
<mask id="mask28_10194_66760" style="mask-type:luminance" maskUnits="userSpaceOnUse" x="-305" y="-229" width="854" height="570">
<path d="M549 -228.624H-305V340.709H549V-228.624Z" fill="white"/>
</mask>
<g mask="url(#mask28_10194_66760)">
<path d="M191.08 154.728L192.037 90.063L192.468 90.0303L192.791 154.674L191.08 154.728Z" fill="url(#paint31_linear_10194_66760)"/>
<path d="M192.468 90.0303H192.791L193.505 154.499L192.791 154.674L192.468 90.0303Z" fill="url(#paint32_linear_10194_66760)"/>
<path d="M187.94 92.5721L197.814 91.6555L198.655 89.8635L199.021 89.7881L198.655 92.5721L187.372 93.5542V90.6791L187.865 90.8912L187.94 92.5721Z" fill="url(#paint33_linear_10194_66760)"/>
<path d="M199.021 89.7881L199.506 90.0301V92.4768L198.655 92.5721L199.021 89.7881Z" fill="url(#paint34_linear_10194_66760)"/>
</g>
<mask id="mask29_10194_66760" style="mask-type:luminance" maskUnits="userSpaceOnUse" x="-305" y="-229" width="854" height="570">
<path d="M549 -228.624H-305V340.709H549V-228.624Z" fill="white"/>
</mask>
<g mask="url(#mask29_10194_66760)">
<path d="M127.922 61.6057V61.1588C127.922 61.1588 135.068 59.6984 139.646 59.1689V59.8365C139.646 59.8365 131.956 60.9979 127.922 61.6057Z" fill="url(#paint35_linear_10194_66760)"/>
<path d="M139.646 59.1709L141.757 60.3523L141.823 61.0255L139.646 59.8385V59.1709Z" fill="#2C1935"/>
<path d="M141.823 61.025L128.661 62.4796L127.922 61.6057L139.646 59.8379L141.823 61.025Z" fill="url(#paint36_linear_10194_66760)"/>
<path d="M127.922 61.6045C127.922 61.6045 126.044 62.4941 125.517 64.2448L126.176 64.3458C126.176 64.3458 127.448 62.4542 128.459 62.2379L127.922 61.6045Z" fill="url(#paint37_linear_10194_66760)"/>
</g>
<mask id="mask30_10194_66760" style="mask-type:luminance" maskUnits="userSpaceOnUse" x="-305" y="-229" width="854" height="570">
<path d="M549 -228.624H-305V340.709H549V-228.624Z" fill="white"/>
</mask>
<g mask="url(#mask30_10194_66760)">
<path d="M193.823 95.7671V95.5152C193.823 95.5152 197.851 94.6925 200.433 94.3936V94.7707C200.433 94.7707 196.097 95.4241 193.823 95.7671Z" fill="url(#paint38_linear_10194_66760)"/>
<path d="M200.433 94.3936L201.623 95.0597L201.66 95.4397L200.433 94.7707V94.3936Z" fill="#2C1935"/>
<path d="M201.66 95.4395L194.24 96.2593L193.823 95.7669L200.433 94.7705L201.66 95.4395Z" fill="url(#paint39_linear_10194_66760)"/>
<path d="M193.823 95.7656C193.823 95.7656 192.764 96.2666 192.466 97.2544L192.838 97.3114C192.838 97.3114 193.555 96.2453 194.125 96.1229L193.823 95.7656Z" fill="url(#paint40_linear_10194_66760)"/>
</g>
<mask id="mask31_10194_66760" style="mask-type:luminance" maskUnits="userSpaceOnUse" x="-305" y="-229" width="854" height="570">
<path d="M549 -228.624H-305V340.709H549V-228.624Z" fill="white"/>
</mask>
<g mask="url(#mask31_10194_66760)">
<path d="M217.618 118.266V118.114C217.618 118.114 220.043 117.619 221.598 117.439V117.666C221.598 117.666 218.987 118.06 217.618 118.266Z" fill="url(#paint41_linear_10194_66760)"/>
<path d="M221.598 117.439L222.314 117.841L222.336 118.07L221.598 117.666V117.439Z" fill="#2C1935"/>
<path d="M222.336 118.07L217.869 118.563L217.618 118.267L221.598 117.666L222.336 118.07Z" fill="url(#paint42_linear_10194_66760)"/>
<path d="M217.618 118.269C217.618 118.269 216.98 118.57 216.801 119.165L217.025 119.199C217.025 119.199 217.456 118.557 217.799 118.483L217.618 118.269Z" fill="url(#paint43_linear_10194_66760)"/>
</g>
<mask id="mask32_10194_66760" style="mask-type:luminance" maskUnits="userSpaceOnUse" x="-305" y="-229" width="854" height="570">
<path d="M549 -228.624H-305V340.709H549V-228.624Z" fill="white"/>
</mask>
<g mask="url(#mask32_10194_66760)">
<path opacity="0.2" d="M284.997 176.933C295.933 176.933 304.799 176.677 304.799 176.362C304.799 176.047 295.933 175.791 284.997 175.791C274.061 175.791 265.196 176.047 265.196 176.362C265.196 176.677 274.061 176.933 284.997 176.933Z" fill="#6F0066"/>
<path d="M294.461 176.428L270.545 176.281C270.545 176.281 271.254 175.958 272.325 175.468C272.325 175.468 272.325 175.468 272.334 175.468C275.424 174.069 281.52 169.409 282.583 169.409C283.101 169.409 284.774 170.065 286.718 170.897C290.171 172.395 294.461 176.428 294.461 176.428Z" fill="url(#paint44_linear_10194_66760)"/>
<path opacity="0.57" d="M286.718 170.898C286.718 170.898 284.465 173.913 283.711 174.196C282.966 174.479 272.752 175.43 272.334 175.468C275.424 174.069 281.52 169.409 282.583 169.409C283.101 169.409 284.774 170.065 286.718 170.898Z" fill="#FFED7F"/>
</g>
<mask id="mask33_10194_66760" style="mask-type:luminance" maskUnits="userSpaceOnUse" x="-305" y="-229" width="854" height="570">
<path d="M549 -228.624H-305V340.709H549V-228.624Z" fill="white"/>
</mask>
<g mask="url(#mask33_10194_66760)">
<path opacity="0.45" d="M3.71387 191.896L4.55078 199.191L18.434 195.968L16.8427 189.505L3.71387 191.896Z" fill="#D97EA4"/>
</g>
<mask id="mask34_10194_66760" style="mask-type:luminance" maskUnits="userSpaceOnUse" x="-305" y="-229" width="854" height="570">
<path d="M549 -228.624H-305V340.709H549V-228.624Z" fill="white"/>
</mask>
<g mask="url(#mask34_10194_66760)">
<path d="M-324.369 -257.532L-260.273 -176.166L-244.249 -155.824L-240.243 -150.738C-238.883 -149.044 -237.632 -147.319 -236.158 -145.749C-233.278 -142.548 -230.318 -139.413 -227.319 -136.318C-215.296 -123.96 -202.594 -112.251 -189.299 -101.267C-175.998 -90.292 -162.082 -80.0454 -147.48 -70.8663C-132.872 -61.7157 -117.568 -53.6098 -101.507 -47.323C-93.4898 -44.1603 -85.2686 -41.5072 -76.9037 -39.4334C-68.5416 -37.3554 -60.0229 -35.8723 -51.4289 -35.2147C-34.2606 -33.7743 -16.7764 -35.7313 -0.462158 -41.3478L-0.334045 -41.3919L-0.257202 -41.2809L-0.255768 -41.2795C8.07785 -29.5996 17.1872 -18.4677 26.7819 -7.797C36.4036 2.85095 46.6004 13.0022 57.59 22.2354C68.5824 31.4315 80.3846 39.805 93.3555 45.9623C99.8501 48.9812 106.624 51.482 113.655 52.8811C120.669 54.2917 127.932 54.6361 135.005 53.4832L135.105 53.4661L135.172 53.5458C139.22 58.3425 143.64 62.8359 148.265 67.0874C152.908 71.3204 157.783 75.31 162.976 78.8456C165.565 80.6233 168.231 82.29 170.988 83.7917C173.74 85.3018 176.564 86.6867 179.49 87.8183C185.309 90.144 191.536 91.5531 197.81 91.4791L197.909 91.4777L197.963 91.5616C200.954 96.0907 204.348 100.365 207.937 104.447C211.532 108.528 215.389 112.379 219.471 115.976L219.377 116.084C215.267 112.509 211.378 108.677 207.75 104.612C204.126 100.543 200.702 96.2914 197.663 91.7524L197.817 91.8349C191.483 91.9089 185.21 90.487 179.36 88.1485C176.417 87.0113 173.58 85.6178 170.818 84.102C168.049 82.5946 165.372 80.9222 162.776 79.1388C157.565 75.5919 152.679 71.5909 148.024 67.3493C143.387 63.0864 138.963 58.5916 134.895 53.7707L135.062 53.8333C127.941 54.9948 120.632 54.6475 113.584 53.2299C106.517 51.8222 99.7178 49.3128 93.2032 46.284C80.1925 40.1081 68.3688 31.7176 57.3608 22.5086C46.3542 13.2626 36.1474 3.10004 26.5172 -7.55789C16.9111 -18.24 7.80029 -29.3747 -0.548981 -41.076L-0.550385 -41.0788L-0.345428 -41.0119C-16.691 -35.3285 -34.235 -33.3131 -51.4687 -34.708C-60.0956 -35.3428 -68.6484 -36.8045 -77.0432 -38.8655C-85.4423 -40.9208 -93.6962 -43.5582 -101.747 -46.7066C-117.873 -52.9636 -133.241 -61.0467 -147.911 -70.176C-162.574 -79.3337 -176.551 -89.5604 -189.912 -100.52C-203.269 -111.49 -216.029 -123.182 -228.119 -135.537C-231.135 -138.633 -234.112 -141.767 -237.015 -144.975C-238.505 -146.551 -239.799 -148.321 -241.142 -149.991L-245.159 -155.069L-261.225 -175.387L-325.485 -256.65L-324.369 -257.532Z" fill="#5C4079"/>
</g>
<mask id="mask35_10194_66760" style="mask-type:luminance" maskUnits="userSpaceOnUse" x="-305" y="-229" width="854" height="570">
<path d="M549 -228.624H-305V340.709H549V-228.624Z" fill="white"/>
</mask>
<g mask="url(#mask35_10194_66760)">
<path d="M278.9 67.5693L316.978 69.4808C316.978 69.4808 287.013 49.7207 278.9 67.5693Z" fill="#C1FFFF"/>
</g>
<mask id="mask36_10194_66760" style="mask-type:luminance" maskUnits="userSpaceOnUse" x="-305" y="-229" width="854" height="570">
<path d="M549 -228.624H-305V340.709H549V-228.624Z" fill="white"/>
</mask>
<g mask="url(#mask36_10194_66760)">
<path d="M450.861 19.0511L243.083 -1.38794C243.026 -1.40217 242.969 -1.40216 242.912 -1.40216L234.102 -2.2704C233.575 -2.32733 233.305 -2.3558 233.305 -2.3558C233.305 -2.3558 240.649 -18.596 255.381 -19.1084C270.14 -19.6208 280.46 -8.2057 284.758 -2.3558H284.772C286.238 -0.348896 287.007 1.00327 287.007 1.00327C287.007 1.00327 287.647 0.0780983 288.8 -1.51604C296.074 -11.5648 324.056 -48.0021 344.467 -44.4011C356.323 -42.323 356.195 -21.9124 354.687 -8.13453C353.918 -0.918224 352.765 4.47621 352.765 4.47621C352.765 4.47621 355.484 0.789761 359.924 -3.40907C365.475 -8.66117 373.731 -14.7388 382.698 -15.3651C390.142 -15.8917 396.49 -5.97105 400.418 2.14194C403.08 7.65025 404.617 12.333 404.617 12.333C404.617 12.333 419.548 8.50424 430.934 11.1232C442.321 13.7279 450.861 19.0511 450.861 19.0511Z" fill="#C1FFFF"/>
<path d="M284.758 -2.3547C276.816 0.862038 255.651 -0.31934 243.083 -1.38684C243.026 -1.40107 242.969 -1.40107 242.912 -1.40107C238.713 -1.77113 235.511 -2.11273 234.102 -2.2693C233.575 -2.32623 233.305 -2.3547 233.305 -2.3547C233.305 -2.3547 240.649 -18.5949 255.381 -19.1073C270.14 -19.6197 280.46 -8.2046 284.758 -2.3547Z" fill="#E2FFFF"/>
<path d="M354.687 -8.13452C344.495 7.86375 302.123 1.07444 288.8 -1.51603C296.074 -11.5648 324.056 -48.0021 344.467 -44.4011C356.323 -42.323 356.195 -21.9124 354.687 -8.13452Z" fill="#E2FFFF"/>
</g>
<mask id="mask37_10194_66760" style="mask-type:luminance" maskUnits="userSpaceOnUse" x="-317" y="-217" width="854" height="570">
<path d="M537 -216.624H-317V352.709H537V-216.624Z" fill="white"/>
</mask>
<g mask="url(#mask37_10194_66760)">
<path d="M-73.3666 215.752C-53.2378 209.761 -44.2267 204.438 -33.0763 197.905L-29.0753 160.112L0.419029 164.741C6.89377 175.652 11.2221 184.969 13.6461 194.306C17.8819 206.855 15.7782 207.655 13.804 219.329C13.804 219.329 -63.5883 260.715 -66.4791 260.715L-73.3666 215.752Z" fill="#193680"/>
<path d="M10.3166 190.276C9.9579 190.634 -0.523532 192.756 -0.855169 192.439C-1.08006 192.214 -2.52616 186.004 -3.87975 179.794C-5.25896 173.426 -6.52003 167.057 -6.2681 167.057C-5.77705 167.057 0.976668 170.161 2.07833 171.263C2.51672 171.7 4.00268 174.818 5.59396 178.415C7.94246 183.721 10.5287 190.063 10.3166 190.276Z" fill="#1D1F52"/>
<path opacity="0.5" d="M5.59396 178.414L-3.87975 179.793C-5.25896 173.425 -6.52003 167.056 -6.2681 167.056C-5.77705 167.056 0.976667 170.16 2.07833 171.262C2.51529 171.7 4.00125 174.818 5.59396 178.414Z" fill="#FFE5BA"/>
</g>
</g>
<mask id="mask38_10194_66760" style="mask-type:luminance" maskUnits="userSpaceOnUse" x="-305" y="-229" width="854" height="570">
<path d="M549 -228.626H-305V340.707H549V-228.626Z" fill="white"/>
</mask>
<g mask="url(#mask38_10194_66760)">
<path opacity="0.57" d="M227.802 184.574C245.837 184.574 260.458 183.088 260.458 181.255C260.458 179.422 245.837 177.936 227.802 177.936C209.767 177.936 195.147 179.422 195.147 181.255C195.147 183.088 209.767 184.574 227.802 184.574Z" fill="#A2618E"/>
<path d="M201.122 161.534L209.09 148.461H236.901L241.426 161.534H201.122Z" fill="#C50045"/>
<path d="M197.238 167.788L198.763 182.067H206.451L206.577 167.855L197.238 167.788Z" fill="url(#paint45_linear_10194_66760)"/>
<path d="M246.085 167.788L245.141 182.067H237.454L236.744 167.855L246.085 167.788Z" fill="url(#paint46_linear_10194_66760)"/>
<path d="M247.135 172.068H239.282L238.638 166.524L246.496 166.728L247.135 172.068Z" fill="#990034"/>
<path d="M202.975 165.771L196.702 166.012V171.919H202.266L202.975 165.771Z" fill="#990034"/>
<path d="M246.496 166.727L244.215 164.321L238.382 164.331L238.638 166.523L246.496 166.727Z" fill="#C5004F"/>
<path d="M202.975 165.77L203.187 163.939L198.624 164.197L196.702 166.012L202.975 165.77Z" fill="#C5004F"/>
<path d="M200.863 174.326L201.122 161.534H241.426L240.867 173.923L200.863 174.326Z" fill="#990034"/>
<path d="M203.673 160.217C203.673 160.217 229.838 161.612 239.804 160.7C239.804 160.7 237.895 152.866 236.402 149.396C236.402 149.396 218.753 148.465 209.09 149.494C209.09 149.494 204.34 158.041 203.673 160.217Z" fill="#1D1F52"/>
<path d="M209.09 148.462L211.082 147.363L236.208 146.993L236.902 148.462H209.09Z" fill="#F94743"/>
<path d="M200.268 170.448L200.863 174.926H240.88L241.94 170.448H200.268Z" fill="#252758"/>
<path d="M201.122 162.714L205.987 164.322V167.261L201.031 167.797L201.122 162.714Z" fill="#D63E43"/>
<path d="M241.358 163.063L236.473 164.261V167.257L241.133 168.042L241.358 163.063Z" fill="#D63E43"/>
<path d="M236.473 164.261L237.269 164.709L241.304 164.261L241.358 163.063L236.473 164.261Z" fill="#F96D43"/>
<path d="M201.122 162.714L201.031 164.112L205.318 164.564L205.987 164.322L201.122 162.714Z" fill="#F96D43"/>
<path d="M210.828 170.448L211.737 174.926H229.692L230.645 170.448H210.828Z" fill="#7F85AA"/>
<path d="M200.268 170.448L200.402 171.45H241.703L241.94 170.448H200.268Z" fill="#40426D"/>
<path opacity="0.5" d="M209.09 148.461L205.987 153.551L240.144 157.826L236.902 148.461H209.09Z" fill="#FFE5BA"/>
<path opacity="0.3" d="M231.069 160.715C231.069 165.594 227.486 169.549 223.065 169.549C218.645 169.549 215.062 165.594 215.062 160.715C215.062 155.835 218.645 151.88 223.065 151.88C227.486 151.88 231.069 155.835 231.069 160.715Z" fill="#571F52"/>
<path d="M220.737 168.412C225.157 168.412 228.74 164.457 228.74 159.578C228.74 154.699 225.157 150.743 220.737 150.743C216.317 150.743 212.733 154.699 212.733 159.578C212.733 164.457 216.317 168.412 220.737 168.412Z" fill="url(#paint47_linear_10194_66760)"/>
<path d="M227.802 158.192C227.802 162.258 224.638 165.553 220.735 165.553C216.833 165.553 213.669 162.257 213.669 158.192C213.669 154.127 216.833 150.83 220.735 150.83C224.638 150.83 227.802 154.127 227.802 158.192Z" fill="#252758"/>
<path d="M225.85 158.474C225.85 161.416 223.561 163.802 220.737 163.802C217.913 163.802 215.624 161.416 215.624 158.474C215.624 155.532 217.913 153.146 220.737 153.146C223.561 153.146 225.85 155.532 225.85 158.474Z" fill="url(#paint48_linear_10194_66760)"/>
<path d="M224.288 159.575C224.288 161.618 222.698 163.274 220.737 163.274C218.776 163.274 217.186 161.618 217.186 159.575C217.186 157.531 218.776 155.876 220.737 155.876C222.698 155.876 224.288 157.531 224.288 159.575Z" fill="#606795"/>
<path d="M222.499 157.571C222.499 158.211 221.709 158.729 220.737 158.729C219.765 158.729 218.975 158.21 218.975 157.571C218.975 156.93 219.763 156.412 220.737 156.412C221.71 156.412 222.499 156.93 222.499 157.571Z" fill="#7F85AA"/>
<path d="M221.736 161.792C221.736 162.192 221.288 162.516 220.735 162.516C220.183 162.516 219.735 162.192 219.735 161.792C219.735 161.392 220.183 161.067 220.735 161.067C221.288 161.067 221.736 161.392 221.736 161.792Z" fill="#7F85AA"/>
</g>
</g>
<defs>
<linearGradient id="paint0_linear_10194_66760" x1="121.993" y1="178.223" x2="121.993" y2="-228.624" gradientUnits="userSpaceOnUse">
<stop offset="0.0754" stop-color="#FFFFD6"/>
<stop offset="0.5734" stop-color="#5FE4CC"/>
<stop offset="1" stop-color="#0098DB"/>
</linearGradient>
<linearGradient id="paint1_linear_10194_66760" x1="122" y1="151.209" x2="122" y2="32.8352" gradientUnits="userSpaceOnUse">
<stop stop-color="#ABFFE0"/>
<stop offset="1" stop-color="#36B9DA"/>
</linearGradient>
<linearGradient id="paint2_linear_10194_66760" x1="104.833" y1="156.236" x2="104.833" y2="91.7615" gradientUnits="userSpaceOnUse">
<stop stop-color="#61ECD8"/>
<stop offset="1" stop-color="#249ED7"/>
</linearGradient>
<linearGradient id="paint3_linear_10194_66760" x1="122" y1="340.71" x2="122" y2="152.981" gradientUnits="userSpaceOnUse">
<stop stop-color="#FFB84B"/>
<stop offset="1" stop-color="#FFDE48"/>
</linearGradient>
<linearGradient id="paint4_linear_10194_66760" x1="216.459" y1="156.756" x2="216.459" y2="115.145" gradientUnits="userSpaceOnUse">
<stop stop-color="#BBCAC2"/>
<stop offset="1" stop-color="#63B3E0"/>
</linearGradient>
<linearGradient id="paint5_linear_10194_66760" x1="217.135" y1="156.722" x2="217.135" y2="115.145" gradientUnits="userSpaceOnUse">
<stop stop-color="#667281"/>
<stop offset="1" stop-color="#574B7E"/>
</linearGradient>
<linearGradient id="paint6_linear_10194_66760" x1="217.27" y1="117.414" x2="217.27" y2="114.991" gradientUnits="userSpaceOnUse">
<stop stop-color="#BBCAC2"/>
<stop offset="1" stop-color="#63B3E0"/>
</linearGradient>
<linearGradient id="paint7_linear_10194_66760" x1="221.055" y1="116.781" x2="221.055" y2="114.991" gradientUnits="userSpaceOnUse">
<stop stop-color="#667281"/>
<stop offset="1" stop-color="#574B7E"/>
</linearGradient>
<linearGradient id="paint8_linear_10194_66760" x1="-309.498" y1="246.845" x2="340.905" y2="246.845" gradientUnits="userSpaceOnUse">
<stop stop-color="#454A5B"/>
<stop offset="1" stop-color="#774F4F"/>
</linearGradient>
<linearGradient id="paint9_linear_10194_66760" x1="93.2423" y1="340.709" x2="93.2423" y2="153.007" gradientUnits="userSpaceOnUse">
<stop stop-color="#FFB848"/>
<stop offset="0.996" stop-color="#A44F2E"/>
</linearGradient>
<linearGradient id="paint10_linear_10194_66760" x1="65.1547" y1="340.71" x2="65.1547" y2="152.981" gradientUnits="userSpaceOnUse">
<stop stop-color="#FFB848"/>
<stop offset="0.996" stop-color="#A44F2E"/>
</linearGradient>
<linearGradient id="paint11_linear_10194_66760" x1="278.085" y1="340.707" x2="278.085" y2="153.138" gradientUnits="userSpaceOnUse">
<stop stop-color="#EDBDAE"/>
<stop offset="1" stop-color="#CCB2BB"/>
</linearGradient>
<linearGradient id="paint12_linear_10194_66760" x1="-49.5825" y1="285.673" x2="-49.5825" y2="153.007" gradientUnits="userSpaceOnUse">
<stop stop-color="#EDBDAE"/>
<stop offset="1" stop-color="#CCB2BB"/>
</linearGradient>
<linearGradient id="paint13_linear_10194_66760" x1="-134.784" y1="153.074" x2="-134.784" y2="99.9693" gradientUnits="userSpaceOnUse">
<stop stop-color="#FFB848"/>
<stop offset="0.996" stop-color="#F78F2E"/>
</linearGradient>
<linearGradient id="paint14_linear_10194_66760" x1="122.573" y1="153.556" x2="122.573" y2="137.409" gradientUnits="userSpaceOnUse">
<stop stop-color="#FFB848"/>
<stop offset="0.996" stop-color="#F78F2E"/>
</linearGradient>
<linearGradient id="paint15_linear_10194_66760" x1="118.521" y1="152.825" x2="118.521" y2="137.409" gradientUnits="userSpaceOnUse">
<stop stop-color="#517CFD"/>
<stop offset="1" stop-color="#65FFFF"/>
</linearGradient>
<linearGradient id="paint16_linear_10194_66760" x1="-120.38" y1="152.021" x2="-120.38" y2="99.9693" gradientUnits="userSpaceOnUse">
<stop stop-color="#517CFD"/>
<stop offset="1" stop-color="#65FFFF"/>
</linearGradient>
<linearGradient id="paint17_linear_10194_66760" x1="-69.5422" y1="170.681" x2="-69.5422" y2="154.584" gradientUnits="userSpaceOnUse">
<stop stop-color="#FF8122"/>
<stop offset="0.996" stop-color="#CF6448"/>
</linearGradient>
<linearGradient id="paint18_linear_10194_66760" x1="-168.587" y1="162.105" x2="29.0465" y2="162.105" gradientUnits="userSpaceOnUse">
<stop stop-color="#517CFD"/>
<stop offset="1" stop-color="#65FFFF"/>
</linearGradient>
<linearGradient id="paint19_linear_10194_66760" x1="-73.1396" y1="272.102" x2="-73.1408" y2="157.515" gradientUnits="userSpaceOnUse">
<stop offset="0.004" stop-color="#BA4A25"/>
<stop offset="1" stop-color="#DB9B11"/>
</linearGradient>
<linearGradient id="paint20_linear_10194_66760" x1="298.789" y1="340.708" x2="298.789" y2="154.728" gradientUnits="userSpaceOnUse">
<stop offset="0.004" stop-color="#BA4A25"/>
<stop offset="1" stop-color="#DB9B11"/>
</linearGradient>
<linearGradient id="paint21_linear_10194_66760" x1="409.508" y1="191.54" x2="409.508" y2="161.427" gradientUnits="userSpaceOnUse">
<stop stop-color="#FF8122"/>
<stop offset="0.996" stop-color="#CF6448"/>
</linearGradient>
<linearGradient id="paint22_linear_10194_66760" x1="295.339" y1="176.484" x2="521.948" y2="176.484" gradientUnits="userSpaceOnUse">
<stop stop-color="#517CFD"/>
<stop offset="1" stop-color="#65FFFF"/>
</linearGradient>
<linearGradient id="paint23_linear_10194_66760" x1="320.637" y1="253.719" x2="311.304" y2="131.434" gradientUnits="userSpaceOnUse">
<stop stop-color="#667281"/>
<stop offset="1" stop-color="#574B7E"/>
</linearGradient>
<linearGradient id="paint24_linear_10194_66760" x1="316.6" y1="137.606" x2="313.697" y2="87.6373" gradientUnits="userSpaceOnUse">
<stop stop-color="#750079"/>
<stop offset="1" stop-color="#EB424C"/>
</linearGradient>
<linearGradient id="paint25_linear_10194_66760" x1="315.119" y1="137.697" x2="312.217" y2="87.7441" gradientUnits="userSpaceOnUse">
<stop stop-color="#E92200"/>
<stop offset="1" stop-color="#FF9200"/>
</linearGradient>
<linearGradient id="paint26_linear_10194_66760" x1="314.488" y1="135.307" x2="312.182" y2="95.6225" gradientUnits="userSpaceOnUse">
<stop stop-color="#E8F7FC"/>
<stop offset="1" stop-color="white"/>
</linearGradient>
<linearGradient id="paint27_linear_10194_66760" x1="124.57" y1="165.934" x2="124.57" y2="50.7687" gradientUnits="userSpaceOnUse">
<stop stop-color="#BBCAC2"/>
<stop offset="1" stop-color="#63B3E0"/>
</linearGradient>
<linearGradient id="paint28_linear_10194_66760" x1="126.44" y1="165.838" x2="126.44" y2="50.7687" gradientUnits="userSpaceOnUse">
<stop stop-color="#667281"/>
<stop offset="1" stop-color="#574B7E"/>
</linearGradient>
<linearGradient id="paint29_linear_10194_66760" x1="126.815" y1="57.0428" x2="126.815" y2="50.3371" gradientUnits="userSpaceOnUse">
<stop stop-color="#BBCAC2"/>
<stop offset="1" stop-color="#63B3E0"/>
</linearGradient>
<linearGradient id="paint30_linear_10194_66760" x1="137.289" y1="55.2931" x2="137.289" y2="50.3371" gradientUnits="userSpaceOnUse">
<stop stop-color="#667281"/>
<stop offset="1" stop-color="#574B7E"/>
</linearGradient>
<linearGradient id="paint31_linear_10194_66760" x1="191.935" y1="154.728" x2="191.935" y2="90.0301" gradientUnits="userSpaceOnUse">
<stop stop-color="#BBCAC2"/>
<stop offset="1" stop-color="#63B3E0"/>
</linearGradient>
<linearGradient id="paint32_linear_10194_66760" x1="192.987" y1="154.674" x2="192.987" y2="90.0301" gradientUnits="userSpaceOnUse">
<stop stop-color="#667281"/>
<stop offset="1" stop-color="#574B7E"/>
</linearGradient>
<linearGradient id="paint33_linear_10194_66760" x1="193.197" y1="93.5548" x2="193.197" y2="89.7877" gradientUnits="userSpaceOnUse">
<stop stop-color="#BBCAC2"/>
<stop offset="1" stop-color="#63B3E0"/>
</linearGradient>
<linearGradient id="paint34_linear_10194_66760" x1="199.081" y1="92.5718" x2="199.081" y2="89.7877" gradientUnits="userSpaceOnUse">
<stop stop-color="#667281"/>
<stop offset="1" stop-color="#574B7E"/>
</linearGradient>
<linearGradient id="paint35_linear_10194_66760" x1="133.784" y1="61.6057" x2="133.784" y2="59.1699" gradientUnits="userSpaceOnUse">
<stop stop-color="#667281"/>
<stop offset="1" stop-color="#574B7E"/>
</linearGradient>
<linearGradient id="paint36_linear_10194_66760" x1="127.922" y1="61.159" x2="141.822" y2="61.159" gradientUnits="userSpaceOnUse">
<stop stop-color="#D1D6CF"/>
<stop offset="1" stop-color="#A4D2ED"/>
</linearGradient>
<linearGradient id="paint37_linear_10194_66760" x1="126.987" y1="64.3466" x2="126.987" y2="61.6045" gradientUnits="userSpaceOnUse">
<stop stop-color="#667281"/>
<stop offset="1" stop-color="#574B7E"/>
</linearGradient>
<linearGradient id="paint38_linear_10194_66760" x1="197.128" y1="95.7669" x2="197.128" y2="94.3938" gradientUnits="userSpaceOnUse">
<stop stop-color="#667281"/>
<stop offset="1" stop-color="#574B7E"/>
</linearGradient>
<linearGradient id="paint39_linear_10194_66760" x1="193.823" y1="95.5149" x2="201.66" y2="95.5149" gradientUnits="userSpaceOnUse">
<stop stop-color="#D1D6CF"/>
<stop offset="1" stop-color="#A4D2ED"/>
</linearGradient>
<linearGradient id="paint40_linear_10194_66760" x1="193.297" y1="97.3114" x2="193.297" y2="95.7655" gradientUnits="userSpaceOnUse">
<stop stop-color="#667281"/>
<stop offset="1" stop-color="#574B7E"/>
</linearGradient>
<linearGradient id="paint41_linear_10194_66760" x1="219.608" y1="118.266" x2="219.608" y2="117.44" gradientUnits="userSpaceOnUse">
<stop stop-color="#667281"/>
<stop offset="1" stop-color="#574B7E"/>
</linearGradient>
<linearGradient id="paint42_linear_10194_66760" x1="217.618" y1="118.115" x2="222.336" y2="118.115" gradientUnits="userSpaceOnUse">
<stop stop-color="#D1D6CF"/>
<stop offset="1" stop-color="#A4D2ED"/>
</linearGradient>
<linearGradient id="paint43_linear_10194_66760" x1="217.3" y1="119.199" x2="217.3" y2="118.269" gradientUnits="userSpaceOnUse">
<stop stop-color="#667281"/>
<stop offset="1" stop-color="#574B7E"/>
</linearGradient>
<linearGradient id="paint44_linear_10194_66760" x1="270.544" y1="172.919" x2="294.461" y2="172.919" gradientUnits="userSpaceOnUse">
<stop stop-color="#BA4A11"/>
<stop offset="0.996" stop-color="#9C1C25"/>
</linearGradient>
<linearGradient id="paint45_linear_10194_66760" x1="203.505" y1="182.397" x2="201.808" y2="167.275" gradientUnits="userSpaceOnUse">
<stop stop-color="#1E1E3B"/>
<stop offset="0.996" stop-color="#291D51"/>
</linearGradient>
<linearGradient id="paint46_linear_10194_66760" x1="240.111" y1="182.365" x2="241.801" y2="167.308" gradientUnits="userSpaceOnUse">
<stop stop-color="#1E1E3B"/>
<stop offset="0.996" stop-color="#291D51"/>
</linearGradient>
<linearGradient id="paint47_linear_10194_66760" x1="219.752" y1="168.348" x2="221.72" y2="150.807" gradientUnits="userSpaceOnUse">
<stop stop-color="#1E1E3B"/>
<stop offset="0.996" stop-color="#291D51"/>
</linearGradient>
<linearGradient id="paint48_linear_10194_66760" x1="215.623" y1="158.473" x2="225.85" y2="158.473" gradientUnits="userSpaceOnUse">
<stop stop-color="#1E1E3B"/>
<stop offset="0.996" stop-color="#291D51"/>
</linearGradient>
<clipPath id="clip0_10194_66760">
<rect width="854" height="569.333" fill="white" transform="translate(-305 -228.627)"/>
</clipPath>
</defs>
</svg>
